<svg width="250" height="250" viewBox="0 0 250 250" fill="none" xmlns="http://www.w3.org/2000/svg">
<rect width="250" height="250" rx="125" fill="#231F20"/>
<path d="M141.35 72.8V75.8C137.95 75.9 135.35 76.3 133.55 77C131.85 77.6 130.7 78.8 130.1 80.6C129.5 82.3 129.2 85 129.2 88.7V163.1C129.2 166.7 129.5 169.4 130.1 171.2C130.7 173 131.85 174.2 133.55 174.8C135.35 175.4 137.95 175.8 141.35 176V179C139.05 178.8 136.15 178.7 132.65 178.7C129.25 178.6 125.8 178.55 122.3 178.55C118.4 178.55 114.75 178.6 111.35 178.7C107.95 178.7 105.2 178.8 103.1 179V176C106.5 175.8 109.05 175.4 110.75 174.8C112.55 174.2 113.75 173 114.35 171.2C114.95 169.4 115.25 166.7 115.25 163.1V80.6L115.85 81.05L79.1 179.75H76.7L38.9 82.4V161.6C38.9 165.2 39.2 168.05 39.8 170.15C40.5 172.15 41.8 173.6 43.7 174.5C45.7 175.3 48.65 175.8 52.55 176V179C50.75 178.8 48.4 178.7 45.5 178.7C42.6 178.6 39.85 178.55 37.25 178.55C34.75 178.55 32.2 178.6 29.6 178.7C27.1 178.7 25 178.8 23.3 179V176C26.7 175.8 29.25 175.3 30.95 174.5C32.75 173.6 33.95 172.15 34.55 170.15C35.15 168.05 35.45 165.2 35.45 161.6V88.7C35.45 85 35.15 82.3 34.55 80.6C33.95 78.8 32.75 77.6 30.95 77C29.25 76.3 26.7 75.9 23.3 75.8V72.8C25 72.9 27.1 73 29.6 73.1C32.2 73.2 34.75 73.25 37.25 73.25C39.45 73.25 41.7 73.2 44 73.1C46.4 73 48.4 72.9 50 72.8L84.05 162.5L81.5 163.7L115.25 73.25C116.45 73.25 117.6 73.25 118.7 73.25C119.9 73.25 121.1 73.25 122.3 73.25C125.8 73.25 129.25 73.2 132.65 73.1C136.15 73 139.05 72.9 141.35 72.8ZM153.964 72.8C156.064 72.9 158.814 73 162.214 73.1C165.614 73.2 168.964 73.25 172.264 73.25C176.964 73.25 181.464 73.2 185.764 73.1C190.064 73 193.114 72.95 194.914 72.95C205.414 72.95 213.314 75.15 218.614 79.55C223.914 83.95 226.564 89.6 226.564 96.5C226.564 100 225.814 103.45 224.314 106.85C222.914 110.15 220.514 113.2 217.114 116C213.814 118.7 209.364 120.9 203.764 122.6V122.9C211.664 123.9 217.814 125.8 222.214 128.6C226.714 131.3 229.864 134.5 231.664 138.2C233.464 141.9 234.364 145.8 234.364 149.9C234.364 155.6 232.914 160.65 230.014 165.05C227.214 169.35 223.114 172.75 217.714 175.25C212.314 177.75 205.864 179 198.364 179C196.164 179 192.864 178.95 188.464 178.85C184.064 178.65 178.764 178.55 172.564 178.55C169.064 178.55 165.614 178.6 162.214 178.7C158.814 178.7 156.064 178.8 153.964 179V176C157.364 175.8 159.914 175.4 161.614 174.8C163.414 174.2 164.614 173 165.214 171.2C165.814 169.4 166.114 166.7 166.114 163.1V88.7C166.114 85 165.814 82.3 165.214 80.6C164.614 78.8 163.414 77.6 161.614 77C159.914 76.3 157.364 75.9 153.964 75.8V72.8ZM191.164 75.8C186.564 75.8 183.564 76.65 182.164 78.35C180.764 80.05 180.064 83.5 180.064 88.7V163.1C180.064 166.6 180.364 169.25 180.964 171.05C181.564 172.85 182.664 174.05 184.264 174.65C185.864 175.25 188.214 175.55 191.314 175.55C201.114 175.55 208.214 173.3 212.614 168.8C217.114 164.2 219.364 157.7 219.364 149.3C219.364 141.6 217.264 135.65 213.064 131.45C208.964 127.25 202.164 125.15 192.664 125.15H177.214C177.214 125.15 177.214 124.75 177.214 123.95C177.214 123.05 177.214 122.6 177.214 122.6H190.114C196.014 122.6 200.564 121.5 203.764 119.3C206.964 117 209.164 114 210.364 110.3C211.564 106.5 212.164 102.45 212.164 98.15C212.164 90.75 210.514 85.2 207.214 81.5C204.014 77.7 198.664 75.8 191.164 75.8Z" fill="#F9F4DA"/>
<rect width="250" height="30" transform="translate(0 115)" fill="#231F20"/>
<path d="M55.58 122.84V123.24C55.1267 123.253 54.78 123.307 54.54 123.4C54.3133 123.48 54.16 123.64 54.08 123.88C54 124.107 53.96 124.467 53.96 124.96V134.88C53.96 135.36 54 135.72 54.08 135.96C54.16 136.2 54.3133 136.36 54.54 136.44C54.78 136.52 55.1267 136.573 55.58 136.6V137C55.2733 136.973 54.8867 136.96 54.42 136.96C53.9667 136.947 53.5067 136.94 53.04 136.94C52.52 136.94 52.0333 136.947 51.58 136.96C51.1267 136.96 50.76 136.973 50.48 137V136.6C50.9333 136.573 51.2733 136.52 51.5 136.44C51.74 136.36 51.9 136.2 51.98 135.96C52.06 135.72 52.1 135.36 52.1 134.88V123.88L52.18 123.94L47.28 137.1H46.96L41.92 124.12V134.68C41.92 135.16 41.96 135.54 42.04 135.82C42.1333 136.087 42.3067 136.28 42.56 136.4C42.8267 136.507 43.22 136.573 43.74 136.6V137C43.5 136.973 43.1867 136.96 42.8 136.96C42.4133 136.947 42.0467 136.94 41.7 136.94C41.3667 136.94 41.0267 136.947 40.68 136.96C40.3467 136.96 40.0667 136.973 39.84 137V136.6C40.2933 136.573 40.6333 136.507 40.86 136.4C41.1 136.28 41.26 136.087 41.34 135.82C41.42 135.54 41.46 135.16 41.46 134.68V124.96C41.46 124.467 41.42 124.107 41.34 123.88C41.26 123.64 41.1 123.48 40.86 123.4C40.6333 123.307 40.2933 123.253 39.84 123.24V122.84C40.0667 122.853 40.3467 122.867 40.68 122.88C41.0267 122.893 41.3667 122.9 41.7 122.9C41.9933 122.9 42.2933 122.893 42.6 122.88C42.92 122.867 43.1867 122.853 43.4 122.84L47.94 134.8L47.6 134.96L52.1 122.9C52.26 122.9 52.4133 122.9 52.56 122.9C52.72 122.9 52.88 122.9 53.04 122.9C53.5067 122.9 53.9667 122.893 54.42 122.88C54.8867 122.867 55.2733 122.853 55.58 122.84ZM63.9619 122.84V123.24C63.5085 123.253 63.1619 123.307 62.9219 123.4C62.6952 123.48 62.5419 123.64 62.4619 123.88C62.3819 124.107 62.3419 124.467 62.3419 124.96V134.88C62.3419 135.36 62.3819 135.72 62.4619 135.96C62.5419 136.2 62.6952 136.36 62.9219 136.44C63.1619 136.52 63.5085 136.573 63.9619 136.6V137C63.6552 136.973 63.2685 136.96 62.8019 136.96C62.3485 136.947 61.8885 136.94 61.4219 136.94C60.9019 136.94 60.4152 136.947 59.9619 136.96C59.5085 136.96 59.1419 136.973 58.8619 137V136.6C59.3152 136.573 59.6552 136.52 59.8819 136.44C60.1219 136.36 60.2819 136.2 60.3619 135.96C60.4419 135.72 60.4819 135.36 60.4819 134.88V124.96C60.4819 124.467 60.4419 124.107 60.3619 123.88C60.2819 123.64 60.1219 123.48 59.8819 123.4C59.6552 123.307 59.3152 123.253 58.8619 123.24V122.84C59.1419 122.853 59.5085 122.867 59.9619 122.88C60.4152 122.893 60.9019 122.9 61.4219 122.9C61.8885 122.9 62.3485 122.893 62.8019 122.88C63.2685 122.867 63.6552 122.853 63.9619 122.84ZM67.2392 122.84C67.5192 122.853 67.8859 122.867 68.3392 122.88C68.7926 122.893 69.2392 122.9 69.6792 122.9C70.3059 122.9 70.9059 122.893 71.4792 122.88C72.0526 122.867 72.4592 122.86 72.6992 122.86C73.7792 122.86 74.6726 123.013 75.3792 123.32C76.0992 123.627 76.6326 124.047 76.9792 124.58C77.3392 125.1 77.5192 125.687 77.5192 126.34C77.5192 126.74 77.4392 127.167 77.2792 127.62C77.1192 128.073 76.8392 128.5 76.4392 128.9C76.0526 129.3 75.5192 129.633 74.8392 129.9C74.1592 130.153 73.2992 130.28 72.2592 130.28H70.3392V129.88H72.0592C73.0059 129.88 73.7259 129.733 74.2192 129.44C74.7259 129.133 75.0659 128.733 75.2392 128.24C75.4259 127.733 75.5192 127.173 75.5192 126.56C75.5192 125.507 75.2659 124.693 74.7592 124.12C74.2659 123.533 73.4126 123.24 72.1992 123.24C71.5859 123.24 71.1859 123.353 70.9992 123.58C70.8126 123.807 70.7192 124.267 70.7192 124.96V134.88C70.7192 135.36 70.7592 135.72 70.8392 135.96C70.9192 136.2 71.0726 136.36 71.2992 136.44C71.5392 136.52 71.8859 136.573 72.3392 136.6V137C72.0326 136.973 71.6459 136.96 71.1792 136.96C70.7259 136.947 70.2659 136.94 69.7992 136.94C69.2792 136.94 68.7926 136.947 68.3392 136.96C67.8859 136.96 67.5192 136.973 67.2392 137V136.6C67.6926 136.573 68.0326 136.52 68.2592 136.44C68.4992 136.36 68.6592 136.2 68.7392 135.96C68.8192 135.72 68.8592 135.36 68.8592 134.88V124.96C68.8592 124.467 68.8192 124.107 68.7392 123.88C68.6592 123.64 68.4992 123.48 68.2592 123.4C68.0326 123.307 67.6926 123.253 67.2392 123.24V122.84ZM70.4192 129.94C71.1392 129.967 71.7059 130 72.1192 130.04C72.5326 130.067 72.8659 130.093 73.1192 130.12C73.3859 130.147 73.6392 130.18 73.8792 130.22C74.7726 130.367 75.4126 130.64 75.7992 131.04C76.1992 131.427 76.4926 132.033 76.6792 132.86L77.1792 134.9C77.3126 135.487 77.4459 135.913 77.5792 136.18C77.7259 136.433 77.9459 136.553 78.2392 136.54C78.4659 136.527 78.6526 136.453 78.7992 136.32C78.9592 136.187 79.1259 136.007 79.2992 135.78L79.5992 136C79.3192 136.413 79.0259 136.733 78.7192 136.96C78.4259 137.173 78.0059 137.28 77.4592 137.28C76.9659 137.28 76.5326 137.133 76.1592 136.84C75.7859 136.547 75.5059 135.973 75.3192 135.12L74.8792 133.12C74.7592 132.547 74.6192 132.053 74.4592 131.64C74.3126 131.213 74.0992 130.88 73.8192 130.64C73.5526 130.4 73.1526 130.28 72.6192 130.28H70.4592L70.4192 129.94ZM87.428 122.74L92.308 135.32C92.508 135.827 92.7346 136.167 92.988 136.34C93.2413 136.5 93.4746 136.587 93.688 136.6V137C93.4213 136.973 93.0946 136.96 92.708 136.96C92.3213 136.947 91.9346 136.94 91.548 136.94C91.028 136.94 90.5413 136.947 90.088 136.96C89.6346 136.96 89.268 136.973 88.988 137V136.6C89.668 136.573 90.1013 136.46 90.288 136.26C90.4746 136.047 90.4346 135.6 90.168 134.92L86.448 124.98L86.768 124.72L83.288 133.76C83.0746 134.293 82.948 134.747 82.908 135.12C82.868 135.48 82.9013 135.767 83.008 135.98C83.128 136.193 83.3213 136.347 83.588 136.44C83.868 136.533 84.2146 136.587 84.628 136.6V137C84.2546 136.973 83.8613 136.96 83.448 136.96C83.048 136.947 82.6746 136.94 82.328 136.94C81.9946 136.94 81.708 136.947 81.468 136.96C81.2413 136.96 81.028 136.973 80.828 137V136.6C81.0946 136.533 81.368 136.38 81.648 136.14C81.928 135.887 82.1813 135.46 82.408 134.86L87.108 122.74C87.1613 122.74 87.2146 122.74 87.268 122.74C87.3213 122.74 87.3746 122.74 87.428 122.74ZM89.868 131.24V131.64H83.908L84.108 131.24H89.868ZM102.39 122.56C103.27 122.56 103.99 122.693 104.55 122.96C105.124 123.213 105.63 123.513 106.07 123.86C106.337 124.06 106.537 124.087 106.67 123.94C106.817 123.78 106.917 123.413 106.97 122.84H107.43C107.404 123.333 107.384 123.933 107.37 124.64C107.357 125.347 107.35 126.28 107.35 127.44H106.89C106.797 126.867 106.71 126.413 106.63 126.08C106.55 125.733 106.45 125.44 106.33 125.2C106.224 124.96 106.077 124.72 105.89 124.48C105.477 123.933 104.957 123.54 104.33 123.3C103.704 123.047 103.044 122.92 102.35 122.92C101.697 122.92 101.104 123.087 100.57 123.42C100.05 123.74 99.597 124.207 99.2103 124.82C98.837 125.433 98.5436 126.173 98.3303 127.04C98.1303 127.907 98.0303 128.88 98.0303 129.96C98.0303 131.08 98.1436 132.073 98.3703 132.94C98.597 133.793 98.9103 134.513 99.3103 135.1C99.7236 135.687 100.204 136.133 100.75 136.44C101.31 136.733 101.91 136.88 102.55 136.88C103.15 136.88 103.777 136.76 104.43 136.52C105.084 136.28 105.597 135.893 105.97 135.36C106.264 134.973 106.464 134.553 106.57 134.1C106.69 133.647 106.797 133.013 106.89 132.2H107.35C107.35 133.413 107.357 134.393 107.37 135.14C107.384 135.873 107.404 136.493 107.43 137H106.97C106.917 136.427 106.824 136.067 106.69 135.92C106.57 135.773 106.364 135.793 106.07 135.98C105.577 136.327 105.05 136.633 104.49 136.9C103.944 137.153 103.237 137.28 102.37 137.28C101.104 137.28 99.9903 136.993 99.0303 136.42C98.0836 135.847 97.3436 135.02 96.8103 133.94C96.2903 132.86 96.0303 131.56 96.0303 130.04C96.0303 128.547 96.3036 127.24 96.8503 126.12C97.397 125 98.1436 124.127 99.0903 123.5C100.05 122.873 101.15 122.56 102.39 122.56ZM116.28 122.84V123.24C115.827 123.253 115.48 123.307 115.24 123.4C115.013 123.48 114.86 123.64 114.78 123.88C114.7 124.107 114.66 124.467 114.66 124.96V134.88C114.66 135.36 114.7 135.72 114.78 135.96C114.86 136.2 115.013 136.36 115.24 136.44C115.48 136.507 115.827 136.54 116.28 136.54H117.74C118.367 136.54 118.873 136.473 119.26 136.34C119.66 136.207 119.973 136 120.2 135.72C120.44 135.427 120.62 135.04 120.74 134.56C120.86 134.08 120.953 133.493 121.02 132.8H121.48C121.44 133.213 121.42 133.76 121.42 134.44C121.42 134.693 121.427 135.06 121.44 135.54C121.467 136.007 121.507 136.493 121.56 137C120.88 136.973 120.113 136.96 119.26 136.96C118.407 136.947 117.647 136.94 116.98 136.94C116.687 136.94 116.307 136.94 115.84 136.94C115.387 136.94 114.893 136.947 114.36 136.96C113.827 136.96 113.287 136.967 112.74 136.98C112.193 136.98 111.673 136.987 111.18 137V136.6C111.633 136.573 111.973 136.52 112.2 136.44C112.44 136.36 112.6 136.2 112.68 135.96C112.76 135.72 112.8 135.36 112.8 134.88V124.96C112.8 124.467 112.76 124.107 112.68 123.88C112.6 123.64 112.44 123.48 112.2 123.4C111.973 123.307 111.633 123.253 111.18 123.24V122.84C111.46 122.853 111.827 122.867 112.28 122.88C112.733 122.893 113.22 122.9 113.74 122.9C114.207 122.9 114.667 122.893 115.12 122.88C115.587 122.867 115.973 122.853 116.28 122.84ZM134.518 122.84C134.464 123.307 134.424 123.76 134.398 124.2C134.384 124.64 134.378 124.973 134.378 125.2C134.378 125.44 134.384 125.673 134.398 125.9C134.411 126.113 134.424 126.293 134.438 126.44H133.978C133.898 125.653 133.784 125.033 133.638 124.58C133.491 124.113 133.238 123.787 132.878 123.6C132.531 123.4 132.004 123.3 131.298 123.3H129.638C129.184 123.3 128.838 123.34 128.598 123.42C128.371 123.487 128.218 123.64 128.138 123.88C128.058 124.107 128.018 124.467 128.018 124.96V134.88C128.018 135.36 128.058 135.72 128.138 135.96C128.218 136.2 128.371 136.36 128.598 136.44C128.838 136.507 129.184 136.54 129.638 136.54H131.098C131.938 136.54 132.571 136.427 132.998 136.2C133.438 135.973 133.751 135.607 133.938 135.1C134.138 134.58 134.284 133.88 134.378 133H134.838C134.798 133.36 134.778 133.84 134.778 134.44C134.778 134.693 134.784 135.06 134.798 135.54C134.824 136.007 134.864 136.493 134.918 137C134.238 136.973 133.471 136.96 132.618 136.96C131.764 136.947 131.004 136.94 130.338 136.94C130.044 136.94 129.664 136.94 129.198 136.94C128.744 136.94 128.251 136.947 127.718 136.96C127.184 136.96 126.644 136.967 126.098 136.98C125.551 136.98 125.031 136.987 124.538 137V136.6C124.991 136.573 125.331 136.52 125.558 136.44C125.798 136.36 125.958 136.2 126.038 135.96C126.118 135.72 126.158 135.36 126.158 134.88V124.96C126.158 124.467 126.118 124.107 126.038 123.88C125.958 123.64 125.798 123.48 125.558 123.4C125.331 123.307 124.991 123.253 124.538 123.24V122.84C125.031 122.853 125.551 122.867 126.098 122.88C126.644 122.88 127.184 122.887 127.718 122.9C128.251 122.9 128.744 122.9 129.198 122.9C129.664 122.9 130.044 122.9 130.338 122.9C130.951 122.9 131.644 122.9 132.418 122.9C133.204 122.887 133.904 122.867 134.518 122.84ZM131.078 129.68C131.078 129.68 131.078 129.747 131.078 129.88C131.078 130.013 131.078 130.08 131.078 130.08H127.418C127.418 130.08 127.418 130.013 127.418 129.88C127.418 129.747 127.418 129.68 127.418 129.68H131.078ZM131.658 127.04C131.604 127.8 131.578 128.38 131.578 128.78C131.591 129.18 131.598 129.547 131.598 129.88C131.598 130.213 131.604 130.58 131.618 130.98C131.631 131.38 131.664 131.96 131.718 132.72H131.258C131.204 132.293 131.138 131.88 131.058 131.48C130.991 131.067 130.831 130.733 130.578 130.48C130.338 130.213 129.924 130.08 129.338 130.08V129.68C129.778 129.68 130.111 129.593 130.338 129.42C130.578 129.233 130.751 129 130.858 128.72C130.964 128.44 131.038 128.153 131.078 127.86C131.118 127.553 131.158 127.28 131.198 127.04H131.658ZM144.906 122.84C145.186 122.853 145.552 122.867 146.006 122.88C146.459 122.893 146.906 122.9 147.346 122.9C147.972 122.9 148.572 122.893 149.146 122.88C149.719 122.867 150.126 122.86 150.366 122.86C151.766 122.86 152.819 123.153 153.526 123.74C154.232 124.327 154.586 125.08 154.586 126C154.586 126.467 154.486 126.927 154.286 127.38C154.099 127.82 153.779 128.227 153.326 128.6C152.886 128.96 152.292 129.253 151.546 129.48V129.52C152.599 129.653 153.419 129.907 154.006 130.28C154.606 130.64 155.026 131.067 155.266 131.56C155.506 132.053 155.626 132.573 155.626 133.12C155.626 133.88 155.432 134.553 155.046 135.14C154.672 135.713 154.126 136.167 153.406 136.5C152.686 136.833 151.826 137 150.826 137C150.532 137 150.092 136.993 149.506 136.98C148.919 136.953 148.212 136.94 147.386 136.94C146.919 136.94 146.459 136.947 146.006 136.96C145.552 136.96 145.186 136.973 144.906 137V136.6C145.359 136.573 145.699 136.52 145.926 136.44C146.166 136.36 146.326 136.2 146.406 135.96C146.486 135.72 146.526 135.36 146.526 134.88V124.96C146.526 124.467 146.486 124.107 146.406 123.88C146.326 123.64 146.166 123.48 145.926 123.4C145.699 123.307 145.359 123.253 144.906 123.24V122.84ZM149.866 123.24C149.252 123.24 148.852 123.353 148.666 123.58C148.479 123.807 148.386 124.267 148.386 124.96V134.88C148.386 135.347 148.426 135.7 148.506 135.94C148.586 136.18 148.732 136.34 148.946 136.42C149.159 136.5 149.472 136.54 149.886 136.54C151.192 136.54 152.139 136.24 152.726 135.64C153.326 135.027 153.626 134.16 153.626 133.04C153.626 132.013 153.346 131.22 152.786 130.66C152.239 130.1 151.332 129.82 150.066 129.82H148.006C148.006 129.82 148.006 129.767 148.006 129.66C148.006 129.54 148.006 129.48 148.006 129.48H149.726C150.512 129.48 151.119 129.333 151.546 129.04C151.972 128.733 152.266 128.333 152.426 127.84C152.586 127.333 152.666 126.793 152.666 126.22C152.666 125.233 152.446 124.493 152.006 124C151.579 123.493 150.866 123.24 149.866 123.24ZM165.547 122.56C166.813 122.56 167.92 122.847 168.867 123.42C169.827 123.993 170.567 124.82 171.087 125.9C171.62 126.967 171.887 128.267 171.887 129.8C171.887 131.293 171.613 132.6 171.067 133.72C170.533 134.84 169.787 135.713 168.827 136.34C167.867 136.967 166.767 137.28 165.527 137.28C164.26 137.28 163.147 136.993 162.187 136.42C161.24 135.847 160.5 135.02 159.967 133.94C159.447 132.86 159.187 131.56 159.187 130.04C159.187 128.547 159.46 127.24 160.007 126.12C160.553 125 161.3 124.127 162.247 123.5C163.207 122.873 164.307 122.56 165.547 122.56ZM165.467 122.92C164.6 122.92 163.847 123.22 163.207 123.82C162.567 124.42 162.067 125.247 161.707 126.3C161.36 127.353 161.187 128.573 161.187 129.96C161.187 131.373 161.38 132.607 161.767 133.66C162.167 134.7 162.7 135.507 163.367 136.08C164.047 136.64 164.793 136.92 165.607 136.92C166.473 136.92 167.227 136.62 167.867 136.02C168.507 135.42 169 134.593 169.347 133.54C169.707 132.473 169.887 131.253 169.887 129.88C169.887 128.453 169.687 127.22 169.287 126.18C168.9 125.14 168.373 124.34 167.707 123.78C167.04 123.207 166.293 122.92 165.467 122.92ZM181.971 122.56C183.237 122.56 184.344 122.847 185.291 123.42C186.251 123.993 186.991 124.82 187.511 125.9C188.044 126.967 188.311 128.267 188.311 129.8C188.311 131.293 188.037 132.6 187.491 133.72C186.957 134.84 186.211 135.713 185.251 136.34C184.291 136.967 183.191 137.28 181.951 137.28C180.684 137.28 179.571 136.993 178.611 136.42C177.664 135.847 176.924 135.02 176.391 133.94C175.871 132.86 175.611 131.56 175.611 130.04C175.611 128.547 175.884 127.24 176.431 126.12C176.977 125 177.724 124.127 178.671 123.5C179.631 122.873 180.731 122.56 181.971 122.56ZM181.891 122.92C181.024 122.92 180.271 123.22 179.631 123.82C178.991 124.42 178.491 125.247 178.131 126.3C177.784 127.353 177.611 128.573 177.611 129.96C177.611 131.373 177.804 132.607 178.191 133.66C178.591 134.7 179.124 135.507 179.791 136.08C180.471 136.64 181.217 136.92 182.031 136.92C182.897 136.92 183.651 136.62 184.291 136.02C184.931 135.42 185.424 134.593 185.771 133.54C186.131 132.473 186.311 131.253 186.311 129.88C186.311 128.453 186.111 127.22 185.711 126.18C185.324 125.14 184.797 124.34 184.131 123.78C183.464 123.207 182.717 122.92 181.891 122.92ZM203.119 122.84V123.24C202.705 123.293 202.305 123.427 201.919 123.64C201.532 123.853 201.145 124.207 200.759 124.7L196.899 129.64L197.339 128.66L202.139 135.38C202.365 135.713 202.612 135.973 202.879 136.16C203.145 136.347 203.485 136.493 203.899 136.6V137C203.579 136.973 203.179 136.96 202.699 136.96C202.232 136.947 201.832 136.94 201.499 136.94C201.272 136.94 200.992 136.947 200.659 136.96C200.339 136.96 199.932 136.973 199.439 137V136.6C199.892 136.573 200.179 136.493 200.299 136.36C200.419 136.227 200.372 136.007 200.159 135.7L197.239 131.3C196.972 130.887 196.732 130.58 196.519 130.38C196.319 130.167 196.105 130.027 195.879 129.96C195.665 129.893 195.392 129.853 195.059 129.84V129.44C195.619 129.427 196.085 129.32 196.459 129.12C196.845 128.907 197.165 128.64 197.419 128.32L199.339 125.88C199.779 125.32 200.079 124.847 200.239 124.46C200.399 124.073 200.392 123.78 200.219 123.58C200.045 123.367 199.679 123.253 199.119 123.24V122.84C199.372 122.853 199.632 122.867 199.899 122.88C200.165 122.88 200.425 122.887 200.679 122.9C200.945 122.9 201.192 122.9 201.419 122.9C201.765 122.9 202.085 122.893 202.379 122.88C202.672 122.867 202.919 122.853 203.119 122.84ZM196.759 122.84V123.24C196.305 123.253 195.959 123.307 195.719 123.4C195.492 123.48 195.339 123.64 195.259 123.88C195.179 124.107 195.139 124.467 195.139 124.96V134.88C195.139 135.36 195.179 135.72 195.259 135.96C195.339 136.2 195.492 136.36 195.719 136.44C195.959 136.52 196.305 136.573 196.759 136.6V137C196.452 136.973 196.065 136.96 195.599 136.96C195.145 136.947 194.685 136.94 194.219 136.94C193.699 136.94 193.212 136.947 192.759 136.96C192.305 136.96 191.939 136.973 191.659 137V136.6C192.112 136.573 192.452 136.52 192.679 136.44C192.919 136.36 193.079 136.2 193.159 135.96C193.239 135.72 193.279 135.36 193.279 134.88V124.96C193.279 124.467 193.239 124.107 193.159 123.88C193.079 123.64 192.919 123.48 192.679 123.4C192.452 123.307 192.112 123.253 191.659 123.24V122.84C191.939 122.853 192.305 122.867 192.759 122.88C193.212 122.893 193.699 122.9 194.219 122.9C194.685 122.9 195.145 122.893 195.599 122.88C196.065 122.867 196.452 122.853 196.759 122.84ZM210.644 122.62C211.311 122.62 211.818 122.7 212.164 122.86C212.511 123.007 212.818 123.173 213.084 123.36C213.244 123.453 213.371 123.527 213.464 123.58C213.571 123.62 213.671 123.64 213.764 123.64C213.898 123.64 213.991 123.567 214.044 123.42C214.111 123.273 214.164 123.053 214.204 122.76H214.664C214.651 122.987 214.631 123.26 214.604 123.58C214.591 123.887 214.578 124.3 214.564 124.82C214.564 125.327 214.564 126 214.564 126.84H214.104C214.064 126.2 213.924 125.587 213.684 125C213.444 124.413 213.091 123.933 212.624 123.56C212.171 123.187 211.571 123 210.824 123C210.118 123 209.531 123.213 209.064 123.64C208.611 124.067 208.384 124.627 208.384 125.32C208.384 125.92 208.538 126.427 208.844 126.84C209.151 127.24 209.558 127.607 210.064 127.94C210.584 128.26 211.144 128.607 211.744 128.98C212.438 129.407 213.051 129.833 213.584 130.26C214.131 130.673 214.558 131.133 214.864 131.64C215.184 132.147 215.344 132.76 215.344 133.48C215.344 134.333 215.151 135.04 214.764 135.6C214.378 136.16 213.864 136.58 213.224 136.86C212.584 137.14 211.878 137.28 211.104 137.28C210.398 137.28 209.838 137.2 209.424 137.04C209.011 136.88 208.658 136.713 208.364 136.54C208.071 136.353 207.844 136.26 207.684 136.26C207.551 136.26 207.451 136.333 207.384 136.48C207.331 136.627 207.284 136.847 207.244 137.14H206.784C206.811 136.86 206.824 136.533 206.824 136.16C206.838 135.773 206.844 135.273 206.844 134.66C206.858 134.047 206.864 133.273 206.864 132.34H207.324C207.378 133.14 207.524 133.887 207.764 134.58C208.018 135.273 208.398 135.833 208.904 136.26C209.424 136.673 210.111 136.88 210.964 136.88C211.404 136.88 211.818 136.793 212.204 136.62C212.604 136.433 212.931 136.147 213.184 135.76C213.438 135.36 213.564 134.847 213.564 134.22C213.564 133.673 213.431 133.2 213.164 132.8C212.911 132.387 212.551 132.007 212.084 131.66C211.618 131.3 211.071 130.933 210.444 130.56C209.818 130.173 209.231 129.78 208.684 129.38C208.138 128.98 207.698 128.52 207.364 128C207.044 127.467 206.884 126.827 206.884 126.08C206.884 125.293 207.058 124.647 207.404 124.14C207.764 123.62 208.231 123.24 208.804 123C209.378 122.747 209.991 122.62 210.644 122.62Z" fill="#F9F4DA"/>
</svg>
