<svg width="200" height="200" viewBox="0 0 200 200" fill="none" xmlns="http://www.w3.org/2000/svg">
<rect width="200" height="200" rx="100" fill="#231F20"/>
<path d="M45.2384 121.25C43.5717 121.25 42.1884 121.017 41.0884 120.55C39.9884 120.067 39.155 119.442 38.5884 118.675C38.0217 117.908 37.7217 117.092 37.6884 116.225C37.6884 116.092 37.7384 115.975 37.8384 115.875C37.955 115.758 38.0884 115.7 38.2384 115.7H41.3884C41.6217 115.7 41.7967 115.742 41.9134 115.825C42.0467 115.908 42.1634 116.017 42.2634 116.15C42.3967 116.4 42.58 116.642 42.8134 116.875C43.0634 117.108 43.38 117.3 43.7634 117.45C44.1634 117.583 44.655 117.65 45.2384 117.65C46.205 117.65 46.93 117.5 47.4134 117.2C47.9134 116.9 48.1634 116.492 48.1634 115.975C48.1634 115.608 48.03 115.308 47.7634 115.075C47.4967 114.825 47.0634 114.608 46.4634 114.425C45.88 114.225 45.0967 114.025 44.1134 113.825C42.8467 113.558 41.7634 113.217 40.8634 112.8C39.98 112.367 39.305 111.808 38.8384 111.125C38.3717 110.425 38.1384 109.558 38.1384 108.525C38.1384 107.508 38.4217 106.6 38.9884 105.8C39.5717 105 40.38 104.375 41.4134 103.925C42.4467 103.475 43.6717 103.25 45.0884 103.25C46.2384 103.25 47.2467 103.4 48.1134 103.7C48.9967 104 49.7384 104.4 50.3384 104.9C50.9384 105.4 51.3884 105.933 51.6884 106.5C52.005 107.05 52.1717 107.592 52.1884 108.125C52.1884 108.258 52.1384 108.383 52.0384 108.5C51.9384 108.6 51.8134 108.65 51.6634 108.65H48.3634C48.18 108.65 48.0217 108.617 47.8884 108.55C47.755 108.483 47.6384 108.375 47.5384 108.225C47.4384 107.858 47.1717 107.542 46.7384 107.275C46.3217 106.992 45.7717 106.85 45.0884 106.85C44.355 106.85 43.78 106.983 43.3634 107.25C42.9634 107.5 42.7634 107.892 42.7634 108.425C42.7634 108.758 42.8717 109.05 43.0884 109.3C43.3217 109.55 43.6967 109.767 44.2134 109.95C44.7467 110.133 45.4717 110.325 46.3884 110.525C47.905 110.808 49.13 111.167 50.0634 111.6C50.9967 112.017 51.68 112.567 52.1134 113.25C52.5467 113.917 52.7634 114.758 52.7634 115.775C52.7634 116.908 52.4384 117.892 51.7884 118.725C51.155 119.542 50.2717 120.167 49.1384 120.6C48.005 121.033 46.705 121.25 45.2384 121.25ZM55.8911 121C55.7078 121 55.5578 120.942 55.4411 120.825C55.3244 120.708 55.2661 120.558 55.2661 120.375V104.125C55.2661 103.942 55.3244 103.792 55.4411 103.675C55.5578 103.558 55.7078 103.5 55.8911 103.5H59.1161C59.2994 103.5 59.4494 103.558 59.5661 103.675C59.6828 103.792 59.7411 103.942 59.7411 104.125V110.15H65.9161V104.125C65.9161 103.942 65.9744 103.792 66.0911 103.675C66.2078 103.558 66.3578 103.5 66.5411 103.5H69.7661C69.9494 103.5 70.0994 103.558 70.2161 103.675C70.3328 103.792 70.3911 103.942 70.3911 104.125V120.375C70.3911 120.558 70.3328 120.708 70.2161 120.825C70.0994 120.942 69.9494 121 69.7661 121H66.5411C66.3578 121 66.2078 120.942 66.0911 120.825C65.9744 120.708 65.9161 120.558 65.9161 120.375V114.15H59.7411V120.375C59.7411 120.558 59.6828 120.708 59.5661 120.825C59.4494 120.942 59.2994 121 59.1161 121H55.8911ZM72.894 121C72.7607 121 72.6357 120.95 72.519 120.85C72.419 120.733 72.369 120.608 72.369 120.475C72.369 120.392 72.3774 120.317 72.394 120.25L78.269 104.2C78.319 104.017 78.419 103.858 78.569 103.725C78.7357 103.575 78.9607 103.5 79.244 103.5H82.944C83.2274 103.5 83.444 103.575 83.594 103.725C83.7607 103.858 83.869 104.017 83.919 104.2L89.769 120.25C89.8024 120.317 89.819 120.392 89.819 120.475C89.819 120.608 89.7607 120.733 89.644 120.85C89.544 120.95 89.419 121 89.269 121H86.194C85.944 121 85.7524 120.942 85.619 120.825C85.5024 120.692 85.4274 120.575 85.394 120.475L84.419 117.925H77.744L76.794 120.475C76.7607 120.575 76.6857 120.692 76.569 120.825C76.4524 120.942 76.2524 121 75.969 121H72.894ZM78.769 114.325H83.419L81.069 107.725L78.769 114.325ZM92.4146 121C92.2312 121 92.0812 120.942 91.9646 120.825C91.8479 120.708 91.7896 120.558 91.7896 120.375V104.125C91.7896 103.942 91.8479 103.792 91.9646 103.675C92.0812 103.558 92.2312 103.5 92.4146 103.5H95.6396C95.8229 103.5 95.9729 103.558 96.0896 103.675C96.2062 103.792 96.2646 103.942 96.2646 104.125V110.15H102.44V104.125C102.44 103.942 102.498 103.792 102.615 103.675C102.731 103.558 102.881 103.5 103.065 103.5H106.29C106.473 103.5 106.623 103.558 106.74 103.675C106.856 103.792 106.915 103.942 106.915 104.125V120.375C106.915 120.558 106.856 120.708 106.74 120.825C106.623 120.942 106.473 121 106.29 121H103.065C102.881 121 102.731 120.942 102.615 120.825C102.498 120.708 102.44 120.558 102.44 120.375V114.15H96.2646V120.375C96.2646 120.558 96.2062 120.708 96.0896 120.825C95.9729 120.942 95.8229 121 95.6396 121H92.4146ZM111.042 121C110.859 121 110.709 120.942 110.592 120.825C110.476 120.708 110.417 120.558 110.417 120.375V104.125C110.417 103.942 110.476 103.792 110.592 103.675C110.709 103.558 110.859 103.5 111.042 103.5H113.692C113.976 103.5 114.176 103.567 114.292 103.7C114.426 103.817 114.509 103.908 114.542 103.975L120.642 113.6V104.125C120.642 103.942 120.701 103.792 120.817 103.675C120.934 103.558 121.084 103.5 121.267 103.5H124.267C124.451 103.5 124.601 103.558 124.717 103.675C124.834 103.792 124.892 103.942 124.892 104.125V120.375C124.892 120.542 124.834 120.692 124.717 120.825C124.601 120.942 124.451 121 124.267 121H121.592C121.326 121 121.126 120.933 120.992 120.8C120.876 120.667 120.801 120.575 120.767 120.525L114.667 111.275V120.375C114.667 120.558 114.609 120.708 114.492 120.825C114.376 120.942 114.226 121 114.042 121H111.042ZM135.711 121.25C134.211 121.25 132.895 121.008 131.761 120.525C130.645 120.025 129.778 119.267 129.161 118.25C128.545 117.217 128.236 115.908 128.236 114.325V104.125C128.236 103.942 128.295 103.792 128.411 103.675C128.528 103.558 128.678 103.5 128.861 103.5H132.086C132.27 103.5 132.42 103.558 132.536 103.675C132.653 103.792 132.711 103.942 132.711 104.125V114.3C132.711 115.383 132.97 116.2 133.486 116.75C134.02 117.283 134.761 117.55 135.711 117.55C136.645 117.55 137.37 117.283 137.886 116.75C138.42 116.2 138.686 115.383 138.686 114.3V104.125C138.686 103.942 138.745 103.792 138.861 103.675C138.995 103.558 139.145 103.5 139.311 103.5H142.561C142.728 103.5 142.87 103.558 142.986 103.675C143.12 103.792 143.186 103.942 143.186 104.125V114.325C143.186 115.908 142.878 117.217 142.261 118.25C141.645 119.267 140.778 120.025 139.661 120.525C138.545 121.008 137.228 121.25 135.711 121.25ZM147.126 121C146.943 121 146.793 120.942 146.676 120.825C146.56 120.708 146.501 120.558 146.501 120.375V104.125C146.501 103.942 146.56 103.792 146.676 103.675C146.793 103.558 146.943 103.5 147.126 103.5H153.926C156.076 103.5 157.768 104 159.001 105C160.251 105.983 160.876 107.383 160.876 109.2C160.876 110.383 160.585 111.383 160.001 112.2C159.435 113.017 158.685 113.633 157.751 114.05L161.201 120.2C161.251 120.3 161.276 120.392 161.276 120.475C161.276 120.608 161.218 120.733 161.101 120.85C161.001 120.95 160.876 121 160.726 121H157.426C157.11 121 156.876 120.925 156.726 120.775C156.576 120.608 156.468 120.458 156.401 120.325L153.551 114.825H150.976V120.375C150.976 120.558 150.918 120.708 150.801 120.825C150.685 120.942 150.535 121 150.351 121H147.126ZM150.976 111.3H153.876C154.66 111.3 155.243 111.108 155.626 110.725C156.026 110.342 156.226 109.817 156.226 109.15C156.226 108.5 156.035 107.975 155.651 107.575C155.285 107.175 154.693 106.975 153.876 106.975H150.976V111.3ZM39.4278 146.25C37.7612 146.25 36.3778 146.017 35.2778 145.55C34.1778 145.067 33.3445 144.442 32.7778 143.675C32.2112 142.908 31.9112 142.092 31.8778 141.225C31.8778 141.092 31.9278 140.975 32.0278 140.875C32.1445 140.758 32.2778 140.7 32.4278 140.7H35.5778C35.8112 140.7 35.9862 140.742 36.1028 140.825C36.2362 140.908 36.3528 141.017 36.4528 141.15C36.5862 141.4 36.7695 141.642 37.0028 141.875C37.2528 142.108 37.5695 142.3 37.9528 142.45C38.3528 142.583 38.8445 142.65 39.4278 142.65C40.3945 142.65 41.1195 142.5 41.6028 142.2C42.1028 141.9 42.3528 141.492 42.3528 140.975C42.3528 140.608 42.2195 140.308 41.9528 140.075C41.6862 139.825 41.2528 139.608 40.6528 139.425C40.0695 139.225 39.2862 139.025 38.3028 138.825C37.0362 138.558 35.9528 138.217 35.0528 137.8C34.1695 137.367 33.4945 136.808 33.0278 136.125C32.5612 135.425 32.3278 134.558 32.3278 133.525C32.3278 132.508 32.6112 131.6 33.1778 130.8C33.7612 130 34.5695 129.375 35.6028 128.925C36.6362 128.475 37.8612 128.25 39.2778 128.25C40.4278 128.25 41.4362 128.4 42.3028 128.7C43.1862 129 43.9278 129.4 44.5278 129.9C45.1278 130.4 45.5778 130.933 45.8778 131.5C46.1945 132.05 46.3612 132.592 46.3778 133.125C46.3778 133.258 46.3278 133.383 46.2278 133.5C46.1278 133.6 46.0028 133.65 45.8528 133.65H42.5528C42.3695 133.65 42.2112 133.617 42.0778 133.55C41.9445 133.483 41.8278 133.375 41.7278 133.225C41.6278 132.858 41.3612 132.542 40.9278 132.275C40.5112 131.992 39.9612 131.85 39.2778 131.85C38.5445 131.85 37.9695 131.983 37.5528 132.25C37.1528 132.5 36.9528 132.892 36.9528 133.425C36.9528 133.758 37.0612 134.05 37.2778 134.3C37.5112 134.55 37.8862 134.767 38.4028 134.95C38.9362 135.133 39.6612 135.325 40.5778 135.525C42.0945 135.808 43.3195 136.167 44.2528 136.6C45.1862 137.017 45.8695 137.567 46.3028 138.25C46.7362 138.917 46.9528 139.758 46.9528 140.775C46.9528 141.908 46.6278 142.892 45.9778 143.725C45.3445 144.542 44.4612 145.167 43.3278 145.6C42.1945 146.033 40.8945 146.25 39.4278 146.25ZM56.6056 146.25C55.0722 146.25 53.7389 146 52.6056 145.5C51.4722 145 50.5889 144.25 49.9556 143.25C49.3222 142.233 48.9722 140.967 48.9056 139.45C48.8889 138.733 48.8806 138.017 48.8806 137.3C48.8806 136.583 48.8889 135.858 48.9056 135.125C48.9722 133.625 49.3222 132.367 49.9556 131.35C50.6056 130.317 51.4972 129.542 52.6306 129.025C53.7639 128.508 55.0889 128.25 56.6056 128.25C58.1056 128.25 59.4222 128.508 60.5556 129.025C61.7056 129.542 62.6056 130.317 63.2556 131.35C63.9056 132.367 64.2556 133.625 64.3056 135.125C64.3389 135.858 64.3556 136.583 64.3556 137.3C64.3556 138.017 64.3389 138.733 64.3056 139.45C64.2389 140.967 63.8889 142.233 63.2556 143.25C62.6222 144.25 61.7389 145 60.6056 145.5C59.4722 146 58.1389 146.25 56.6056 146.25ZM56.6056 142.65C57.4889 142.65 58.2056 142.383 58.7556 141.85C59.3222 141.317 59.6222 140.467 59.6556 139.3C59.6889 138.567 59.7056 137.875 59.7056 137.225C59.7056 136.575 59.6889 135.9 59.6556 135.2C59.6222 134.417 59.4722 133.783 59.2056 133.3C58.9556 132.8 58.6056 132.433 58.1556 132.2C57.7056 131.967 57.1889 131.85 56.6056 131.85C56.0389 131.85 55.5306 131.967 55.0806 132.2C54.6306 132.433 54.2722 132.8 54.0056 133.3C53.7389 133.783 53.5889 134.417 53.5556 135.2C53.5389 135.9 53.5306 136.575 53.5306 137.225C53.5306 137.875 53.5389 138.567 53.5556 139.3C53.6056 140.467 53.9056 141.317 54.4556 141.85C55.0056 142.383 55.7222 142.65 56.6056 142.65ZM67.8784 146C67.6951 146 67.5451 145.942 67.4284 145.825C67.3118 145.708 67.2534 145.558 67.2534 145.375V129.125C67.2534 128.942 67.3118 128.792 67.4284 128.675C67.5451 128.558 67.6951 128.5 67.8784 128.5H79.3534C79.5368 128.5 79.6868 128.558 79.8034 128.675C79.9368 128.792 80.0034 128.942 80.0034 129.125V131.65C80.0034 131.833 79.9368 131.983 79.8034 132.1C79.6868 132.217 79.5368 132.275 79.3534 132.275H71.6534V135.95H78.8534C79.0368 135.95 79.1868 136.017 79.3034 136.15C79.4368 136.267 79.5034 136.417 79.5034 136.6V139.1C79.5034 139.267 79.4368 139.417 79.3034 139.55C79.1868 139.667 79.0368 139.725 78.8534 139.725H71.6534V145.375C71.6534 145.558 71.5951 145.708 71.4784 145.825C71.3618 145.942 71.2118 146 71.0284 146H67.8784ZM87.1581 146C86.9748 146 86.8248 145.942 86.7081 145.825C86.5914 145.708 86.5331 145.558 86.5331 145.375V132.425H82.0831C81.8998 132.425 81.7498 132.367 81.6331 132.25C81.5164 132.117 81.4581 131.967 81.4581 131.8V129.125C81.4581 128.942 81.5164 128.792 81.6331 128.675C81.7498 128.558 81.8998 128.5 82.0831 128.5H95.5331C95.7164 128.5 95.8664 128.558 95.9831 128.675C96.0998 128.792 96.1581 128.942 96.1581 129.125V131.8C96.1581 131.967 96.0998 132.117 95.9831 132.25C95.8664 132.367 95.7164 132.425 95.5331 132.425H91.0831V145.375C91.0831 145.558 91.0248 145.708 90.9081 145.825C90.7914 145.942 90.6414 146 90.4581 146H87.1581ZM101.23 146C100.947 146 100.722 145.917 100.555 145.75C100.389 145.583 100.289 145.392 100.255 145.175L97.5302 129.2C97.5135 129.167 97.5052 129.133 97.5052 129.1C97.5052 129.067 97.5052 129.042 97.5052 129.025C97.5052 128.892 97.5552 128.775 97.6552 128.675C97.7718 128.558 97.8968 128.5 98.0302 128.5H101.13C101.597 128.5 101.855 128.683 101.905 129.05L103.53 138.825L105.33 133.05C105.38 132.917 105.464 132.775 105.58 132.625C105.697 132.458 105.889 132.375 106.155 132.375H107.955C108.239 132.375 108.439 132.458 108.555 132.625C108.672 132.775 108.747 132.917 108.78 133.05L110.58 138.8L112.205 129.05C112.255 128.683 112.514 128.5 112.98 128.5H116.08C116.23 128.5 116.355 128.558 116.455 128.675C116.555 128.775 116.605 128.892 116.605 129.025C116.605 129.042 116.605 129.067 116.605 129.1C116.605 129.133 116.605 129.167 116.605 129.2L113.88 145.175C113.847 145.392 113.747 145.583 113.58 145.75C113.414 145.917 113.189 146 112.905 146H110.53C110.247 146 110.03 145.925 109.88 145.775C109.73 145.625 109.63 145.483 109.58 145.35L107.055 138.2L104.53 145.35C104.48 145.483 104.38 145.625 104.23 145.775C104.097 145.925 103.889 146 103.605 146H101.23ZM117.45 146C117.316 146 117.191 145.95 117.075 145.85C116.975 145.733 116.925 145.608 116.925 145.475C116.925 145.392 116.933 145.317 116.95 145.25L122.825 129.2C122.875 129.017 122.975 128.858 123.125 128.725C123.291 128.575 123.516 128.5 123.8 128.5H127.5C127.783 128.5 128 128.575 128.15 128.725C128.316 128.858 128.425 129.017 128.475 129.2L134.325 145.25C134.358 145.317 134.375 145.392 134.375 145.475C134.375 145.608 134.316 145.733 134.2 145.85C134.1 145.95 133.975 146 133.825 146H130.75C130.5 146 130.308 145.942 130.175 145.825C130.058 145.692 129.983 145.575 129.95 145.475L128.975 142.925H122.3L121.35 145.475C121.316 145.575 121.241 145.692 121.125 145.825C121.008 145.942 120.808 146 120.525 146H117.45ZM123.325 139.325H127.975L125.625 132.725L123.325 139.325ZM136.97 146C136.787 146 136.637 145.942 136.52 145.825C136.404 145.708 136.345 145.558 136.345 145.375V129.125C136.345 128.942 136.404 128.792 136.52 128.675C136.637 128.558 136.787 128.5 136.97 128.5H143.77C145.92 128.5 147.612 129 148.845 130C150.095 130.983 150.72 132.383 150.72 134.2C150.72 135.383 150.429 136.383 149.845 137.2C149.279 138.017 148.529 138.633 147.595 139.05L151.045 145.2C151.095 145.3 151.12 145.392 151.12 145.475C151.12 145.608 151.062 145.733 150.945 145.85C150.845 145.95 150.72 146 150.57 146H147.27C146.954 146 146.72 145.925 146.57 145.775C146.42 145.608 146.312 145.458 146.245 145.325L143.395 139.825H140.82V145.375C140.82 145.558 140.762 145.708 140.645 145.825C140.529 145.942 140.379 146 140.195 146H136.97ZM140.82 136.3H143.72C144.504 136.3 145.087 136.108 145.47 135.725C145.87 135.342 146.07 134.817 146.07 134.15C146.07 133.5 145.879 132.975 145.495 132.575C145.129 132.175 144.537 131.975 143.72 131.975H140.82V136.3ZM154.255 146C154.072 146 153.922 145.942 153.805 145.825C153.689 145.708 153.63 145.558 153.63 145.375V129.125C153.63 128.942 153.689 128.792 153.805 128.675C153.922 128.558 154.072 128.5 154.255 128.5H165.93C166.114 128.5 166.264 128.558 166.38 128.675C166.497 128.792 166.555 128.942 166.555 129.125V131.475C166.555 131.658 166.497 131.808 166.38 131.925C166.264 132.042 166.114 132.1 165.93 132.1H157.955V135.475H165.38C165.564 135.475 165.714 135.542 165.83 135.675C165.947 135.792 166.005 135.942 166.005 136.125V138.3C166.005 138.467 165.947 138.617 165.83 138.75C165.714 138.867 165.564 138.925 165.38 138.925H157.955V142.4H166.13C166.314 142.4 166.464 142.458 166.58 142.575C166.697 142.692 166.755 142.842 166.755 143.025V145.375C166.755 145.558 166.697 145.708 166.58 145.825C166.464 145.942 166.314 146 166.13 146H154.255Z" fill="#F9F4DA"/>
<path d="M92.1111 83.4236C92.1111 83.0741 92.3944 82.7907 92.744 82.7907H107.586C107.936 82.7907 108.219 83.0741 108.219 83.4236V83.9408C108.219 84.2903 107.936 84.5737 107.586 84.5737H92.744C92.3944 84.5737 92.1111 84.2903 92.1111 83.9408V83.4236ZM92.744 80.8594H107.586C107.936 80.8594 108.219 80.576 108.219 80.2265V79.7093C108.219 79.3598 107.936 79.0765 107.586 79.0765H92.744C92.3944 79.0765 92.1111 79.3598 92.1111 79.7093V80.2265C92.1111 80.576 92.3944 80.8594 92.744 80.8594ZM91.8089 86.7069C93.3731 89.7284 96.5277 91.7935 100.165 91.7935C103.802 91.7935 106.957 89.7284 108.521 86.7069C108.559 86.6338 108.506 86.5464 108.424 86.5464H91.9062C91.8239 86.5464 91.7711 86.6338 91.8089 86.7069ZM100.144 38.8839C104.27 38.8839 108.365 40.3192 111.677 42.9253C113.325 44.2223 114.726 45.7619 115.841 47.5012C116.998 49.3043 117.814 51.2732 118.267 53.3533C118.905 56.284 118.917 59.1105 118.303 61.7545C117.689 64.4015 116.43 66.9377 114.562 69.2927C113.946 70.0695 113.328 70.8455 112.711 71.6215C111.47 73.1819 110.187 74.7953 108.933 76.3896C108.788 76.5731 108.713 76.6008 108.529 76.6008H108.521C106.931 76.5903 105.365 76.5889 104.179 76.5889C103.515 76.5889 102.851 76.5894 102.187 76.5899C101.524 76.5904 100.861 76.5909 100.197 76.5909H100.163C99.5093 76.5909 98.8555 76.5905 98.2016 76.5903C97.54 76.5899 96.8784 76.5896 96.2168 76.5896C95.0099 76.5896 93.418 76.5905 91.8059 76.598L91.7988 76.5981C91.5876 76.5981 91.5298 76.5627 91.427 76.4319C90.3517 75.0651 89.251 73.6824 88.1865 72.3451C87.3468 71.2904 86.4786 70.1996 85.6288 69.1242C84.583 67.8007 83.7227 66.3641 83.0718 64.8543C82.4466 63.4042 82.011 61.879 81.777 60.3211C81.3252 57.3131 81.6318 54.1906 82.6637 51.2912C83.6978 48.3855 85.4384 45.7646 87.6974 43.712C88.8672 42.6491 90.1731 41.7392 91.5789 41.0077C93.0426 40.2461 94.6226 39.6741 96.275 39.3076C97.5428 39.0264 98.8447 38.8839 100.144 38.8839ZM100.222 41.3336C96.7307 41.3336 93.3615 42.4536 90.4788 44.5726C83.6118 49.6205 81.964 59.7406 86.8806 66.6716C87.9788 68.2197 89.188 69.7123 90.3575 71.1558C91.026 71.981 91.7172 72.8342 92.3771 73.6849C92.7254 74.1338 93.178 74.1338 93.4212 74.1338H93.4331C94.4302 74.1323 95.512 74.1316 96.8374 74.1316C97.6084 74.1316 98.3794 74.1318 99.1504 74.1321L100.156 74.1323C100.688 74.1323 101.22 74.1321 101.752 74.1318C102.284 74.1316 102.816 74.1314 103.348 74.1314C104.313 74.1314 105.587 74.1321 106.878 74.1374H106.888C107.192 74.1374 107.638 74.0833 108.006 73.6154C108.589 72.8739 109.192 72.1254 109.775 71.4016C110.81 70.1163 111.881 68.7873 112.887 67.4391C116.737 62.2832 117.414 56.7504 114.899 50.9943C112.296 45.0354 106.672 41.3336 100.222 41.3336ZM100.683 66.5672V48.9175C100.683 47.6648 101.698 46.6493 102.951 46.6493C105.128 46.6493 106.936 48.2585 107.248 50.3499C108.755 50.6579 109.891 51.9934 109.891 53.5894V54.0087C111.085 54.3237 111.968 55.4128 111.968 56.7041V58.7805C111.968 60.0718 111.085 61.1609 109.891 61.4759V61.8952C109.891 63.4912 108.755 64.8268 107.248 65.1348C106.936 67.2262 105.128 68.8354 102.951 68.8354C101.698 68.8354 100.683 67.8199 100.683 66.5672ZM102.105 66.5672C102.105 67.0347 102.484 67.4138 102.951 67.4138C104.195 67.4138 105.259 66.6328 105.681 65.5355C105.745 65.3681 105.619 65.1884 105.44 65.1884H104.7C104.308 65.1884 103.989 64.8701 103.989 64.4775C103.989 64.085 104.308 63.7667 104.7 63.7667H106.585V63.78C107.624 63.78 108.47 62.9345 108.47 61.8953V60.6617C108.47 60.377 108.701 60.1462 108.985 60.1462H109.181C109.935 60.1462 110.546 59.5348 110.546 58.7806V56.7042C110.546 56.0399 110.069 55.4852 109.44 55.3636V55.3778H107.735C107.206 55.3778 106.777 55.8068 106.777 56.336V57.0708C106.777 57.4634 106.458 57.7816 106.066 57.7816C105.673 57.7816 105.355 57.4634 105.355 57.0708V55.791C105.355 54.7777 106.177 53.9561 107.19 53.9561H108.286C108.388 53.9561 108.47 53.8741 108.47 53.7728C108.47 52.6306 107.544 51.7047 106.402 51.7047H104.7C104.308 51.7047 103.989 51.3865 103.989 50.9939C103.989 50.6013 104.308 50.2831 104.7 50.2831H105.231C105.521 50.2831 105.707 49.9789 105.58 49.7181C105.106 48.7439 104.106 48.071 102.951 48.071C102.484 48.071 102.105 48.4499 102.105 48.9175V66.5672ZM90.4386 53.5894C90.4386 51.9934 91.5755 50.6579 93.0818 50.3499C93.3939 48.2585 95.2019 46.6493 97.3788 46.6493C98.6315 46.6493 99.647 47.6648 99.647 48.9175V66.5672C99.647 67.8199 98.6315 68.8354 97.3788 68.8354C95.2019 68.8354 93.3939 67.2262 93.0818 65.1348C91.5755 64.8268 90.4386 63.4912 90.4386 61.8952V61.4759C89.2449 61.1609 88.3622 60.0718 88.3622 58.7805V56.7041C88.3622 55.4128 89.2449 54.3237 90.4386 54.0087V53.5894ZM90.8899 55.3778V55.3636C90.2606 55.4852 89.7838 56.0399 89.7838 56.7042V58.7806C89.7838 59.5348 90.3953 60.1462 91.1495 60.1462H91.3447C91.6294 60.1462 91.8602 60.377 91.8602 60.6617V61.8953C91.8602 62.9345 92.7057 63.78 93.745 63.78V63.7667H95.6297C96.0223 63.7667 96.3405 64.085 96.3405 64.4775C96.3405 64.8701 96.0223 65.1884 95.6297 65.1884H94.8901C94.7108 65.1884 94.5851 65.3681 94.6494 65.5355C95.0707 66.6328 96.135 67.4138 97.3787 67.4138C97.8463 67.4138 98.2253 67.0347 98.2253 66.5672V48.9175C98.2253 48.4499 97.8463 48.071 97.3787 48.071C96.2242 48.071 95.2242 48.7439 94.7497 49.7181C94.6226 49.9789 94.8091 50.2831 95.0993 50.2831H95.6297C96.0223 50.2831 96.3405 50.6013 96.3405 50.9939C96.3405 51.3865 96.0223 51.7047 95.6297 51.7047H93.9283C92.7862 51.7047 91.8602 52.6306 91.8602 53.7728C91.8602 53.8741 91.9423 53.9561 92.0436 53.9561H93.14C94.1534 53.9561 94.9749 54.7777 94.9749 55.791V57.0708C94.9749 57.4634 94.6567 57.7816 94.2641 57.7816C93.8715 57.7816 93.5533 57.4634 93.5533 57.0708V56.336C93.5533 55.8068 93.1242 55.3778 92.595 55.3778H90.8899ZM97.8869 25.0761V33.2102C97.8869 33.8036 98.3697 34.2863 98.963 34.2863C99.5564 34.2863 100.039 33.8036 100.039 33.2102V25.0761C100.039 24.4828 99.5564 24 98.963 24C98.3697 24 97.8869 24.4828 97.8869 25.0761ZM87.1484 38.097C87.3356 38.097 87.521 38.047 87.6847 37.9524C88.1986 37.6558 88.3753 36.9963 88.0786 36.4824L84.0116 29.4381C83.8199 29.1061 83.4622 28.8998 83.078 28.8998C82.8908 28.8998 82.7053 28.9497 82.5416 29.0442C82.0277 29.3409 81.851 30.0004 82.1477 30.5143L86.2147 37.5586C86.4064 37.8906 86.7642 38.097 87.1484 38.097ZM78.2805 47.1605C78.4442 47.255 78.6296 47.305 78.8169 47.305C79.201 47.305 79.5588 47.0987 79.7505 46.7666C79.8942 46.5176 79.9324 46.2276 79.858 45.95C79.7836 45.6724 79.6055 45.4403 79.3566 45.2965L72.3123 41.2296C72.1486 41.135 71.9631 41.085 71.7759 41.085C71.3918 41.085 71.034 41.2913 70.8423 41.6234C70.5456 42.1373 70.7223 42.7968 71.2362 43.0935L78.2805 47.1605ZM67 58.367C67 58.9603 67.4827 59.4431 68.0761 59.4431H76.2102C76.8035 59.4431 77.2863 58.9603 77.2863 58.367C77.2863 57.7735 76.8035 57.2908 76.2102 57.2908H68.0761C67.4827 57.2908 67 57.7735 67 58.367ZM132.254 54.9149H124.12C123.526 54.9149 123.044 55.3977 123.044 55.991C123.044 56.5844 123.526 57.0672 124.12 57.0672H132.254C132.847 57.0672 133.33 56.5844 133.33 55.991C133.33 55.3977 132.847 54.9149 132.254 54.9149ZM127.352 39.0032C127.165 39.0032 126.979 39.0532 126.816 39.1477L119.771 43.2147C119.258 43.5114 119.081 44.1709 119.378 44.6848C119.569 45.0169 119.927 45.2231 120.311 45.2231C120.498 45.2231 120.684 45.1732 120.848 45.0787L127.892 41.0116C128.141 40.8679 128.319 40.6359 128.393 40.3582C128.468 40.0806 128.43 39.7905 128.286 39.5416C128.094 39.2095 127.736 39.0032 127.352 39.0032ZM111.1 36.895C111.484 36.895 111.842 36.6887 112.034 36.3567L116.1 29.3123C116.397 28.7984 116.22 28.139 115.707 27.8423C115.543 27.7478 115.357 27.6978 115.17 27.6978C114.786 27.6978 114.428 27.9041 114.237 28.2362L110.17 35.2805C109.873 35.7944 110.05 36.4538 110.563 36.7505C110.727 36.8451 110.913 36.895 111.1 36.895Z" fill="#F9F4DA"/>
</svg>
