<svg width="185" height="46" viewBox="0 0 185 46" fill="none" xmlns="http://www.w3.org/2000/svg">
<mask id="path-1-outside-1_136_2" maskUnits="userSpaceOnUse" x="62" y="11" width="123" height="27" fill="black">
<rect fill="white" x="62" y="11" width="123" height="27"/>
<path d="M63.8523 16.5881V13.5455H78.1875V16.5881H72.8438V31H69.196V16.5881H63.8523ZM84.5476 31.2557C83.201 31.2557 82.0419 30.983 81.0703 30.4375C80.1044 29.8864 79.3601 29.108 78.8374 28.1023C78.3146 27.0909 78.0533 25.8949 78.0533 24.5142C78.0533 23.1676 78.3146 21.9858 78.8374 20.9688C79.3601 19.9517 80.0959 19.1591 81.0447 18.5909C81.9993 18.0227 83.1186 17.7386 84.4027 17.7386C85.2663 17.7386 86.0703 17.8778 86.8146 18.1562C87.5646 18.429 88.218 18.8409 88.7749 19.392C89.3374 19.9432 89.7749 20.6364 90.0874 21.4716C90.3999 22.3011 90.5561 23.2727 90.5561 24.3864V25.3835H79.5021V23.1335H87.1385C87.1385 22.6108 87.0249 22.1477 86.7976 21.7443C86.5703 21.3409 86.255 21.0256 85.8516 20.7983C85.4538 20.5653 84.9908 20.4489 84.4624 20.4489C83.9112 20.4489 83.4226 20.5767 82.9964 20.8324C82.576 21.0824 82.2464 21.4205 82.0078 21.8466C81.7692 22.267 81.647 22.7358 81.6413 23.2528V25.392C81.6413 26.0398 81.7607 26.5994 81.9993 27.071C82.2436 27.5426 82.5874 27.9062 83.0305 28.1619C83.4737 28.4176 83.9993 28.5455 84.6072 28.5455C85.0107 28.5455 85.38 28.4886 85.7152 28.375C86.0504 28.2614 86.3374 28.0909 86.576 27.8636C86.8146 27.6364 86.9964 27.358 87.1214 27.0284L90.4794 27.25C90.3089 28.0568 89.9595 28.7614 89.4311 29.3636C88.9084 29.9602 88.2322 30.4261 87.4027 30.7614C86.5788 31.0909 85.6271 31.2557 84.5476 31.2557ZM92.8572 31V28.8352L99.2663 20.9006V20.8068H93.0788V17.9091H103.638V20.2699L97.6214 28.0085V28.1023H103.86V31H92.8572ZM105.219 16.5881V13.5455H119.555V16.5881H114.211V31H110.563V16.5881H105.219ZM122.589 35.9091C122.129 35.9091 121.697 35.8722 121.293 35.7983C120.896 35.7301 120.566 35.642 120.305 35.5341L121.123 32.8239C121.549 32.9545 121.933 33.0256 122.273 33.0369C122.62 33.0483 122.918 32.9688 123.168 32.7983C123.424 32.6278 123.631 32.3381 123.79 31.929L124.004 31.375L119.308 17.9091H123.126L125.836 27.5227H125.972L128.708 17.9091H132.552L127.464 32.4148C127.219 33.1193 126.887 33.733 126.467 34.2557C126.052 34.7841 125.526 35.1903 124.89 35.4744C124.254 35.7642 123.487 35.9091 122.589 35.9091ZM134.41 35.9091V17.9091H137.989V20.108H138.151C138.31 19.7557 138.54 19.3977 138.842 19.0341C139.148 18.6648 139.546 18.358 140.035 18.1136C140.529 17.8636 141.143 17.7386 141.876 17.7386C142.83 17.7386 143.711 17.9886 144.518 18.4886C145.325 18.983 145.969 19.7301 146.452 20.7301C146.935 21.7244 147.177 22.9716 147.177 24.4716C147.177 25.9318 146.941 27.1648 146.469 28.1705C146.004 29.1705 145.367 29.929 144.56 30.446C143.759 30.9574 142.862 31.2131 141.867 31.2131C141.163 31.2131 140.563 31.0966 140.069 30.8636C139.58 30.6307 139.18 30.3381 138.867 29.9858C138.555 29.6278 138.316 29.267 138.151 28.9034H138.04V35.9091H134.41ZM137.964 24.4545C137.964 25.233 138.072 25.9119 138.288 26.4915C138.504 27.071 138.816 27.5227 139.225 27.8466C139.634 28.1648 140.131 28.3239 140.717 28.3239C141.308 28.3239 141.808 28.1619 142.217 27.8381C142.626 27.5085 142.935 27.054 143.146 26.4744C143.362 25.8892 143.469 25.2159 143.469 24.4545C143.469 23.6989 143.364 23.0341 143.154 22.4602C142.944 21.8864 142.634 21.4375 142.225 21.1136C141.816 20.7898 141.313 20.6278 140.717 20.6278C140.126 20.6278 139.626 20.7841 139.217 21.0966C138.813 21.4091 138.504 21.8523 138.288 22.4261C138.072 23 137.964 23.6761 137.964 24.4545ZM149.597 31V17.9091H153.228V31H149.597ZM151.421 16.2216C150.881 16.2216 150.418 16.0426 150.032 15.6847C149.651 15.321 149.461 14.8864 149.461 14.3807C149.461 13.8807 149.651 13.4517 150.032 13.0938C150.418 12.7301 150.881 12.5483 151.421 12.5483C151.961 12.5483 152.421 12.7301 152.802 13.0938C153.188 13.4517 153.381 13.8807 153.381 14.3807C153.381 14.8864 153.188 15.321 152.802 15.6847C152.421 16.0426 151.961 16.2216 151.421 16.2216ZM159.767 23.4318V31H156.136V17.9091H159.597V20.2188H159.75C160.04 19.4574 160.526 18.8551 161.207 18.4119C161.889 17.9631 162.716 17.7386 163.688 17.7386C164.597 17.7386 165.389 17.9375 166.065 18.3352C166.741 18.733 167.267 19.3011 167.642 20.0398C168.017 20.7727 168.205 21.6477 168.205 22.6648V31H164.574V23.3125C164.58 22.5114 164.375 21.8864 163.96 21.4375C163.545 20.983 162.974 20.7557 162.247 20.7557C161.759 20.7557 161.327 20.8608 160.952 21.071C160.582 21.2812 160.293 21.5881 160.082 21.9915C159.878 22.3892 159.773 22.8693 159.767 23.4318ZM176.964 36.1818C175.788 36.1818 174.779 36.0199 173.938 35.696C173.103 35.3778 172.438 34.9432 171.944 34.392C171.45 33.8409 171.129 33.2216 170.981 32.5341L174.339 32.0824C174.441 32.3438 174.603 32.5881 174.825 32.8153C175.046 33.0426 175.339 33.2244 175.702 33.3608C176.072 33.5028 176.521 33.5739 177.049 33.5739C177.839 33.5739 178.489 33.3807 179.001 32.9943C179.518 32.6136 179.776 31.9744 179.776 31.0767V28.6818H179.623C179.464 29.0455 179.225 29.3892 178.907 29.7131C178.589 30.0369 178.18 30.3011 177.68 30.5057C177.18 30.7102 176.583 30.8125 175.89 30.8125C174.907 30.8125 174.012 30.5852 173.205 30.1307C172.404 29.6705 171.765 28.9687 171.288 28.0256C170.816 27.0767 170.58 25.8778 170.58 24.429C170.58 22.946 170.822 21.7074 171.305 20.7131C171.788 19.7187 172.43 18.9744 173.231 18.4801C174.038 17.9858 174.921 17.7386 175.881 17.7386C176.614 17.7386 177.228 17.8636 177.722 18.1136C178.217 18.358 178.614 18.6648 178.915 19.0341C179.222 19.3977 179.458 19.7557 179.623 20.108H179.759V17.9091H183.364V31.1278C183.364 32.2415 183.092 33.1733 182.546 33.9233C182.001 34.6733 181.245 35.2358 180.279 35.6108C179.319 35.9915 178.214 36.1818 176.964 36.1818ZM177.04 28.0852C177.626 28.0852 178.12 27.9403 178.523 27.6506C178.933 27.3551 179.245 26.9347 179.461 26.3892C179.683 25.8381 179.793 25.179 179.793 24.4119C179.793 23.6449 179.685 22.9801 179.469 22.4176C179.254 21.8494 178.941 21.4091 178.532 21.0966C178.123 20.7841 177.626 20.6278 177.04 20.6278C176.444 20.6278 175.941 20.7898 175.532 21.1136C175.123 21.4318 174.813 21.875 174.603 22.4432C174.393 23.0114 174.288 23.6676 174.288 24.4119C174.288 25.1676 174.393 25.821 174.603 26.3722C174.819 26.9176 175.129 27.3409 175.532 27.642C175.941 27.9375 176.444 28.0852 177.04 28.0852Z"/>
</mask>
<path d="M63.8523 16.5881V13.5455H78.1875V16.5881H72.8438V31H69.196V16.5881H63.8523ZM84.5476 31.2557C83.201 31.2557 82.0419 30.983 81.0703 30.4375C80.1044 29.8864 79.3601 29.108 78.8374 28.1023C78.3146 27.0909 78.0533 25.8949 78.0533 24.5142C78.0533 23.1676 78.3146 21.9858 78.8374 20.9688C79.3601 19.9517 80.0959 19.1591 81.0447 18.5909C81.9993 18.0227 83.1186 17.7386 84.4027 17.7386C85.2663 17.7386 86.0703 17.8778 86.8146 18.1562C87.5646 18.429 88.218 18.8409 88.7749 19.392C89.3374 19.9432 89.7749 20.6364 90.0874 21.4716C90.3999 22.3011 90.5561 23.2727 90.5561 24.3864V25.3835H79.5021V23.1335H87.1385C87.1385 22.6108 87.0249 22.1477 86.7976 21.7443C86.5703 21.3409 86.255 21.0256 85.8516 20.7983C85.4538 20.5653 84.9908 20.4489 84.4624 20.4489C83.9112 20.4489 83.4226 20.5767 82.9964 20.8324C82.576 21.0824 82.2464 21.4205 82.0078 21.8466C81.7692 22.267 81.647 22.7358 81.6413 23.2528V25.392C81.6413 26.0398 81.7607 26.5994 81.9993 27.071C82.2436 27.5426 82.5874 27.9062 83.0305 28.1619C83.4737 28.4176 83.9993 28.5455 84.6072 28.5455C85.0107 28.5455 85.38 28.4886 85.7152 28.375C86.0504 28.2614 86.3374 28.0909 86.576 27.8636C86.8146 27.6364 86.9964 27.358 87.1214 27.0284L90.4794 27.25C90.3089 28.0568 89.9595 28.7614 89.4311 29.3636C88.9084 29.9602 88.2322 30.4261 87.4027 30.7614C86.5788 31.0909 85.6271 31.2557 84.5476 31.2557ZM92.8572 31V28.8352L99.2663 20.9006V20.8068H93.0788V17.9091H103.638V20.2699L97.6214 28.0085V28.1023H103.86V31H92.8572ZM105.219 16.5881V13.5455H119.555V16.5881H114.211V31H110.563V16.5881H105.219ZM122.589 35.9091C122.129 35.9091 121.697 35.8722 121.293 35.7983C120.896 35.7301 120.566 35.642 120.305 35.5341L121.123 32.8239C121.549 32.9545 121.933 33.0256 122.273 33.0369C122.62 33.0483 122.918 32.9688 123.168 32.7983C123.424 32.6278 123.631 32.3381 123.79 31.929L124.004 31.375L119.308 17.9091H123.126L125.836 27.5227H125.972L128.708 17.9091H132.552L127.464 32.4148C127.219 33.1193 126.887 33.733 126.467 34.2557C126.052 34.7841 125.526 35.1903 124.89 35.4744C124.254 35.7642 123.487 35.9091 122.589 35.9091ZM134.41 35.9091V17.9091H137.989V20.108H138.151C138.31 19.7557 138.54 19.3977 138.842 19.0341C139.148 18.6648 139.546 18.358 140.035 18.1136C140.529 17.8636 141.143 17.7386 141.876 17.7386C142.83 17.7386 143.711 17.9886 144.518 18.4886C145.325 18.983 145.969 19.7301 146.452 20.7301C146.935 21.7244 147.177 22.9716 147.177 24.4716C147.177 25.9318 146.941 27.1648 146.469 28.1705C146.004 29.1705 145.367 29.929 144.56 30.446C143.759 30.9574 142.862 31.2131 141.867 31.2131C141.163 31.2131 140.563 31.0966 140.069 30.8636C139.58 30.6307 139.18 30.3381 138.867 29.9858C138.555 29.6278 138.316 29.267 138.151 28.9034H138.04V35.9091H134.41ZM137.964 24.4545C137.964 25.233 138.072 25.9119 138.288 26.4915C138.504 27.071 138.816 27.5227 139.225 27.8466C139.634 28.1648 140.131 28.3239 140.717 28.3239C141.308 28.3239 141.808 28.1619 142.217 27.8381C142.626 27.5085 142.935 27.054 143.146 26.4744C143.362 25.8892 143.469 25.2159 143.469 24.4545C143.469 23.6989 143.364 23.0341 143.154 22.4602C142.944 21.8864 142.634 21.4375 142.225 21.1136C141.816 20.7898 141.313 20.6278 140.717 20.6278C140.126 20.6278 139.626 20.7841 139.217 21.0966C138.813 21.4091 138.504 21.8523 138.288 22.4261C138.072 23 137.964 23.6761 137.964 24.4545ZM149.597 31V17.9091H153.228V31H149.597ZM151.421 16.2216C150.881 16.2216 150.418 16.0426 150.032 15.6847C149.651 15.321 149.461 14.8864 149.461 14.3807C149.461 13.8807 149.651 13.4517 150.032 13.0938C150.418 12.7301 150.881 12.5483 151.421 12.5483C151.961 12.5483 152.421 12.7301 152.802 13.0938C153.188 13.4517 153.381 13.8807 153.381 14.3807C153.381 14.8864 153.188 15.321 152.802 15.6847C152.421 16.0426 151.961 16.2216 151.421 16.2216ZM159.767 23.4318V31H156.136V17.9091H159.597V20.2188H159.75C160.04 19.4574 160.526 18.8551 161.207 18.4119C161.889 17.9631 162.716 17.7386 163.688 17.7386C164.597 17.7386 165.389 17.9375 166.065 18.3352C166.741 18.733 167.267 19.3011 167.642 20.0398C168.017 20.7727 168.205 21.6477 168.205 22.6648V31H164.574V23.3125C164.58 22.5114 164.375 21.8864 163.96 21.4375C163.545 20.983 162.974 20.7557 162.247 20.7557C161.759 20.7557 161.327 20.8608 160.952 21.071C160.582 21.2812 160.293 21.5881 160.082 21.9915C159.878 22.3892 159.773 22.8693 159.767 23.4318ZM176.964 36.1818C175.788 36.1818 174.779 36.0199 173.938 35.696C173.103 35.3778 172.438 34.9432 171.944 34.392C171.45 33.8409 171.129 33.2216 170.981 32.5341L174.339 32.0824C174.441 32.3438 174.603 32.5881 174.825 32.8153C175.046 33.0426 175.339 33.2244 175.702 33.3608C176.072 33.5028 176.521 33.5739 177.049 33.5739C177.839 33.5739 178.489 33.3807 179.001 32.9943C179.518 32.6136 179.776 31.9744 179.776 31.0767V28.6818H179.623C179.464 29.0455 179.225 29.3892 178.907 29.7131C178.589 30.0369 178.18 30.3011 177.68 30.5057C177.18 30.7102 176.583 30.8125 175.89 30.8125C174.907 30.8125 174.012 30.5852 173.205 30.1307C172.404 29.6705 171.765 28.9687 171.288 28.0256C170.816 27.0767 170.58 25.8778 170.58 24.429C170.58 22.946 170.822 21.7074 171.305 20.7131C171.788 19.7187 172.43 18.9744 173.231 18.4801C174.038 17.9858 174.921 17.7386 175.881 17.7386C176.614 17.7386 177.228 17.8636 177.722 18.1136C178.217 18.358 178.614 18.6648 178.915 19.0341C179.222 19.3977 179.458 19.7557 179.623 20.108H179.759V17.9091H183.364V31.1278C183.364 32.2415 183.092 33.1733 182.546 33.9233C182.001 34.6733 181.245 35.2358 180.279 35.6108C179.319 35.9915 178.214 36.1818 176.964 36.1818ZM177.04 28.0852C177.626 28.0852 178.12 27.9403 178.523 27.6506C178.933 27.3551 179.245 26.9347 179.461 26.3892C179.683 25.8381 179.793 25.179 179.793 24.4119C179.793 23.6449 179.685 22.9801 179.469 22.4176C179.254 21.8494 178.941 21.4091 178.532 21.0966C178.123 20.7841 177.626 20.6278 177.04 20.6278C176.444 20.6278 175.941 20.7898 175.532 21.1136C175.123 21.4318 174.813 21.875 174.603 22.4432C174.393 23.0114 174.288 23.6676 174.288 24.4119C174.288 25.1676 174.393 25.821 174.603 26.3722C174.819 26.9176 175.129 27.3409 175.532 27.642C175.941 27.9375 176.444 28.0852 177.04 28.0852Z" fill="black"/>
<path d="M63.8523 16.5881H62.8523V17.5881H63.8523V16.5881ZM63.8523 13.5455V12.5455H62.8523V13.5455H63.8523ZM78.1875 13.5455H79.1875V12.5455H78.1875V13.5455ZM78.1875 16.5881V17.5881H79.1875V16.5881H78.1875ZM72.8438 16.5881V15.5881H71.8438V16.5881H72.8438ZM72.8438 31V32H73.8438V31H72.8438ZM69.196 31H68.196V32H69.196V31ZM69.196 16.5881H70.196V15.5881H69.196V16.5881ZM64.8523 16.5881V13.5455H62.8523V16.5881H64.8523ZM63.8523 14.5455H78.1875V12.5455H63.8523V14.5455ZM77.1875 13.5455V16.5881H79.1875V13.5455H77.1875ZM78.1875 15.5881H72.8438V17.5881H78.1875V15.5881ZM71.8438 16.5881V31H73.8438V16.5881H71.8438ZM72.8438 30H69.196V32H72.8438V30ZM70.196 31V16.5881H68.196V31H70.196ZM69.196 15.5881H63.8523V17.5881H69.196V15.5881ZM81.0703 30.4375L80.5747 31.3061L80.5808 31.3095L81.0703 30.4375ZM78.8374 28.1023L77.949 28.5614L77.9501 28.5635L78.8374 28.1023ZM78.8374 20.9688L77.948 20.5116L77.948 20.5116L78.8374 20.9688ZM81.0447 18.5909L80.5333 17.7316L80.531 17.733L81.0447 18.5909ZM86.8146 18.1562L86.4643 19.0929L86.4729 19.096L86.8146 18.1562ZM88.7749 19.392L88.0714 20.1028L88.075 20.1063L88.7749 19.392ZM90.0874 21.4716L89.1508 21.822L89.1516 21.8241L90.0874 21.4716ZM90.5561 25.3835V26.3835H91.5561V25.3835H90.5561ZM79.5021 25.3835H78.5021V26.3835H79.5021V25.3835ZM79.5021 23.1335V22.1335H78.5021V23.1335H79.5021ZM87.1385 23.1335V24.1335H88.1385V23.1335H87.1385ZM86.7976 21.7443L85.9263 22.2352L85.9263 22.2352L86.7976 21.7443ZM85.8516 20.7983L85.3462 21.6612L85.3534 21.6654L85.3607 21.6695L85.8516 20.7983ZM82.9964 20.8324L83.5075 21.6919L83.5109 21.6899L82.9964 20.8324ZM82.0078 21.8466L82.8775 22.3402L82.8803 22.3352L82.0078 21.8466ZM81.6413 23.2528L80.6413 23.2419V23.2528H81.6413ZM81.9993 27.071L81.107 27.5226L81.1114 27.531L81.9993 27.071ZM85.7152 28.375L85.3942 27.4279L85.3942 27.4279L85.7152 28.375ZM86.576 27.8636L85.8863 27.1395L85.8863 27.1395L86.576 27.8636ZM87.1214 27.0284L87.1873 26.0306L86.4489 25.9819L86.1865 26.6738L87.1214 27.0284ZM90.4794 27.25L91.4578 27.4567L91.6962 26.3281L90.5453 26.2522L90.4794 27.25ZM89.4311 29.3636L88.6794 28.7041L88.679 28.7046L89.4311 29.3636ZM87.4027 30.7614L87.7741 31.6898L87.7774 31.6885L87.4027 30.7614ZM84.5476 30.2557C83.3368 30.2557 82.3537 30.0112 81.5598 29.5655L80.5808 31.3095C81.7301 31.9547 83.0652 32.2557 84.5476 32.2557V30.2557ZM81.5659 29.5689C80.7704 29.115 80.1605 28.4796 79.7247 27.6411L77.9501 28.5635C78.5597 29.7363 79.4384 30.6577 80.5747 31.3061L81.5659 29.5689ZM79.7257 27.6431C79.2904 26.8008 79.0533 25.7687 79.0533 24.5142H77.0533C77.0533 26.021 77.3389 27.381 77.949 28.5614L79.7257 27.6431ZM79.0533 24.5142C79.0533 23.2984 79.2886 22.2784 79.7268 21.4259L77.948 20.5116C77.3407 21.6932 77.0533 23.0368 77.0533 24.5142H79.0533ZM79.7268 21.4259C80.1672 20.569 80.7754 19.9177 81.5585 19.4489L80.531 17.733C79.4163 18.4004 78.553 19.3345 77.948 20.5116L79.7268 21.4259ZM81.5562 19.4502C82.3333 18.9877 83.2702 18.7386 84.4027 18.7386V16.7386C82.9671 16.7386 81.6653 17.0578 80.5333 17.7316L81.5562 19.4502ZM84.4027 18.7386C85.1571 18.7386 85.8414 18.8599 86.4643 19.0929L87.165 17.2196C86.2993 16.8958 85.3756 16.7386 84.4027 16.7386V18.7386ZM86.4729 19.096C87.0898 19.3204 87.6191 19.6551 88.0714 20.1028L89.4783 18.6813C88.8169 18.0267 88.0395 17.5376 87.1564 17.2165L86.4729 19.096ZM88.075 20.1063C88.5199 20.5422 88.8828 21.1057 89.1508 21.822L91.0239 21.1212C90.6669 20.167 90.1549 19.3442 89.4747 18.6778L88.075 20.1063ZM89.1516 21.8241C89.4123 22.5162 89.5561 23.3635 89.5561 24.3864H91.5561C91.5561 23.1819 91.3874 22.086 91.0232 21.1191L89.1516 21.8241ZM89.5561 24.3864V25.3835H91.5561V24.3864H89.5561ZM90.5561 24.3835H79.5021V26.3835H90.5561V24.3835ZM80.5021 25.3835V23.1335H78.5021V25.3835H80.5021ZM79.5021 24.1335H87.1385V22.1335H79.5021V24.1335ZM88.1385 23.1335C88.1385 22.4614 87.9909 21.8252 87.6688 21.2535L85.9263 22.2352C86.0588 22.4702 86.1385 22.7602 86.1385 23.1335H88.1385ZM87.6688 21.2535C87.3519 20.6909 86.905 20.244 86.3424 19.927L85.3607 21.6695C85.605 21.8071 85.7887 21.9909 85.9263 22.2352L87.6688 21.2535ZM86.357 19.9354C85.7846 19.6002 85.142 19.4489 84.4624 19.4489V21.4489C84.8395 21.4489 85.123 21.5305 85.3462 21.6612L86.357 19.9354ZM84.4624 19.4489C83.7503 19.4489 83.0801 19.616 82.482 19.9749L83.5109 21.6899C83.7651 21.5374 84.0721 21.4489 84.4624 21.4489V19.4489ZM82.4854 19.9728C81.9142 20.3125 81.4599 20.7784 81.1353 21.358L82.8803 22.3352C83.033 22.0625 83.2378 21.8523 83.5075 21.6919L82.4854 19.9728ZM81.1381 21.353C80.8101 21.9309 80.6488 22.5676 80.6414 23.2419L82.6413 23.2638C82.6452 22.9039 82.7282 22.6032 82.8775 22.3402L81.1381 21.353ZM80.6413 23.2528V25.392H82.6413V23.2528H80.6413ZM80.6413 25.392C80.6413 26.1618 80.7834 26.8829 81.107 27.5225L82.8916 26.6195C82.738 26.316 82.6413 25.9177 82.6413 25.392H80.6413ZM81.1114 27.531C81.4401 28.1655 81.9156 28.6732 82.5308 29.0281L83.5303 27.2957C83.2592 27.1393 83.0471 26.9197 82.8872 26.611L81.1114 27.531ZM82.5308 29.0281C83.1523 29.3867 83.857 29.5455 84.6072 29.5455V27.5455C84.1416 27.5455 83.7951 27.4486 83.5303 27.2957L82.5308 29.0281ZM84.6072 29.5455C85.1048 29.5455 85.5843 29.4753 86.0362 29.3221L85.3942 27.4279C85.1757 27.502 84.9165 27.5455 84.6072 27.5455V29.5455ZM86.0362 29.3221C86.4987 29.1653 86.9141 28.9225 87.2657 28.5878L85.8863 27.1395C85.7606 27.2593 85.6021 27.3574 85.3942 27.4279L86.0362 29.3221ZM87.2656 28.5878C87.6201 28.2502 87.8821 27.8427 88.0564 27.3831L86.1865 26.6738C86.1108 26.8733 86.0091 27.0226 85.8863 27.1395L87.2656 28.5878ZM87.0556 28.0262L90.4136 28.2478L90.5453 26.2522L87.1873 26.0306L87.0556 28.0262ZM89.501 27.0433C89.3649 27.6873 89.0913 28.2347 88.6794 28.7041L90.1828 30.0231C90.8278 29.288 91.253 28.4263 91.4578 27.4567L89.501 27.0433ZM88.679 28.7046C88.2719 29.1692 87.7312 29.55 87.028 29.8342L87.7774 31.6885C88.7332 31.3022 89.5449 30.7512 90.1832 30.0226L88.679 28.7046ZM87.0313 29.8329C86.3481 30.1062 85.5267 30.2557 84.5476 30.2557V32.2557C85.7276 32.2557 86.8095 32.0757 87.7741 31.6898L87.0313 29.8329ZM92.8572 31H91.8572V32H92.8572V31ZM92.8572 28.8352L92.0793 28.2069L91.8572 28.4818V28.8352H92.8572ZM99.2663 20.9006L100.044 21.5289L100.266 21.254V20.9006H99.2663ZM99.2663 20.8068H100.266V19.8068H99.2663V20.8068ZM93.0788 20.8068H92.0788V21.8068H93.0788V20.8068ZM93.0788 17.9091V16.9091H92.0788V17.9091H93.0788ZM103.638 17.9091H104.638V16.9091H103.638V17.9091ZM103.638 20.2699L104.428 20.8837L104.638 20.6129V20.2699H103.638ZM97.6214 28.0085L96.832 27.3947L96.6214 27.6655V28.0085H97.6214ZM97.6214 28.1023H96.6214V29.1023H97.6214V28.1023ZM103.86 28.1023H104.86V27.1023H103.86V28.1023ZM103.86 31V32H104.86V31H103.86ZM93.8572 31V28.8352H91.8572V31H93.8572ZM93.6352 29.4636L100.044 21.5289L98.4884 20.2722L92.0793 28.2069L93.6352 29.4636ZM100.266 20.9006V20.8068H98.2663V20.9006H100.266ZM99.2663 19.8068H93.0788V21.8068H99.2663V19.8068ZM94.0788 20.8068V17.9091H92.0788V20.8068H94.0788ZM93.0788 18.9091H103.638V16.9091H93.0788V18.9091ZM102.638 17.9091V20.2699H104.638V17.9091H102.638ZM102.849 19.6561L96.832 27.3947L98.4109 28.6223L104.428 20.8837L102.849 19.6561ZM96.6214 28.0085V28.1023H98.6214V28.0085H96.6214ZM97.6214 29.1023H103.86V27.1023H97.6214V29.1023ZM102.86 28.1023V31H104.86V28.1023H102.86ZM103.86 30H92.8572V32H103.86V30ZM105.219 16.5881H104.219V17.5881H105.219V16.5881ZM105.219 13.5455V12.5455H104.219V13.5455H105.219ZM119.555 13.5455H120.555V12.5455H119.555V13.5455ZM119.555 16.5881V17.5881H120.555V16.5881H119.555ZM114.211 16.5881V15.5881H113.211V16.5881H114.211ZM114.211 31V32H115.211V31H114.211ZM110.563 31H109.563V32H110.563V31ZM110.563 16.5881H111.563V15.5881H110.563V16.5881ZM106.219 16.5881V13.5455H104.219V16.5881H106.219ZM105.219 14.5455H119.555V12.5455H105.219V14.5455ZM118.555 13.5455V16.5881H120.555V13.5455H118.555ZM119.555 15.5881H114.211V17.5881H119.555V15.5881ZM113.211 16.5881V31H115.211V16.5881H113.211ZM114.211 30H110.563V32H114.211V30ZM111.563 31V16.5881H109.563V31H111.563ZM110.563 15.5881H105.219V17.5881H110.563V15.5881ZM121.293 35.7983L121.473 34.8146L121.462 34.8127L121.293 35.7983ZM120.305 35.5341L119.347 35.2451L119.086 36.1125L119.923 36.4584L120.305 35.5341ZM121.123 32.8239L121.416 31.8678L120.456 31.5733L120.166 32.5349L121.123 32.8239ZM122.273 33.0369L122.24 34.0364L122.241 34.0364L122.273 33.0369ZM123.168 32.7983L122.614 31.9662L122.605 31.9721L123.168 32.7983ZM123.79 31.929L124.722 32.2914L124.724 32.288L123.79 31.929ZM124.004 31.375L124.937 31.734L125.068 31.3918L124.948 31.0457L124.004 31.375ZM119.308 17.9091V16.9091H117.9L118.363 18.2384L119.308 17.9091ZM123.126 17.9091L124.088 17.6378L123.883 16.9091H123.126V17.9091ZM125.836 27.5227L124.873 27.7941L125.079 28.5227H125.836V27.5227ZM125.972 27.5227V28.5227H126.727L126.934 27.7964L125.972 27.5227ZM128.708 17.9091V16.9091H127.953L127.746 17.6354L128.708 17.9091ZM132.552 17.9091L133.495 18.2401L133.962 16.9091H132.552V17.9091ZM127.464 32.4148L126.52 32.0838L126.519 32.0871L127.464 32.4148ZM126.467 34.2557L125.687 33.6289L125.68 33.6382L126.467 34.2557ZM124.89 35.4744L124.482 34.5613L124.475 34.5643L124.89 35.4744ZM122.589 34.9091C122.182 34.9091 121.811 34.8764 121.473 34.8146L121.113 36.7819C121.583 36.8679 122.075 36.9091 122.589 36.9091V34.9091ZM121.462 34.8127C121.109 34.7522 120.857 34.6804 120.686 34.6098L119.923 36.4584C120.275 36.6037 120.682 36.7081 121.124 36.7839L121.462 34.8127ZM121.262 35.8231L122.08 33.1129L120.166 32.5349L119.347 35.2451L121.262 35.8231ZM120.83 33.7799C121.316 33.929 121.789 34.0213 122.24 34.0364L122.307 32.0375C122.076 32.0298 121.782 31.9801 121.416 31.8678L120.83 33.7799ZM122.241 34.0364C122.767 34.0537 123.281 33.9315 123.732 33.6245L122.605 31.9721C122.555 32.006 122.473 32.0429 122.306 32.0375L122.241 34.0364ZM123.723 33.6303C124.209 33.3065 124.52 32.8132 124.722 32.2914L122.858 31.5665C122.743 31.8629 122.639 31.9492 122.614 31.9662L123.723 33.6303ZM124.724 32.288L124.937 31.734L123.07 31.016L122.857 31.57L124.724 32.288ZM124.948 31.0457L120.252 17.5798L118.363 18.2384L123.059 31.7043L124.948 31.0457ZM119.308 18.9091H123.126V16.9091H119.308V18.9091ZM122.163 18.1804L124.873 27.7941L126.798 27.2514L124.088 17.6378L122.163 18.1804ZM125.836 28.5227H125.972V26.5227H125.836V28.5227ZM126.934 27.7964L129.67 18.1828L127.746 17.6354L125.01 27.249L126.934 27.7964ZM128.708 18.9091H132.552V16.9091H128.708V18.9091ZM131.608 17.5781L126.52 32.0838L128.407 32.7458L133.495 18.2401L131.608 17.5781ZM126.519 32.0871C126.308 32.6952 126.028 33.2051 125.687 33.6289L127.246 34.8824C127.746 34.2608 128.131 33.5434 128.409 32.7424L126.519 32.0871ZM125.68 33.6382C125.369 34.0339 124.976 34.3409 124.482 34.5613L125.298 36.3876C126.077 36.0398 126.734 35.5343 127.253 34.8731L125.68 33.6382ZM124.475 34.5643C124.001 34.7806 123.383 34.9091 122.589 34.9091V36.9091C123.59 36.9091 124.506 36.7478 125.304 36.3845L124.475 34.5643ZM134.41 35.9091H133.41V36.9091H134.41V35.9091ZM134.41 17.9091V16.9091H133.41V17.9091H134.41ZM137.989 17.9091H138.989V16.9091H137.989V17.9091ZM137.989 20.108H136.989V21.108H137.989V20.108ZM138.151 20.108V21.108H138.797L139.063 20.5195L138.151 20.108ZM138.842 19.0341L138.072 18.3951L138.071 18.3963L138.842 19.0341ZM140.035 18.1136L140.482 19.0081L140.486 19.006L140.035 18.1136ZM144.518 18.4886L143.991 19.3387L143.995 19.3413L144.518 18.4886ZM146.452 20.7301L145.552 21.165L145.553 21.167L146.452 20.7301ZM146.469 28.1705L145.564 27.7459L145.563 27.7481L146.469 28.1705ZM144.56 30.446L145.098 31.2889L145.1 31.288L144.56 30.446ZM140.069 30.8636L139.639 31.7663L139.643 31.7682L140.069 30.8636ZM138.867 29.9858L138.114 30.6435L138.119 30.6494L138.867 29.9858ZM138.151 28.9034L139.062 28.4907L138.796 27.9034H138.151V28.9034ZM138.04 28.9034V27.9034H137.04V28.9034H138.04ZM138.04 35.9091V36.9091H139.04V35.9091H138.04ZM139.225 27.8466L138.604 28.6307L138.611 28.6359L139.225 27.8466ZM142.217 27.8381L142.837 28.6221L142.844 28.6168L142.217 27.8381ZM143.146 26.4744L142.207 26.1283L142.206 26.1334L143.146 26.4744ZM143.154 22.4602L144.093 22.1162L144.093 22.1162L143.154 22.4602ZM142.225 21.1136L142.846 20.3296L142.846 20.3296L142.225 21.1136ZM139.217 21.0966L138.61 20.3019L138.604 20.306L139.217 21.0966ZM138.288 22.4261L137.352 22.074L137.352 22.074L138.288 22.4261ZM135.41 35.9091V17.9091H133.41V35.9091H135.41ZM134.41 18.9091H137.989V16.9091H134.41V18.9091ZM136.989 17.9091V20.108H138.989V17.9091H136.989ZM137.989 21.108H138.151V19.108H137.989V21.108ZM139.063 20.5195C139.178 20.2643 139.356 19.9814 139.612 19.6719L138.071 18.3963C137.725 18.8141 137.443 19.2471 137.24 19.6964L139.063 20.5195ZM139.611 19.6731C139.818 19.424 140.1 19.199 140.482 19.0081L139.588 17.2192C138.992 17.5169 138.479 17.9055 138.072 18.3951L139.611 19.6731ZM140.486 19.006C140.803 18.8459 141.251 18.7386 141.876 18.7386V16.7386C141.035 16.7386 140.255 16.8814 139.583 17.2213L140.486 19.006ZM141.876 18.7386C142.645 18.7386 143.343 18.9373 143.991 19.3386L145.045 17.6386C144.079 17.04 143.015 16.7386 141.876 16.7386V18.7386ZM143.995 19.3413C144.612 19.7191 145.138 20.3071 145.552 21.165L147.353 20.2952C146.801 19.1531 146.037 18.2468 145.04 17.6359L143.995 19.3413ZM145.553 21.167C145.95 21.9856 146.177 23.0717 146.177 24.4716H148.177C148.177 22.8715 147.92 21.4633 147.352 20.2932L145.553 21.167ZM146.177 24.4716C146.177 25.8292 145.957 26.908 145.564 27.7459L147.375 28.595C147.925 27.4216 148.177 26.0344 148.177 24.4716H146.177ZM145.563 27.7481C145.165 28.6029 144.645 29.204 144.021 29.6041L145.1 31.288C146.089 30.6539 146.842 29.738 147.376 28.5928L145.563 27.7481ZM144.022 29.6031C143.39 30.007 142.68 30.2131 141.867 30.2131V32.2131C143.043 32.2131 144.129 31.9078 145.098 31.2889L144.022 29.6031ZM141.867 30.2131C141.269 30.2131 140.823 30.1137 140.495 29.9591L139.643 31.7682C140.303 32.0794 141.056 32.2131 141.867 32.2131V30.2131ZM140.499 29.961C140.114 29.7771 139.827 29.5604 139.615 29.3222L138.119 30.6494C138.533 31.1157 139.047 31.4843 139.639 31.7663L140.499 29.961ZM139.621 29.3281C139.36 29.0302 139.18 28.7504 139.062 28.4907L137.24 29.3161C137.452 29.7837 137.749 30.2255 138.114 30.6435L139.621 29.3281ZM138.151 27.9034H138.04V29.9034H138.151V27.9034ZM137.04 28.9034V35.9091H139.04V28.9034H137.04ZM138.04 34.9091H134.41V36.9091H138.04V34.9091ZM136.964 24.4545C136.964 25.3226 137.084 26.1247 137.351 26.8406L139.225 26.1424C139.06 25.6992 138.964 25.1433 138.964 24.4545H136.964ZM137.351 26.8406C137.618 27.5593 138.028 28.1739 138.604 28.6306L139.846 27.0625C139.605 26.8715 139.389 26.5828 139.225 26.1424L137.351 26.8406ZM138.611 28.6359C139.218 29.1081 139.939 29.3239 140.717 29.3239V27.3239C140.324 27.3239 140.05 27.2214 139.839 27.0572L138.611 28.6359ZM140.717 29.3239C141.501 29.3239 142.228 29.1042 142.837 28.6221L141.596 27.054C141.387 27.2197 141.114 27.3239 140.717 27.3239V29.3239ZM142.844 28.6168C143.418 28.1541 143.824 27.5365 144.086 26.8154L142.206 26.1334C142.047 26.5714 141.833 26.863 141.589 27.0593L142.844 28.6168ZM144.084 26.8206C144.348 26.1031 144.469 25.3088 144.469 24.4545H142.469C142.469 25.123 142.375 25.6753 142.207 26.1283L144.084 26.8206ZM144.469 24.4545C144.469 23.6082 144.352 22.8229 144.093 22.1162L142.215 22.8042C142.377 23.2453 142.469 23.7895 142.469 24.4545H144.469ZM144.093 22.1162C143.83 21.3992 143.423 20.7864 142.846 20.3296L141.604 21.8977C141.846 22.0886 142.057 22.3735 142.215 22.8042L144.093 22.1162ZM142.846 20.3296C142.235 19.8462 141.505 19.6278 140.717 19.6278V21.6278C141.122 21.6278 141.397 21.7334 141.604 21.8977L142.846 20.3296ZM140.717 19.6278C139.94 19.6278 139.218 19.837 138.61 20.3019L139.824 21.8913C140.033 21.7311 140.311 21.6278 140.717 21.6278V19.6278ZM138.604 20.306C138.027 20.7529 137.62 21.362 137.352 22.074L139.224 22.7783C139.388 22.3425 139.599 22.0653 139.829 21.8871L138.604 20.306ZM137.352 22.074C137.084 22.7862 136.964 23.5869 136.964 24.4545H138.964C138.964 23.7654 139.06 23.2138 139.224 22.7783L137.352 22.074ZM149.597 31H148.597V32H149.597V31ZM149.597 17.9091V16.9091H148.597V17.9091H149.597ZM153.228 17.9091H154.228V16.9091H153.228V17.9091ZM153.228 31V32H154.228V31H153.228ZM150.032 15.6847L149.341 16.4078L149.347 16.413L149.352 16.4182L150.032 15.6847ZM150.032 13.0938L150.717 13.8223L150.717 13.8219L150.032 13.0938ZM152.802 13.0938L152.111 13.8169L152.117 13.8221L152.122 13.8273L152.802 13.0938ZM152.802 15.6847L153.487 16.4132L153.487 16.4129L152.802 15.6847ZM150.597 31V17.9091H148.597V31H150.597ZM149.597 18.9091H153.228V16.9091H149.597V18.9091ZM152.228 17.9091V31H154.228V17.9091H152.228ZM153.228 30H149.597V32H153.228V30ZM151.421 15.2216C151.126 15.2216 150.908 15.1331 150.712 14.9511L149.352 16.4182C149.929 16.9521 150.636 17.2216 151.421 17.2216V15.2216ZM150.723 14.9615C150.53 14.7779 150.461 14.6008 150.461 14.3807H148.461C148.461 15.1719 148.772 15.8642 149.341 16.4078L150.723 14.9615ZM150.461 14.3807C150.461 14.1703 150.527 14.0008 150.717 13.8223L149.347 12.3652C148.775 12.9026 148.461 13.5911 148.461 14.3807H150.461ZM150.717 13.8219C150.915 13.6362 151.131 13.5483 151.421 13.5483V11.5483C150.632 11.5483 149.922 11.824 149.347 12.3656L150.717 13.8219ZM151.421 13.5483C151.711 13.5483 151.922 13.6359 152.111 13.8169L153.493 12.3706C152.921 11.8243 152.211 11.5483 151.421 11.5483V13.5483ZM152.122 13.8273C152.317 14.0074 152.381 14.1754 152.381 14.3807H154.381C154.381 13.5859 154.06 12.896 153.481 12.3602L152.122 13.8273ZM152.381 14.3807C152.381 14.5957 152.313 14.7713 152.116 14.9565L153.487 16.4129C154.063 15.8707 154.381 15.177 154.381 14.3807H152.381ZM152.117 14.9561C151.928 15.1334 151.716 15.2216 151.421 15.2216V17.2216C152.206 17.2216 152.914 16.9518 153.487 16.4132L152.117 14.9561ZM159.767 23.4318L158.767 23.4217V23.4318H159.767ZM159.767 31V32H160.767V31H159.767ZM156.136 31H155.136V32H156.136V31ZM156.136 17.9091V16.9091H155.136V17.9091H156.136ZM159.597 17.9091H160.597V16.9091H159.597V17.9091ZM159.597 20.2188H158.597V21.2188H159.597V20.2188ZM159.75 20.2188V21.2188H160.439L160.685 20.5745L159.75 20.2188ZM161.207 18.4119L161.752 19.2504L161.757 19.2472L161.207 18.4119ZM167.642 20.0398L166.75 20.4925L166.752 20.4952L167.642 20.0398ZM168.205 31V32H169.205V31H168.205ZM164.574 31H163.574V32H164.574V31ZM164.574 23.3125L163.574 23.3054V23.3125H164.574ZM163.96 21.4375L163.222 22.1116L163.226 22.1162L163.96 21.4375ZM160.952 21.071L160.463 20.1987L160.457 20.202L160.952 21.071ZM160.082 21.9915L159.196 21.5293L159.193 21.5341L160.082 21.9915ZM158.767 23.4318V31H160.767V23.4318H158.767ZM159.767 30H156.136V32H159.767V30ZM157.136 31V17.9091H155.136V31H157.136ZM156.136 18.9091H159.597V16.9091H156.136V18.9091ZM158.597 17.9091V20.2188H160.597V17.9091H158.597ZM159.597 21.2188H159.75V19.2188H159.597V21.2188ZM160.685 20.5745C160.899 20.0109 161.249 19.5778 161.752 19.2504L160.662 17.5735C159.802 18.1324 159.18 18.9039 158.815 19.863L160.685 20.5745ZM161.757 19.2472C162.247 18.9248 162.874 18.7386 163.688 18.7386V16.7386C162.558 16.7386 161.532 17.0013 160.658 17.5767L161.757 19.2472ZM163.688 18.7386C164.447 18.7386 165.059 18.9034 165.558 19.1972L166.572 17.4733C165.72 16.9716 164.746 16.7386 163.688 16.7386V18.7386ZM165.558 19.1972C166.06 19.4925 166.457 19.9142 166.75 20.4925L168.534 19.5871C168.077 18.6881 167.423 17.9734 166.572 17.4733L165.558 19.1972ZM166.752 20.4952C167.04 21.0579 167.205 21.7695 167.205 22.6648H169.205C169.205 21.526 168.994 20.4876 168.532 19.5843L166.752 20.4952ZM167.205 22.6648V31H169.205V22.6648H167.205ZM168.205 30H164.574V32H168.205V30ZM165.574 31V23.3125H163.574V31H165.574ZM165.574 23.3196C165.581 22.3457 165.33 21.4464 164.695 20.7588L163.226 22.1162C163.42 22.3263 163.578 22.677 163.574 23.3054L165.574 23.3196ZM164.699 20.7634C164.06 20.0633 163.2 19.7557 162.247 19.7557V21.7557C162.749 21.7557 163.031 21.9026 163.222 22.1116L164.699 20.7634ZM162.247 19.7557C161.611 19.7557 161.007 19.8939 160.463 20.1987L161.441 21.9433C161.647 21.8277 161.906 21.7557 162.247 21.7557V19.7557ZM160.457 20.202C159.909 20.5141 159.488 20.968 159.196 21.5293L160.969 22.4536C161.097 22.2082 161.256 22.0484 161.446 21.9401L160.457 20.202ZM159.193 21.5341C158.901 22.1013 158.774 22.7427 158.767 23.4217L160.767 23.4419C160.771 22.996 160.854 22.6771 160.972 22.4488L159.193 21.5341ZM173.938 35.696L174.298 34.7628L174.294 34.7615L173.938 35.696ZM171.944 34.392L171.199 35.0597L171.199 35.0597L171.944 34.392ZM170.981 32.5341L170.848 31.543L169.776 31.6872L170.003 32.7442L170.981 32.5341ZM174.339 32.0824L175.27 31.718L174.984 30.9866L174.205 31.0913L174.339 32.0824ZM174.825 32.8153L175.541 32.1172L175.541 32.1172L174.825 32.8153ZM175.702 33.3608L176.061 32.4274L176.054 32.4245L175.702 33.3608ZM179.001 32.9943L178.408 32.189L178.398 32.1965L179.001 32.9943ZM179.776 28.6818H180.776V27.6818H179.776V28.6818ZM179.623 28.6818V27.6818H178.969L178.707 28.281L179.623 28.6818ZM178.907 29.7131L179.62 30.4139L179.62 30.4139L178.907 29.7131ZM173.205 30.1307L172.707 30.9978L172.714 31.0019L173.205 30.1307ZM171.288 28.0256L170.392 28.4706L170.395 28.4771L171.288 28.0256ZM171.305 20.7131L170.405 20.2762L170.405 20.2762L171.305 20.7131ZM173.231 18.4801L172.708 17.6274L172.706 17.6291L173.231 18.4801ZM177.722 18.1136L177.271 19.006L177.279 19.0101L177.722 18.1136ZM178.915 19.0341L178.14 19.666L178.146 19.6725L178.151 19.679L178.915 19.0341ZM179.623 20.108L178.717 20.5316L178.987 21.108H179.623V20.108ZM179.759 20.108V21.108H180.759V20.108H179.759ZM179.759 17.9091V16.9091H178.759V17.9091H179.759ZM183.364 17.9091H184.364V16.9091H183.364V17.9091ZM182.546 33.9233L181.737 33.3351L181.737 33.3351L182.546 33.9233ZM180.279 35.6108L179.917 34.6786L179.911 34.6812L180.279 35.6108ZM178.523 27.6506L179.107 28.4628L179.109 28.4612L178.523 27.6506ZM179.461 26.3892L178.533 26.0162L178.531 26.0212L179.461 26.3892ZM179.469 22.4176L178.535 22.7728L178.536 22.776L179.469 22.4176ZM175.532 21.1136L176.146 21.903L176.153 21.8977L175.532 21.1136ZM174.603 22.4432L175.541 22.7902L175.541 22.7902L174.603 22.4432ZM174.603 26.3722L173.669 26.7286L173.673 26.7402L174.603 26.3722ZM175.532 27.642L174.934 28.4434L174.94 28.4481L174.946 28.4527L175.532 27.642ZM176.964 35.1818C175.875 35.1818 174.995 35.0313 174.298 34.7628L173.579 36.6292C174.563 37.0084 175.7 37.1818 176.964 37.1818V35.1818ZM174.294 34.7615C173.577 34.4884 173.056 34.1347 172.688 33.7244L171.199 35.0597C171.82 35.7516 172.629 36.2672 173.582 36.6305L174.294 34.7615ZM172.688 33.7244C172.304 33.2957 172.068 32.8322 171.959 32.324L170.003 32.7442C170.189 33.611 170.595 34.3861 171.199 35.0597L172.688 33.7244ZM171.114 33.5252L174.472 33.0735L174.205 31.0913L170.848 31.543L171.114 33.5252ZM173.408 32.4468C173.565 32.8479 173.806 33.2029 174.109 33.5134L175.541 32.1172C175.4 31.9732 175.318 31.8396 175.27 31.718L173.408 32.4468ZM174.109 33.5134C174.453 33.8668 174.88 34.1204 175.351 34.2971L176.054 32.4245C175.797 32.3284 175.639 32.2184 175.541 32.1172L174.109 33.5134ZM175.343 34.2941C175.859 34.4923 176.437 34.5739 177.049 34.5739V32.5739C176.605 32.5739 176.285 32.5134 176.061 32.4274L175.343 34.2941ZM177.049 34.5739C178.005 34.5739 178.881 34.3377 179.604 33.7922L178.398 32.1965C178.097 32.4236 177.673 32.5739 177.049 32.5739V34.5739ZM179.594 33.7996C180.459 33.1625 180.776 32.157 180.776 31.0767H178.776C178.776 31.7919 178.577 32.0648 178.408 32.189L179.594 33.7996ZM180.776 31.0767V28.6818H178.776V31.0767H180.776ZM179.776 27.6818H179.623V29.6818H179.776V27.6818ZM178.707 28.281C178.603 28.5183 178.439 28.7629 178.194 29.0122L179.62 30.4139C180.012 30.0155 180.325 29.5726 180.539 29.0826L178.707 28.281ZM178.194 29.0122C177.987 29.2227 177.699 29.4174 177.301 29.5801L178.058 31.4312C178.661 31.1849 179.191 30.8512 179.62 30.4139L178.194 29.0122ZM177.301 29.5801C176.95 29.7238 176.488 29.8125 175.89 29.8125V31.8125C176.678 31.8125 177.409 31.6967 178.058 31.4312L177.301 29.5801ZM175.89 29.8125C175.068 29.8125 174.344 29.6244 173.696 29.2594L172.714 31.0019C173.68 31.5461 174.746 31.8125 175.89 31.8125V29.8125ZM173.703 29.2636C173.095 28.9139 172.582 28.369 172.18 27.5741L170.395 28.4771C170.948 29.5685 171.713 30.427 172.707 30.9978L173.703 29.2636ZM172.183 27.5805C171.801 26.8111 171.58 25.7771 171.58 24.429H169.58C169.58 25.9785 169.831 27.3423 170.392 28.4706L172.183 27.5805ZM171.58 24.429C171.58 23.0482 171.806 21.9699 172.204 21.15L170.405 20.2762C169.838 21.4449 169.58 22.8439 169.58 24.429H171.58ZM172.204 21.15C172.619 20.2962 173.143 19.7095 173.756 19.3311L172.706 17.6291C171.717 18.2394 170.956 19.1413 170.405 20.2762L172.204 21.15ZM173.753 19.3328C174.4 18.9363 175.103 18.7386 175.881 18.7386V16.7386C174.74 16.7386 173.675 17.0353 172.708 17.6274L173.753 19.3328ZM175.881 18.7386C176.506 18.7386 176.954 18.8459 177.271 19.006L178.174 17.2213C177.502 16.8814 176.723 16.7386 175.881 16.7386V18.7386ZM177.279 19.0101C177.665 19.2009 177.943 19.4237 178.14 19.666L179.691 18.4022C179.286 17.9058 178.768 17.515 178.165 17.2172L177.279 19.0101ZM178.151 19.679C178.413 19.9898 178.597 20.2744 178.717 20.5316L180.529 19.6843C180.319 19.237 180.031 18.8057 179.68 18.3892L178.151 19.679ZM179.623 21.108H179.759V19.108H179.623V21.108ZM180.759 20.108V17.9091H178.759V20.108H180.759ZM179.759 18.9091H183.364V16.9091H179.759V18.9091ZM182.364 17.9091V31.1278H184.364V17.9091H182.364ZM182.364 31.1278C182.364 32.0736 182.135 32.7881 181.737 33.3351L183.355 34.5115C184.048 33.5584 184.364 32.4093 184.364 31.1278H182.364ZM181.737 33.3351C181.318 33.9122 180.726 34.3646 179.917 34.6786L180.641 36.543C181.764 36.107 182.684 35.4344 183.355 34.5115L181.737 33.3351ZM179.911 34.6812C179.089 35.0067 178.113 35.1818 176.964 35.1818V37.1818C178.314 37.1818 179.548 36.9762 180.648 36.5404L179.911 34.6812ZM177.04 29.0852C177.797 29.0852 178.505 28.8953 179.107 28.4628L177.94 26.8384C177.735 26.9854 177.455 27.0852 177.04 27.0852V29.0852ZM179.109 28.4612C179.696 28.0369 180.116 27.4507 180.391 26.7573L178.531 26.0212C178.374 26.4187 178.169 26.6733 177.938 26.8399L179.109 28.4612ZM180.389 26.7622C180.67 26.0635 180.793 25.2713 180.793 24.4119H178.793C178.793 25.0867 178.695 25.6126 178.533 26.0162L180.389 26.7622ZM180.793 24.4119C180.793 23.5544 180.673 22.7626 180.403 22.0593L178.536 22.776C178.698 23.1976 178.793 23.7354 178.793 24.4119H180.793ZM180.404 22.0624C180.134 21.3519 179.721 20.7466 179.139 20.3019L177.925 21.8913C178.161 22.0716 178.373 22.3469 178.535 22.7728L180.404 22.0624ZM179.139 20.3019C178.532 19.8383 177.814 19.6278 177.04 19.6278V21.6278C177.438 21.6278 177.714 21.7299 177.925 21.8913L179.139 20.3019ZM177.04 19.6278C176.253 19.6278 175.522 19.8462 174.911 20.3296L176.153 21.8977C176.36 21.7334 176.635 21.6278 177.04 21.6278V19.6278ZM174.918 20.3243C174.339 20.775 173.929 21.3832 173.665 22.0962L175.541 22.7902C175.698 22.3668 175.907 22.0886 176.146 21.903L174.918 20.3243ZM173.665 22.0962C173.406 22.7976 173.288 23.5753 173.288 24.4119H175.288C175.288 23.7599 175.38 23.2252 175.541 22.7902L173.665 22.0962ZM173.288 24.4119C173.288 25.2567 173.405 26.0366 173.669 26.7286L175.537 26.0158C175.381 25.6054 175.288 25.0785 175.288 24.4119H173.288ZM173.673 26.7402C173.946 27.4291 174.359 28.0141 174.934 28.4434L176.13 26.8407C175.898 26.6677 175.692 26.4061 175.533 26.0041L173.673 26.7402ZM174.946 28.4527C175.555 28.8925 176.273 29.0852 177.04 29.0852V27.0852C176.615 27.0852 176.327 26.9825 176.117 26.8314L174.946 28.4527Z" fill="white" mask="url(#path-1-outside-1_136_2)"/>
<mask id="path-3-inside-2_136_2" fill="white">
<path d="M49.875 19.1667H44.625V15.3333H49.875M49.875 24.9167H44.625V21.0833H49.875M42 19.1667H36.75V15.3333H42M42 24.9167H36.75V21.0833H42M42 32.5833H21V28.75H42M18.375 19.1667H13.125V15.3333H18.375M18.375 24.9167H13.125V21.0833H18.375M21 21.0833H26.25V24.9167H21M21 15.3333H26.25V19.1667H21M28.875 21.0833H34.125V24.9167H28.875M28.875 15.3333H34.125V19.1667H28.875M52.5 9.58334H10.5C7.58625 9.58334 5.25 11.2892 5.25 13.4167V32.5833C5.25 33.6 5.80312 34.575 6.78769 35.2939C7.77226 36.0128 9.10761 36.4167 10.5 36.4167H52.5C53.8924 36.4167 55.2277 36.0128 56.2123 35.2939C57.1969 34.575 57.75 33.6 57.75 32.5833V13.4167C57.75 11.2892 55.3875 9.58334 52.5 9.58334Z"/>
</mask>
<path d="M49.875 19.1667H44.625V15.3333H49.875M49.875 24.9167H44.625V21.0833H49.875M42 19.1667H36.75V15.3333H42M42 24.9167H36.75V21.0833H42M42 32.5833H21V28.75H42M18.375 19.1667H13.125V15.3333H18.375M18.375 24.9167H13.125V21.0833H18.375M21 21.0833H26.25V24.9167H21M21 15.3333H26.25V19.1667H21M28.875 21.0833H34.125V24.9167H28.875M28.875 15.3333H34.125V19.1667H28.875M52.5 9.58334H10.5C7.58625 9.58334 5.25 11.2892 5.25 13.4167V32.5833C5.25 33.6 5.80312 34.575 6.78769 35.2939C7.77226 36.0128 9.10761 36.4167 10.5 36.4167H52.5C53.8924 36.4167 55.2277 36.0128 56.2123 35.2939C57.1969 34.575 57.75 33.6 57.75 32.5833V13.4167C57.75 11.2892 55.3875 9.58334 52.5 9.58334Z" fill="black"/>
<path d="M44.625 19.1667H43.625V20.1667H44.625V19.1667ZM44.625 15.3333V14.3333H43.625V15.3333H44.625ZM44.625 24.9167H43.625V25.9167H44.625V24.9167ZM44.625 21.0833V20.0833H43.625V21.0833H44.625ZM36.75 19.1667H35.75V20.1667H36.75V19.1667ZM36.75 15.3333V14.3333H35.75V15.3333H36.75ZM36.75 24.9167H35.75V25.9167H36.75V24.9167ZM36.75 21.0833V20.0833H35.75V21.0833H36.75ZM21 32.5833H20V33.5833H21V32.5833ZM21 28.75V27.75H20V28.75H21ZM13.125 19.1667H12.125V20.1667H13.125V19.1667ZM13.125 15.3333V14.3333H12.125V15.3333H13.125ZM13.125 24.9167H12.125V25.9167H13.125V24.9167ZM13.125 21.0833V20.0833H12.125V21.0833H13.125ZM26.25 21.0833H27.25V20.0833H26.25V21.0833ZM26.25 24.9167V25.9167H27.25V24.9167H26.25ZM26.25 15.3333H27.25V14.3333H26.25V15.3333ZM26.25 19.1667V20.1667H27.25V19.1667H26.25ZM34.125 21.0833H35.125V20.0833H34.125V21.0833ZM34.125 24.9167V25.9167H35.125V24.9167H34.125ZM34.125 15.3333H35.125V14.3333H34.125V15.3333ZM34.125 19.1667V20.1667H35.125V19.1667H34.125ZM5.25 32.5833H4.25H5.25ZM49.875 18.1667H44.625V20.1667H49.875V18.1667ZM45.625 19.1667V15.3333H43.625V19.1667H45.625ZM44.625 16.3333H49.875V14.3333H44.625V16.3333ZM49.875 23.9167H44.625V25.9167H49.875V23.9167ZM45.625 24.9167V21.0833H43.625V24.9167H45.625ZM44.625 22.0833H49.875V20.0833H44.625V22.0833ZM42 18.1667H36.75V20.1667H42V18.1667ZM37.75 19.1667V15.3333H35.75V19.1667H37.75ZM36.75 16.3333H42V14.3333H36.75V16.3333ZM42 23.9167H36.75V25.9167H42V23.9167ZM37.75 24.9167V21.0833H35.75V24.9167H37.75ZM36.75 22.0833H42V20.0833H36.75V22.0833ZM42 31.5833H21V33.5833H42V31.5833ZM22 32.5833V28.75H20V32.5833H22ZM21 29.75H42V27.75H21V29.75ZM18.375 18.1667H13.125V20.1667H18.375V18.1667ZM14.125 19.1667V15.3333H12.125V19.1667H14.125ZM13.125 16.3333H18.375V14.3333H13.125V16.3333ZM18.375 23.9167H13.125V25.9167H18.375V23.9167ZM14.125 24.9167V21.0833H12.125V24.9167H14.125ZM13.125 22.0833H18.375V20.0833H13.125V22.0833ZM21 22.0833H26.25V20.0833H21V22.0833ZM25.25 21.0833V24.9167H27.25V21.0833H25.25ZM26.25 23.9167H21V25.9167H26.25V23.9167ZM21 16.3333H26.25V14.3333H21V16.3333ZM25.25 15.3333V19.1667H27.25V15.3333H25.25ZM26.25 18.1667H21V20.1667H26.25V18.1667ZM28.875 22.0833H34.125V20.0833H28.875V22.0833ZM33.125 21.0833V24.9167H35.125V21.0833H33.125ZM34.125 23.9167H28.875V25.9167H34.125V23.9167ZM28.875 16.3333H34.125V14.3333H28.875V16.3333ZM33.125 15.3333V19.1667H35.125V15.3333H33.125ZM34.125 18.1667H28.875V20.1667H34.125V18.1667ZM52.5 8.58334H10.5V10.5833H52.5V8.58334ZM10.5 8.58334C8.85602 8.58334 7.33119 9.06325 6.19265 9.89457C5.05345 10.7264 4.25 11.959 4.25 13.4167H6.25C6.25 12.7469 6.61468 12.0628 7.37204 11.5098C8.13006 10.9563 9.23023 10.5833 10.5 10.5833V8.58334ZM4.25 13.4167V32.5833H6.25V13.4167H4.25ZM4.25 32.5833C4.25 33.9849 5.01359 35.2367 6.19799 36.1015L7.37738 34.4863C6.59266 33.9133 6.25 33.2151 6.25 32.5833H4.25ZM6.19799 36.1015C7.37747 36.9627 8.92699 37.4167 10.5 37.4167V35.4167C9.28824 35.4167 8.16704 35.0629 7.37738 34.4863L6.19799 36.1015ZM10.5 37.4167H52.5V35.4167H10.5V37.4167ZM52.5 37.4167C54.073 37.4167 55.6225 36.9627 56.802 36.1015L55.6226 34.4863C54.833 35.0629 53.7118 35.4167 52.5 35.4167V37.4167ZM56.802 36.1015C57.9864 35.2367 58.75 33.9849 58.75 32.5833H56.75C56.75 33.2151 56.4073 33.9133 55.6226 34.4863L56.802 36.1015ZM58.75 32.5833V13.4167H56.75V32.5833H58.75ZM58.75 13.4167C58.75 11.955 57.936 10.723 56.7962 9.8936C55.6561 9.06401 54.1323 8.58334 52.5 8.58334V10.5833C53.7552 10.5833 54.8564 10.9556 55.6194 11.5108C56.3828 12.0662 56.75 12.7509 56.75 13.4167H58.75Z" fill="black" mask="url(#path-3-inside-2_136_2)"/>
</svg>
