<svg width="185" height="46" viewBox="0 0 185 46" fill="none" xmlns="http://www.w3.org/2000/svg">
<path d="M63.8523 16.5881V13.5455H78.1875V16.5881H72.8438V31H69.196V16.5881H63.8523ZM84.5476 31.2557C83.201 31.2557 82.0419 30.983 81.0703 30.4375C80.1044 29.8864 79.3601 29.108 78.8374 28.1023C78.3146 27.0909 78.0533 25.8949 78.0533 24.5142C78.0533 23.1676 78.3146 21.9858 78.8374 20.9688C79.3601 19.9517 80.0959 19.1591 81.0447 18.5909C81.9993 18.0227 83.1186 17.7386 84.4027 17.7386C85.2663 17.7386 86.0703 17.8778 86.8146 18.1562C87.5646 18.429 88.218 18.8409 88.7749 19.392C89.3374 19.9432 89.7749 20.6364 90.0874 21.4716C90.3999 22.3011 90.5561 23.2727 90.5561 24.3864V25.3835H79.5021V23.1335H87.1385C87.1385 22.6108 87.0249 22.1477 86.7976 21.7443C86.5703 21.3409 86.255 21.0256 85.8516 20.7983C85.4538 20.5653 84.9908 20.4489 84.4624 20.4489C83.9112 20.4489 83.4226 20.5767 82.9964 20.8324C82.576 21.0824 82.2464 21.4205 82.0078 21.8466C81.7692 22.267 81.647 22.7358 81.6413 23.2528V25.392C81.6413 26.0398 81.7607 26.5994 81.9993 27.071C82.2436 27.5426 82.5874 27.9062 83.0305 28.1619C83.4737 28.4176 83.9993 28.5455 84.6072 28.5455C85.0107 28.5455 85.38 28.4886 85.7152 28.375C86.0504 28.2614 86.3374 28.0909 86.576 27.8636C86.8146 27.6364 86.9964 27.358 87.1214 27.0284L90.4794 27.25C90.3089 28.0568 89.9595 28.7614 89.4311 29.3636C88.9084 29.9602 88.2322 30.4261 87.4027 30.7614C86.5788 31.0909 85.6271 31.2557 84.5476 31.2557ZM92.8572 31V28.8352L99.2663 20.9006V20.8068H93.0788V17.9091H103.638V20.2699L97.6214 28.0085V28.1023H103.86V31H92.8572ZM105.219 16.5881V13.5455H119.555V16.5881H114.211V31H110.563V16.5881H105.219ZM122.589 35.9091C122.129 35.9091 121.697 35.8722 121.293 35.7983C120.896 35.7301 120.566 35.642 120.305 35.5341L121.123 32.8239C121.549 32.9545 121.933 33.0256 122.273 33.0369C122.62 33.0483 122.918 32.9688 123.168 32.7983C123.424 32.6278 123.631 32.3381 123.79 31.929L124.004 31.375L119.308 17.9091H123.126L125.836 27.5227H125.972L128.708 17.9091H132.552L127.464 32.4148C127.219 33.1193 126.887 33.733 126.467 34.2557C126.052 34.7841 125.526 35.1903 124.89 35.4744C124.254 35.7642 123.487 35.9091 122.589 35.9091ZM134.41 35.9091V17.9091H137.989V20.108H138.151C138.31 19.7557 138.54 19.3977 138.842 19.0341C139.148 18.6648 139.546 18.358 140.035 18.1136C140.529 17.8636 141.143 17.7386 141.876 17.7386C142.83 17.7386 143.711 17.9886 144.518 18.4886C145.325 18.983 145.969 19.7301 146.452 20.7301C146.935 21.7244 147.177 22.9716 147.177 24.4716C147.177 25.9318 146.941 27.1648 146.469 28.1705C146.004 29.1705 145.367 29.929 144.56 30.446C143.759 30.9574 142.862 31.2131 141.867 31.2131C141.163 31.2131 140.563 31.0966 140.069 30.8636C139.58 30.6307 139.18 30.3381 138.867 29.9858C138.555 29.6278 138.316 29.267 138.151 28.9034H138.04V35.9091H134.41ZM137.964 24.4545C137.964 25.233 138.072 25.9119 138.288 26.4915C138.504 27.071 138.816 27.5227 139.225 27.8466C139.634 28.1648 140.131 28.3239 140.717 28.3239C141.308 28.3239 141.808 28.1619 142.217 27.8381C142.626 27.5085 142.935 27.054 143.146 26.4744C143.362 25.8892 143.469 25.2159 143.469 24.4545C143.469 23.6989 143.364 23.0341 143.154 22.4602C142.944 21.8864 142.634 21.4375 142.225 21.1136C141.816 20.7898 141.313 20.6278 140.717 20.6278C140.126 20.6278 139.626 20.7841 139.217 21.0966C138.813 21.4091 138.504 21.8523 138.288 22.4261C138.072 23 137.964 23.6761 137.964 24.4545ZM149.597 31V17.9091H153.228V31H149.597ZM151.421 16.2216C150.881 16.2216 150.418 16.0426 150.032 15.6847C149.651 15.321 149.461 14.8864 149.461 14.3807C149.461 13.8807 149.651 13.4517 150.032 13.0938C150.418 12.7301 150.881 12.5483 151.421 12.5483C151.961 12.5483 152.421 12.7301 152.802 13.0938C153.188 13.4517 153.381 13.8807 153.381 14.3807C153.381 14.8864 153.188 15.321 152.802 15.6847C152.421 16.0426 151.961 16.2216 151.421 16.2216ZM159.767 23.4318V31H156.136V17.9091H159.597V20.2188H159.75C160.04 19.4574 160.526 18.8551 161.207 18.4119C161.889 17.9631 162.716 17.7386 163.688 17.7386C164.597 17.7386 165.389 17.9375 166.065 18.3352C166.741 18.733 167.267 19.3011 167.642 20.0398C168.017 20.7727 168.205 21.6477 168.205 22.6648V31H164.574V23.3125C164.58 22.5114 164.375 21.8864 163.96 21.4375C163.545 20.983 162.974 20.7557 162.247 20.7557C161.759 20.7557 161.327 20.8608 160.952 21.071C160.582 21.2812 160.293 21.5881 160.082 21.9915C159.878 22.3892 159.773 22.8693 159.767 23.4318ZM176.964 36.1818C175.788 36.1818 174.779 36.0199 173.938 35.696C173.103 35.3778 172.438 34.9432 171.944 34.392C171.45 33.8409 171.129 33.2216 170.981 32.5341L174.339 32.0824C174.441 32.3438 174.603 32.5881 174.825 32.8153C175.046 33.0426 175.339 33.2244 175.702 33.3608C176.072 33.5028 176.521 33.5739 177.049 33.5739C177.839 33.5739 178.489 33.3807 179.001 32.9943C179.518 32.6136 179.776 31.9744 179.776 31.0767V28.6818H179.623C179.464 29.0455 179.225 29.3892 178.907 29.7131C178.589 30.0369 178.18 30.3011 177.68 30.5057C177.18 30.7102 176.583 30.8125 175.89 30.8125C174.907 30.8125 174.012 30.5852 173.205 30.1307C172.404 29.6705 171.765 28.9687 171.288 28.0256C170.816 27.0767 170.58 25.8778 170.58 24.429C170.58 22.946 170.822 21.7074 171.305 20.7131C171.788 19.7187 172.43 18.9744 173.231 18.4801C174.038 17.9858 174.921 17.7386 175.881 17.7386C176.614 17.7386 177.228 17.8636 177.722 18.1136C178.217 18.358 178.614 18.6648 178.915 19.0341C179.222 19.3977 179.458 19.7557 179.623 20.108H179.759V17.9091H183.364V31.1278C183.364 32.2415 183.092 33.1733 182.546 33.9233C182.001 34.6733 181.245 35.2358 180.279 35.6108C179.319 35.9915 178.214 36.1818 176.964 36.1818ZM177.04 28.0852C177.626 28.0852 178.12 27.9403 178.523 27.6506C178.933 27.3551 179.245 26.9347 179.461 26.3892C179.683 25.8381 179.793 25.179 179.793 24.4119C179.793 23.6449 179.685 22.9801 179.469 22.4176C179.254 21.8494 178.941 21.4091 178.532 21.0966C178.123 20.7841 177.626 20.6278 177.04 20.6278C176.444 20.6278 175.941 20.7898 175.532 21.1136C175.123 21.4318 174.813 21.875 174.603 22.4432C174.393 23.0114 174.288 23.6676 174.288 24.4119C174.288 25.1676 174.393 25.821 174.603 26.3722C174.819 26.9176 175.129 27.3409 175.532 27.642C175.941 27.9375 176.444 28.0852 177.04 28.0852Z" fill="black"/>
<mask id="path-2-inside-1_136_2" fill="white">
<path d="M49.875 19.1667H44.625V15.3333H49.875M49.875 24.9167H44.625V21.0833H49.875M42 19.1667H36.75V15.3333H42M42 24.9167H36.75V21.0833H42M42 32.5833H21V28.75H42M18.375 19.1667H13.125V15.3333H18.375M18.375 24.9167H13.125V21.0833H18.375M21 21.0833H26.25V24.9167H21M21 15.3333H26.25V19.1667H21M28.875 21.0833H34.125V24.9167H28.875M28.875 15.3333H34.125V19.1667H28.875M52.5 9.58334H10.5C7.58625 9.58334 5.25 11.2892 5.25 13.4167V32.5833C5.25 33.6 5.80312 34.575 6.78769 35.2939C7.77226 36.0128 9.10761 36.4167 10.5 36.4167H52.5C53.8924 36.4167 55.2277 36.0128 56.2123 35.2939C57.1969 34.575 57.75 33.6 57.75 32.5833V13.4167C57.75 11.2892 55.3875 9.58334 52.5 9.58334Z"/>
</mask>
<path d="M49.875 19.1667H44.625V15.3333H49.875M49.875 24.9167H44.625V21.0833H49.875M42 19.1667H36.75V15.3333H42M42 24.9167H36.75V21.0833H42M42 32.5833H21V28.75H42M18.375 19.1667H13.125V15.3333H18.375M18.375 24.9167H13.125V21.0833H18.375M21 21.0833H26.25V24.9167H21M21 15.3333H26.25V19.1667H21M28.875 21.0833H34.125V24.9167H28.875M28.875 15.3333H34.125V19.1667H28.875M52.5 9.58334H10.5C7.58625 9.58334 5.25 11.2892 5.25 13.4167V32.5833C5.25 33.6 5.80312 34.575 6.78769 35.2939C7.77226 36.0128 9.10761 36.4167 10.5 36.4167H52.5C53.8924 36.4167 55.2277 36.0128 56.2123 35.2939C57.1969 34.575 57.75 33.6 57.75 32.5833V13.4167C57.75 11.2892 55.3875 9.58334 52.5 9.58334Z" fill="black"/>
<path d="M44.625 19.1667H43.625V20.1667H44.625V19.1667ZM44.625 15.3333V14.3333H43.625V15.3333H44.625ZM44.625 24.9167H43.625V25.9167H44.625V24.9167ZM44.625 21.0833V20.0833H43.625V21.0833H44.625ZM36.75 19.1667H35.75V20.1667H36.75V19.1667ZM36.75 15.3333V14.3333H35.75V15.3333H36.75ZM36.75 24.9167H35.75V25.9167H36.75V24.9167ZM36.75 21.0833V20.0833H35.75V21.0833H36.75ZM21 32.5833H20V33.5833H21V32.5833ZM21 28.75V27.75H20V28.75H21ZM13.125 19.1667H12.125V20.1667H13.125V19.1667ZM13.125 15.3333V14.3333H12.125V15.3333H13.125ZM13.125 24.9167H12.125V25.9167H13.125V24.9167ZM13.125 21.0833V20.0833H12.125V21.0833H13.125ZM26.25 21.0833H27.25V20.0833H26.25V21.0833ZM26.25 24.9167V25.9167H27.25V24.9167H26.25ZM26.25 15.3333H27.25V14.3333H26.25V15.3333ZM26.25 19.1667V20.1667H27.25V19.1667H26.25ZM34.125 21.0833H35.125V20.0833H34.125V21.0833ZM34.125 24.9167V25.9167H35.125V24.9167H34.125ZM34.125 15.3333H35.125V14.3333H34.125V15.3333ZM34.125 19.1667V20.1667H35.125V19.1667H34.125ZM5.25 32.5833H4.25H5.25ZM49.875 18.1667H44.625V20.1667H49.875V18.1667ZM45.625 19.1667V15.3333H43.625V19.1667H45.625ZM44.625 16.3333H49.875V14.3333H44.625V16.3333ZM49.875 23.9167H44.625V25.9167H49.875V23.9167ZM45.625 24.9167V21.0833H43.625V24.9167H45.625ZM44.625 22.0833H49.875V20.0833H44.625V22.0833ZM42 18.1667H36.75V20.1667H42V18.1667ZM37.75 19.1667V15.3333H35.75V19.1667H37.75ZM36.75 16.3333H42V14.3333H36.75V16.3333ZM42 23.9167H36.75V25.9167H42V23.9167ZM37.75 24.9167V21.0833H35.75V24.9167H37.75ZM36.75 22.0833H42V20.0833H36.75V22.0833ZM42 31.5833H21V33.5833H42V31.5833ZM22 32.5833V28.75H20V32.5833H22ZM21 29.75H42V27.75H21V29.75ZM18.375 18.1667H13.125V20.1667H18.375V18.1667ZM14.125 19.1667V15.3333H12.125V19.1667H14.125ZM13.125 16.3333H18.375V14.3333H13.125V16.3333ZM18.375 23.9167H13.125V25.9167H18.375V23.9167ZM14.125 24.9167V21.0833H12.125V24.9167H14.125ZM13.125 22.0833H18.375V20.0833H13.125V22.0833ZM21 22.0833H26.25V20.0833H21V22.0833ZM25.25 21.0833V24.9167H27.25V21.0833H25.25ZM26.25 23.9167H21V25.9167H26.25V23.9167ZM21 16.3333H26.25V14.3333H21V16.3333ZM25.25 15.3333V19.1667H27.25V15.3333H25.25ZM26.25 18.1667H21V20.1667H26.25V18.1667ZM28.875 22.0833H34.125V20.0833H28.875V22.0833ZM33.125 21.0833V24.9167H35.125V21.0833H33.125ZM34.125 23.9167H28.875V25.9167H34.125V23.9167ZM28.875 16.3333H34.125V14.3333H28.875V16.3333ZM33.125 15.3333V19.1667H35.125V15.3333H33.125ZM34.125 18.1667H28.875V20.1667H34.125V18.1667ZM52.5 8.58334H10.5V10.5833H52.5V8.58334ZM10.5 8.58334C8.85602 8.58334 7.33119 9.06325 6.19265 9.89457C5.05345 10.7264 4.25 11.959 4.25 13.4167H6.25C6.25 12.7469 6.61468 12.0628 7.37204 11.5098C8.13006 10.9563 9.23023 10.5833 10.5 10.5833V8.58334ZM4.25 13.4167V32.5833H6.25V13.4167H4.25ZM4.25 32.5833C4.25 33.9849 5.01359 35.2367 6.19799 36.1015L7.37738 34.4863C6.59266 33.9133 6.25 33.2151 6.25 32.5833H4.25ZM6.19799 36.1015C7.37747 36.9627 8.92699 37.4167 10.5 37.4167V35.4167C9.28824 35.4167 8.16704 35.0629 7.37738 34.4863L6.19799 36.1015ZM10.5 37.4167H52.5V35.4167H10.5V37.4167ZM52.5 37.4167C54.073 37.4167 55.6225 36.9627 56.802 36.1015L55.6226 34.4863C54.833 35.0629 53.7118 35.4167 52.5 35.4167V37.4167ZM56.802 36.1015C57.9864 35.2367 58.75 33.9849 58.75 32.5833H56.75C56.75 33.2151 56.4073 33.9133 55.6226 34.4863L56.802 36.1015ZM58.75 32.5833V13.4167H56.75V32.5833H58.75ZM58.75 13.4167C58.75 11.955 57.936 10.723 56.7962 9.8936C55.6561 9.06401 54.1323 8.58334 52.5 8.58334V10.5833C53.7552 10.5833 54.8564 10.9556 55.6194 11.5108C56.3828 12.0662 56.75 12.7509 56.75 13.4167H58.75Z" fill="black" mask="url(#path-2-inside-1_136_2)"/>
</svg>
