<svg width="105" height="19" viewBox="0 0 105 19" fill="none" xmlns="http://www.w3.org/2000/svg">
<mask id="path-1-outside-1_136_4" maskUnits="userSpaceOnUse" x="-1" y="-1" width="108" height="21" fill="black">
<rect fill="white" x="-1" y="-1" width="108" height="21"/>
<path d="M11.2983 0.545454H14.9886V11.8807C14.9886 13.1534 14.6847 14.267 14.0767 15.2216C13.4744 16.1761 12.6307 16.9205 11.5455 17.4545C10.4602 17.983 9.19602 18.2472 7.75284 18.2472C6.30398 18.2472 5.03693 17.983 3.9517 17.4545C2.86648 16.9205 2.02273 16.1761 1.42045 15.2216C0.818182 14.267 0.517045 13.1534 0.517045 11.8807V0.545454H4.20739V11.5653C4.20739 12.2301 4.35227 12.821 4.64205 13.3381C4.9375 13.8551 5.35227 14.2614 5.88636 14.5568C6.42045 14.8523 7.04261 15 7.75284 15C8.46875 15 9.09091 14.8523 9.61932 14.5568C10.1534 14.2614 10.5653 13.8551 10.8551 13.3381C11.1506 12.821 11.2983 12.2301 11.2983 11.5653V0.545454ZM22.7805 18.2131C21.7862 18.2131 20.8857 17.9574 20.0788 17.446C19.2777 16.929 18.6413 16.1705 18.1697 15.1705C17.7038 14.1648 17.4709 12.9318 17.4709 11.4716C17.4709 9.97159 17.7124 8.72443 18.1953 7.73011C18.6783 6.73011 19.3203 5.98295 20.1214 5.48864C20.9283 4.98864 21.8118 4.73864 22.772 4.73864C23.505 4.73864 24.1158 4.86364 24.6044 5.11364C25.0987 5.35795 25.4964 5.66477 25.7976 6.03409C26.1044 6.39773 26.3374 6.75568 26.4964 7.10795H26.6072V0.545454H30.2294V18H26.6499V15.9034H26.4964C26.326 16.267 26.0845 16.6278 25.772 16.9858C25.4652 17.3381 25.0646 17.6307 24.5703 17.8636C24.0817 18.0966 23.4851 18.2131 22.7805 18.2131ZM23.9311 15.3239C24.5163 15.3239 25.0107 15.1648 25.4141 14.8466C25.8232 14.5227 26.1357 14.071 26.3516 13.4915C26.5732 12.9119 26.6839 12.233 26.6839 11.4545C26.6839 10.6761 26.576 10 26.3601 9.42614C26.1442 8.85227 25.8317 8.40909 25.4226 8.09659C25.0135 7.78409 24.5163 7.62784 23.9311 7.62784C23.3345 7.62784 22.8317 7.78977 22.4226 8.11364C22.0135 8.4375 21.7038 8.88636 21.4936 9.46023C21.2834 10.0341 21.1783 10.6989 21.1783 11.4545C21.1783 12.2159 21.2834 12.8892 21.4936 13.4744C21.7095 14.054 22.0192 14.5085 22.4226 14.8381C22.8317 15.1619 23.3345 15.3239 23.9311 15.3239ZM39.1804 18.2557C37.8338 18.2557 36.6747 17.983 35.7031 17.4375C34.7372 16.8864 33.9929 16.108 33.4702 15.1023C32.9474 14.0909 32.6861 12.8949 32.6861 11.5142C32.6861 10.1676 32.9474 8.9858 33.4702 7.96875C33.9929 6.9517 34.7287 6.15909 35.6776 5.59091C36.6321 5.02273 37.7514 4.73864 39.0355 4.73864C39.8991 4.73864 40.7031 4.87784 41.4474 5.15625C42.1974 5.42898 42.8509 5.84091 43.4077 6.39205C43.9702 6.94318 44.4077 7.63636 44.7202 8.47159C45.0327 9.30114 45.1889 10.2727 45.1889 11.3864V12.3835H34.1349V10.1335H41.7713C41.7713 9.6108 41.6577 9.14773 41.4304 8.74432C41.2031 8.34091 40.8878 8.02557 40.4844 7.7983C40.0866 7.56534 39.6236 7.44886 39.0952 7.44886C38.544 7.44886 38.0554 7.5767 37.6293 7.83239C37.2088 8.08239 36.8793 8.42045 36.6406 8.84659C36.402 9.26705 36.2798 9.7358 36.2741 10.2528V12.392C36.2741 13.0398 36.3935 13.5994 36.6321 14.071C36.8764 14.5426 37.2202 14.9062 37.6634 15.1619C38.1065 15.4176 38.6321 15.5455 39.2401 15.5455C39.6435 15.5455 40.0128 15.4886 40.348 15.375C40.6832 15.2614 40.9702 15.0909 41.2088 14.8636C41.4474 14.6364 41.6293 14.358 41.7543 14.0284L45.1122 14.25C44.9418 15.0568 44.5923 15.7614 44.0639 16.3636C43.5412 16.9602 42.8651 17.4261 42.0355 17.7614C41.2116 18.0909 40.2599 18.2557 39.1804 18.2557ZM47.5582 18V4.90909H51.0185V7.21875H51.1719C51.4446 6.4517 51.8991 5.84659 52.5355 5.40341C53.1719 4.96023 53.9332 4.73864 54.8196 4.73864C55.7173 4.73864 56.4815 4.96307 57.1122 5.41193C57.7429 5.85511 58.1634 6.45739 58.3736 7.21875H58.5099C58.777 6.46875 59.2599 5.86932 59.9588 5.42045C60.6634 4.96591 61.4957 4.73864 62.456 4.73864C63.6776 4.73864 64.669 5.12784 65.4304 5.90625C66.1974 6.67898 66.581 7.77557 66.581 9.19602V18H62.9588V9.91193C62.9588 9.18466 62.7656 8.6392 62.3793 8.27557C61.9929 7.91193 61.5099 7.73011 60.9304 7.73011C60.2713 7.73011 59.7571 7.94034 59.3878 8.3608C59.0185 8.77557 58.8338 9.32386 58.8338 10.0057V18H55.3139V9.83523C55.3139 9.19318 55.1293 8.68182 54.7599 8.30114C54.3963 7.92045 53.9162 7.73011 53.3196 7.73011C52.9162 7.73011 52.5526 7.83239 52.2287 8.03693C51.9105 8.2358 51.6577 8.51705 51.4702 8.88068C51.2827 9.23864 51.1889 9.65909 51.1889 10.142V18H47.5582ZM75.4148 18.2557C74.0682 18.2557 72.9091 17.983 71.9375 17.4375C70.9716 16.8864 70.2273 16.108 69.7045 15.1023C69.1818 14.0909 68.9205 12.8949 68.9205 11.5142C68.9205 10.1676 69.1818 8.9858 69.7045 7.96875C70.2273 6.9517 70.9631 6.15909 71.9119 5.59091C72.8665 5.02273 73.9858 4.73864 75.2699 4.73864C76.1335 4.73864 76.9375 4.87784 77.6818 5.15625C78.4318 5.42898 79.0852 5.84091 79.642 6.39205C80.2045 6.94318 80.642 7.63636 80.9545 8.47159C81.267 9.30114 81.4233 10.2727 81.4233 11.3864V12.3835H70.3693V10.1335H78.0057C78.0057 9.6108 77.892 9.14773 77.6648 8.74432C77.4375 8.34091 77.1222 8.02557 76.7188 7.7983C76.321 7.56534 75.858 7.44886 75.3295 7.44886C74.7784 7.44886 74.2898 7.5767 73.8636 7.83239C73.4432 8.08239 73.1136 8.42045 72.875 8.84659C72.6364 9.26705 72.5142 9.7358 72.5085 10.2528V12.392C72.5085 13.0398 72.6278 13.5994 72.8665 14.071C73.1108 14.5426 73.4545 14.9062 73.8977 15.1619C74.3409 15.4176 74.8665 15.5455 75.4744 15.5455C75.8778 15.5455 76.2472 15.4886 76.5824 15.375C76.9176 15.2614 77.2045 15.0909 77.4432 14.8636C77.6818 14.6364 77.8636 14.358 77.9886 14.0284L81.3466 14.25C81.1761 15.0568 80.8267 15.7614 80.2983 16.3636C79.7756 16.9602 79.0994 17.4261 78.2699 17.7614C77.446 18.0909 76.4943 18.2557 75.4148 18.2557ZM83.7926 18V4.90909H87.3125V7.19318H87.4489C87.6875 6.38068 88.0881 5.76705 88.6506 5.35227C89.2131 4.93182 89.8608 4.72159 90.5938 4.72159C90.7756 4.72159 90.9716 4.73295 91.1818 4.75568C91.392 4.77841 91.5767 4.80966 91.7358 4.84943V8.07102C91.5653 8.01989 91.3295 7.97443 91.0284 7.93466C90.7273 7.89489 90.4517 7.875 90.2017 7.875C89.6676 7.875 89.1903 7.99148 88.7699 8.22443C88.3551 8.4517 88.0256 8.76989 87.7812 9.17898C87.5426 9.58807 87.4233 10.0597 87.4233 10.5938V18H83.7926ZM98.9695 18.2557C97.6229 18.2557 96.4638 17.983 95.4922 17.4375C94.5263 16.8864 93.782 16.108 93.2592 15.1023C92.7365 14.0909 92.4751 12.8949 92.4751 11.5142C92.4751 10.1676 92.7365 8.9858 93.2592 7.96875C93.782 6.9517 94.5178 6.15909 95.4666 5.59091C96.4212 5.02273 97.5405 4.73864 98.8246 4.73864C99.6882 4.73864 100.492 4.87784 101.237 5.15625C101.987 5.42898 102.64 5.84091 103.197 6.39205C103.759 6.94318 104.197 7.63636 104.509 8.47159C104.822 9.30114 104.978 10.2727 104.978 11.3864V12.3835H93.924V10.1335H101.56C101.56 9.6108 101.447 9.14773 101.219 8.74432C100.992 8.34091 100.677 8.02557 100.273 7.7983C99.8757 7.56534 99.4126 7.44886 98.8842 7.44886C98.3331 7.44886 97.8445 7.5767 97.4183 7.83239C96.9979 8.08239 96.6683 8.42045 96.4297 8.84659C96.1911 9.26705 96.0689 9.7358 96.0632 10.2528V12.392C96.0632 13.0398 96.1825 13.5994 96.4212 14.071C96.6655 14.5426 97.0092 14.9062 97.4524 15.1619C97.8956 15.4176 98.4212 15.5455 99.0291 15.5455C99.4325 15.5455 99.8018 15.4886 100.137 15.375C100.472 15.2614 100.759 15.0909 100.998 14.8636C101.237 14.6364 101.418 14.358 101.543 14.0284L104.901 14.25C104.731 15.0568 104.381 15.7614 103.853 16.3636C103.33 16.9602 102.654 17.4261 101.825 17.7614C101.001 18.0909 100.049 18.2557 98.9695 18.2557Z"/>
</mask>
<path d="M11.2983 0.545454H14.9886V11.8807C14.9886 13.1534 14.6847 14.267 14.0767 15.2216C13.4744 16.1761 12.6307 16.9205 11.5455 17.4545C10.4602 17.983 9.19602 18.2472 7.75284 18.2472C6.30398 18.2472 5.03693 17.983 3.9517 17.4545C2.86648 16.9205 2.02273 16.1761 1.42045 15.2216C0.818182 14.267 0.517045 13.1534 0.517045 11.8807V0.545454H4.20739V11.5653C4.20739 12.2301 4.35227 12.821 4.64205 13.3381C4.9375 13.8551 5.35227 14.2614 5.88636 14.5568C6.42045 14.8523 7.04261 15 7.75284 15C8.46875 15 9.09091 14.8523 9.61932 14.5568C10.1534 14.2614 10.5653 13.8551 10.8551 13.3381C11.1506 12.821 11.2983 12.2301 11.2983 11.5653V0.545454ZM22.7805 18.2131C21.7862 18.2131 20.8857 17.9574 20.0788 17.446C19.2777 16.929 18.6413 16.1705 18.1697 15.1705C17.7038 14.1648 17.4709 12.9318 17.4709 11.4716C17.4709 9.97159 17.7124 8.72443 18.1953 7.73011C18.6783 6.73011 19.3203 5.98295 20.1214 5.48864C20.9283 4.98864 21.8118 4.73864 22.772 4.73864C23.505 4.73864 24.1158 4.86364 24.6044 5.11364C25.0987 5.35795 25.4964 5.66477 25.7976 6.03409C26.1044 6.39773 26.3374 6.75568 26.4964 7.10795H26.6072V0.545454H30.2294V18H26.6499V15.9034H26.4964C26.326 16.267 26.0845 16.6278 25.772 16.9858C25.4652 17.3381 25.0646 17.6307 24.5703 17.8636C24.0817 18.0966 23.4851 18.2131 22.7805 18.2131ZM23.9311 15.3239C24.5163 15.3239 25.0107 15.1648 25.4141 14.8466C25.8232 14.5227 26.1357 14.071 26.3516 13.4915C26.5732 12.9119 26.6839 12.233 26.6839 11.4545C26.6839 10.6761 26.576 10 26.3601 9.42614C26.1442 8.85227 25.8317 8.40909 25.4226 8.09659C25.0135 7.78409 24.5163 7.62784 23.9311 7.62784C23.3345 7.62784 22.8317 7.78977 22.4226 8.11364C22.0135 8.4375 21.7038 8.88636 21.4936 9.46023C21.2834 10.0341 21.1783 10.6989 21.1783 11.4545C21.1783 12.2159 21.2834 12.8892 21.4936 13.4744C21.7095 14.054 22.0192 14.5085 22.4226 14.8381C22.8317 15.1619 23.3345 15.3239 23.9311 15.3239ZM39.1804 18.2557C37.8338 18.2557 36.6747 17.983 35.7031 17.4375C34.7372 16.8864 33.9929 16.108 33.4702 15.1023C32.9474 14.0909 32.6861 12.8949 32.6861 11.5142C32.6861 10.1676 32.9474 8.9858 33.4702 7.96875C33.9929 6.9517 34.7287 6.15909 35.6776 5.59091C36.6321 5.02273 37.7514 4.73864 39.0355 4.73864C39.8991 4.73864 40.7031 4.87784 41.4474 5.15625C42.1974 5.42898 42.8509 5.84091 43.4077 6.39205C43.9702 6.94318 44.4077 7.63636 44.7202 8.47159C45.0327 9.30114 45.1889 10.2727 45.1889 11.3864V12.3835H34.1349V10.1335H41.7713C41.7713 9.6108 41.6577 9.14773 41.4304 8.74432C41.2031 8.34091 40.8878 8.02557 40.4844 7.7983C40.0866 7.56534 39.6236 7.44886 39.0952 7.44886C38.544 7.44886 38.0554 7.5767 37.6293 7.83239C37.2088 8.08239 36.8793 8.42045 36.6406 8.84659C36.402 9.26705 36.2798 9.7358 36.2741 10.2528V12.392C36.2741 13.0398 36.3935 13.5994 36.6321 14.071C36.8764 14.5426 37.2202 14.9062 37.6634 15.1619C38.1065 15.4176 38.6321 15.5455 39.2401 15.5455C39.6435 15.5455 40.0128 15.4886 40.348 15.375C40.6832 15.2614 40.9702 15.0909 41.2088 14.8636C41.4474 14.6364 41.6293 14.358 41.7543 14.0284L45.1122 14.25C44.9418 15.0568 44.5923 15.7614 44.0639 16.3636C43.5412 16.9602 42.8651 17.4261 42.0355 17.7614C41.2116 18.0909 40.2599 18.2557 39.1804 18.2557ZM47.5582 18V4.90909H51.0185V7.21875H51.1719C51.4446 6.4517 51.8991 5.84659 52.5355 5.40341C53.1719 4.96023 53.9332 4.73864 54.8196 4.73864C55.7173 4.73864 56.4815 4.96307 57.1122 5.41193C57.7429 5.85511 58.1634 6.45739 58.3736 7.21875H58.5099C58.777 6.46875 59.2599 5.86932 59.9588 5.42045C60.6634 4.96591 61.4957 4.73864 62.456 4.73864C63.6776 4.73864 64.669 5.12784 65.4304 5.90625C66.1974 6.67898 66.581 7.77557 66.581 9.19602V18H62.9588V9.91193C62.9588 9.18466 62.7656 8.6392 62.3793 8.27557C61.9929 7.91193 61.5099 7.73011 60.9304 7.73011C60.2713 7.73011 59.7571 7.94034 59.3878 8.3608C59.0185 8.77557 58.8338 9.32386 58.8338 10.0057V18H55.3139V9.83523C55.3139 9.19318 55.1293 8.68182 54.7599 8.30114C54.3963 7.92045 53.9162 7.73011 53.3196 7.73011C52.9162 7.73011 52.5526 7.83239 52.2287 8.03693C51.9105 8.2358 51.6577 8.51705 51.4702 8.88068C51.2827 9.23864 51.1889 9.65909 51.1889 10.142V18H47.5582ZM75.4148 18.2557C74.0682 18.2557 72.9091 17.983 71.9375 17.4375C70.9716 16.8864 70.2273 16.108 69.7045 15.1023C69.1818 14.0909 68.9205 12.8949 68.9205 11.5142C68.9205 10.1676 69.1818 8.9858 69.7045 7.96875C70.2273 6.9517 70.9631 6.15909 71.9119 5.59091C72.8665 5.02273 73.9858 4.73864 75.2699 4.73864C76.1335 4.73864 76.9375 4.87784 77.6818 5.15625C78.4318 5.42898 79.0852 5.84091 79.642 6.39205C80.2045 6.94318 80.642 7.63636 80.9545 8.47159C81.267 9.30114 81.4233 10.2727 81.4233 11.3864V12.3835H70.3693V10.1335H78.0057C78.0057 9.6108 77.892 9.14773 77.6648 8.74432C77.4375 8.34091 77.1222 8.02557 76.7188 7.7983C76.321 7.56534 75.858 7.44886 75.3295 7.44886C74.7784 7.44886 74.2898 7.5767 73.8636 7.83239C73.4432 8.08239 73.1136 8.42045 72.875 8.84659C72.6364 9.26705 72.5142 9.7358 72.5085 10.2528V12.392C72.5085 13.0398 72.6278 13.5994 72.8665 14.071C73.1108 14.5426 73.4545 14.9062 73.8977 15.1619C74.3409 15.4176 74.8665 15.5455 75.4744 15.5455C75.8778 15.5455 76.2472 15.4886 76.5824 15.375C76.9176 15.2614 77.2045 15.0909 77.4432 14.8636C77.6818 14.6364 77.8636 14.358 77.9886 14.0284L81.3466 14.25C81.1761 15.0568 80.8267 15.7614 80.2983 16.3636C79.7756 16.9602 79.0994 17.4261 78.2699 17.7614C77.446 18.0909 76.4943 18.2557 75.4148 18.2557ZM83.7926 18V4.90909H87.3125V7.19318H87.4489C87.6875 6.38068 88.0881 5.76705 88.6506 5.35227C89.2131 4.93182 89.8608 4.72159 90.5938 4.72159C90.7756 4.72159 90.9716 4.73295 91.1818 4.75568C91.392 4.77841 91.5767 4.80966 91.7358 4.84943V8.07102C91.5653 8.01989 91.3295 7.97443 91.0284 7.93466C90.7273 7.89489 90.4517 7.875 90.2017 7.875C89.6676 7.875 89.1903 7.99148 88.7699 8.22443C88.3551 8.4517 88.0256 8.76989 87.7812 9.17898C87.5426 9.58807 87.4233 10.0597 87.4233 10.5938V18H83.7926ZM98.9695 18.2557C97.6229 18.2557 96.4638 17.983 95.4922 17.4375C94.5263 16.8864 93.782 16.108 93.2592 15.1023C92.7365 14.0909 92.4751 12.8949 92.4751 11.5142C92.4751 10.1676 92.7365 8.9858 93.2592 7.96875C93.782 6.9517 94.5178 6.15909 95.4666 5.59091C96.4212 5.02273 97.5405 4.73864 98.8246 4.73864C99.6882 4.73864 100.492 4.87784 101.237 5.15625C101.987 5.42898 102.64 5.84091 103.197 6.39205C103.759 6.94318 104.197 7.63636 104.509 8.47159C104.822 9.30114 104.978 10.2727 104.978 11.3864V12.3835H93.924V10.1335H101.56C101.56 9.6108 101.447 9.14773 101.219 8.74432C100.992 8.34091 100.677 8.02557 100.273 7.7983C99.8757 7.56534 99.4126 7.44886 98.8842 7.44886C98.3331 7.44886 97.8445 7.5767 97.4183 7.83239C96.9979 8.08239 96.6683 8.42045 96.4297 8.84659C96.1911 9.26705 96.0689 9.7358 96.0632 10.2528V12.392C96.0632 13.0398 96.1825 13.5994 96.4212 14.071C96.6655 14.5426 97.0092 14.9062 97.4524 15.1619C97.8956 15.4176 98.4212 15.5455 99.0291 15.5455C99.4325 15.5455 99.8018 15.4886 100.137 15.375C100.472 15.2614 100.759 15.0909 100.998 14.8636C101.237 14.6364 101.418 14.358 101.543 14.0284L104.901 14.25C104.731 15.0568 104.381 15.7614 103.853 16.3636C103.33 16.9602 102.654 17.4261 101.825 17.7614C101.001 18.0909 100.049 18.2557 98.9695 18.2557Z" fill="black"/>
<path d="M11.2983 0.545454V-0.454546H10.2983V0.545454H11.2983ZM14.9886 0.545454H15.9886V-0.454546H14.9886V0.545454ZM14.0767 15.2216L13.2332 14.6844L13.231 14.688L14.0767 15.2216ZM11.5455 17.4545L11.9832 18.3536L11.987 18.3518L11.5455 17.4545ZM3.9517 17.4545L3.51013 18.3518L3.51393 18.3536L3.9517 17.4545ZM1.42045 15.2216L0.574726 15.7552L0.574727 15.7552L1.42045 15.2216ZM0.517045 0.545454V-0.454546H-0.482955V0.545454H0.517045ZM4.20739 0.545454H5.20739V-0.454546H4.20739V0.545454ZM4.64205 13.3381L3.76967 13.827L3.7738 13.8342L4.64205 13.3381ZM5.88636 14.5568L5.4023 15.4319L5.4023 15.4319L5.88636 14.5568ZM9.61932 14.5568L9.13525 13.6818L9.13129 13.684L9.61932 14.5568ZM10.8551 13.3381L9.98684 12.8419L9.98277 12.8492L10.8551 13.3381ZM11.2983 1.54545H14.9886V-0.454546H11.2983V1.54545ZM13.9886 0.545454V11.8807H15.9886V0.545454H13.9886ZM13.9886 11.8807C13.9886 12.9875 13.7266 13.9098 13.2333 14.6844L14.9202 15.7588C15.6427 14.6243 15.9886 13.3193 15.9886 11.8807H13.9886ZM13.231 14.688C12.7344 15.4751 12.0358 16.0987 11.1039 16.5573L11.987 18.3518C13.2256 17.7422 14.2145 16.8772 14.9224 15.7552L13.231 14.688ZM11.1077 16.5555C10.183 17.0057 9.07368 17.2472 7.75284 17.2472V19.2472C9.31836 19.2472 10.7375 18.9602 11.9832 18.3536L11.1077 16.5555ZM7.75284 17.2472C6.42565 17.2472 5.31368 17.0055 4.38948 16.5555L3.51393 18.3536C4.76018 18.9604 6.18231 19.2472 7.75284 19.2472V17.2472ZM4.39327 16.5573C3.46141 16.0987 2.7628 15.4751 2.26618 14.688L0.574727 15.7552C1.28265 16.8772 2.27155 17.7422 3.51014 18.3518L4.39327 16.5573ZM2.26618 14.688C1.77715 13.9129 1.51705 12.9893 1.51705 11.8807H-0.482955C-0.482955 13.3175 -0.140788 14.6212 0.574726 15.7552L2.26618 14.688ZM1.51705 11.8807V0.545454H-0.482955V11.8807H1.51705ZM0.517045 1.54545H4.20739V-0.454546H0.517045V1.54545ZM3.20739 0.545454V11.5653H5.20739V0.545454H3.20739ZM3.20739 11.5653C3.20739 12.3801 3.38644 13.1431 3.7697 13.827L5.51439 12.8492C5.31811 12.4989 5.20739 12.0801 5.20739 11.5653H3.20739ZM3.7738 13.8342C4.16254 14.5145 4.71206 15.05 5.4023 15.4319L6.37043 13.6818C5.99249 13.4727 5.71246 13.1957 5.51029 12.8419L3.7738 13.8342ZM5.4023 15.4319C6.10719 15.8218 6.90118 16 7.75284 16V14C7.18405 14 6.73372 13.8828 6.37042 13.6818L5.4023 15.4319ZM7.75284 16C8.60834 16 9.40469 15.8225 10.1073 15.4296L9.13129 13.684C8.77713 13.882 8.32916 14 7.75284 14V16ZM10.1034 15.4319C10.7952 15.0491 11.3439 14.5114 11.7275 13.827L9.98277 12.8492C9.78679 13.1989 9.51162 13.4736 9.13526 13.6818L10.1034 15.4319ZM11.7234 13.8342C12.1149 13.1491 12.2983 12.3835 12.2983 11.5653H10.2983C10.2983 12.0768 10.1863 12.493 9.98687 12.8419L11.7234 13.8342ZM12.2983 11.5653V0.545454H10.2983V11.5653H12.2983ZM20.0788 17.446L19.5366 18.2863L19.5435 18.2907L20.0788 17.446ZM18.1697 15.1705L17.2624 15.5908L17.2653 15.597L18.1697 15.1705ZM18.1953 7.73011L19.0948 8.16702L19.0958 8.16501L18.1953 7.73011ZM20.1214 5.48864L20.6466 6.33967L20.6482 6.33865L20.1214 5.48864ZM24.6044 5.11364L24.1489 6.00397L24.1613 6.01012L24.6044 5.11364ZM25.7976 6.03409L25.0226 6.66603L25.0279 6.67254L25.0333 6.67896L25.7976 6.03409ZM26.4964 7.10795L25.5851 7.51954L25.8508 8.10795H26.4964V7.10795ZM26.6072 7.10795V8.10795H27.6072V7.10795H26.6072ZM26.6072 0.545454V-0.454546H25.6072V0.545454H26.6072ZM30.2294 0.545454H31.2294V-0.454546H30.2294V0.545454ZM30.2294 18V19H31.2294V18H30.2294ZM26.6499 18H25.6499V19H26.6499V18ZM26.6499 15.9034H27.6499V14.9034H26.6499V15.9034ZM26.4964 15.9034V14.9034H25.8608L25.591 15.479L26.4964 15.9034ZM25.772 16.9858L25.0187 16.3281L25.0179 16.329L25.772 16.9858ZM24.5703 17.8636L24.144 16.959L24.14 16.961L24.5703 17.8636ZM25.4141 14.8466L26.0333 15.6318L26.0348 15.6306L25.4141 14.8466ZM26.3516 13.4915L25.4175 13.1343L25.4145 13.1424L26.3516 13.4915ZM26.3601 9.42614L27.296 9.074L27.296 9.074L26.3601 9.42614ZM22.4226 8.11364L21.8019 7.32959L21.8019 7.32959L22.4226 8.11364ZM21.4936 13.4744L20.5524 13.8125L20.5565 13.8235L21.4936 13.4744ZM22.4226 14.8381L21.7899 15.6125L21.7959 15.6174L21.8019 15.6221L22.4226 14.8381ZM22.7805 17.2131C21.9676 17.2131 21.2541 17.007 20.6142 16.6014L19.5435 18.2907C20.5172 18.9078 21.6048 19.2131 22.7805 19.2131V17.2131ZM20.6211 16.6058C20.0007 16.2054 19.479 15.6024 19.0742 14.7439L17.2653 15.597C17.8036 16.7386 18.5547 17.6526 19.5366 18.2862L20.6211 16.6058ZM19.0771 14.7501C18.6884 13.911 18.4709 12.8307 18.4709 11.4716H16.4709C16.4709 13.033 16.7193 14.4186 17.2624 15.5908L19.0771 14.7501ZM18.4709 11.4716C18.4709 10.0717 18.6972 8.98558 19.0948 8.16702L17.2958 7.29321C16.7275 8.46328 16.4709 9.87146 16.4709 11.4716H18.4709ZM19.0958 8.16501C19.511 7.30533 20.0349 6.71707 20.6466 6.33967L19.5963 4.6376C18.6057 5.24884 17.8456 6.15489 17.2948 7.29522L19.0958 8.16501ZM20.6482 6.33865C21.2949 5.93789 21.9956 5.73864 22.772 5.73864V3.73864C21.628 3.73864 20.5616 4.03938 19.5947 4.63863L20.6482 6.33865ZM22.772 5.73864C23.3974 5.73864 23.8405 5.84607 24.1489 6.00388L25.0599 4.22339C24.3911 3.8812 23.6125 3.73864 22.772 3.73864V5.73864ZM24.1613 6.01012C24.5474 6.20093 24.825 6.42374 25.0226 6.66603L26.5726 5.40215C26.1679 4.9058 25.6501 4.51498 25.0475 4.21716L24.1613 6.01012ZM25.0333 6.67896C25.2937 6.98759 25.4716 7.26821 25.5851 7.51954L27.4078 6.69637C27.2031 6.24315 26.9151 5.80786 26.5619 5.38922L25.0333 6.67896ZM26.4964 8.10795H26.6072V6.10795H26.4964V8.10795ZM27.6072 7.10795V0.545454H25.6072V7.10795H27.6072ZM26.6072 1.54545H30.2294V-0.454546H26.6072V1.54545ZM29.2294 0.545454V18H31.2294V0.545454H29.2294ZM30.2294 17H26.6499V19H30.2294V17ZM27.6499 18V15.9034H25.6499V18H27.6499ZM26.6499 14.9034H26.4964V16.9034H26.6499V14.9034ZM25.591 15.479C25.4666 15.7444 25.2807 16.028 25.0187 16.3281L26.5253 17.6435C26.8883 17.2277 27.1854 16.7897 27.4019 16.3278L25.591 15.479ZM25.0179 16.329C24.8162 16.5607 24.5341 16.7752 24.144 16.9591L24.9966 18.7682C25.5951 18.4862 26.1142 18.1155 26.5261 17.6426L25.0179 16.329ZM24.14 16.961C23.8199 17.1136 23.3793 17.2131 22.7805 17.2131V19.2131C23.5909 19.2131 24.3435 19.0796 25.0007 18.7663L24.14 16.961ZM23.9311 16.3239C24.7082 16.3239 25.4293 16.1082 26.0333 15.6318L24.7948 14.0614C24.592 14.2214 24.3245 14.3239 23.9311 14.3239V16.3239ZM26.0348 15.6306C26.6117 15.1739 27.0209 14.5593 27.2886 13.8406L25.4145 13.1424C25.2504 13.5828 25.0347 13.8715 24.7934 14.0625L26.0348 15.6306ZM27.2856 13.8486C27.5603 13.1301 27.6839 12.3252 27.6839 11.4545H25.6839C25.6839 12.1407 25.586 12.6937 25.4175 13.1343L27.2856 13.8486ZM27.6839 11.4545C27.6839 10.5869 27.564 9.7862 27.296 9.074L25.4241 9.77827C25.588 10.2138 25.6839 10.7654 25.6839 11.4545H27.6839ZM27.296 9.074C27.0269 8.35858 26.614 7.74832 26.0296 7.30192L24.8155 8.89126C25.0493 9.06986 25.2615 9.34596 25.4241 9.77827L27.296 9.074ZM26.0296 7.30192C25.4227 6.83833 24.7043 6.62784 23.9311 6.62784V8.62784C24.3284 8.62784 24.6042 8.72985 24.8155 8.89126L26.0296 7.30192ZM23.9311 6.62784C23.1431 6.62784 22.4125 6.84616 21.8019 7.32959L23.0433 8.89768C23.2508 8.73339 23.5259 8.62784 23.9311 8.62784V6.62784ZM21.8019 7.32959C21.2249 7.78636 20.8173 8.39924 20.5546 9.11625L22.4326 9.80421C22.5904 9.37349 22.8021 9.08864 23.0433 8.89768L21.8019 7.32959ZM20.5546 9.11625C20.2958 9.82289 20.1783 10.6082 20.1783 11.4545H22.1783C22.1783 10.7895 22.271 10.2453 22.4326 9.80421L20.5546 9.11625ZM20.1783 11.4545C20.1783 12.3062 20.2957 13.0976 20.5525 13.8125L22.4347 13.1364C22.2711 12.6808 22.1783 12.1256 22.1783 11.4545H20.1783ZM20.5565 13.8235C20.8227 14.5381 21.2254 15.1513 21.7899 15.6125L23.0552 14.0636C22.813 13.8657 22.5963 13.5699 22.4307 13.1253L20.5565 13.8235ZM21.8019 15.6221C22.4125 16.1055 23.1431 16.3239 23.9311 16.3239V14.3239C23.5259 14.3239 23.2508 14.2183 23.0433 14.054L21.8019 15.6221ZM35.7031 17.4375L35.2075 18.3061L35.2136 18.3095L35.7031 17.4375ZM33.4702 15.1023L32.5818 15.5614L32.5829 15.5635L33.4702 15.1023ZM33.4702 7.96875L32.5808 7.51163L32.5808 7.51163L33.4702 7.96875ZM35.6776 5.59091L35.1661 4.73161L35.1638 4.73296L35.6776 5.59091ZM41.4474 5.15625L41.0971 6.09291L41.1057 6.09604L41.4474 5.15625ZM43.4077 6.39205L42.7042 7.10278L42.7078 7.10633L43.4077 6.39205ZM44.7202 8.47159L43.7836 8.82202L43.7844 8.82412L44.7202 8.47159ZM45.1889 12.3835V13.3835H46.1889V12.3835H45.1889ZM34.1349 12.3835H33.1349V13.3835H34.1349V12.3835ZM34.1349 10.1335V9.13352H33.1349V10.1335H34.1349ZM41.7713 10.1335V11.1335H42.7713V10.1335H41.7713ZM41.4304 8.74432L40.5591 9.23516L40.5592 9.23516L41.4304 8.74432ZM40.4844 7.7983L39.979 8.66118L39.9862 8.66542L39.9935 8.66954L40.4844 7.7983ZM37.6293 7.83239L38.1403 8.69193L38.1438 8.68988L37.6293 7.83239ZM36.6406 8.84659L37.5103 9.3402L37.5131 9.33519L36.6406 8.84659ZM36.2741 10.2528L35.2741 10.2419V10.2528H36.2741ZM36.6321 14.071L35.7398 14.5226L35.7442 14.531L36.6321 14.071ZM40.348 15.375L40.027 14.4279L40.027 14.4279L40.348 15.375ZM41.2088 14.8636L40.5192 14.1395L40.5192 14.1395L41.2088 14.8636ZM41.7543 14.0284L41.8201 13.0306L41.0817 12.9819L40.8193 13.6738L41.7543 14.0284ZM45.1122 14.25L46.0906 14.4567L46.3291 13.3281L45.1781 13.2522L45.1122 14.25ZM44.0639 16.3636L43.3122 15.7041L43.3118 15.7046L44.0639 16.3636ZM42.0355 17.7614L42.4069 18.6898L42.4102 18.6885L42.0355 17.7614ZM39.1804 17.2557C37.9696 17.2557 36.9865 17.0112 36.1927 16.5655L35.2136 18.3095C36.363 18.9547 37.698 19.2557 39.1804 19.2557V17.2557ZM36.1987 16.5689C35.4032 16.115 34.7933 15.4796 34.3575 14.6411L32.5829 15.5635C33.1925 16.7363 34.0712 17.6577 35.2075 18.3061L36.1987 16.5689ZM34.3585 14.6431C33.9232 13.8008 33.6861 12.7687 33.6861 11.5142H31.6861C31.6861 13.021 31.9717 14.381 32.5818 15.5614L34.3585 14.6431ZM33.6861 11.5142C33.6861 10.2984 33.9214 9.27842 34.3596 8.42587L32.5808 7.51163C31.9735 8.69317 31.6861 10.0368 31.6861 11.5142H33.6861ZM34.3596 8.42587C34.8 7.56896 35.4082 6.91775 36.1913 6.44885L35.1638 4.73296C34.0491 5.40043 33.1858 6.33445 32.5808 7.51163L34.3596 8.42587ZM36.189 6.4502C36.9661 5.98768 37.903 5.73864 39.0355 5.73864V3.73864C37.5999 3.73864 36.2981 4.05778 35.1661 4.73161L36.189 6.4502ZM39.0355 5.73864C39.7899 5.73864 40.4742 5.85987 41.0971 6.09287L41.7978 4.21963C40.9321 3.89581 40.0084 3.73864 39.0355 3.73864V5.73864ZM41.1057 6.09604C41.7226 6.32037 42.252 6.65514 42.7042 7.10277L44.1111 5.68132C43.4497 5.02668 42.6723 4.53758 41.7892 4.21646L41.1057 6.09604ZM42.7078 7.10633C43.1527 7.54219 43.5156 8.10574 43.7836 8.82202L45.6568 8.12117C45.2998 7.16699 44.7877 6.34417 44.1075 5.67776L42.7078 7.10633ZM43.7844 8.82412C44.0451 9.51624 44.1889 10.3635 44.1889 11.3864H46.1889C46.1889 10.1819 46.0202 9.08603 45.656 8.11906L43.7844 8.82412ZM44.1889 11.3864V12.3835H46.1889V11.3864H44.1889ZM45.1889 11.3835H34.1349V13.3835H45.1889V11.3835ZM35.1349 12.3835V10.1335H33.1349V12.3835H35.1349ZM34.1349 11.1335H41.7713V9.13352H34.1349V11.1335ZM42.7713 10.1335C42.7713 9.46139 42.6237 8.82521 42.3016 8.25347L40.5592 9.23516C40.6916 9.47025 40.7713 9.7602 40.7713 10.1335H42.7713ZM42.3016 8.25348C41.9847 7.6909 41.5378 7.24399 40.9752 6.92705L39.9935 8.66954C40.2378 8.80714 40.4216 8.99092 40.5591 9.23516L42.3016 8.25348ZM40.9898 6.93541C40.4175 6.60019 39.7748 6.44886 39.0952 6.44886V8.44886C39.4724 8.44886 39.7558 8.53049 39.979 8.66118L40.9898 6.93541ZM39.0952 6.44886C38.3831 6.44886 37.7129 6.61603 37.1148 6.97489L38.1438 8.68988C38.3979 8.53737 38.705 8.44886 39.0952 8.44886V6.44886ZM37.1182 6.97285C36.547 7.31246 36.0927 7.77836 35.7681 8.35799L37.5131 9.33519C37.6658 9.06255 37.8706 8.85231 38.1403 8.69192L37.1182 6.97285ZM35.7709 8.35299C35.4429 8.9309 35.2816 9.56765 35.2742 10.2419L37.2741 10.2638C37.278 9.90394 37.361 9.60319 37.5103 9.3402L35.7709 8.35299ZM35.2741 10.2528V12.392H37.2741V10.2528H35.2741ZM35.2741 12.392C35.2741 13.1618 35.4162 13.8829 35.7398 14.5225L37.5244 13.6195C37.3708 13.316 37.2741 12.9177 37.2741 12.392H35.2741ZM35.7442 14.531C36.0729 15.1655 36.5484 15.6732 37.1636 16.0281L38.1631 14.2957C37.892 14.1393 37.6799 13.9197 37.52 13.611L35.7442 14.531ZM37.1636 16.0281C37.7851 16.3867 38.4898 16.5455 39.2401 16.5455V14.5455C38.7744 14.5455 38.428 14.4486 38.1631 14.2957L37.1636 16.0281ZM39.2401 16.5455C39.7376 16.5455 40.2171 16.4753 40.6691 16.3221L40.027 14.4279C39.8085 14.502 39.5493 14.5455 39.2401 14.5455V16.5455ZM40.6691 16.3221C41.1315 16.1653 41.547 15.9225 41.8985 15.5878L40.5192 14.1395C40.3934 14.2593 40.235 14.3574 40.027 14.4279L40.6691 16.3221ZM41.8985 15.5878C42.2529 15.2502 42.5149 14.8427 42.6893 14.3831L40.8193 13.6738C40.7436 13.8733 40.6419 14.0226 40.5192 14.1395L41.8985 15.5878ZM41.6884 15.0262L45.0464 15.2478L45.1781 13.2522L41.8201 13.0306L41.6884 15.0262ZM44.1338 14.0433C43.9977 14.6873 43.7241 15.2347 43.3122 15.7041L44.8156 17.0231C45.4606 16.288 45.8858 15.4263 46.0906 14.4567L44.1338 14.0433ZM43.3118 15.7046C42.9047 16.1692 42.3641 16.55 41.6608 16.8342L42.4102 18.6885C43.3661 18.3022 44.1777 17.7512 44.8161 17.0226L43.3118 15.7046ZM41.6641 16.8329C40.9809 17.1062 40.1595 17.2557 39.1804 17.2557V19.2557C40.3604 19.2557 41.4424 19.0757 42.4069 18.6898L41.6641 16.8329ZM47.5582 18H46.5582V19H47.5582V18ZM47.5582 4.90909V3.90909H46.5582V4.90909H47.5582ZM51.0185 4.90909H52.0185V3.90909H51.0185V4.90909ZM51.0185 7.21875H50.0185V8.21875H51.0185V7.21875ZM51.1719 7.21875V8.21875H51.8776L52.1141 7.55376L51.1719 7.21875ZM52.5355 5.40341L51.964 4.5828L51.964 4.5828L52.5355 5.40341ZM57.1122 5.41193L56.5324 6.22667L56.5373 6.23012L57.1122 5.41193ZM58.3736 7.21875L57.4097 7.48491L57.6123 8.21875H58.3736V7.21875ZM58.5099 7.21875V8.21875H59.2154L59.452 7.55418L58.5099 7.21875ZM59.9588 5.42045L60.4992 6.26186L60.5009 6.26075L59.9588 5.42045ZM65.4304 5.90625L64.7155 6.6055L64.7207 6.61074L65.4304 5.90625ZM66.581 18V19H67.581V18H66.581ZM62.9588 18H61.9588V19H62.9588V18ZM62.3793 8.27557L61.6939 9.00377L61.6939 9.00377L62.3793 8.27557ZM59.3878 8.3608L60.1346 9.02581L60.1391 9.02074L59.3878 8.3608ZM58.8338 18V19H59.8338V18H58.8338ZM55.3139 18H54.3139V19H55.3139V18ZM54.7599 8.30114L54.0368 8.99189L54.0422 8.99745L54.7599 8.30114ZM52.2287 8.03693L52.7587 8.88494L52.7627 8.88242L52.2287 8.03693ZM51.4702 8.88068L52.356 9.3447L52.359 9.33897L51.4702 8.88068ZM51.1889 18V19H52.1889V18H51.1889ZM48.5582 18V4.90909H46.5582V18H48.5582ZM47.5582 5.90909H51.0185V3.90909H47.5582V5.90909ZM50.0185 4.90909V7.21875H52.0185V4.90909H50.0185ZM51.0185 8.21875H51.1719V6.21875H51.0185V8.21875ZM52.1141 7.55376C52.3206 6.97288 52.6507 6.54181 53.107 6.22401L51.964 4.5828C51.1476 5.15137 50.5686 5.93053 50.2297 6.88374L52.1141 7.55376ZM53.107 6.22401C53.5525 5.91379 54.1074 5.73864 54.8196 5.73864V3.73864C53.7591 3.73864 52.7913 4.00667 51.964 4.5828L53.107 6.22401ZM54.8196 5.73864C55.5438 5.73864 56.097 5.91677 56.5324 6.22666L57.6921 4.59721C56.8661 4.00937 55.8909 3.73864 54.8196 3.73864V5.73864ZM56.5373 6.23012C56.9732 6.53643 57.2595 6.94109 57.4097 7.48491L59.3375 6.95259C59.0672 5.97369 58.5126 5.1738 57.6872 4.59374L56.5373 6.23012ZM58.3736 8.21875H58.5099V6.21875H58.3736V8.21875ZM59.452 7.55418C59.6415 7.02213 59.9779 6.59671 60.4992 6.26185L59.4184 4.57905C58.542 5.14193 57.9125 5.91537 57.5679 6.88332L59.452 7.55418ZM60.5009 6.26075C61.0214 5.92498 61.6594 5.73864 62.456 5.73864V3.73864C61.3321 3.73864 60.3053 4.00684 59.4167 4.58016L60.5009 6.26075ZM62.456 5.73864C63.4445 5.73864 64.166 6.04369 64.7155 6.60549L66.1453 5.20701C65.1721 4.21199 63.9107 3.73864 62.456 3.73864V5.73864ZM64.7207 6.61074C65.2502 7.14417 65.581 7.9559 65.581 9.19602H67.581C67.581 7.59523 67.1447 6.21379 66.1401 5.20176L64.7207 6.61074ZM65.581 9.19602V18H67.581V9.19602H65.581ZM66.581 17H62.9588V19H66.581V17ZM63.9588 18V9.91193H61.9588V18H63.9588ZM63.9588 9.91193C63.9588 9.01449 63.7175 8.16185 63.0646 7.54737L61.6939 9.00377C61.8137 9.11656 61.9588 9.35483 61.9588 9.91193H63.9588ZM63.0646 7.54737C62.4749 6.99233 61.739 6.73011 60.9304 6.73011V8.73011C61.2809 8.73011 61.5109 8.83153 61.6939 9.00377L63.0646 7.54737ZM60.9304 6.73011C60.0398 6.73011 59.2298 7.02531 58.6365 7.70085L60.1391 9.02074C60.2844 8.85537 60.5028 8.73011 60.9304 8.73011V6.73011ZM58.6409 7.6958C58.0736 8.33301 57.8338 9.13696 57.8338 10.0057H59.8338C59.8338 9.51077 59.9634 9.21812 60.1346 9.02579L58.6409 7.6958ZM57.8338 10.0057V18H59.8338V10.0057H57.8338ZM58.8338 17H55.3139V19H58.8338V17ZM56.3139 18V9.83523H54.3139V18H56.3139ZM56.3139 9.83523C56.3139 8.99135 56.0648 8.21003 55.4777 7.60482L54.0422 8.99745C54.1937 9.1536 54.3139 9.39501 54.3139 9.83523H56.3139ZM55.4831 7.6104C54.9048 7.00507 54.1494 6.73011 53.3196 6.73011V8.73011C53.683 8.73011 53.8878 8.83584 54.0368 8.99187L55.4831 7.6104ZM53.3196 6.73011C52.7377 6.73011 52.1871 6.88048 51.6947 7.19144L52.7627 8.88242C52.9181 8.78429 53.0947 8.73011 53.3196 8.73011V6.73011ZM51.6987 7.18893C51.2144 7.4916 50.8436 7.91387 50.5814 8.42239L52.359 9.33897C52.4718 9.12022 52.6066 8.97999 52.7587 8.88493L51.6987 7.18893ZM50.5843 8.41667C50.3085 8.94322 50.1889 9.52883 50.1889 10.142H52.1889C52.1889 9.78935 52.2568 9.53405 52.356 9.34469L50.5843 8.41667ZM50.1889 10.142V18H52.1889V10.142H50.1889ZM51.1889 17H47.5582V19H51.1889V17ZM71.9375 17.4375L71.4419 18.3061L71.448 18.3095L71.9375 17.4375ZM69.7045 15.1023L68.8162 15.5614L68.8172 15.5635L69.7045 15.1023ZM69.7045 7.96875L68.8151 7.51163L68.8151 7.51163L69.7045 7.96875ZM71.9119 5.59091L71.4004 4.73161L71.3982 4.73296L71.9119 5.59091ZM77.6818 5.15625L77.3315 6.09291L77.3401 6.09604L77.6818 5.15625ZM79.642 6.39205L78.9386 7.10278L78.9422 7.10633L79.642 6.39205ZM80.9545 8.47159L80.018 8.82202L80.0187 8.82412L80.9545 8.47159ZM81.4233 12.3835V13.3835H82.4233V12.3835H81.4233ZM70.3693 12.3835H69.3693V13.3835H70.3693V12.3835ZM70.3693 10.1335V9.13352H69.3693V10.1335H70.3693ZM78.0057 10.1335V11.1335H79.0057V10.1335H78.0057ZM77.6648 8.74432L76.7935 9.23516L76.7935 9.23516L77.6648 8.74432ZM76.7188 7.7983L76.2133 8.66118L76.2206 8.66542L76.2279 8.66954L76.7188 7.7983ZM73.8636 7.83239L74.3747 8.69193L74.3781 8.68988L73.8636 7.83239ZM72.875 8.84659L73.7447 9.3402L73.7475 9.33519L72.875 8.84659ZM72.5085 10.2528L71.5085 10.2419V10.2528H72.5085ZM72.8665 14.071L71.9742 14.5226L71.9786 14.531L72.8665 14.071ZM76.5824 15.375L76.2613 14.4279L76.2613 14.4279L76.5824 15.375ZM77.4432 14.8636L76.7535 14.1395L76.7535 14.1395L77.4432 14.8636ZM77.9886 14.0284L78.0545 13.0306L77.3161 12.9819L77.0536 13.6738L77.9886 14.0284ZM81.3466 14.25L82.325 14.4567L82.5634 13.3281L81.4124 13.2522L81.3466 14.25ZM80.2983 16.3636L79.5466 15.7041L79.5462 15.7046L80.2983 16.3636ZM78.2699 17.7614L78.6413 18.6898L78.6446 18.6885L78.2699 17.7614ZM75.4148 17.2557C74.204 17.2557 73.2209 17.0112 72.427 16.5655L71.448 18.3095C72.5973 18.9547 73.9324 19.2557 75.4148 19.2557V17.2557ZM72.4331 16.5689C71.6376 16.115 71.0277 15.4796 70.5918 14.6411L68.8172 15.5635C69.4269 16.7363 70.3056 17.6577 71.4419 18.3061L72.4331 16.5689ZM70.5929 14.6431C70.1576 13.8008 69.9205 12.7687 69.9205 11.5142H67.9205C67.9205 13.021 68.2061 14.381 68.8162 15.5614L70.5929 14.6431ZM69.9205 11.5142C69.9205 10.2984 70.1558 9.27842 70.5939 8.42587L68.8151 7.51163C68.2079 8.69317 67.9205 10.0368 67.9205 11.5142H69.9205ZM70.5939 8.42587C71.0344 7.56896 71.6426 6.91775 72.4257 6.44885L71.3982 4.73296C70.2835 5.40043 69.4202 6.33445 68.8151 7.51163L70.5939 8.42587ZM72.4234 6.4502C73.2005 5.98768 74.1373 5.73864 75.2699 5.73864V3.73864C73.8343 3.73864 72.5325 4.05778 71.4004 4.73161L72.4234 6.4502ZM75.2699 5.73864C76.0243 5.73864 76.7086 5.85987 77.3315 6.09287L78.0322 4.21963C77.1664 3.89581 76.2428 3.73864 75.2699 3.73864V5.73864ZM77.3401 6.09604C77.957 6.32037 78.4863 6.65514 78.9386 7.10277L80.3455 5.68132C79.6841 5.02668 78.9067 4.53758 78.0236 4.21646L77.3401 6.09604ZM78.9422 7.10633C79.387 7.54219 79.75 8.10574 80.018 8.82202L81.8911 8.12117C81.5341 7.16699 81.0221 6.34417 80.3419 5.67776L78.9422 7.10633ZM80.0187 8.82412C80.2795 9.51624 80.4233 10.3635 80.4233 11.3864H82.4233C82.4233 10.1819 82.2546 9.08603 81.8903 8.11906L80.0187 8.82412ZM80.4233 11.3864V12.3835H82.4233V11.3864H80.4233ZM81.4233 11.3835H70.3693V13.3835H81.4233V11.3835ZM71.3693 12.3835V10.1335H69.3693V12.3835H71.3693ZM70.3693 11.1335H78.0057V9.13352H70.3693V11.1335ZM79.0057 10.1335C79.0057 9.46139 78.8581 8.82521 78.536 8.25347L76.7935 9.23516C76.926 9.47025 77.0057 9.7602 77.0057 10.1335H79.0057ZM78.536 8.25348C78.2191 7.6909 77.7722 7.24399 77.2096 6.92705L76.2279 8.66954C76.4721 8.80714 76.6559 8.99092 76.7935 9.23516L78.536 8.25348ZM77.2242 6.93541C76.6518 6.60019 76.0092 6.44886 75.3295 6.44886V8.44886C75.7067 8.44886 75.9902 8.53049 76.2133 8.66118L77.2242 6.93541ZM75.3295 6.44886C74.6175 6.44886 73.9472 6.61603 73.3491 6.97489L74.3781 8.68988C74.6323 8.53737 74.9393 8.44886 75.3295 8.44886V6.44886ZM73.3526 6.97285C72.7814 7.31246 72.3271 7.77836 72.0025 8.35799L73.7475 9.33519C73.9002 9.06255 74.105 8.85231 74.3747 8.69192L73.3526 6.97285ZM72.0053 8.35299C71.6773 8.9309 71.516 9.56765 71.5086 10.2419L73.5085 10.2638C73.5124 9.90394 73.5954 9.60319 73.7447 9.3402L72.0053 8.35299ZM71.5085 10.2528V12.392H73.5085V10.2528H71.5085ZM71.5085 12.392C71.5085 13.1618 71.6505 13.8829 71.9742 14.5225L73.7587 13.6195C73.6051 13.316 73.5085 12.9177 73.5085 12.392H71.5085ZM71.9786 14.531C72.3073 15.1655 72.7828 15.6732 73.398 16.0281L74.3974 14.2957C74.1263 14.1393 73.9143 13.9197 73.7544 13.611L71.9786 14.531ZM73.398 16.0281C74.0195 16.3867 74.7242 16.5455 75.4744 16.5455V14.5455C75.0088 14.5455 74.6623 14.4486 74.3974 14.2957L73.398 16.0281ZM75.4744 16.5455C75.972 16.5455 76.4515 16.4753 76.9034 16.3221L76.2613 14.4279C76.0429 14.502 75.7837 14.5455 75.4744 14.5455V16.5455ZM76.9034 16.3221C77.3659 16.1653 77.7813 15.9225 78.1328 15.5878L76.7535 14.1395C76.6278 14.2593 76.4693 14.3574 76.2613 14.4279L76.9034 16.3221ZM78.1328 15.5878C78.4873 15.2502 78.7493 14.8427 78.9236 14.3831L77.0536 13.6738C76.978 13.8733 76.8763 14.0226 76.7535 14.1395L78.1328 15.5878ZM77.9228 15.0262L81.2807 15.2478L81.4124 13.2522L78.0545 13.0306L77.9228 15.0262ZM80.3682 14.0433C80.2321 14.6873 79.9584 15.2347 79.5466 15.7041L81.05 17.0231C81.695 16.288 82.1202 15.4263 82.325 14.4567L80.3682 14.0433ZM79.5462 15.7046C79.1391 16.1692 78.5984 16.55 77.8952 16.8342L78.6446 18.6885C79.6004 18.3022 80.4121 17.7512 81.0504 17.0226L79.5462 15.7046ZM77.8985 16.8329C77.2153 17.1062 76.3939 17.2557 75.4148 17.2557V19.2557C76.5947 19.2557 77.6767 19.0757 78.6413 18.6898L77.8985 16.8329ZM83.7926 18H82.7926V19H83.7926V18ZM83.7926 4.90909V3.90909H82.7926V4.90909H83.7926ZM87.3125 4.90909H88.3125V3.90909H87.3125V4.90909ZM87.3125 7.19318H86.3125V8.19318H87.3125V7.19318ZM87.4489 7.19318V8.19318H88.1974L88.4083 7.47498L87.4489 7.19318ZM88.6506 5.35227L89.2441 6.15714L89.2493 6.15324L88.6506 5.35227ZM91.1818 4.75568L91.2893 3.76147L91.2893 3.76147L91.1818 4.75568ZM91.7358 4.84943H92.7358V4.06865L91.9783 3.87929L91.7358 4.84943ZM91.7358 8.07102L91.4484 9.02885L92.7358 9.41505V8.07102H91.7358ZM88.7699 8.22443L89.2504 9.10142L89.2545 9.09915L88.7699 8.22443ZM87.7812 9.17898L86.9227 8.66621L86.9175 8.67511L87.7812 9.17898ZM87.4233 18V19H88.4233V18H87.4233ZM84.7926 18V4.90909H82.7926V18H84.7926ZM83.7926 5.90909H87.3125V3.90909H83.7926V5.90909ZM86.3125 4.90909V7.19318H88.3125V4.90909H86.3125ZM87.3125 8.19318H87.4489V6.19318H87.3125V8.19318ZM88.4083 7.47498C88.5988 6.82657 88.8921 6.4166 89.244 6.15712L88.0571 4.54742C87.284 5.11749 86.7762 5.9348 86.4894 6.91138L88.4083 7.47498ZM89.2493 6.15324C89.631 5.86791 90.0665 5.72159 90.5938 5.72159V3.72159C89.6551 3.72159 88.7951 3.99572 88.0519 4.5513L89.2493 6.15324ZM90.5938 5.72159C90.7344 5.72159 90.8942 5.73042 91.0743 5.74989L91.2893 3.76147C91.049 3.73549 90.8167 3.72159 90.5938 3.72159V5.72159ZM91.0743 5.74989C91.2513 5.76902 91.3891 5.79354 91.4933 5.81957L91.9783 3.87929C91.7643 3.82577 91.5328 3.7878 91.2893 3.76147L91.0743 5.74989ZM90.7358 4.84943V8.07102H92.7358V4.84943H90.7358ZM92.0231 7.1132C91.7782 7.03971 91.482 6.98589 91.1593 6.94327L90.8975 8.92605C91.1771 8.96298 91.3525 9.00006 91.4484 9.02885L92.0231 7.1132ZM91.1593 6.94327C90.8237 6.89893 90.5036 6.875 90.2017 6.875V8.875C90.3998 8.875 90.6309 8.89084 90.8975 8.92605L91.1593 6.94327ZM90.2017 6.875C89.5173 6.875 88.87 7.02575 88.2852 7.34972L89.2545 9.09915C89.5107 8.95721 89.8179 8.875 90.2017 8.875V6.875ZM88.2894 7.34746C87.7172 7.66098 87.2576 8.10544 86.9227 8.66624L88.6398 9.69172C88.7935 9.43433 88.9931 9.24243 89.2504 9.10141L88.2894 7.34746ZM86.9175 8.67511C86.5787 9.25591 86.4233 9.90569 86.4233 10.5938H88.4233C88.4233 10.2136 88.5066 9.92023 88.645 9.68285L86.9175 8.67511ZM86.4233 10.5938V18H88.4233V10.5938H86.4233ZM87.4233 17H83.7926V19H87.4233V17ZM95.4922 17.4375L94.9966 18.3061L95.0027 18.3095L95.4922 17.4375ZM93.2592 15.1023L92.3709 15.5614L92.3719 15.5635L93.2592 15.1023ZM93.2592 7.96875L92.3698 7.51163L92.3698 7.51163L93.2592 7.96875ZM95.4666 5.59091L94.9551 4.73161L94.9529 4.73296L95.4666 5.59091ZM101.237 5.15625L100.886 6.09291L100.895 6.09604L101.237 5.15625ZM103.197 6.39205L102.493 7.10278L102.497 7.10633L103.197 6.39205ZM104.509 8.47159L103.573 8.82202L103.573 8.82412L104.509 8.47159ZM104.978 12.3835V13.3835H105.978V12.3835H104.978ZM93.924 12.3835H92.924V13.3835H93.924V12.3835ZM93.924 10.1335V9.13352H92.924V10.1335H93.924ZM101.56 10.1335V11.1335H102.56V10.1335H101.56ZM101.219 8.74432L100.348 9.23516L100.348 9.23516L101.219 8.74432ZM100.273 7.7983L99.768 8.66118L99.7753 8.66542L99.7826 8.66954L100.273 7.7983ZM97.4183 7.83239L97.9294 8.69193L97.9328 8.68988L97.4183 7.83239ZM96.4297 8.84659L97.2994 9.3402L97.3022 9.33519L96.4297 8.84659ZM96.0632 10.2528L95.0632 10.2419V10.2528H96.0632ZM96.4212 14.071L95.5289 14.5226L95.5332 14.531L96.4212 14.071ZM100.137 15.375L99.816 14.4279L99.816 14.4279L100.137 15.375ZM100.998 14.8636L100.308 14.1395L100.308 14.1395L100.998 14.8636ZM101.543 14.0284L101.609 13.0306L100.871 12.9819L100.608 13.6738L101.543 14.0284ZM104.901 14.25L105.88 14.4567L106.118 13.3281L104.967 13.2522L104.901 14.25ZM103.853 16.3636L103.101 15.7041L103.101 15.7046L103.853 16.3636ZM101.825 17.7614L102.196 18.6898L102.199 18.6885L101.825 17.7614ZM98.9695 17.2557C97.7587 17.2557 96.7755 17.0112 95.9817 16.5655L95.0027 18.3095C96.152 18.9547 97.487 19.2557 98.9695 19.2557V17.2557ZM95.9878 16.5689C95.1923 16.115 94.5824 15.4796 94.1465 14.6411L92.3719 15.5635C92.9815 16.7363 93.8603 17.6577 94.9966 18.3061L95.9878 16.5689ZM94.1476 14.6431C93.7122 13.8008 93.4751 12.7687 93.4751 11.5142H91.4751C91.4751 13.021 91.7608 14.381 92.3709 15.5614L94.1476 14.6431ZM93.4751 11.5142C93.4751 10.2984 93.7105 9.27842 94.1486 8.42587L92.3698 7.51163C91.7626 8.69317 91.4751 10.0368 91.4751 11.5142H93.4751ZM94.1486 8.42587C94.5891 7.56896 95.1973 6.91775 95.9804 6.44885L94.9529 4.73296C93.8382 5.40043 92.9749 6.33445 92.3698 7.51163L94.1486 8.42587ZM95.9781 6.4502C96.7551 5.98768 97.692 5.73864 98.8246 5.73864V3.73864C97.3889 3.73864 96.0872 4.05778 94.9551 4.73161L95.9781 6.4502ZM98.8246 5.73864C99.579 5.73864 100.263 5.85987 100.886 6.09287L101.587 4.21963C100.721 3.89581 99.7974 3.73864 98.8246 3.73864V5.73864ZM100.895 6.09604C101.512 6.32037 102.041 6.65514 102.493 7.10277L103.9 5.68132C103.239 5.02668 102.461 4.53758 101.578 4.21646L100.895 6.09604ZM102.497 7.10633C102.942 7.54219 103.305 8.10574 103.573 8.82202L105.446 8.12117C105.089 7.16699 104.577 6.34417 103.897 5.67776L102.497 7.10633ZM103.573 8.82412C103.834 9.51624 103.978 10.3635 103.978 11.3864H105.978C105.978 10.1819 105.809 9.08603 105.445 8.11906L103.573 8.82412ZM103.978 11.3864V12.3835H105.978V11.3864H103.978ZM104.978 11.3835H93.924V13.3835H104.978V11.3835ZM94.924 12.3835V10.1335H92.924V12.3835H94.924ZM93.924 11.1335H101.56V9.13352H93.924V11.1335ZM102.56 10.1335C102.56 9.46139 102.413 8.82521 102.091 8.25347L100.348 9.23516C100.481 9.47025 100.56 9.7602 100.56 10.1335H102.56ZM102.091 8.25348C101.774 7.6909 101.327 7.24399 100.764 6.92705L99.7826 8.66954C100.027 8.80714 100.211 8.99092 100.348 9.23516L102.091 8.25348ZM100.779 6.93541C100.207 6.60019 99.5639 6.44886 98.8842 6.44886V8.44886C99.2614 8.44886 99.5449 8.53049 99.768 8.66118L100.779 6.93541ZM98.8842 6.44886C98.1722 6.44886 97.5019 6.61603 96.9038 6.97489L97.9328 8.68988C98.187 8.53737 98.494 8.44886 98.8842 8.44886V6.44886ZM96.9072 6.97285C96.3361 7.31246 95.8818 7.77836 95.5572 8.35799L97.3022 9.33519C97.4549 9.06255 97.6597 8.85231 97.9294 8.69192L96.9072 6.97285ZM95.56 8.35299C95.232 8.9309 95.0707 9.56765 95.0633 10.2419L97.0632 10.2638C97.0671 9.90394 97.1501 9.60319 97.2994 9.3402L95.56 8.35299ZM95.0632 10.2528V12.392H97.0632V10.2528H95.0632ZM95.0632 12.392C95.0632 13.1618 95.2052 13.8829 95.5289 14.5225L97.3134 13.6195C97.1598 13.316 97.0632 12.9177 97.0632 12.392H95.0632ZM95.5332 14.531C95.862 15.1655 96.3374 15.6732 96.9527 16.0281L97.9521 14.2957C97.681 14.1393 97.469 13.9197 97.3091 13.611L95.5332 14.531ZM96.9527 16.0281C97.5742 16.3867 98.2789 16.5455 99.0291 16.5455V14.5455C98.5634 14.5455 98.217 14.4486 97.9521 14.2957L96.9527 16.0281ZM99.0291 16.5455C99.5267 16.5455 100.006 16.4753 100.458 16.3221L99.816 14.4279C99.5975 14.502 99.3384 14.5455 99.0291 14.5455V16.5455ZM100.458 16.3221C100.921 16.1653 101.336 15.9225 101.688 15.5878L100.308 14.1395C100.182 14.2593 100.024 14.3574 99.816 14.4279L100.458 16.3221ZM101.688 15.5878C102.042 15.2502 102.304 14.8427 102.478 14.3831L100.608 13.6738C100.533 13.8733 100.431 14.0226 100.308 14.1395L101.688 15.5878ZM101.477 15.0262L104.835 15.2478L104.967 13.2522L101.609 13.0306L101.477 15.0262ZM103.923 14.0433C103.787 14.6873 103.513 15.2347 103.101 15.7041L104.605 17.0231C105.25 16.288 105.675 15.4263 105.88 14.4567L103.923 14.0433ZM103.101 15.7046C102.694 16.1692 102.153 16.55 101.45 16.8342L102.199 18.6885C103.155 18.3022 103.967 17.7512 104.605 17.0226L103.101 15.7046ZM101.453 16.8329C100.77 17.1062 99.9486 17.2557 98.9695 17.2557V19.2557C100.149 19.2557 101.231 19.0757 102.196 18.6898L101.453 16.8329Z" fill="white" mask="url(#path-1-outside-1_136_4)"/>
</svg>
