<svg width="105" height="19" viewBox="0 0 105 19" fill="none" xmlns="http://www.w3.org/2000/svg">
<path d="M11.2983 0.545454H14.9886V11.8807C14.9886 13.1534 14.6847 14.267 14.0767 15.2216C13.4744 16.1761 12.6307 16.9205 11.5455 17.4545C10.4602 17.983 9.19602 18.2472 7.75284 18.2472C6.30398 18.2472 5.03693 17.983 3.9517 17.4545C2.86648 16.9205 2.02273 16.1761 1.42045 15.2216C0.818182 14.267 0.517045 13.1534 0.517045 11.8807V0.545454H4.20739V11.5653C4.20739 12.2301 4.35227 12.821 4.64205 13.3381C4.9375 13.8551 5.35227 14.2614 5.88636 14.5568C6.42045 14.8523 7.04261 15 7.75284 15C8.46875 15 9.09091 14.8523 9.61932 14.5568C10.1534 14.2614 10.5653 13.8551 10.8551 13.3381C11.1506 12.821 11.2983 12.2301 11.2983 11.5653V0.545454ZM22.7805 18.2131C21.7862 18.2131 20.8857 17.9574 20.0788 17.446C19.2777 16.929 18.6413 16.1705 18.1697 15.1705C17.7038 14.1648 17.4709 12.9318 17.4709 11.4716C17.4709 9.97159 17.7124 8.72443 18.1953 7.73011C18.6783 6.73011 19.3203 5.98295 20.1214 5.48864C20.9283 4.98864 21.8118 4.73864 22.772 4.73864C23.505 4.73864 24.1158 4.86364 24.6044 5.11364C25.0987 5.35795 25.4964 5.66477 25.7976 6.03409C26.1044 6.39773 26.3374 6.75568 26.4964 7.10795H26.6072V0.545454H30.2294V18H26.6499V15.9034H26.4964C26.326 16.267 26.0845 16.6278 25.772 16.9858C25.4652 17.3381 25.0646 17.6307 24.5703 17.8636C24.0817 18.0966 23.4851 18.2131 22.7805 18.2131ZM23.9311 15.3239C24.5163 15.3239 25.0107 15.1648 25.4141 14.8466C25.8232 14.5227 26.1357 14.071 26.3516 13.4915C26.5732 12.9119 26.6839 12.233 26.6839 11.4545C26.6839 10.6761 26.576 10 26.3601 9.42614C26.1442 8.85227 25.8317 8.40909 25.4226 8.09659C25.0135 7.78409 24.5163 7.62784 23.9311 7.62784C23.3345 7.62784 22.8317 7.78977 22.4226 8.11364C22.0135 8.4375 21.7038 8.88636 21.4936 9.46023C21.2834 10.0341 21.1783 10.6989 21.1783 11.4545C21.1783 12.2159 21.2834 12.8892 21.4936 13.4744C21.7095 14.054 22.0192 14.5085 22.4226 14.8381C22.8317 15.1619 23.3345 15.3239 23.9311 15.3239ZM39.1804 18.2557C37.8338 18.2557 36.6747 17.983 35.7031 17.4375C34.7372 16.8864 33.9929 16.108 33.4702 15.1023C32.9474 14.0909 32.6861 12.8949 32.6861 11.5142C32.6861 10.1676 32.9474 8.9858 33.4702 7.96875C33.9929 6.9517 34.7287 6.15909 35.6776 5.59091C36.6321 5.02273 37.7514 4.73864 39.0355 4.73864C39.8991 4.73864 40.7031 4.87784 41.4474 5.15625C42.1974 5.42898 42.8509 5.84091 43.4077 6.39205C43.9702 6.94318 44.4077 7.63636 44.7202 8.47159C45.0327 9.30114 45.1889 10.2727 45.1889 11.3864V12.3835H34.1349V10.1335H41.7713C41.7713 9.6108 41.6577 9.14773 41.4304 8.74432C41.2031 8.34091 40.8878 8.02557 40.4844 7.7983C40.0866 7.56534 39.6236 7.44886 39.0952 7.44886C38.544 7.44886 38.0554 7.5767 37.6293 7.83239C37.2088 8.08239 36.8793 8.42045 36.6406 8.84659C36.402 9.26705 36.2798 9.7358 36.2741 10.2528V12.392C36.2741 13.0398 36.3935 13.5994 36.6321 14.071C36.8764 14.5426 37.2202 14.9062 37.6634 15.1619C38.1065 15.4176 38.6321 15.5455 39.2401 15.5455C39.6435 15.5455 40.0128 15.4886 40.348 15.375C40.6832 15.2614 40.9702 15.0909 41.2088 14.8636C41.4474 14.6364 41.6293 14.358 41.7543 14.0284L45.1122 14.25C44.9418 15.0568 44.5923 15.7614 44.0639 16.3636C43.5412 16.9602 42.8651 17.4261 42.0355 17.7614C41.2116 18.0909 40.2599 18.2557 39.1804 18.2557ZM47.5582 18V4.90909H51.0185V7.21875H51.1719C51.4446 6.4517 51.8991 5.84659 52.5355 5.40341C53.1719 4.96023 53.9332 4.73864 54.8196 4.73864C55.7173 4.73864 56.4815 4.96307 57.1122 5.41193C57.7429 5.85511 58.1634 6.45739 58.3736 7.21875H58.5099C58.777 6.46875 59.2599 5.86932 59.9588 5.42045C60.6634 4.96591 61.4957 4.73864 62.456 4.73864C63.6776 4.73864 64.669 5.12784 65.4304 5.90625C66.1974 6.67898 66.581 7.77557 66.581 9.19602V18H62.9588V9.91193C62.9588 9.18466 62.7656 8.6392 62.3793 8.27557C61.9929 7.91193 61.5099 7.73011 60.9304 7.73011C60.2713 7.73011 59.7571 7.94034 59.3878 8.3608C59.0185 8.77557 58.8338 9.32386 58.8338 10.0057V18H55.3139V9.83523C55.3139 9.19318 55.1293 8.68182 54.7599 8.30114C54.3963 7.92045 53.9162 7.73011 53.3196 7.73011C52.9162 7.73011 52.5526 7.83239 52.2287 8.03693C51.9105 8.2358 51.6577 8.51705 51.4702 8.88068C51.2827 9.23864 51.1889 9.65909 51.1889 10.142V18H47.5582ZM75.4148 18.2557C74.0682 18.2557 72.9091 17.983 71.9375 17.4375C70.9716 16.8864 70.2273 16.108 69.7045 15.1023C69.1818 14.0909 68.9205 12.8949 68.9205 11.5142C68.9205 10.1676 69.1818 8.9858 69.7045 7.96875C70.2273 6.9517 70.9631 6.15909 71.9119 5.59091C72.8665 5.02273 73.9858 4.73864 75.2699 4.73864C76.1335 4.73864 76.9375 4.87784 77.6818 5.15625C78.4318 5.42898 79.0852 5.84091 79.642 6.39205C80.2045 6.94318 80.642 7.63636 80.9545 8.47159C81.267 9.30114 81.4233 10.2727 81.4233 11.3864V12.3835H70.3693V10.1335H78.0057C78.0057 9.6108 77.892 9.14773 77.6648 8.74432C77.4375 8.34091 77.1222 8.02557 76.7188 7.7983C76.321 7.56534 75.858 7.44886 75.3295 7.44886C74.7784 7.44886 74.2898 7.5767 73.8636 7.83239C73.4432 8.08239 73.1136 8.42045 72.875 8.84659C72.6364 9.26705 72.5142 9.7358 72.5085 10.2528V12.392C72.5085 13.0398 72.6278 13.5994 72.8665 14.071C73.1108 14.5426 73.4545 14.9062 73.8977 15.1619C74.3409 15.4176 74.8665 15.5455 75.4744 15.5455C75.8778 15.5455 76.2472 15.4886 76.5824 15.375C76.9176 15.2614 77.2045 15.0909 77.4432 14.8636C77.6818 14.6364 77.8636 14.358 77.9886 14.0284L81.3466 14.25C81.1761 15.0568 80.8267 15.7614 80.2983 16.3636C79.7756 16.9602 79.0994 17.4261 78.2699 17.7614C77.446 18.0909 76.4943 18.2557 75.4148 18.2557ZM83.7926 18V4.90909H87.3125V7.19318H87.4489C87.6875 6.38068 88.0881 5.76705 88.6506 5.35227C89.2131 4.93182 89.8608 4.72159 90.5938 4.72159C90.7756 4.72159 90.9716 4.73295 91.1818 4.75568C91.392 4.77841 91.5767 4.80966 91.7358 4.84943V8.07102C91.5653 8.01989 91.3295 7.97443 91.0284 7.93466C90.7273 7.89489 90.4517 7.875 90.2017 7.875C89.6676 7.875 89.1903 7.99148 88.7699 8.22443C88.3551 8.4517 88.0256 8.76989 87.7812 9.17898C87.5426 9.58807 87.4233 10.0597 87.4233 10.5938V18H83.7926ZM98.9695 18.2557C97.6229 18.2557 96.4638 17.983 95.4922 17.4375C94.5263 16.8864 93.782 16.108 93.2592 15.1023C92.7365 14.0909 92.4751 12.8949 92.4751 11.5142C92.4751 10.1676 92.7365 8.9858 93.2592 7.96875C93.782 6.9517 94.5178 6.15909 95.4666 5.59091C96.4212 5.02273 97.5405 4.73864 98.8246 4.73864C99.6882 4.73864 100.492 4.87784 101.237 5.15625C101.987 5.42898 102.64 5.84091 103.197 6.39205C103.759 6.94318 104.197 7.63636 104.509 8.47159C104.822 9.30114 104.978 10.2727 104.978 11.3864V12.3835H93.924V10.1335H101.56C101.56 9.6108 101.447 9.14773 101.219 8.74432C100.992 8.34091 100.677 8.02557 100.273 7.7983C99.8757 7.56534 99.4126 7.44886 98.8842 7.44886C98.3331 7.44886 97.8445 7.5767 97.4183 7.83239C96.9979 8.08239 96.6683 8.42045 96.4297 8.84659C96.1911 9.26705 96.0689 9.7358 96.0632 10.2528V12.392C96.0632 13.0398 96.1825 13.5994 96.4212 14.071C96.6655 14.5426 97.0092 14.9062 97.4524 15.1619C97.8956 15.4176 98.4212 15.5455 99.0291 15.5455C99.4325 15.5455 99.8018 15.4886 100.137 15.375C100.472 15.2614 100.759 15.0909 100.998 14.8636C101.237 14.6364 101.418 14.358 101.543 14.0284L104.901 14.25C104.731 15.0568 104.381 15.7614 103.853 16.3636C103.33 16.9602 102.654 17.4261 101.825 17.7614C101.001 18.0909 100.049 18.2557 98.9695 18.2557Z" fill="black"/>
</svg>
