<svg width="200" height="88" viewBox="0 0 200 88" fill="none" xmlns="http://www.w3.org/2000/svg">
<path d="M5.44602 82L0.451705 64.5455H4.48295L7.37216 76.6733H7.51705L10.7045 64.5455H14.1562L17.3352 76.6989H17.4886L20.3778 64.5455H24.4091L19.4148 82H15.8182L12.4943 70.5881H12.358L9.04261 82H5.44602ZM41.4396 73.2727C41.4396 75.1761 41.0788 76.7955 40.3572 78.1307C39.6413 79.4659 38.6641 80.4858 37.4254 81.1903C36.1925 81.8892 34.8061 82.2386 33.2663 82.2386C31.7152 82.2386 30.3232 81.8864 29.0902 81.1818C27.8572 80.4773 26.8828 79.4574 26.1669 78.1222C25.451 76.7869 25.093 75.1705 25.093 73.2727C25.093 71.3693 25.451 69.75 26.1669 68.4148C26.8828 67.0795 27.8572 66.0625 29.0902 65.3636C30.3232 64.6591 31.7152 64.3068 33.2663 64.3068C34.8061 64.3068 36.1925 64.6591 37.4254 65.3636C38.6641 66.0625 39.6413 67.0795 40.3572 68.4148C41.0788 69.75 41.4396 71.3693 41.4396 73.2727ZM37.6982 73.2727C37.6982 72.0398 37.5135 71 37.1442 70.1534C36.7805 69.3068 36.2663 68.6648 35.6016 68.2273C34.9368 67.7898 34.1584 67.571 33.2663 67.571C32.3743 67.571 31.5959 67.7898 30.9311 68.2273C30.2663 68.6648 29.7493 69.3068 29.38 70.1534C29.0163 71 28.8345 72.0398 28.8345 73.2727C28.8345 74.5057 29.0163 75.5455 29.38 76.392C29.7493 77.2386 30.2663 77.8807 30.9311 78.3182C31.5959 78.7557 32.3743 78.9744 33.2663 78.9744C34.1584 78.9744 34.9368 78.7557 35.6016 78.3182C36.2663 77.8807 36.7805 77.2386 37.1442 76.392C37.5135 75.5455 37.6982 74.5057 37.6982 73.2727ZM44.1733 82V64.5455H51.0597C52.3778 64.5455 53.5028 64.7812 54.4347 65.2528C55.3722 65.7187 56.0852 66.3807 56.5739 67.2386C57.0682 68.0909 57.3153 69.0937 57.3153 70.2472C57.3153 71.4062 57.0653 72.4034 56.5653 73.2386C56.0653 74.0682 55.3409 74.7045 54.392 75.1477C53.4489 75.5909 52.3068 75.8125 50.9659 75.8125H46.3551V72.8466H50.3693C51.0739 72.8466 51.6591 72.75 52.125 72.5568C52.5909 72.3636 52.9375 72.0739 53.1648 71.6875C53.3977 71.3011 53.5142 70.821 53.5142 70.2472C53.5142 69.6676 53.3977 69.179 53.1648 68.7812C52.9375 68.3835 52.5881 68.0824 52.1165 67.8778C51.6506 67.6676 51.0625 67.5625 50.3523 67.5625H47.8636V82H44.1733ZM53.5994 74.0568L57.9375 82H53.8636L49.6193 74.0568H53.5994ZM66.1108 82H59.9233V64.5455H66.1619C67.9176 64.5455 69.429 64.8949 70.696 65.5938C71.9631 66.2869 72.9375 67.2841 73.6193 68.5852C74.3068 69.8864 74.6506 71.4432 74.6506 73.2557C74.6506 75.0739 74.3068 76.6364 73.6193 77.9432C72.9375 79.25 71.9574 80.2528 70.679 80.9517C69.4062 81.6506 67.8835 82 66.1108 82ZM63.6136 78.8381H65.9574C67.0483 78.8381 67.9659 78.6449 68.7102 78.2585C69.4602 77.8665 70.0227 77.2614 70.3977 76.4432C70.7784 75.6193 70.9688 74.5568 70.9688 73.2557C70.9688 71.9659 70.7784 70.9119 70.3977 70.0938C70.0227 69.2756 69.4631 68.6733 68.7188 68.2869C67.9744 67.9006 67.0568 67.7074 65.9659 67.7074H63.6136V78.8381ZM80.657 82L75.6626 64.5455H79.6939L82.5831 76.6733H82.728L85.9155 64.5455H89.3672L92.5462 76.6989H92.6996L95.5888 64.5455H99.62L94.6257 82H91.0291L87.7053 70.5881H87.5689L84.2536 82H80.657ZM116.651 73.2727C116.651 75.1761 116.29 76.7955 115.568 78.1307C114.852 79.4659 113.875 80.4858 112.636 81.1903C111.403 81.8892 110.017 82.2386 108.477 82.2386C106.926 82.2386 105.534 81.8864 104.301 81.1818C103.068 80.4773 102.094 79.4574 101.378 78.1222C100.662 76.7869 100.304 75.1705 100.304 73.2727C100.304 71.3693 100.662 69.75 101.378 68.4148C102.094 67.0795 103.068 66.0625 104.301 65.3636C105.534 64.6591 106.926 64.3068 108.477 64.3068C110.017 64.3068 111.403 64.6591 112.636 65.3636C113.875 66.0625 114.852 67.0795 115.568 68.4148C116.29 69.75 116.651 71.3693 116.651 73.2727ZM112.909 73.2727C112.909 72.0398 112.724 71 112.355 70.1534C111.991 69.3068 111.477 68.6648 110.812 68.2273C110.148 67.7898 109.369 67.571 108.477 67.571C107.585 67.571 106.807 67.7898 106.142 68.2273C105.477 68.6648 104.96 69.3068 104.591 70.1534C104.227 71 104.045 72.0398 104.045 73.2727C104.045 74.5057 104.227 75.5455 104.591 76.392C104.96 77.2386 105.477 77.8807 106.142 78.3182C106.807 78.7557 107.585 78.9744 108.477 78.9744C109.369 78.9744 110.148 78.7557 110.812 78.3182C111.477 77.8807 111.991 77.2386 112.355 76.392C112.724 75.5455 112.909 74.5057 112.909 73.2727ZM133.984 64.5455V82H130.796L123.202 71.0142H123.075V82H119.384V64.5455H122.623L130.157 75.5227H130.31V64.5455H133.984ZM143.22 82H137.033V64.5455H143.271C145.027 64.5455 146.538 64.8949 147.805 65.5938C149.072 66.2869 150.047 67.2841 150.729 68.5852C151.416 69.8864 151.76 71.4432 151.76 73.2557C151.76 75.0739 151.416 76.6364 150.729 77.9432C150.047 79.25 149.067 80.2528 147.788 80.9517C146.516 81.6506 144.993 82 143.22 82ZM140.723 78.8381H143.067C144.158 78.8381 145.075 78.6449 145.82 78.2585C146.57 77.8665 147.132 77.2614 147.507 76.4432C147.888 75.6193 148.078 74.5568 148.078 73.2557C148.078 71.9659 147.888 70.9119 147.507 70.0938C147.132 69.2756 146.572 68.6733 145.828 68.2869C145.084 67.9006 144.166 67.7074 143.075 67.7074H140.723V78.8381ZM154.494 82V64.5455H166.255V67.5881H158.184V71.7472H165.65V74.7898H158.184V78.9574H166.289V82H154.494ZM169.189 82V64.5455H176.075C177.393 64.5455 178.518 64.7812 179.45 65.2528C180.388 65.7187 181.101 66.3807 181.589 67.2386C182.084 68.0909 182.331 69.0937 182.331 70.2472C182.331 71.4062 182.081 72.4034 181.581 73.2386C181.081 74.0682 180.357 74.7045 179.408 75.1477C178.464 75.5909 177.322 75.8125 175.982 75.8125H171.371V72.8466H175.385C176.089 72.8466 176.675 72.75 177.141 72.5568C177.607 72.3636 177.953 72.0739 178.18 71.6875C178.413 71.3011 178.53 70.821 178.53 70.2472C178.53 69.6676 178.413 69.179 178.18 68.7812C177.953 68.3835 177.604 68.0824 177.132 67.8778C176.666 67.6676 176.078 67.5625 175.368 67.5625H172.879V82H169.189ZM178.615 74.0568L182.953 82H178.879L174.635 74.0568H178.615ZM194.408 69.5653C194.339 68.8778 194.047 68.3437 193.53 67.9631C193.013 67.5824 192.311 67.392 191.425 67.392C190.822 67.392 190.314 67.4773 189.899 67.6477C189.484 67.8125 189.166 68.0426 188.945 68.3381C188.729 68.6335 188.621 68.9688 188.621 69.3438C188.609 69.6562 188.675 69.929 188.817 70.1619C188.964 70.3949 189.166 70.5966 189.422 70.767C189.678 70.9318 189.973 71.0767 190.308 71.2017C190.643 71.321 191.001 71.4233 191.382 71.5085L192.95 71.8835C193.712 72.054 194.411 72.2812 195.047 72.5653C195.683 72.8494 196.234 73.1989 196.7 73.6136C197.166 74.0284 197.527 74.517 197.783 75.0795C198.044 75.642 198.178 76.2869 198.183 77.0142C198.178 78.0824 197.905 79.0085 197.365 79.7926C196.831 80.571 196.058 81.1761 195.047 81.608C194.041 82.0341 192.828 82.2472 191.408 82.2472C189.999 82.2472 188.771 82.0312 187.726 81.5994C186.686 81.1676 185.874 80.5284 185.288 79.6818C184.709 78.8295 184.405 77.7756 184.376 76.5199H187.947C187.987 77.1051 188.155 77.5937 188.45 77.9858C188.751 78.3722 189.152 78.6648 189.652 78.8636C190.158 79.0568 190.729 79.1534 191.365 79.1534C191.99 79.1534 192.533 79.0625 192.993 78.8807C193.459 78.6989 193.82 78.446 194.075 78.1222C194.331 77.7983 194.459 77.4261 194.459 77.0057C194.459 76.6136 194.342 76.2841 194.109 76.017C193.882 75.75 193.547 75.5227 193.104 75.3352C192.666 75.1477 192.129 74.9773 191.493 74.8239L189.592 74.3466C188.121 73.9886 186.959 73.429 186.107 72.6676C185.254 71.9062 184.831 70.8807 184.837 69.5909C184.831 68.5341 185.112 67.6108 185.68 66.821C186.254 66.0312 187.041 65.4148 188.041 64.9716C189.041 64.5284 190.178 64.3068 191.45 64.3068C192.746 64.3068 193.876 64.5284 194.842 64.9716C195.814 65.4148 196.57 66.0312 197.109 66.821C197.649 67.6108 197.928 68.5256 197.945 69.5653H194.408Z" fill="black"/>
<path d="M102.912 35.289L95.8695 28.512L95.9527 28.431C100.777 23.193 104.215 17.172 106.24 10.8H114.364V5.4H94.9545V0H89.4091V5.4H70V10.773H100.971C99.1136 15.984 96.1745 20.925 92.1818 25.245C89.6032 22.464 87.4682 19.413 85.7768 16.2H80.2314C82.2555 20.601 85.0282 24.759 88.4941 28.512L74.3809 42.066L78.3182 45.9L92.1818 32.4L100.805 40.797L102.912 35.289ZM118.523 21.6H112.977L100.5 54H106.045L109.151 45.9H122.321L125.455 54H131L118.523 21.6ZM111.258 40.5L115.75 28.809L120.242 40.5H111.258Z" fill="#F73644"/>
</svg>
