<?xml version="1.0" encoding="UTF-8"?>
<svg version="1.1" xmlns="http://www.w3.org/2000/svg" width="512" height="512">
<path d="M0 0 C0.94875 0.04125 1.8975 0.0825 2.875 0.125 C6.40009763 6.89979701 9.18462483 13.82574247 11.875 20.96679688 C15.42004445 30.09944068 19.46059405 33.84599581 28.0625 38.3125 C29.7044215 39.17606677 31.34388692 40.04432482 32.98046875 40.91796875 C33.70387451 41.2946167 34.42728027 41.67126465 35.17260742 42.05932617 C36.875 43.125 36.875 43.125 37.875 45.125 C38.78136829 45.12589563 38.78136829 45.12589563 39.70604706 45.12680936 C75.52168436 45.16270636 111.33723037 45.21935 147.15278894 45.30292095 C151.45358421 45.31293836 155.75437986 45.3227825 160.05517578 45.33251953 C160.91138374 45.3344609 161.76759169 45.33640228 162.64974535 45.33840248 C176.51180294 45.36942025 190.37384397 45.38640251 204.23592973 45.39819422 C218.46061168 45.41060693 232.68520678 45.43811105 246.90983391 45.47961307 C255.68661172 45.50474504 264.46324549 45.5181175 273.24005979 45.51642957 C279.2593475 45.51639981 285.27848852 45.53103417 291.29771906 45.55716428 C294.77010877 45.57180636 298.24219766 45.58001672 301.71461296 45.57080269 C305.48250883 45.56418093 309.24952653 45.58204206 313.01733398 45.60601807 C314.11073341 45.59825765 315.20413284 45.59049723 316.33066559 45.58250165 C324.22094528 45.6714334 329.64076408 47.1860846 335.52734375 52.53515625 C336.28144531 53.41042969 337.03554688 54.28570312 337.8125 55.1875 C338.658125 56.16074219 339.50375 57.13398437 340.375 58.13671875 C343.45365956 61.816679 346.51259068 65.50963608 349.52734375 69.2421875 C352.10315236 72.40516047 354.73205222 75.51817672 357.375 78.625 C361.49630338 83.47434575 365.54491943 88.3766153 369.5625 93.3125 C372.5993277 97.0059391 375.69460955 100.64798486 378.79125977 104.29125977 C381.6704532 107.68454109 384.50704237 111.10767786 387.3125 114.5625 C390.25675592 118.1861996 393.26195315 121.74439465 396.32128906 125.27050781 C413.96346118 145.61833046 413.96346118 145.61833046 414.25 155.8125 C414.29898438 156.99199219 414.34796875 158.17148438 414.3984375 159.38671875 C413.22543652 167.76404667 407.00185659 173.46552092 401.3125 179.3125 C399.87577485 180.81329754 398.43958119 182.31460404 397.00390625 183.81640625 C396.30023926 184.54875488 395.59657227 185.28110352 394.87158203 186.03564453 C392.12762819 188.90709928 389.43425763 191.82284386 386.75 194.75 C382.47889651 199.39439837 378.18396601 204.01570856 373.875 208.625 C369.03852844 213.79929877 364.21861514 218.98806553 359.42504883 224.20214844 C356.72292824 227.13749713 354.00307737 230.05435045 351.26171875 232.953125 C345.13415118 239.4427981 339.10593896 245.86854709 333.875 253.125 C334.844375 253.434375 335.81375 253.74375 336.8125 254.0625 C339.875 255.125 339.875 255.125 340.875 256.125 C341.4375 258.875 341.4375 258.875 340.875 262.125 C338.45686063 264.22512104 335.70462387 265.64622731 332.875 267.125 C323.89077394 271.88135497 321.50044819 281.78646572 317.890625 290.75390625 C316.875 293.125 316.875 293.125 315.875 294.125 C313.87541636 294.16580783 311.87454746 294.16754356 309.875 294.125 C308.225 290.825 306.575 287.525 304.875 284.125 C301.44634092 286.8010266 298.46432534 289.48920544 295.640625 292.80078125 C291.93685834 297.0837961 288.08445844 301.20556584 284.1875 305.3125 C279.34757543 310.43351722 274.52028055 315.56399457 269.75 320.75 C265.47810688 325.3936778 261.18397268 330.01570142 256.875 334.625 C252.03605367 339.8019464 247.21712918 344.99648252 242.41625977 350.20874023 C238.56619951 354.38510919 234.69211262 358.53858672 230.8125 362.6875 C226.64378397 367.14621366 222.49330224 371.61966201 218.375 376.125 C213.66372712 381.27903568 208.90600608 386.3879371 204.13671875 391.48828125 C200.36797496 395.52034338 196.61489938 399.56618475 192.875 403.625 C191.90366127 404.67579552 190.9323069 405.72657658 189.9609375 406.77734375 C187.70581146 409.21855815 185.46470002 411.6721136 183.2265625 414.12890625 C181.98455974 415.48194044 180.7423754 416.83480797 179.5 418.1875 C178.64341797 419.13496094 178.64341797 419.13496094 177.76953125 420.1015625 C173.10957704 425.15439341 168.420441 429.71422681 161.23828125 430.36328125 C152.75147216 430.56974652 147.76293542 429.61243494 141.41015625 423.9140625 C137.60706437 420.19675465 134.03361324 416.32131675 130.546875 412.30859375 C126.86663071 408.08145393 123.04486928 404.00271186 119.1875 399.9375 C113.86590847 394.30684162 108.57007938 388.65562247 103.3269043 382.9519043 C100.64235955 380.03372248 97.94585702 377.1275689 95.234375 374.234375 C94.61320801 373.57131348 93.99204102 372.90825195 93.35205078 372.22509766 C92.15897494 370.95275603 90.9647288 369.68151028 89.76904297 368.41162109 C86.01977874 364.41203996 82.40821584 360.31659889 78.875 356.125 C72.27963584 359.37973108 70.64466334 364.16820708 68.0625 370.8125 C67.28666251 372.73368188 66.50939687 374.65428786 65.73046875 376.57421875 C65.39684326 377.42330811 65.06321777 378.27239746 64.71948242 379.1472168 C63.875 381.125 63.875 381.125 62.875 382.125 C60 382.4375 60 382.4375 56.875 382.125 C54.0022916 379.2522916 52.89537524 375.7666778 51.52929688 372.03198242 C48.72487605 364.42962701 46.46527913 358.86815135 38.875 355.125 C32.11753255 351.63559484 32.11753255 351.63559484 30.6875 348.625 C30.875 346.125 30.875 346.125 32.25 344.125 C34.58525674 342.34575677 36.79201952 341.05571243 39.375 339.6875 C44.482132 336.92847467 46.86015713 334.20093174 49.41796875 328.96875 C50.24658206 325.30639478 50.24658206 325.30639478 48.72729492 323.17333984 C46.83129769 320.99482382 44.8366303 318.99676444 42.75 317 C41.24936571 315.49021351 39.74937064 313.97979142 38.25 312.46875 C37.50234375 311.73011719 36.7546875 310.99148438 35.984375 310.23046875 C33.14882077 307.40016555 30.44333216 304.46480368 27.75 301.5 C26.78992623 300.45493502 25.82898088 299.41067011 24.8671875 298.3671875 C24.38475586 297.84350586 23.90232422 297.31982422 23.40527344 296.78027344 C20.57373293 293.71743926 17.72350928 290.6720441 14.875 287.625 C10.03534615 282.44729666 5.21594129 277.25179723 0.4140625 272.0390625 C-3.41551457 267.88528843 -7.26708969 263.75245863 -11.125 259.625 C-15.96460796 254.44725349 -20.78405839 249.25179757 -25.5859375 244.0390625 C-29.41551457 239.88528843 -33.26708969 235.75245863 -37.125 231.625 C-41.96460796 226.44725349 -46.78405839 221.25179757 -51.5859375 216.0390625 C-55.41551469 211.88528829 -59.26710796 207.75247587 -63.125 203.625 C-67.98132412 198.42895215 -72.82673863 193.22337991 -77.63647461 187.98413086 C-80.28460245 185.10264479 -82.95504293 182.24592579 -85.65625 179.4140625 C-86.245271 178.79217041 -86.83429199 178.17027832 -87.44116211 177.52954102 C-88.57167049 176.33707831 -89.70757806 175.14970156 -90.84985352 173.96850586 C-97.15827655 167.28894106 -98.76848761 161.78224762 -98.52734375 152.58984375 C-97.53948615 144.08275936 -92.15662142 138.76409213 -86.50390625 132.7109375 C-84.16709674 130.17076034 -81.98126995 127.55939402 -79.8125 124.875 C-76.32067126 120.5604891 -72.74919165 116.32794472 -69.125 112.125 C-64.80548535 107.11200394 -60.57402234 102.03961883 -56.40234375 96.90234375 C-53.84295864 93.78103533 -51.23902333 90.70053365 -48.625 87.625 C-44.49645127 82.76553255 -40.4322934 77.85909407 -36.40625 72.9140625 C-32.34921194 67.95391665 -28.23486355 63.0413921 -24.125 58.125 C-26.90147222 55.9521087 -29.71031837 54.17158878 -32.8125 52.5 C-37.02535587 50.22464413 -37.02535587 50.22464413 -38.125 49.125 C-38.5 46.8125 -38.5 46.8125 -38.125 44.125 C-33.73232168 40.06460915 -28.60135055 37.72432235 -23.28125 35.1015625 C-15.31741289 30.11430807 -13.12799652 22.86046577 -9.9375 14.375 C-9.07356053 12.10763603 -8.20528476 9.84191808 -7.33203125 7.578125 C-6.9553833 6.57942383 -6.57873535 5.58072266 -6.19067383 4.55175781 C-4.62283815 0.98147451 -3.97745572 0.15909823 0 0 Z " fill="#6BBEF5" transform="translate(98.125,40.875)"/>
<path d="M0 0 C0.94875 0.04125 1.8975 0.0825 2.875 0.125 C6.40009763 6.89979701 9.18462483 13.82574247 11.875 20.96679688 C15.42004445 30.09944068 19.46059405 33.84599581 28.0625 38.3125 C29.7044215 39.17606677 31.34388692 40.04432482 32.98046875 40.91796875 C33.70387451 41.2946167 34.42728027 41.67126465 35.17260742 42.05932617 C36.875 43.125 36.875 43.125 37.875 45.125 C38.7842162 45.12703479 38.7842162 45.12703479 39.7118004 45.12911069 C75.61060611 45.20970319 111.50937107 45.30063402 147.40811558 45.40505161 C151.71535483 45.41757098 156.02259433 45.43000367 160.32983398 45.44238281 C161.18735349 45.44484881 162.044873 45.4473148 162.92837795 45.44985552 C176.82613922 45.48961488 190.72390865 45.52234814 204.62169371 45.55249982 C218.8745792 45.58357773 233.12742994 45.62217134 247.38027638 45.66779006 C256.18006264 45.69571697 264.97982338 45.71773172 273.77964213 45.73226251 C279.80819887 45.74277794 285.8367063 45.76057184 291.86522595 45.78416704 C295.34704478 45.79757726 298.82879428 45.80770391 302.31064034 45.80921364 C306.08005977 45.81251589 309.8492362 45.82793799 313.61860657 45.8465271 C314.7265702 45.84459237 315.83453384 45.84265763 316.97607213 45.84066427 C317.98177981 45.84812976 318.98748748 45.85559525 320.02367115 45.86328697 C321.32971923 45.86670446 321.32971923 45.86670446 322.66215211 45.87019098 C324.875 46.125 324.875 46.125 327.875 48.125 C320.5219627 57.71444496 313.11368533 67.26005197 305.68945312 76.79443359 C302.74986664 80.57017264 299.81249416 84.34763307 296.875 88.125 C293.32927972 92.68449384 289.78300104 97.2435484 286.234375 101.80078125 C281.09905297 108.39701386 275.9662807 114.99468837 270.875 121.625 C261.98002425 133.20608229 253.06018906 144.77187812 243.875 156.125 C239.96350736 152.3631273 236.54681931 148.38274191 233.1875 144.125 C232.6620459 143.46346924 232.1365918 142.80193848 231.59521484 142.12036133 C227.53163762 136.99081699 223.53129646 131.81436301 219.5546875 126.6171875 C216.43287618 122.54063601 213.2790862 118.48910097 210.125 114.4375 C209.53219238 113.67590576 208.93938477 112.91431152 208.32861328 112.12963867 C207.11565319 110.57154195 205.90259914 109.01351837 204.68945312 107.45556641 C201.16937547 102.93421801 197.65233776 98.41050476 194.13476562 93.88720703 C191.16900788 90.07373409 188.20244749 86.26089046 185.234375 82.44921875 C166.97485262 58.99585483 166.97485262 58.99585483 158.875 48.125 C154.6122152 49.54592827 152.96587341 52.73240456 150.4375 56.25 C149.35755782 57.72288818 148.27547274 59.19420722 147.19140625 60.6640625 C146.63984863 61.41204102 146.08829102 62.16001953 145.52001953 62.93066406 C143.04967507 66.22592319 140.46926339 69.42699166 137.875 72.625 C133.76136824 77.71155429 129.77571653 82.87344921 125.875 88.125 C121.44705446 94.0845839 116.88950752 99.91811892 112.22998047 105.69799805 C108.2690147 110.61525966 104.40715891 115.59823923 100.5703125 120.61328125 C97.96300478 124.01819979 95.33128674 127.40380901 92.69506836 130.78637695 C91.48708857 132.33852161 90.28214095 133.89303112 89.08032227 135.44995117 C86.35175825 138.98012721 83.60437967 142.47605648 80.72265625 145.8828125 C80.01206055 146.74326172 80.01206055 146.74326172 79.28710938 147.62109375 C78.03064883 149.13757435 76.75246503 150.63598385 75.47265625 152.1328125 C72.505818 157.68928707 74.93716081 163.60907845 76.61474609 169.36743164 C77.36935481 171.84230326 78.13075293 174.31437742 78.8984375 176.78515625 C79.31546417 178.144843 79.73186561 179.50472164 80.14768982 180.86477661 C81.03946875 183.77740833 81.9352202 186.68877602 82.83413696 189.59921265 C84.27880798 194.27730796 85.71390558 198.95830607 87.1472168 203.63989258 C87.63736044 205.24052871 88.12751857 206.84116041 88.61769104 208.44178772 C88.86136477 209.2375075 89.10503849 210.03322727 89.35609627 210.85305977 C90.10118962 213.28497007 90.84714641 215.71661393 91.59336853 218.1481781 C96.00400983 232.52252612 100.35539451 246.91428007 104.6875 261.3125 C106.01724738 265.72853355 107.3473967 270.14444597 108.67768669 274.56031609 C109.08748753 275.92069399 109.49725304 277.28108254 109.90698433 278.6414814 C113.87346768 291.81083867 117.84936881 304.97734605 121.82666206 318.14344215 C122.9012765 321.70080436 123.97579247 325.2581963 125.05027771 328.81559753 C125.77334506 331.20950344 126.4964133 333.60340908 127.21948242 335.99731445 C127.57917838 337.1881813 127.93887434 338.37904814 128.30947018 339.60600185 C130.09998244 345.53377426 131.89074498 351.46147085 133.68203735 357.38900757 C146.87225518 401.03801892 146.87225518 401.03801892 151.83203125 417.671875 C152.15507736 418.74890686 152.47812347 419.82593872 152.81095886 420.93560791 C153.09224136 421.88337097 153.37352386 422.83113403 153.66333008 423.80761719 C153.90102615 424.60528503 154.13872223 425.40295288 154.38362122 426.22479248 C154.875 428.125 154.875 428.125 154.875 430.125 C144.05649211 429.09466592 137.29931327 420.0883038 130.5703125 412.33984375 C126.8832772 408.10106447 123.05397153 404.01230456 119.1875 399.9375 C113.86590847 394.30684162 108.57007938 388.65562247 103.3269043 382.9519043 C100.64235955 380.03372248 97.94585702 377.1275689 95.234375 374.234375 C94.61320801 373.57131348 93.99204102 372.90825195 93.35205078 372.22509766 C92.15897494 370.95275603 90.9647288 369.68151028 89.76904297 368.41162109 C86.01977874 364.41203996 82.40821584 360.31659889 78.875 356.125 C72.27963584 359.37973108 70.64466334 364.16820708 68.0625 370.8125 C67.28666251 372.73368188 66.50939687 374.65428786 65.73046875 376.57421875 C65.39684326 377.42330811 65.06321777 378.27239746 64.71948242 379.1472168 C63.875 381.125 63.875 381.125 62.875 382.125 C60 382.4375 60 382.4375 56.875 382.125 C54.0022916 379.2522916 52.89537524 375.7666778 51.52929688 372.03198242 C48.72487605 364.42962701 46.46527913 358.86815135 38.875 355.125 C32.11753255 351.63559484 32.11753255 351.63559484 30.6875 348.625 C30.875 346.125 30.875 346.125 32.25 344.125 C34.58525674 342.34575677 36.79201952 341.05571243 39.375 339.6875 C44.482132 336.92847467 46.86015713 334.20093174 49.41796875 328.96875 C50.24658206 325.30639478 50.24658206 325.30639478 48.72729492 323.17333984 C46.83129769 320.99482382 44.8366303 318.99676444 42.75 317 C41.24936571 315.49021351 39.74937064 313.97979142 38.25 312.46875 C37.50234375 311.73011719 36.7546875 310.99148438 35.984375 310.23046875 C33.14882077 307.40016555 30.44333216 304.46480368 27.75 301.5 C26.78992623 300.45493502 25.82898088 299.41067011 24.8671875 298.3671875 C24.38475586 297.84350586 23.90232422 297.31982422 23.40527344 296.78027344 C20.57373293 293.71743926 17.72350928 290.6720441 14.875 287.625 C10.03534615 282.44729666 5.21594129 277.25179723 0.4140625 272.0390625 C-3.41551457 267.88528843 -7.26708969 263.75245863 -11.125 259.625 C-15.96460796 254.44725349 -20.78405839 249.25179757 -25.5859375 244.0390625 C-29.41551457 239.88528843 -33.26708969 235.75245863 -37.125 231.625 C-41.96460796 226.44725349 -46.78405839 221.25179757 -51.5859375 216.0390625 C-55.41551469 211.88528829 -59.26710796 207.75247587 -63.125 203.625 C-67.98132412 198.42895215 -72.82673863 193.22337991 -77.63647461 187.98413086 C-80.28460245 185.10264479 -82.95504293 182.24592579 -85.65625 179.4140625 C-86.245271 178.79217041 -86.83429199 178.17027832 -87.44116211 177.52954102 C-88.57167049 176.33707831 -89.70757806 175.14970156 -90.84985352 173.96850586 C-97.15827655 167.28894106 -98.76848761 161.78224762 -98.52734375 152.58984375 C-97.53948615 144.08275936 -92.15662142 138.76409213 -86.50390625 132.7109375 C-84.16709674 130.17076034 -81.98126995 127.55939402 -79.8125 124.875 C-76.32067126 120.5604891 -72.74919165 116.32794472 -69.125 112.125 C-64.80548535 107.11200394 -60.57402234 102.03961883 -56.40234375 96.90234375 C-53.84295864 93.78103533 -51.23902333 90.70053365 -48.625 87.625 C-44.49645127 82.76553255 -40.4322934 77.85909407 -36.40625 72.9140625 C-32.34921194 67.95391665 -28.23486355 63.0413921 -24.125 58.125 C-26.90147222 55.9521087 -29.71031837 54.17158878 -32.8125 52.5 C-37.02535587 50.22464413 -37.02535587 50.22464413 -38.125 49.125 C-38.5 46.8125 -38.5 46.8125 -38.125 44.125 C-33.73232168 40.06460915 -28.60135055 37.72432235 -23.28125 35.1015625 C-15.31741289 30.11430807 -13.12799652 22.86046577 -9.9375 14.375 C-9.07356053 12.10763603 -8.20528476 9.84191808 -7.33203125 7.578125 C-6.9553833 6.57942383 -6.57873535 5.58072266 -6.19067383 4.55175781 C-4.62283815 0.98147451 -3.97745572 0.15909823 0 0 Z " fill="#B1E4F8" transform="translate(98.125,40.875)"/>
<path d="M0 0 C3.01416428 1.31326003 4.70885605 2.54187757 6.62890625 5.203125 C7.10054199 5.84620605 7.57217773 6.48928711 8.05810547 7.15185547 C8.55455566 7.84424316 9.05100586 8.53663086 9.5625 9.25 C10.63796576 10.71714164 11.71481467 12.18327028 12.79296875 13.6484375 C13.33228027 14.38416992 13.8715918 15.11990234 14.42724609 15.87792969 C16.68474312 18.92390364 19.02018145 21.90398357 21.375 24.875 C22.2827085 26.02331388 23.19025678 27.17175442 24.09765625 28.3203125 C24.56445801 28.91102539 25.03125977 29.50173828 25.51220703 30.11035156 C28.2948148 33.64454653 31.05270003 37.19798585 33.8125 40.75 C34.40144043 41.50780762 34.99038086 42.26561523 35.59716797 43.04638672 C36.79876492 44.59269608 38.00026177 46.13908324 39.20166016 47.68554688 C42.13299363 51.45815634 45.06659198 55.22900355 48 59 C49.16667794 60.49999123 50.3333446 61.99999124 51.5 63.5 C52.0775 64.2425 52.655 64.985 53.25 65.75 C55 68 56.75 70.25 58.5 72.5 C59.3674585 73.6152002 59.3674585 73.6152002 60.25244141 74.75292969 C61.41124088 76.24295348 62.56977249 77.73318563 63.72802734 79.22363281 C66.76282318 83.12807851 69.80311036 87.02807956 72.8515625 90.921875 C73.48320312 91.73011719 74.11484375 92.53835937 74.765625 93.37109375 C75.96962686 94.91150789 77.17525248 96.45065483 78.3828125 97.98828125 C79.20265625 99.03822266 79.20265625 99.03822266 80.0390625 100.109375 C80.51553223 100.71749023 80.99200195 101.32560547 81.48291016 101.95214844 C81.9835498 102.62793945 82.48418945 103.30373047 83 104 C84.13659058 105.37007202 84.13659058 105.37007202 85.29614258 106.76782227 C87.16653244 110.31590815 87.1236411 111.75408331 85.95539856 115.52845764 C85.59269112 116.55657814 85.59269112 116.55657814 85.22265625 117.60546875 C84.98637009 118.34441879 84.75008392 119.08336884 84.50663757 119.8447113 C83.71578267 122.30077975 82.88873732 124.74313116 82.0625 127.1875 C81.49403521 128.93635359 80.92866606 130.68621609 80.36621094 132.43701172 C79.18282972 136.11628554 77.98850863 139.79174526 76.78759766 143.46533203 C74.24827131 151.27729094 71.88981991 159.14278163 69.5333252 167.01141357 C68.46956597 170.56067598 67.39868104 174.10777306 66.32785034 177.65490723 C65.48340055 180.45220333 64.63987616 183.24977746 63.79638672 186.04736328 C61.85932439 192.46903955 59.91592101 198.88879226 57.97265625 205.30859375 C48.62803827 236.14667213 48.62803827 236.14667213 39.5324707 267.05883789 C37.09633958 275.43119548 34.52921254 283.75792895 31.93359375 292.08203125 C28.3399332 303.61261604 24.8202898 315.16404339 21.34375 326.73046875 C21.10463835 327.5257259 20.8655267 328.32098305 20.61916924 329.1403389 C18.65804701 335.66390034 16.69963255 342.1882738 14.74243164 348.7130127 C13.26073371 353.65255966 11.77764871 358.59168521 10.29243469 363.53017616 C9.60577533 365.81544725 8.92121046 368.10133901 8.23669434 370.38725281 C7.82132215 371.76886377 7.40584174 373.15044219 6.99023438 374.53198242 C6.62877319 375.73690842 6.26731201 376.94183441 5.89489746 378.18327332 C5 381 5 381 4 383 C2.02 383 0.04 383 -2 383 C-8.52331523 362.08650135 -14.94121525 341.14212087 -21.3057251 320.17980957 C-22.07799236 317.63647855 -22.85061434 315.09325549 -23.62329102 312.55004883 C-32.21779645 284.25805195 -40.73650129 255.94372076 -49.2088356 227.6149168 C-54.41011681 210.22619272 -59.64300196 192.84789172 -64.9511528 175.49145508 C-65.80132237 172.71127845 -66.65072659 169.93086909 -67.49990845 167.15039062 C-69.93598554 159.17545351 -72.37423808 151.20124846 -74.82810879 143.23176575 C-75.82250841 139.99773381 -76.81159273 136.76209333 -77.79936409 133.52603149 C-78.25712538 132.03064646 -78.71721318 130.53597125 -79.17983818 129.04208374 C-83.80250469 114.10949447 -83.80250469 114.10949447 -84 108 C-82.55692644 105.44901834 -81.35402127 103.75067249 -79.4375 101.625 C-78.41005017 100.4048302 -77.38407926 99.18341396 -76.359375 97.9609375 C-75.81087891 97.31995117 -75.26238281 96.67896484 -74.69726562 96.01855469 C-71.75119642 92.51480034 -68.98073527 88.87583801 -66.1875 85.25 C-64.99413828 83.71303777 -63.80012149 82.17658396 -62.60546875 80.640625 C-61.71093994 79.48916992 -61.71093994 79.48916992 -60.79833984 78.31445312 C-57.86700636 74.54184364 -54.93337972 70.77101849 -52 67 C-51.13846313 65.89217163 -51.13846313 65.89217163 -50.25952148 64.76196289 C-47.29389134 60.94853535 -44.32737734 57.13580037 -41.359375 53.32421875 C-35.42928556 45.7071211 -29.51539773 38.07873291 -23.63671875 30.421875 C-18.69615502 23.99933537 -13.70766967 17.61371282 -8.72900391 11.22070312 C-5.81782961 7.48164052 -2.90895375 3.74079027 0 0 Z " fill="#75CEF8" transform="translate(255,88)"/>
<path d="M0 0 C36.63842646 -0.04574476 73.27684863 -0.08100258 109.91529785 -0.10213066 C114.23755864 -0.10463217 118.55981937 -0.10722081 122.88208008 -0.10986328 C123.7425902 -0.1103879 124.60310032 -0.11091252 125.48968651 -0.11145304 C139.43596611 -0.12016349 153.38222928 -0.13593698 167.32849912 -0.15430559 C181.63107953 -0.17298685 195.93365131 -0.18411296 210.23624343 -0.18817699 C219.06676172 -0.19092574 227.89723357 -0.1996177 236.72773757 -0.21583293 C242.77729549 -0.22637794 248.82682929 -0.22960628 254.87639574 -0.22700275 C258.37038403 -0.22571758 261.86429098 -0.22773318 265.35826492 -0.23841095 C269.14079017 -0.24829401 272.92311322 -0.24599319 276.7056427 -0.24050903 C277.81749729 -0.24633472 278.92935187 -0.2521604 280.07489902 -0.25816262 C281.58868562 -0.25218947 281.58868562 -0.25218947 283.13305378 -0.24609566 C284.00679026 -0.2468551 284.88052674 -0.24761454 285.78074008 -0.24839699 C288 0 288 0 291 2 C283.6469627 11.58944496 276.23868533 21.13505197 268.81445312 30.66943359 C265.87486664 34.44517264 262.93749416 38.22263307 260 42 C256.45427972 46.55949384 252.90800104 51.1185484 249.359375 55.67578125 C244.22405297 62.27201386 239.0912807 68.86968837 234 75.5 C225.10502425 87.08108229 216.18518906 98.64687812 207 110 C203.08850736 106.2381273 199.67181931 102.25774191 196.3125 98 C195.7870459 97.33846924 195.2615918 96.67693848 194.72021484 95.99536133 C190.65663762 90.86581699 186.65629646 85.68936301 182.6796875 80.4921875 C179.55787618 76.41563601 176.4040862 72.36410097 173.25 68.3125 C172.65719238 67.55090576 172.06438477 66.78931152 171.45361328 66.00463867 C170.24065319 64.44654195 169.02759914 62.88851837 167.81445312 61.33056641 C164.29437547 56.80921801 160.77733776 52.28550476 157.25976562 47.76220703 C154.29400788 43.94873409 151.32744749 40.13589046 148.359375 36.32421875 C130.09985262 12.87085483 130.09985262 12.87085483 122 2 C117.7372152 3.42092827 116.09087341 6.60740456 113.5625 10.125 C112.48255782 11.59788818 111.40047274 13.06920722 110.31640625 14.5390625 C109.76484863 15.28704102 109.21329102 16.03501953 108.64501953 16.80566406 C106.17467507 20.10092319 103.59426339 23.30199166 101 26.5 C96.88636824 31.58655429 92.90071653 36.74844921 89 42 C84.57205446 47.9595839 80.01450752 53.79311892 75.35498047 59.57299805 C71.81817542 63.96369383 68.35356534 68.40042318 64.92700195 72.87792969 C55.39211555 85.33488856 45.70754693 97.6773588 36 110 C32.08850736 106.2381273 28.67181931 102.25774191 25.3125 98 C24.7870459 97.33846924 24.2615918 96.67693848 23.72021484 95.99536133 C19.65663762 90.86581699 15.65629646 85.68936301 11.6796875 80.4921875 C6.77361273 74.0856932 1.79858865 67.73221949 -3.15917969 61.36572266 C-5.01685297 58.97834147 -6.87206146 56.58906474 -8.7265625 54.19921875 C-9.33395264 53.41740234 -9.94134277 52.63558594 -10.56713867 51.83007812 C-11.75981725 50.29288375 -12.95013853 48.75385711 -14.13793945 47.21289062 C-16.58905384 44.04272174 -19.04263225 40.90263117 -21.69140625 37.89453125 C-26.92273923 31.88077282 -26.92273923 31.88077282 -27.3125 27.4375 C-22.45956321 14.72742746 -15.65991365 9.94561784 -3.44140625 4.39453125 C-0.69053578 3.18314613 -0.69053578 3.18314613 0 0 Z " fill="#B0E3F8" transform="translate(135,87)"/>
<path d="M0 0 C0.94875 0.04125 1.8975 0.0825 2.875 0.125 C6.40009763 6.89979701 9.18462483 13.82574247 11.875 20.96679688 C15.42310544 30.10732633 19.43593442 33.81812735 28.0625 38.25 C29.70636 39.09803312 31.34594218 39.95442638 32.98046875 40.8203125 C33.70387451 41.19172363 34.42728027 41.56313477 35.17260742 41.94580078 C36.875 43.125 36.875 43.125 37.875 46.125 C37.02979251 48.59562913 36.30377795 49.82633691 34.15087891 51.32592773 C33.13646729 51.81234741 33.13646729 51.81234741 32.1015625 52.30859375 C30.9878125 52.86450195 30.9878125 52.86450195 29.8515625 53.43164062 C28.29172495 54.18176184 26.7318297 54.93176307 25.171875 55.68164062 C18.94066268 58.79185646 15.4897234 62.20545216 12.5625 68.625 C12.21574219 69.3571875 11.86898437 70.089375 11.51171875 70.84375 C10.67867735 73.82838911 10.82940302 75.18695891 11.875 78.125 C13.5155925 80.6050981 15.39779678 82.85301468 17.3125 85.125 C18.41900774 86.4718033 19.52446125 87.81947338 20.62890625 89.16796875 C21.18078613 89.83747559 21.73266602 90.50698242 22.30126953 91.19677734 C24.50895163 93.90175302 26.6308147 96.66246035 28.75 99.4375 C32.68412649 104.58151223 36.64693827 109.70238055 40.625 114.8125 C41.50986084 115.94945312 41.50986084 115.94945312 42.41259766 117.109375 C44.23311292 119.44813913 46.05399367 121.78661821 47.875 124.125 C52.00379596 129.4268494 56.13117812 134.72978077 60.25292969 140.03710938 C61.32057748 141.41136041 62.38891861 142.78507313 63.45800781 144.15820312 C64.89103551 145.99948245 66.32098007 147.84310953 67.75 149.6875 C68.55179688 150.72003906 69.35359375 151.75257813 70.1796875 152.81640625 C71.875 155.125 71.875 155.125 71.875 156.125 C15.775 156.125 -40.325 156.125 -98.125 156.125 C-98.125 145.42026744 -93.61725375 140.32819594 -86.50390625 132.7109375 C-84.16709674 130.17076034 -81.98126995 127.55939402 -79.8125 124.875 C-76.32067126 120.5604891 -72.74919165 116.32794472 -69.125 112.125 C-64.80548535 107.11200394 -60.57402234 102.03961883 -56.40234375 96.90234375 C-53.84295864 93.78103533 -51.23902333 90.70053365 -48.625 87.625 C-44.49645127 82.76553255 -40.4322934 77.85909407 -36.40625 72.9140625 C-32.34921194 67.95391665 -28.23486355 63.0413921 -24.125 58.125 C-26.90147222 55.9521087 -29.71031837 54.17158878 -32.8125 52.5 C-37.02535587 50.22464413 -37.02535587 50.22464413 -38.125 49.125 C-38.5 46.8125 -38.5 46.8125 -38.125 44.125 C-33.73232168 40.06460915 -28.60135055 37.72432235 -23.28125 35.1015625 C-15.31741289 30.11430807 -13.12799652 22.86046577 -9.9375 14.375 C-9.07356053 12.10763603 -8.20528476 9.84191808 -7.33203125 7.578125 C-6.9553833 6.57942383 -6.57873535 5.58072266 -6.19067383 4.55175781 C-4.62283815 0.98147451 -3.97745572 0.15909823 0 0 Z " fill="#E3F5FE" transform="translate(98.125,40.875)"/>
<path d="M0 0 C7.91751536 1.54571883 12.79012183 8.97928536 17.546875 14.94140625 C20.14257174 18.17776062 22.80909027 21.34299628 25.5 24.5 C29.6218162 29.3489023 33.66993006 34.25162836 37.6875 39.1875 C40.26146392 42.31799666 42.87569086 45.41172461 45.5 48.5 C48.87278574 52.46907935 52.21176517 56.46016863 55.5 60.5 C58.75221771 64.49293633 62.04569315 68.44642963 65.375 72.375 C65.83140869 72.91390869 66.28781738 73.45281738 66.75805664 74.00805664 C69.16531782 76.84694722 71.58061077 79.67869069 74.00390625 82.50390625 C74.4952002 83.07898926 74.98649414 83.65407227 75.49267578 84.24658203 C76.42451418 85.33713843 77.35890062 86.42552523 78.29638672 87.51123047 C84.26509633 94.50739632 87 98.61346225 87 108 C30.9 108 -25.2 108 -83 108 C-76.33663366 98.0049505 -76.33663366 98.0049505 -72.375 93.4375 C-68.41717834 88.79813371 -64.69777329 84.02066544 -61.0625 79.125 C-56.43660373 72.89800182 -51.71192973 66.76546018 -46.90234375 60.6796875 C-43.64185154 56.55370737 -40.41395265 52.40262178 -37.1875 48.25 C-36.59855957 47.49219238 -36.00961914 46.73438477 -35.40283203 45.95361328 C-34.20123508 44.40730392 -32.99973823 42.86091676 -31.79833984 41.31445312 C-29.44677225 38.28799904 -27.09373261 35.26269164 -24.74047852 32.23754883 C-23.58583892 30.75315103 -22.43137749 29.26861463 -21.27709961 27.78393555 C-18.21400541 23.84431319 -15.14801088 19.90698927 -12.078125 15.97265625 C-11.43746094 15.15087891 -10.79679687 14.32910156 -10.13671875 13.48242188 C-8.90579873 11.90363316 -7.67406552 10.32547802 -6.44140625 8.74804688 C-5.88839844 8.03841797 -5.33539063 7.32878906 -4.765625 6.59765625 C-4.27868164 5.97383057 -3.79173828 5.35000488 -3.29003906 4.70727539 C-2.13594686 3.17991604 -1.06189314 1.59283971 0 0 Z " fill="#75CEF9" transform="translate(425,89)"/>
<path d="M0 0 C3.01416428 1.31326003 4.70885605 2.54187757 6.62890625 5.203125 C7.10054199 5.84620605 7.57217773 6.48928711 8.05810547 7.15185547 C8.55455566 7.84424316 9.05100586 8.53663086 9.5625 9.25 C10.63796576 10.71714164 11.71481467 12.18327028 12.79296875 13.6484375 C13.33228027 14.38416992 13.8715918 15.11990234 14.42724609 15.87792969 C16.68474312 18.92390364 19.02018145 21.90398357 21.375 24.875 C22.2827085 26.02331388 23.19025678 27.17175442 24.09765625 28.3203125 C24.56445801 28.91102539 25.03125977 29.50173828 25.51220703 30.11035156 C28.2948148 33.64454653 31.05270003 37.19798585 33.8125 40.75 C34.40144043 41.50780762 34.99038086 42.26561523 35.59716797 43.04638672 C36.79876492 44.59269608 38.00026177 46.13908324 39.20166016 47.68554688 C42.13299363 51.45815634 45.06659198 55.22900355 48 59 C49.16667794 60.49999123 50.3333446 61.99999124 51.5 63.5 C52.0775 64.2425 52.655 64.985 53.25 65.75 C55 68 56.75 70.25 58.5 72.5 C59.07838623 73.24354736 59.65677246 73.98709473 60.25268555 74.75317383 C61.41076154 76.24231361 62.56848072 77.73173095 63.72583008 79.22143555 C66.77095628 83.14003329 69.82346402 87.05258372 72.88671875 90.95703125 C73.52287109 91.76978516 74.15902344 92.58253906 74.81445312 93.41992188 C76.03091629 94.97379819 77.24954467 96.52598277 78.47070312 98.07617188 C79.02048828 98.77935547 79.57027344 99.48253906 80.13671875 100.20703125 C80.61842529 100.8203833 81.10013184 101.43373535 81.59643555 102.06567383 C83.20451424 104.28185186 84.59124315 106.65207192 86 109 C29.9 109 -26.2 109 -84 109 C-79.50113379 102.25170068 -79.50113379 102.25170068 -77.0390625 99.109375 C-76.4925 98.40941406 -75.9459375 97.70945312 -75.3828125 96.98828125 C-74.80273438 96.24964844 -74.22265625 95.51101562 -73.625 94.75 C-72.36713176 93.14066857 -71.10932085 91.53129232 -69.8515625 89.921875 C-69.2112207 89.10396484 -68.57087891 88.28605469 -67.91113281 87.44335938 C-64.93255183 83.63528088 -61.96659065 79.81742125 -59 76 C-57.83340103 74.49994735 -56.66673418 72.99994748 -55.5 71.5 C-54.9225 70.7575 -54.345 70.015 -53.75 69.25 C-48.5 62.5 -48.5 62.5 -46.74902344 60.2487793 C-45.58556688 58.75288338 -44.42215522 57.25695255 -43.25878906 55.76098633 C-40.29338002 51.94790224 -37.32712738 48.13547936 -34.359375 44.32421875 C-28.43840687 36.71883727 -22.53314407 29.10254052 -16.6640625 21.45703125 C-11.14257094 14.27909223 -5.56520262 7.14406049 0 0 Z " fill="#90D8F9" transform="translate(255,88)"/>
<path d="M0 0 C0.94875 0.04125 1.8975 0.0825 2.875 0.125 C6.40009763 6.89979701 9.18462483 13.82574247 11.875 20.96679688 C15.42310544 30.10732633 19.43593442 33.81812735 28.0625 38.25 C29.70636 39.09803312 31.34594218 39.95442638 32.98046875 40.8203125 C33.70387451 41.19172363 34.42728027 41.56313477 35.17260742 41.94580078 C36.875 43.125 36.875 43.125 37.875 46.125 C37.02979251 48.59562913 36.30377795 49.82633691 34.15087891 51.32592773 C33.47460449 51.65020752 32.79833008 51.9744873 32.1015625 52.30859375 C31.3590625 52.67919922 30.6165625 53.04980469 29.8515625 53.43164062 C28.29172495 54.18176184 26.7318297 54.93176307 25.171875 55.68164062 C16.51046097 60.00485507 13.89763714 65.79410205 10.3125 74.5 C9.92642578 75.42039062 9.54035156 76.34078125 9.14257812 77.2890625 C7.0388164 82.28418305 7.0388164 82.28418305 5.0246582 87.31567383 C4.37757291 88.94806043 3.63541514 90.54222579 2.875 92.125 C0.1875 93.0625 0.1875 93.0625 -2.125 93.125 C-6.63627443 87.07254358 -8.96238229 80.29239012 -11.59375 73.26757812 C-15.44337121 63.42143158 -19.77341722 58.09400081 -29.4375 53.75 C-37.09453255 50.15546745 -37.09453255 50.15546745 -38.125 49.125 C-38.5 46.8125 -38.5 46.8125 -38.125 44.125 C-33.73232168 40.06460915 -28.60135055 37.72432235 -23.28125 35.1015625 C-15.31741289 30.11430807 -13.12799652 22.86046577 -9.9375 14.375 C-9.07356053 12.10763603 -8.20528476 9.84191808 -7.33203125 7.578125 C-6.9553833 6.57942383 -6.57873535 5.58072266 -6.19067383 4.55175781 C-4.62283815 0.98147451 -3.97745572 0.15909823 0 0 Z " fill="#FEE07D" transform="translate(98.125,40.875)"/>
<path d="M0 0 C5.14386335 2.41118595 6.46378856 8.4211302 8.3125 13.375 C8.58255859 14.12587891 8.85261719 14.87675781 9.13085938 15.65039062 C11.78062712 22.51322872 15.5345929 26.08150762 22.3125 29.1875 C25.93238434 30.86988434 25.93238434 30.86988434 27 31.9375 C27.35546875 34.28125 27.35546875 34.28125 27 36.9375 C24.98828125 38.78125 24.98828125 38.78125 22.3125 40.4375 C14.4473324 45.37799046 11.0624372 50.18982458 7.75 58.6875 C7.059109 60.41218745 6.36649398 62.13618562 5.671875 63.859375 C5.3737793 64.61831055 5.07568359 65.37724609 4.76855469 66.15917969 C4 67.9375 4 67.9375 3 68.9375 C0.125 69.25 0.125 69.25 -3 68.9375 C-5.8727084 66.0647916 -6.97962476 62.5791778 -8.34570312 58.84448242 C-11.15012395 51.24212701 -13.40972087 45.68065135 -21 41.9375 C-27.75746745 38.44809484 -27.75746745 38.44809484 -29.1875 35.4375 C-29 32.9375 -29 32.9375 -27.625 30.9375 C-24.6504796 28.67119874 -21.56948118 27.02558407 -18.21875 25.37890625 C-12.81534258 21.86859403 -10.76117527 16.54597292 -8.4375 10.8125 C-3.99360596 -0.12480019 -3.99360596 -0.12480019 0 0 Z " fill="#FEE07D" transform="translate(158,354.0625)"/>
<path d="M0 0 C2.46484375 0.09765625 2.46484375 0.09765625 5 1 C6.44140625 2.93359375 6.44140625 2.93359375 7.5625 5.4375 C7.97628906 6.33726562 8.39007813 7.23703125 8.81640625 8.1640625 C9.94162079 10.8601211 10.97702879 13.57636012 12 16.3125 C14.06759985 21.51406025 16.25925972 24.74489464 21.5078125 27.1484375 C23.28994064 27.86433513 25.0841548 28.55108546 26.890625 29.203125 C29 30 29 30 30 31 C30.5625 33.75 30.5625 33.75 30 37 C27.58186063 39.10012104 24.82962387 40.52122731 22 42 C13.01577394 46.75635497 10.62544819 56.66146572 7.015625 65.62890625 C6 68 6 68 5 69 C3.00041636 69.04080783 0.99954746 69.04254356 -1 69 C-3.91454118 63.48195563 -6.49122823 58.11152826 -8.2265625 52.10546875 C-10.28511421 46.50163354 -12.82749951 44.14308957 -18.0625 41.3125 C-23.85294118 38.14705882 -23.85294118 38.14705882 -26 36 C-25.953125 33.55859375 -25.953125 33.55859375 -25 31 C-22.671875 29.41015625 -22.671875 29.41015625 -19.75 28.0625 C-11.38978968 24.18742954 -8.41415559 18.48811029 -5.3125 10.25 C-4.72977959 8.73263175 -4.14272981 7.21691705 -3.55078125 5.703125 C-3.29981689 5.03958008 -3.04885254 4.37603516 -2.7902832 3.69238281 C-2 2 -2 2 0 0 Z " fill="#FDDF7E" transform="translate(409,266)"/>
</svg>
