<?xml version="1.0" encoding="UTF-8"?>
<svg version="1.1" xmlns="http://www.w3.org/2000/svg" width="64" height="64">
<path d="M0 0 C0.89380371 0.01012115 1.78760742 0.02024231 2.70849609 0.03067017 C3.62937012 0.02588654 4.55024414 0.02110291 5.49902344 0.01617432 C7.44581816 0.01277213 9.39266976 0.0219969 11.33935547 0.0428772 C14.3230704 0.06963915 17.30302348 0.0431412 20.28662109 0.01113892 C22.17725442 0.01444296 24.06788539 0.02084908 25.95849609 0.03067017 C26.8522998 0.02054901 27.74610352 0.01042786 28.66699219 0 C34.75449884 0.11546136 34.75449884 0.11546136 37.39672852 2.75894165 C38.53787928 6.33526115 38.74637996 9.61651616 38.69677734 13.33145142 C38.6975251 14.41242851 38.6975251 14.41242851 38.69828796 15.51524353 C38.695957 17.03058649 38.68628635 18.54593402 38.66967773 20.06118774 C38.6459643 22.38534894 38.64913852 24.70837086 38.65576172 27.03262329 C38.65018837 28.50723952 38.64308065 29.98185093 38.63427734 31.45645142 C38.63564445 32.50019173 38.63564445 32.50019173 38.63703918 33.5650177 C38.5645777 38.46365105 38.5645777 38.46365105 36.33349609 40.69473267 C34.43603516 40.94869995 34.43603516 40.94869995 32.09912109 40.95352173 C31.22481445 40.95982605 30.35050781 40.96613037 29.44970703 40.97262573 C28.03093262 40.96655304 28.03093262 40.96655304 26.58349609 40.96035767 C25.61444336 40.96227112 24.64539062 40.96418457 23.64697266 40.96615601 C21.59586325 40.96751846 19.54474524 40.96381785 17.49365234 40.95547485 C14.3463207 40.94477626 11.19955989 40.9553682 8.05224609 40.96817017 C6.0626615 40.96684858 4.07307725 40.96428621 2.08349609 40.96035767 C0.66472168 40.96643036 0.66472168 40.96643036 -0.78271484 40.97262573 C-1.65702148 40.96632141 -2.53132812 40.96001709 -3.43212891 40.95352173 C-4.20331055 40.95193054 -4.97449219 40.95033936 -5.76904297 40.94869995 C-7.66650391 40.69473267 -7.66650391 40.69473267 -9.66650391 38.69473267 C-9.8783828 36.243906 -9.97049742 33.90890185 -9.96728516 31.45645142 C-9.97371284 30.37977959 -9.97371284 30.37977959 -9.98027039 29.28135681 C-9.9860177 27.76071223 -9.98651098 26.24004014 -9.98217773 24.71939087 C-9.97902999 22.40144314 -10.00242688 20.08478697 -10.02783203 17.76699829 C-10.03010634 16.28848427 -10.03080791 14.80996683 -10.02978516 13.33145142 C-10.0389949 12.64169724 -10.04820465 11.95194305 -10.05769348 11.24128723 C-9.98046252 3.13415861 -7.96659717 0.15110196 0 0 Z " fill="#FFD580" transform="translate(17.66650390625,11.305267333984375)"/>
<path d="M0 0 C4.62 0 9.24 0 14 0 C14.33 1.32 14.66 2.64 15 4 C17.64 4 20.28 4 23 4 C23.33 2.68 23.66 1.36 24 0 C28.62 0 33.24 0 38 0 C38 5.94 38 11.88 38 18 C25.46 18 12.92 18 0 18 C0 12.06 0 6.12 0 0 Z " fill="#FF8C00" transform="translate(13,29)"/>
<path d="M0 0 C11.22 0 22.44 0 34 0 C34.495 4.455 34.495 4.455 35 9 C33.03695495 10.96304505 29.25266245 10.16387489 26.5703125 10.16796875 C25.82417694 10.17129715 25.07804138 10.17462555 24.30929565 10.17805481 C22.72719948 10.18312755 21.14509258 10.18546303 19.56298828 10.18530273 C17.14207263 10.18748461 14.7216159 10.2056234 12.30078125 10.22460938 C10.76562656 10.22754414 9.2304697 10.22952838 7.6953125 10.23046875 C6.60768112 10.24124702 6.60768112 10.24124702 5.49807739 10.25224304 C1.77594941 10.23533409 0.18057873 10.12038582 -3 8 C-2.67 6.35 -2.34 4.7 -2 3 C-1.34 3 -0.68 3 0 3 C0 2.01 0 1.02 0 0 Z " fill="#FF8C00" transform="translate(15,12)"/>
<path d="M0 0 C1.91329102 -0.01836914 1.91329102 -0.01836914 3.86523438 -0.03710938 C5.09435547 -0.03904297 6.32347656 -0.04097656 7.58984375 -0.04296875 C8.71124756 -0.04707764 9.83265137 -0.05118652 10.98803711 -0.05541992 C14.07683614 0.18863273 16.27435709 0.87610154 19.0625 2.1875 C18.7325 3.1775 18.4025 4.1675 18.0625 5.1875 C12.68167008 7.37373317 5.8168152 6.37213259 0.125 6.375 C-1.15052734 6.38724609 -2.42605469 6.39949219 -3.74023438 6.41210938 C-5.58391602 6.41500977 -5.58391602 6.41500977 -7.46484375 6.41796875 C-9.14694946 6.42413208 -9.14694946 6.42413208 -10.86303711 6.43041992 C-13.95183614 6.18636727 -16.14935709 5.49889846 -18.9375 4.1875 C-18.6075 3.1975 -18.2775 2.2075 -17.9375 1.1875 C-12.55667008 -0.99873317 -5.6918152 0.00286741 0 0 Z " fill="#000000" transform="translate(31.9375,57.8125)"/>
<path d="M0 0 C0.05380578 2.79192205 0.09357669 5.5828141 0.125 8.375 C0.15013672 9.56609375 0.15013672 9.56609375 0.17578125 10.78125 C0.19335473 12.85492015 0.10335168 14.92883241 0 17 C-2 19 -2 19 -4.52197266 19.22705078 C-5.5588623 19.21657715 -6.59575195 19.20610352 -7.6640625 19.1953125 C-8.78554688 19.18886719 -9.90703125 19.18242188 -11.0625 19.17578125 C-12.238125 19.15902344 -13.41375 19.14226563 -14.625 19.125 C-16.40003906 19.11146484 -16.40003906 19.11146484 -18.2109375 19.09765625 C-21.14082523 19.07402812 -24.0703134 19.04108514 -27 19 C-26.625 17.0625 -26.625 17.0625 -26 15 C-23.65147472 13.82573736 -22.26225935 13.88491827 -19.6484375 13.90234375 C-18.79765625 13.90556641 -17.946875 13.90878906 -17.0703125 13.91210938 C-16.18085937 13.92048828 -15.29140625 13.92886719 -14.375 13.9375 C-13.4778125 13.94201172 -12.580625 13.94652344 -11.65625 13.95117188 C-9.43743352 13.96297409 -7.21874982 13.97943845 -5 14 C-5.05220703 12.86111328 -5.05220703 12.86111328 -5.10546875 11.69921875 C-5.13253906 10.70535156 -5.15960938 9.71148437 -5.1875 8.6875 C-5.22230469 7.70136719 -5.25710937 6.71523438 -5.29296875 5.69921875 C-5 3 -5 3 -3.61328125 1.14453125 C-2 0 -2 0 0 0 Z " fill="#D98C00" transform="translate(56,33)"/>
<path d="M0 0 C6.6 0 13.2 0 20 0 C19.67 1.32 19.34 2.64 19 4 C15.75370726 5.62314637 12.13440885 5.6224572 8.5625 6 C2.70050982 6.57716187 2.70050982 6.57716187 -3 8 C-2.67 6.35 -2.34 4.7 -2 3 C-1.34 3 -0.68 3 0 3 C0 2.01 0 1.02 0 0 Z " fill="#FF8C00" transform="translate(15,12)"/>
<path d="M0 0 C1.32 0 2.64 0 4 0 C4 0.99 4 1.98 4 3 C3.01 3.495 3.01 3.495 2 4 C2.061875 5.175625 2.061875 5.175625 2.125 6.375 C2 9 2 9 0 11 C-0.99 11 -1.98 11 -3 11 C-2.88590407 9.54077307 -2.75834456 8.08259402 -2.625 6.625 C-2.55539062 5.81289063 -2.48578125 5.00078125 -2.4140625 4.1640625 C-2 2 -2 2 0 0 Z " fill="#FEC14C" transform="translate(11,12)"/>
<path d="M0 0 C2.64 0 5.28 0 8 0 C7.67 0.99 7.34 1.98 7 3 C5.15234375 3.73046875 5.15234375 3.73046875 2.9375 4.1875 C2.20402344 4.34605469 1.47054688 4.50460938 0.71484375 4.66796875 C-0.13400391 4.83232422 -0.13400391 4.83232422 -1 5 C-0.67 3.35 -0.34 1.7 0 0 Z " fill="#F5E9F2" transform="translate(13,15)"/>
</svg>
