<?xml version="1.0" encoding="UTF-8"?>
<svg version="1.1" xmlns="http://www.w3.org/2000/svg" width="512" height="512">
<path d="M0 0 C1.404655 -0.00461616 2.80930516 -0.01097387 4.21394533 -0.01890898 C8.05064457 -0.03552726 11.88694319 -0.02739049 15.72364342 -0.0149641 C19.87026305 -0.00588507 24.0168155 -0.01989738 28.16342163 -0.03088379 C36.27718099 -0.04864277 44.3907921 -0.04484087 52.5045572 -0.03323323 C59.09988721 -0.02418947 65.69517575 -0.02297898 72.29051018 -0.02732849 C73.7000143 -0.02824789 73.7000143 -0.02824789 75.13799326 -0.02918586 C77.04706635 -0.0304648 78.95613943 -0.03176165 80.86521249 -0.03307623 C98.75381781 -0.04447418 116.64234104 -0.03138031 134.5309329 -0.00987476 C149.87299354 0.00799842 165.21493312 0.00488877 180.55699158 -0.0135498 C198.38434941 -0.03496534 216.21163537 -0.04337869 234.03900427 -0.03110075 C235.94063944 -0.02982658 237.84227463 -0.0285691 239.74390984 -0.02732849 C240.67949104 -0.02671139 241.61507225 -0.02609429 242.5790044 -0.02545848 C249.16527733 -0.02200786 255.7515046 -0.02782768 262.33777046 -0.0372467 C270.36578864 -0.04847552 278.39365041 -0.04540796 286.42165072 -0.02412373 C290.51598645 -0.01362562 294.6100616 -0.00947025 298.70439529 -0.02272034 C302.45545659 -0.03467579 306.20601675 -0.02803038 309.95703285 -0.00681013 C311.95013329 -0.00025475 313.94326875 -0.01325188 315.93633229 -0.02703905 C326.28449114 0.063205 333.50644276 2.43426417 341.09873962 9.52746582 C351.33508069 20.47646354 352.39214137 31.86980133 352.2908783 46.13513184 C352.290031 47.81131474 352.29050917 49.48749877 352.29220581 51.16368103 C352.29306317 55.69202801 352.27547957 60.22013443 352.25448394 64.74842572 C352.23567376 69.48896377 352.23396328 74.22950791 352.23040771 78.97007751 C352.22109997 87.93715364 352.19650344 96.90411945 352.16635925 105.8711471 C352.13277561 116.08396334 352.11631927 126.29678497 352.10127294 136.50964272 C352.06995273 157.5091348 352.01721703 178.50852772 351.95030212 199.50793457 C353.03569275 199.46152832 354.12108337 199.41512207 355.23936462 199.36730957 C356.68464944 199.32976971 358.12996423 199.29337193 359.57530212 199.25793457 C360.64457947 199.20766113 360.64457947 199.20766113 361.73545837 199.15637207 C366.95857363 199.06053509 369.7924322 200.08745141 373.95030212 203.50793457 C378.63786014 209.08232789 379.22932175 214.83634933 378.75376511 221.85894012 C378.60922534 223.45821989 378.45526151 225.05666686 378.29350281 226.65429688 C378.21071933 227.54161861 378.12793585 228.42894034 378.04264379 229.34315062 C377.76465944 232.29932599 377.47420796 235.25413749 377.18370056 238.20910645 C376.98110043 240.33514156 376.77924056 242.46124732 376.57806396 244.5874176 C376.03034997 250.35051457 375.47147783 256.1124782 374.90997982 261.8742466 C374.44192454 266.687627 373.9793212 271.50152497 373.51670957 276.31543112 C372.42521478 287.67253237 371.32468597 299.02873318 370.21836853 310.38439941 C369.07772043 322.09392472 367.95151197 333.80477441 366.83254027 345.51638937 C365.87069708 355.57852119 364.900288 365.63980133 363.92293 375.70043802 C363.33955108 381.70621172 362.75932431 387.71224639 362.18717194 393.71910095 C361.64878487 399.36716335 361.09967598 405.01408299 360.54234886 410.66030693 C360.33980615 412.73032932 360.1410053 414.80072183 359.94626045 416.87149239 C359.67939639 419.70262766 359.39891208 422.5320994 359.11503601 425.36157227 C359.00455575 426.5849364 359.00455575 426.5849364 358.89184356 427.83301497 C358.21524527 434.34003876 357.12280294 440.97279582 351.95030212 445.44543457 C347.64821985 448.40311613 344.75830901 448.63422788 339.64770031 448.64215565 C339.00276598 448.64450788 338.35783165 448.64686011 337.69335386 448.64928362 C335.51744581 448.65597688 333.34159742 448.6555153 331.16567993 448.65510559 C329.59581706 448.658404 328.02595503 448.66212952 326.45609409 448.66624707 C322.13045491 448.67627757 317.80482961 448.67998554 313.47918046 448.68263638 C308.81853718 448.68653625 304.15790493 448.69611471 299.49726868 448.70484924 C288.23699429 448.72462124 276.976719 448.73468018 265.71643159 448.74357703 C260.41693943 448.74795818 255.11744828 448.75332539 249.81795692 448.7585659 C232.20733567 448.77557788 214.59671505 448.7900733 196.98608685 448.79731464 C192.41499519 448.79922461 187.84390353 448.80114493 183.27281189 448.80310059 C182.13665803 448.80358433 181.00050417 448.80406807 179.8299214 448.80456647 C161.41423384 448.81287141 142.99861115 448.83821631 124.58295193 448.87068126 C105.6867593 448.90372251 86.79059968 448.92176069 67.89437801 448.92495888 C57.28042219 448.92712656 46.666561 448.93591291 36.05263329 448.96142006 C27.01575078 448.98308688 17.97898587 448.99119727 8.94208034 448.98145328 C4.32969233 448.97689707 -0.28245284 448.97887124 -4.89480782 448.99821472 C-9.11595588 449.01576503 -13.33668249 449.01491529 -17.55783453 448.99931743 C-19.08611038 448.99692895 -20.6144148 449.00132883 -22.14264683 449.01314608 C-24.21880278 449.02820778 -26.29345424 449.01863482 -28.36957264 449.0029192 C-29.52305567 449.00389601 -30.67653869 449.00487281 -31.86497575 449.00587922 C-36.75179518 448.24180452 -39.81778605 445.70562662 -43.29969788 442.32043457 C-47.0698874 436.26120141 -47.40024233 428.59817362 -48.04948425 421.60990906 C-48.13286415 420.76130713 -48.21624405 419.91270521 -48.30215061 419.03838807 C-48.57765084 416.22037595 -48.84518585 413.40166762 -49.11268616 410.58288574 C-49.30955822 408.55174831 -49.50690765 406.52065711 -49.70469666 404.48960876 C-50.23874639 398.99000932 -50.76570807 393.48975227 -51.2910676 387.9893167 C-51.8429001 382.22105427 -52.40021957 376.45332148 -52.95664978 370.6855011 C-53.89031855 360.99771057 -54.81924065 351.30947336 -55.74549866 341.62097168 C-56.81454645 330.43967838 -57.89175413 319.25919345 -58.97321141 308.07909411 C-59.90315262 298.46307238 -60.82861234 288.8466269 -61.75037944 279.22981817 C-62.30018414 273.49376658 -62.85151561 267.75787317 -63.40690994 262.02235985 C-63.92920578 256.62608892 -64.44585066 251.22930536 -64.95825577 245.83208656 C-65.14655375 243.85832118 -65.33676882 241.88473755 -65.52910614 239.91136169 C-68.33158373 211.12256503 -68.33158373 211.12256503 -63.72938538 204.12902832 C-59.76204832 200.30008675 -55.63468094 199.16419861 -50.19032288 199.2442627 C-49.52516663 199.26939941 -48.86001038 199.29453613 -48.17469788 199.32043457 C-47.4863385 199.33396973 -46.79797913 199.34750488 -46.08876038 199.3614502 C-44.40872787 199.39645087 -42.72910438 199.45024503 -41.04969788 199.50793457 C-40.8552382 190.68381238 -40.73759284 181.86285512 -40.7154789 173.03660774 C-40.70284662 168.93691733 -40.66469867 164.84090958 -40.56629944 160.74230957 C-40.47212714 156.77933525 -40.44751512 152.82123856 -40.46923447 148.85726547 C-40.46562009 147.35249945 -40.43777086 145.84757318 -40.38428116 144.34375381 C-39.98432515 136.09539971 -39.98432515 136.09539971 -43.43531036 128.89742279 C-47.28070372 125.49109103 -51.59104044 123.02180433 -56.04969788 120.50793457 C-58.46147156 118.99258423 -58.46147156 118.99258423 -60.04969788 117.50793457 C-60.83125127 112.03706078 -60.83125127 112.03706078 -60.04969788 109.50793457 C-57.37599116 107.04288485 -55.16980104 105.5538438 -51.75721741 104.24938965 C-47.43129095 102.32522491 -44.45698173 100.67569031 -42.04969788 96.50793457 C-39.81904324 87.12241182 -40.59726274 76.97278601 -40.86836243 67.38500977 C-41.01585509 61.65245106 -41.03912533 55.91757662 -41.08031082 50.18348122 C-41.10370043 48.20266031 -41.15572183 46.22224219 -41.20860291 44.24198914 C-41.44499392 31.11004384 -39.18541264 19.50300423 -30.23329163 9.47277832 C-21.37140253 1.04055658 -11.82430099 -0.08193725 0 0 Z " fill="#EDAD64" transform="translate(101.04969787597656,31.4920654296875)"/>
<path d="M0 0 C1.404655 -0.00461616 2.80930516 -0.01097387 4.21394533 -0.01890898 C8.05064457 -0.03552726 11.88694319 -0.02739049 15.72364342 -0.0149641 C19.87026305 -0.00588507 24.0168155 -0.01989738 28.16342163 -0.03088379 C36.27718099 -0.04864277 44.3907921 -0.04484087 52.5045572 -0.03323323 C59.09988721 -0.02418947 65.69517575 -0.02297898 72.29051018 -0.02732849 C73.7000143 -0.02824789 73.7000143 -0.02824789 75.13799326 -0.02918586 C77.04706635 -0.0304648 78.95613943 -0.03176165 80.86521249 -0.03307623 C98.75381781 -0.04447418 116.64234104 -0.03138031 134.5309329 -0.00987476 C149.87299354 0.00799842 165.21493312 0.00488877 180.55699158 -0.0135498 C198.38434941 -0.03496534 216.21163537 -0.04337869 234.03900427 -0.03110075 C235.94063944 -0.02982658 237.84227463 -0.0285691 239.74390984 -0.02732849 C240.67949104 -0.02671139 241.61507225 -0.02609429 242.5790044 -0.02545848 C249.16527733 -0.02200786 255.7515046 -0.02782768 262.33777046 -0.0372467 C270.36578864 -0.04847552 278.39365041 -0.04540796 286.42165072 -0.02412373 C290.51598645 -0.01362562 294.6100616 -0.00947025 298.70439529 -0.02272034 C302.45545659 -0.03467579 306.20601675 -0.02803038 309.95703285 -0.00681013 C311.95013329 -0.00025475 313.94326875 -0.01325188 315.93633229 -0.02703905 C326.28449114 0.063205 333.50644276 2.43426417 341.09873962 9.52746582 C351.33508069 20.47646354 352.39214137 31.86980133 352.2908783 46.13513184 C352.290031 47.81131474 352.29050917 49.48749877 352.29220581 51.16368103 C352.29306317 55.69202801 352.27547957 60.22013443 352.25448394 64.74842572 C352.23567376 69.48896377 352.23396328 74.22950791 352.23040771 78.97007751 C352.22109997 87.93715364 352.19650344 96.90411945 352.16635925 105.8711471 C352.12649057 117.99524993 352.11035009 130.11938314 352.09285259 142.24353504 C352.06468141 161.33175077 352.0049034 180.41973377 351.95030212 199.50793457 C299.48030212 199.50793457 247.01030212 199.50793457 192.95030212 199.50793457 C197.4183989 192.48663964 201.8989358 185.59927576 206.70030212 178.82043457 C207.93782038 177.06300155 209.17479383 175.30518479 210.41123962 173.54699707 C211.01419861 172.69009277 211.61715759 171.83318848 212.23838806 170.95031738 C215.05676765 166.92934342 217.8379613 162.88310306 220.59873962 158.8223877 C223.4133664 154.69564815 226.29821655 150.62729413 229.22373962 146.57824707 C229.9631781 145.54417725 230.70261658 144.51010742 231.46446228 143.44470215 C232.93378226 141.39153685 234.41492652 139.34677266 235.90879822 137.31140137 C236.57733826 136.37207764 237.2458783 135.43275391 237.93467712 134.46496582 C238.54021423 133.62941162 239.14575134 132.79385742 239.76963806 131.9329834 C241.14482868 129.59282035 241.14482868 129.59282035 240.85752869 127.07849121 C239.73796467 123.90629274 238.21969805 121.28541682 236.45030212 118.42199707 C236.09572937 117.84315765 235.74115662 117.26431824 235.37583923 116.66793823 C234.24095606 114.81854377 233.09600431 112.97564189 231.95030212 111.13293457 C230.86208375 109.36762377 229.77577754 107.60122805 228.69408417 105.83191109 C227.94499585 104.62077418 227.18473336 103.41642054 226.40955353 102.22181511 C224.39906326 99.08456637 222.71898238 96.09493388 221.43797302 92.58999634 C219.67905972 88.20509166 217.73492944 84.45772799 213.95030212 81.50793457 C205.92280696 78.45354063 196.75005056 79.05075111 188.29405212 79.02355957 C185.74684964 78.97784281 183.19968846 78.9297696 180.65257263 78.87945557 C175.31541773 78.79426118 169.98209911 78.76963544 164.64463806 78.7833252 C159.18973464 78.79561753 153.75009229 78.69697944 148.29893494 78.49621582 C119.74993875 75.83148859 119.74993875 75.83148859 93.86247253 84.34237671 C87.58471354 90.66604475 84.59872163 98.67325933 82.09754944 107.05833435 C80.46095328 111.97933299 77.8476612 115.90217184 74.82530212 120.07043457 C71.98053785 123.94029483 71.98053785 123.94029483 70.92295837 128.48449707 C72.51549191 131.62112207 74.48281326 134.45829424 76.51280212 137.32043457 C76.99168884 138.00621582 77.47057556 138.69199707 77.963974 139.39855957 C79.03270612 140.92839247 80.10398067 142.45645137 81.17735291 143.98303223 C83.75952024 147.66036279 86.32259627 151.35089256 88.88731384 155.04040527 C90.26708263 157.0251496 91.64762159 159.00935872 93.02891541 160.99304199 C97.43965138 167.32763196 101.83218901 173.6741465 106.19566345 180.04138184 C108.3259343 183.14937454 110.46459865 186.2508489 112.62217712 189.33996582 C113.04635925 189.94824219 113.47054138 190.55651855 113.90757751 191.18322754 C115.05936061 192.83307282 116.21372212 194.48111723 117.36827087 196.12902832 C118.95030212 198.50793457 118.95030212 198.50793457 118.95030212 199.50793457 C66.15030212 199.50793457 13.35030212 199.50793457 -41.04969788 199.50793457 C-41.37969788 176.73793457 -41.70969788 153.96793457 -42.04969788 130.50793457 C-46.66969788 127.20793457 -51.28969788 123.90793457 -56.04969788 120.50793457 C-57.36969788 119.51793457 -58.68969788 118.52793457 -60.04969788 117.50793457 C-60.83125127 112.03706078 -60.83125127 112.03706078 -60.04969788 109.50793457 C-57.37599116 107.04288485 -55.16980104 105.5538438 -51.75721741 104.24938965 C-47.43129095 102.32522491 -44.45698173 100.67569031 -42.04969788 96.50793457 C-39.81904324 87.12241182 -40.59726274 76.97278601 -40.86836243 67.38500977 C-41.01585509 61.65245106 -41.03912533 55.91757662 -41.08031082 50.18348122 C-41.10370043 48.20266031 -41.15572183 46.22224219 -41.20860291 44.24198914 C-41.44499392 31.11004384 -39.18541264 19.50300423 -30.23329163 9.47277832 C-21.37140253 1.04055658 -11.82430099 -0.08193725 0 0 Z " fill="#A16A55" transform="translate(101.04969787597656,31.4920654296875)"/>
<path d="M0 0 C32.34 0 64.68 0 98 0 C98.33 12.87 98.66 25.74 99 39 C103.90276478 53.70829434 109.36818317 63.77024437 123.3125 70.9375 C132.85261488 75.46943863 144.63689643 75.4494097 154.82421875 73.12890625 C167.61993064 68.51033569 176.02486656 60.54387031 181.8125 48.375 C188.45052476 33.72408451 185.60838625 14.48970876 186 0 C218.34 0 250.68 0 284 0 C284.66 3.63 285.32 7.26 286 11 C289.95030064 21.81134911 295.86064494 29.12270933 306.2890625 34 C310.76135655 35.6497223 315.29640948 36.35418874 320 37 C320.29584859 52.0633406 319.37043611 66.92560309 318.1875 81.9375 C318.00503651 84.31913513 317.82307526 86.70080878 317.64160156 89.08251953 C316.18685426 108.0624484 314.64186322 127.03534486 313 146 C312.20118408 146.1131958 311.40236816 146.2263916 310.5793457 146.34301758 C299.46603722 148.03283439 290.00751479 151.79691921 283 161 C278.32031558 168.17551611 277.45905865 174.24564808 276 183 C187.56 183 99.12 183 8 183 C7.34 180.03 6.68 177.06 6 174 C3.82656502 164.91363956 -0.72733065 158.01812364 -8.4375 152.625 C-15.20350391 148.48512303 -21.18575995 146.88631859 -29 146 C-30.83881306 128.80949318 -32.3821446 111.64404788 -33.4609375 94.38671875 C-33.86634245 87.92806141 -34.31848867 81.47375268 -34.7890625 75.01953125 C-34.8923587 73.59908005 -34.8923587 73.59908005 -34.9977417 72.14993286 C-35.27422654 68.35376944 -35.5512624 64.55765399 -35.83251953 60.76184082 C-36.02856036 58.11351815 -36.2215417 55.4649868 -36.4140625 52.81640625 C-36.47332916 52.02909622 -36.53259583 51.24178619 -36.59365845 50.43061829 C-36.91745084 45.93952481 -37.05591736 41.5028389 -37 37 C-36.09121094 36.85304688 -36.09121094 36.85304688 -35.1640625 36.703125 C-23.20144595 34.56825805 -13.58192617 30.65782691 -6.25 20.5625 C-2.98988935 14.35727818 -2.98988935 14.35727818 0 0 Z " fill="#894C3D" transform="translate(115,264)"/>
<path d="M0 0 C113.85 0 227.7 0 345 0 C345 14.625 345 14.625 344.5 20.8125 C344.4071875 21.99457031 344.314375 23.17664063 344.21875 24.39453125 C344.1465625 25.25433594 344.074375 26.11414063 344 27 C343.26136719 27.07476562 342.52273438 27.14953125 341.76171875 27.2265625 C331.45735866 28.56207042 322.60662601 32.24255855 315.49609375 40.03515625 C309.76095432 47.56720621 308.59652456 54.42085262 307 64 C218.56 64 130.12 64 39 64 C38.34 61.03 37.68 58.06 37 55 C34.82656502 45.91363956 30.27266935 39.01812364 22.5625 33.625 C15.79649609 29.48512303 9.81424005 27.88631859 2 27 C1.66191643 23.62545836 1.33038682 20.25030319 1 16.875 C0.90460938 15.92367188 0.80921875 14.97234375 0.7109375 13.9921875 C0.62070313 13.0640625 0.53046875 12.1359375 0.4375 11.1796875 C0.35371094 10.33132324 0.26992187 9.48295898 0.18359375 8.60888672 C-0.01789668 5.74568626 0 2.87028139 0 0 Z " fill="#A26A55" transform="translate(84,383)"/>
<path d="M0 0 C1.404655 -0.00461616 2.80930516 -0.01097387 4.21394533 -0.01890898 C8.05064457 -0.03552726 11.88694319 -0.02739049 15.72364342 -0.0149641 C19.87026305 -0.00588507 24.0168155 -0.01989738 28.16342163 -0.03088379 C36.27718099 -0.04864277 44.3907921 -0.04484087 52.5045572 -0.03323323 C59.09988721 -0.02418947 65.69517575 -0.02297898 72.29051018 -0.02732849 C73.7000143 -0.02824789 73.7000143 -0.02824789 75.13799326 -0.02918586 C77.04706635 -0.0304648 78.95613943 -0.03176165 80.86521249 -0.03307623 C98.75381781 -0.04447418 116.64234104 -0.03138031 134.5309329 -0.00987476 C149.87299354 0.00799842 165.21493312 0.00488877 180.55699158 -0.0135498 C198.38434941 -0.03496534 216.21163537 -0.04337869 234.03900427 -0.03110075 C235.94063944 -0.02982658 237.84227463 -0.0285691 239.74390984 -0.02732849 C240.67949104 -0.02671139 241.61507225 -0.02609429 242.5790044 -0.02545848 C249.16527733 -0.02200786 255.7515046 -0.02782768 262.33777046 -0.0372467 C270.36578864 -0.04847552 278.39365041 -0.04540796 286.42165072 -0.02412373 C290.51598645 -0.01362562 294.6100616 -0.00947025 298.70439529 -0.02272034 C302.45545659 -0.03467579 306.20601675 -0.02803038 309.95703285 -0.00681013 C311.95013329 -0.00025475 313.94326875 -0.01325188 315.93633229 -0.02703905 C326.28449114 0.063205 333.50644276 2.43426417 341.09873962 9.52746582 C351.33508069 20.47646354 352.39214137 31.86980133 352.2908783 46.13513184 C352.290031 47.81131474 352.29050917 49.48749877 352.29220581 51.16368103 C352.29306317 55.69202801 352.27547957 60.22013443 352.25448394 64.74842572 C352.23567376 69.48896377 352.23396328 74.22950791 352.23040771 78.97007751 C352.22109997 87.93715364 352.19650344 96.90411945 352.16635925 105.8711471 C352.13277561 116.08396334 352.11631927 126.29678497 352.10127294 136.50964272 C352.06995271 157.50914849 352.01495657 178.50850314 351.95030212 199.50793457 C340.73030212 199.50793457 329.51030212 199.50793457 317.95030212 199.50793457 C317.72435425 182.17460448 317.54023917 164.84253554 317.4321804 147.50814056 C317.38066778 139.4590321 317.31047248 131.41090511 317.19590759 123.36242676 C317.09607111 116.34529723 317.03168247 109.32887855 317.00941718 102.31105852 C316.9964055 98.59648641 316.96595098 94.88394737 316.89300156 91.17002869 C316.81211383 87.01808487 316.81041258 82.86964849 316.81504822 78.71691895 C316.76111908 76.88056381 316.76111908 76.88056381 316.70610046 75.0071106 C316.80485304 66.82844357 316.80485304 66.82844357 320.07709122 63.05610657 C322.6148601 61.00814593 325.20052093 59.25662154 327.95030212 57.50793457 C331.73031779 54.94126791 331.73031779 54.94126791 333.66123962 51.05090332 C332.58662303 47.20708243 329.78574349 45.84522261 326.57530212 43.82043457 C317.07226339 37.42496764 309.54395085 30.31286003 303.71592712 20.34387207 C302.01872982 18.23076284 302.01872982 18.23076284 299.00108337 17.91027832 C295.8029079 18.23523269 295.8029079 18.23523269 293.79014587 20.73840332 C293.16237244 21.71422363 292.534599 22.69004395 291.88780212 23.69543457 C286.68456014 31.64394533 286.68456014 31.64394533 282.95030212 34.50793457 C279.22226929 35.25097622 275.54321789 35.16334739 271.75279236 35.11352539 C270.6086534 35.11835324 269.46451445 35.12318109 268.28570461 35.12815523 C264.44305769 35.13841256 260.60146305 35.11303677 256.75889587 35.0880127 C254.00767474 35.08547435 251.25648094 35.09055265 248.50526428 35.09544373 C242.57662026 35.102238 236.64822218 35.09133418 230.71961975 35.06895447 C222.14243478 35.0370399 213.56547964 35.03739821 204.98825109 35.04659492 C191.06509126 35.06111146 177.14200916 35.05702028 163.21885681 35.03771973 C161.9690072 35.03599706 161.9690072 35.03599706 160.6939081 35.03423959 C153.93304628 35.02478199 147.17218589 35.01442524 140.41132545 35.00403118 C134.50146668 34.99498356 128.59160753 34.98629497 122.68174744 34.97814941 C121.84952931 34.97699578 121.01731118 34.97584214 120.15987432 34.97465354 C106.28876842 34.95603213 92.41772981 34.95693788 78.54662037 34.97181082 C69.98973806 34.98003441 61.4332207 34.97051607 52.87639356 34.93821514 C47.01511835 34.9172001 41.15400459 34.91374331 35.29270148 34.92416346 C31.90953403 34.92953853 28.52731765 34.92385533 25.14415359 34.90182304 C21.47827656 34.8791058 17.81369706 34.88687506 14.14781189 34.90234375 C13.07632117 34.88825989 12.00483046 34.87417603 10.90087032 34.85966539 C4.90034693 34.90127162 4.90034693 34.90127162 -0.17951965 37.93006134 C-5.05917021 44.65622272 -5.54054471 51.36087484 -5.73719788 59.50793457 C-5.77135803 60.47344238 -5.80551819 61.4389502 -5.8407135 62.43371582 C-5.92242487 64.79167239 -5.99181907 67.1492932 -6.04969788 69.50793457 C-7.03969788 68.84793457 -8.02969788 68.18793457 -9.04969788 67.50793457 C-12.04969788 67.0912679 -12.04969788 67.0912679 -15.04969788 67.50793457 C-17.63658461 69.64787229 -19.32742192 72.2905966 -21.17469788 75.07043457 C-25.0246778 80.64964277 -29.40411152 85.58343872 -34.04969788 90.50793457 C-34.58208069 91.08156738 -35.1144635 91.6552002 -35.66297913 92.24621582 C-36.74540938 93.37973423 -37.88996857 94.4536352 -39.04969788 95.50793457 C-39.70969788 95.50793457 -40.36969788 95.50793457 -41.04969788 95.50793457 C-41.1196517 87.63144014 -41.17273696 79.75502045 -41.20513439 71.87829208 C-41.22069486 68.21957056 -41.24175353 64.5610638 -41.27601624 60.90246582 C-41.30895778 57.36220482 -41.32662291 53.82214851 -41.33432961 50.28174591 C-41.34245306 48.29455302 -41.36581477 46.30744083 -41.3895874 44.32037354 C-41.39198573 31.19184605 -39.19063217 19.50885235 -30.23329163 9.47277832 C-21.37140253 1.04055658 -11.82430099 -0.08193725 0 0 Z " fill="#894C3D" transform="translate(101.04969787597656,31.4920654296875)"/>
<path d="M0 0 C2.56252394 -0.01078932 5.12503187 -0.02632707 7.6875 -0.04638672 C13.0486206 -0.06992881 18.40532341 -0.03741668 23.765625 0.0390625 C29.94081165 0.12615773 36.10754973 0.09794281 42.28253174 0.00984001 C48.25156088 -0.07187485 54.21799265 -0.06278305 60.1875 -0.01605225 C62.71355389 -0.00541649 65.23982527 -0.01834739 67.765625 -0.0557251 C86.89825577 -0.27675532 86.89825577 -0.27675532 91.99251747 3.66785431 C95.26263442 7.36884399 97.2589366 11.4617082 99.08232307 16.01557159 C100.64794589 19.61440813 102.82309372 22.82234619 104.94921875 26.109375 C105.74526131 27.40396697 106.5380551 28.70056779 107.32617188 30 C108.5219019 31.96610154 109.72120805 33.92933417 110.93432617 35.88476562 C112.13868748 37.82763475 113.32674449 39.77963804 114.51171875 41.734375 C114.87923752 42.31975037 115.24675629 42.90512573 115.62541199 43.50823975 C118.02976493 47.52812397 118.02976493 47.52812397 117.89404297 50.24975586 C116.82342868 52.49535616 115.59931646 54.47109797 114.18359375 56.51953125 C113.59223633 57.3811084 113.00087891 58.24268555 112.39160156 59.13037109 C111.74674805 60.05672363 111.10189453 60.98307617 110.4375 61.9375 C109.77073242 62.90510254 109.10396484 63.87270508 108.41699219 64.86962891 C106.28477219 67.95950721 104.14348362 71.04292671 102 74.125 C101.30729004 75.12289551 100.61458008 76.12079102 99.90087891 77.14892578 C96.52017246 82.01851545 93.13375037 86.88406014 89.7421875 91.74609375 C86.00392482 97.10997752 82.29819306 102.49580951 78.62402344 107.90380859 C77.85682198 109.02700909 77.07417394 110.13989717 76.27276611 111.23895264 C74.95104495 113.09534582 74.95104495 113.09534582 74.0300293 115.17306519 C72.60192369 117.77337592 71.36830088 119.31001496 69 121.125 C63.52460948 122.39715858 58.10675395 122.32586797 52.5078125 122.29296875 C50.87643843 122.3059906 49.24507872 122.32093942 47.61373901 122.33772278 C44.1988029 122.36301269 40.7855282 122.35795241 37.37060547 122.33276367 C33.00857808 122.30400462 28.65256548 122.36128979 24.29138374 122.44294262 C20.92283304 122.49455753 17.55571167 122.49466648 14.18685532 122.48015785 C12.58012436 122.4803635 10.97329703 122.49755908 9.36694717 122.53255272 C-3.14211824 122.76808462 -3.14211824 122.76808462 -7.722229 118.71749878 C-9.76546018 115.93605101 -11.41035356 113.18306432 -13 110.125 C-13.8548613 108.85599049 -14.72479391 107.59663082 -15.625 106.359375 C-16.41801326 105.19883567 -17.2096502 104.03735484 -18 102.875 C-22.63193552 96.10062744 -27.30843392 89.35819975 -32 82.625 C-37.24159789 75.1015396 -42.46660826 67.56756832 -47.63867188 59.99609375 C-49.30340975 57.56403651 -50.94137799 55.19374201 -52.85546875 52.94921875 C-54 51.125 -54 51.125 -53.78808594 49.39672852 C-52.72661363 46.33693922 -51.1791402 43.74408886 -49.53515625 40.953125 C-49.18295517 40.35304626 -48.83075409 39.75296753 -48.46788025 39.13470459 C-47.71784494 37.85908288 -46.96538637 36.58488334 -46.21069336 35.31201172 C-44.74449869 32.83852916 -43.29046758 30.3580006 -41.83845425 27.87617111 C-41.09038863 26.61560819 -40.33007525 25.36217111 -39.55353642 24.11894608 C-37.49274471 20.800714 -35.71946654 17.57275775 -34.27146912 13.94134521 C-27.45146625 -1.6642219 -15.32663178 -0.22680911 0 0 Z " fill="#749DD0" transform="translate(225,109.875)"/>
<path d="M0 0 C29.04 0 58.08 0 88 0 C88.04125 11.385 88.0825 22.77 88.125 34.5 C88.14320801 38.08166016 88.16141602 41.66332031 88.18017578 45.35351562 C88.18920898 49.76074219 88.18920898 49.76074219 88.19088745 51.83044434 C88.19393865 53.26177213 88.20093097 54.69309509 88.21115112 56.12438965 C88.31876906 72.00334003 85.53908088 85.10819496 74.19921875 97.03125 C65.45290304 104.8609891 55.20242622 108.58682098 43.5625 108.4375 C42.72992676 108.42992676 41.89735352 108.42235352 41.03955078 108.41455078 C34.67486169 108.24401247 29.54031778 107.28352779 24 104 C23.22527344 103.55269531 22.45054687 103.10539062 21.65234375 102.64453125 C9.82352614 95.27867321 3.36615378 85.57263211 0 72 C-0.16573161 69.53639049 -0.23572974 67.06510976 -0.22705078 64.59594727 C-0.22729185 63.88142615 -0.22753292 63.16690504 -0.2277813 62.43073177 C-0.22630133 60.14249177 -0.21112995 57.85458714 -0.1953125 55.56640625 C-0.19236797 54.14384111 -0.19033006 52.7212738 -0.18920898 51.29870605 C-0.17876918 46.05327076 -0.15084664 40.807882 -0.125 35.5625 C-0.08375 23.826875 -0.0425 12.09125 0 0 Z " fill="#EBC764" transform="translate(213,231)"/>
<path d="M0 0 C32.34 0 64.68 0 98 0 C98.33 12.87 98.66 25.74 99 39 C101.84252188 47.52756563 103.84004619 53.17510109 109 60 C109.99 61.32 110.98 62.64 112 64 C63.49 64 14.98 64 -35 64 C-37 44 -37 44 -37 37 C-36.09121094 36.85304688 -36.09121094 36.85304688 -35.1640625 36.703125 C-23.20144595 34.56825805 -13.58192617 30.65782691 -6.25 20.5625 C-2.98988935 14.35727818 -2.98988935 14.35727818 0 0 Z " fill="#A26A54" transform="translate(115,264)"/>
<path d="M0 0 C32.34 0 64.68 0 98 0 C98.99 5.445 98.99 5.445 100 11 C103.95030064 21.81134911 109.86064494 29.12270933 120.2890625 34 C124.74978278 35.64545302 129.29691095 36.40093733 134 37 C134.09776087 47.38437692 134.1555538 57.66192051 133 68 C132.67 66.68 132.34 65.36 132 64 C83.82 64 35.64 64 -14 64 C-12.02 61.36 -10.04 58.72 -8 56 C-6.12211335 52.66140421 -6.12211335 52.66140421 -4.6875 49.375 C-4.19636719 48.31023437 -3.70523437 47.24546875 -3.19921875 46.1484375 C2.03042038 32.41850546 -0.30487042 11.28020554 0 0 Z " fill="#A26A54" transform="translate(301,264)"/>
<path d="M0 0 C2.98828125 0.55078125 2.98828125 0.55078125 5.0078125 2.5703125 C5.59949219 3.49199219 6.19117188 4.41367188 6.80078125 5.36328125 C16.75932774 20.08378925 28.06753493 30.54594399 42.7421875 40.36328125 C45.98828125 42.55078125 45.98828125 42.55078125 46.98828125 43.55078125 C47.36328125 46.86328125 47.36328125 46.86328125 46.98828125 50.55078125 C44.7890625 52.55078125 44.7890625 52.55078125 41.98828125 54.55078125 C41.14910156 55.15277344 40.30992187 55.75476563 39.4453125 56.375 C38.57261719 56.98988281 37.69992188 57.60476562 36.80078125 58.23828125 C24.41537264 67.27448967 14.66096523 77.79093046 6.67578125 90.86328125 C4.77956592 93.77843987 4.22161664 94.44601842 0.92578125 95.92578125 C-3.16701898 95.40329611 -4.27473386 93.58821711 -7.01171875 90.55078125 C-8.95564126 87.86124463 -10.796956 85.13934219 -12.6171875 82.3671875 C-14.50432068 79.55304153 -16.39028931 77.17221069 -18.79296875 74.76953125 C-19.52515625 74.03734375 -20.25734375 73.30515625 -21.01171875 72.55078125 C-21.01171875 71.89078125 -21.01171875 71.23078125 -21.01171875 70.55078125 C-21.8625 70.16792969 -21.8625 70.16792969 -22.73046875 69.77734375 C-25.28083838 68.40608337 -27.2911044 66.78369526 -29.51171875 64.92578125 C-34.35008785 60.98153699 -39.41179021 57.52092581 -44.640625 54.1171875 C-47.01171875 52.55078125 -47.01171875 52.55078125 -48.01171875 51.55078125 C-48.57553362 45.81866344 -48.57553362 45.81866344 -48.01171875 43.55078125 C-44.70842742 40.41425802 -40.79539057 38.00343987 -37.03515625 35.44165039 C-25.50343886 27.53524212 -16.66708283 19.14478898 -9.01953125 7.43359375 C-4.4030231 0.80522212 -4.4030231 0.80522212 0 0 Z " fill="#EDAD64" transform="translate(89.01171875,97.44921875)"/>
<path d="M0 0 C1.60279192 0.00015914 3.20558896 0.00585476 4.80834961 0.01586914 C5.65038437 0.01728409 6.49241913 0.01869904 7.35997009 0.02015686 C10.06024671 0.02577276 12.76044163 0.03832791 15.46069336 0.05102539 C17.28686404 0.05603834 19.11303602 0.06060161 20.93920898 0.06469727 C25.42556878 0.07574735 29.9118672 0.0930226 34.39819336 0.11352539 C46.20484938 26.4420482 46.20484938 26.4420482 50.64819336 37.11352539 C50.93509033 37.79342529 51.2219873 38.4733252 51.51757812 39.17382812 C52.67859703 41.99974595 53.39819336 44.02384393 53.39819336 47.11352539 C28.31819336 47.11352539 3.23819336 47.11352539 -22.60180664 47.11352539 C-21.7968894 43.0889392 -20.9052671 40.16574698 -19.30883789 36.46508789 C-18.84590332 35.38348389 -18.38296875 34.30187988 -17.90600586 33.1875 C-17.41374512 32.04933838 -16.92148438 30.91117676 -16.41430664 29.73852539 C-15.41180602 27.3991949 -14.41049796 25.05935298 -13.41040039 22.71899414 C-12.68506104 21.02202393 -12.68506104 21.02202393 -11.94506836 19.29077148 C-9.74586313 14.08894364 -7.67349192 8.84106359 -5.62524414 3.57836914 C-4.19434735 0.13220169 -4.19434735 0.13220169 0 0 Z " fill="#84B7DA" transform="translate(241.601806640625,111.886474609375)"/>
<path d="M0 0 C2.90625 0.40625 2.90625 0.40625 4.84375 2.34375 C5.8646875 3.8596875 5.8646875 3.8596875 6.90625 5.40625 C12.11420068 12.40688722 17.21157057 18.92137314 24.4609375 23.88671875 C25.09765381 24.3237915 25.73437012 24.76086426 26.39038086 25.21118164 C27.67662478 26.0804131 28.97426553 26.93304989 30.28344727 27.76733398 C34.77325047 30.77287464 34.77325047 30.77287464 35.46484375 34.06640625 C34.58378465 37.75699646 31.83397839 39.27435254 28.90625 41.40625 C19.31163738 48.68216457 12.00797776 56.46793659 5.25390625 66.4375 C3.90625 68.40625 3.90625 68.40625 2.90625 69.40625 C0.5546875 69.71875 0.5546875 69.71875 -2.09375 69.40625 C-3.8671875 67.71875 -3.8671875 67.71875 -5.46875 65.40625 C-8.78351175 60.82872187 -12.28199805 56.57776281 -16.09375 52.40625 C-16.63644531 51.80941406 -17.17914063 51.21257812 -17.73828125 50.59765625 C-21.74615051 46.38329256 -26.12785012 43.11849846 -30.95703125 39.88671875 C-33.09375 38.40625 -33.09375 38.40625 -35.09375 36.40625 C-34.93765346 33.29438988 -34.53738954 31.84697725 -32.30859375 29.6328125 C-31.55707031 29.10429688 -30.80554688 28.57578125 -30.03125 28.03125 C-25.48999934 24.70627725 -21.24818658 21.20239842 -17.09375 17.40625 C-16.49691406 16.86355469 -15.90007812 16.32085937 -15.28515625 15.76171875 C-11.03189064 11.71685368 -7.9764269 7.38698865 -4.96484375 2.34765625 C-3.09375 0.40625 -3.09375 0.40625 0 0 Z " fill="#EDAD64" transform="translate(400.09375,48.59375)"/>
<path d="M0 0 C15.18 0 30.36 0 46 0 C44.58377146 3.54057135 43.5968554 5.84598079 41.5234375 8.8359375 C41.02569824 9.55869873 40.52795898 10.28145996 40.01513672 11.02612305 C39.20326904 12.18881714 39.20326904 12.18881714 38.375 13.375 C37.52252686 14.60827026 37.52252686 14.60827026 36.65283203 15.86645508 C34.77390465 18.58139104 32.88747539 21.29100095 31 24 C29.6561034 25.93349186 28.31235568 27.86708721 26.96875 29.80078125 C24.92282316 32.74387729 22.87587654 35.68624253 20.82617188 38.62670898 C17.28837451 43.7022129 13.76189289 48.78450952 10.27587891 53.89575195 C9.35973967 55.23100333 8.43523611 56.56056398 7.50146484 57.88354492 C5.69470133 60.44739909 4.03500804 62.9278343 2.6640625 65.75390625 C1.36556651 68.25939348 0.29507284 69.37684368 -2 71 C-4.18115234 71.41992188 -4.18115234 71.41992188 -6.5859375 71.46875 C-7.44638672 71.48808594 -8.30683594 71.50742188 -9.19335938 71.52734375 C-13.14448575 71.4870555 -17.05850344 71.28097797 -21 71 C-18.81704802 61.71940528 -16.31567229 52.71895406 -13.21484375 43.69921875 C-12.02401238 40.07311808 -11.01687811 36.44475009 -10.0625 32.75 C-7.19997181 21.68545226 -3.61298102 10.83894305 0 0 Z " fill="#85B7DA" transform="translate(296,160)"/>
<path d="M0 0 C15.18 0 30.36 0 46 0 C50.49433184 12.35941257 50.49433184 12.35941257 51.78125 17.12109375 C52.06613281 18.15943359 52.35101563 19.19777344 52.64453125 20.26757812 C52.92683594 21.31365234 53.20914063 22.35972656 53.5 23.4375 C55.19300841 29.68771599 56.92509897 35.88898866 59.015625 42.01953125 C61.05625761 48.02767759 62.69104639 54.10167784 64.25 60.25 C64.6521875 61.81427734 64.6521875 61.81427734 65.0625 63.41015625 C65.71215081 65.93915405 66.3579382 68.46906699 67 71 C50.34068251 72.66257302 50.34068251 72.66257302 45.34375 69.11328125 C43.27791286 66.18521971 41.65453771 63.17845403 40 60 C38.40026655 57.53607488 36.69462053 55.14929008 35 52.75 C34.06053202 51.38155732 33.12312869 50.01169554 32.1875 48.640625 C28.48661033 43.24073355 24.741982 37.87145547 21 32.5 C19.6327057 30.53392844 18.26551673 28.56778362 16.8984375 26.6015625 C14.47234929 23.11279773 12.04008548 19.62851878 9.6015625 16.1484375 C8.60918123 14.72409332 7.6169801 13.2996236 6.625 11.875 C6.17898437 11.24271484 5.73296875 10.61042969 5.2734375 9.95898438 C2.97170535 6.64113946 1.5255926 3.81398149 0 0 Z " fill="#85B7DA" transform="translate(172,160)"/>
<path d="M0 0 C9.0530303 6.78977273 9.0530303 6.78977273 12.5 11.125 C13.24894531 12.0634375 13.99789062 13.001875 14.76953125 13.96875 C17.76766052 18.04326544 20.41077629 22.30846177 22.98046875 26.6640625 C24.8522161 29.23821434 24.8522161 29.23821434 27.98828125 29.9609375 C31.29629502 30.23416572 31.29629502 30.23416572 35 28 C35 41.53 35 55.06 35 69 C23.45 69 11.9 69 0 69 C0 46.23 0 23.46 0 0 Z " fill="#894C3D" transform="translate(60,162)"/>
<path d="M0 0 C5.00275883 2.85005655 8.4969557 7.03314636 10.6875 12.375 C11.48811057 18.89159766 11.29835365 24.95049747 8.0390625 30.7421875 C6.51163853 32.58745692 5.1098322 33.3348305 3 34.4375 C1.04846932 35.48821769 1.04846932 35.48821769 -0.3125 37.375 C-0.87161889 41.28002724 -0.93838353 44.83483942 -0.8515625 48.78125 C-1.42831013 53.27792645 -2.78525337 54.63388458 -6.3125 57.375 C-9.3125 58 -9.3125 58 -12.3125 57.375 C-15.85264863 54.6250167 -17.19271098 53.25125198 -17.80859375 48.74609375 C-17.76949187 46.12105429 -17.72782 43.49605187 -17.68359375 40.87109375 C-17.94714227 37.14492573 -17.94714227 37.14492573 -21.16796875 35.203125 C-22.20566406 34.59984375 -23.24335938 33.9965625 -24.3125 33.375 C-28.08282318 28.298216 -30.08110526 22.80369411 -29.66796875 16.47265625 C-28.3529232 8.71244238 -24.27688012 4.52562872 -18.125 0.0625 C-12.33839859 -3.01949423 -5.88936348 -2.64465756 0 0 Z " fill="#345167" transform="translate(266.3125,254.625)"/>
<path d="M0 0 C-0.33 0.66 -0.66 1.32 -1 2 C-41.59 1.67 -82.18 1.34 -124 1 C-124.33 1.66 -124.66 2.32 -125 3 C-125 2.34 -125 1.68 -125 1 C-140.18 1 -155.36 1 -171 1 C-171 0.67 -171 0.34 -171 0 C-114.04884634 -1.75148321 -56.95169705 -1.69924124 0 0 Z " fill="#7CAAD5" transform="translate(343,159)"/>
</svg>
