<?xml version="1.0" encoding="utf-8"?>
<!-- Generator: Adobe Illustrator 27.5.0, SVG Export Plug-In . SVG Version: 6.00 Build 0)  -->
<svg version="1.1" xmlns="http://www.w3.org/2000/svg" xmlns:xlink="http://www.w3.org/1999/xlink" x="0px" y="0px"
	 viewBox="0 0 500 500" style="enable-background:new 0 0 500 500;" xml:space="preserve">
<g id="BACKGROUND">
</g>
<g id="OBJECTS">
	<g>
		<g>
			<g>
				<g>
					<g>
						<rect x="175.709" y="458.613" style="fill:#1E0F60;" width="21.969" height="41.121"/>
						<rect x="170.639" y="452.98" style="fill:#2D2568;" width="32.109" height="27.602"/>
						<path style="fill:#4224A0;" d="M243.01,465.936H130.376c-11.83,0-21.419-9.59-21.419-21.419v-3.916
							c0-11.83,9.59-21.419,21.419-21.419H243.01c11.83,0,21.419,9.59,21.419,21.419v3.916
							C264.43,456.347,254.84,465.936,243.01,465.936z"/>
					</g>
					<path style="fill:#4224A0;" d="M115.447,418.618h-5.095c-15.393,0-27.871-12.478-27.871-27.871V285.947
						c0-15.393,12.478-27.871,27.871-27.871h5.095c15.393,0,27.871,12.478,27.871,27.871v104.801
						C143.318,406.14,130.84,418.618,115.447,418.618z"/>
				</g>
				<g>
					<g>
						<polygon style="fill:#FB9D84;" points="262.176,474.96 267.159,500.862 304.173,500.121 302.75,463.12 						"/>
						<polygon style="fill:#D68372;" points="302.038,469.78 303.462,500.862 340.476,500.121 339.052,463.12 						"/>
					</g>
					<path style="fill:#481907;" d="M206.873,248.86c-2.121-6.436-5.471-12.167-8.123-18.309
						c-3.209-7.432-3.499-14.919-4.178-23.009c-0.614-7.317-2.109-14.274-6.387-19.976c-4.188-5.582-10.027-9.222-16.105-11.41
						c-7.311-2.631-15.334-3.546-22.958-4.144c-7.377-0.579-14.533,0.127-21.194,4c-0.756,0.439-1.17,1.081-1.337,1.779
						c-8.068,2.309-3.238,8.945-6.522,17.845c-2.664,7.219-13.355,10.645-21.097,19.161c-4.797,5.277-5.031,16.094-7.55,22.83
						c-4.774,12.768-3.222,28.974,3.872,40.059c3.851,6.018,7.948,12.274,13.054,16.982c4.703,4.337,10.232,6.91,15.998,8.814
						c13.606,4.493,28.237,7.38,42.383,5.098c13.891-2.241,23.77-10.348,32.351-22.683
						C206.551,275.159,211.335,262.398,206.873,248.86z"/>
					<g>
						<g>
							<path style="fill:#085456;" d="M133.098,122.365l-40.215,37.061c-5.607,5.168-3.132,14.504,4.299,16.215l30.755,7.082
								l44.11-9.426l27.204-19.329c6.397-4.545,4.821-14.45-2.672-16.785l-54.234-16.899
								C139.113,119.278,135.588,120.071,133.098,122.365z"/>
							<path style="fill:#127077;" d="M181.441,183.21l-60.524,9.348l-3.822-24.744c-0.96-6.217,3.302-12.036,9.519-12.997
								l38.008-5.87c6.218-0.96,12.036,3.301,12.997,9.519L181.441,183.21z"/>
						</g>
						<path style="fill:#FCA72B;" d="M215.199,181.789c-1.427-0.262-2.82-0.445-4.169-0.877c1.561-0.362,3.15-0.984,4.758-1.912
							c2.991-1.726,0.358-6.111-2.685-4.594c-0.497,0.248-0.989,0.441-1.479,0.604c1.669-2.708,2.9-6.663,0.593-9.032
							c-1.172-1.203-3.168-0.866-4.018,0.518c-1.146,1.867-0.493,4.125-1.787,6.051c-0.503,0.748-1.201,1.487-1.981,2.141
							c-5.928-2.464-10.694-9.765-13.045-14.978c-3.602-7.987-3.432-15.518-3.643-24.012c-0.125-5.042-1.777-10.459-7.325-11.715
							c-4.074-0.923-9.097,1.226-11.591,4.573c1.103,0.442,1.936,0.597,3.581,1.145c0.855,0.194,0.958,0.231,1.032,0.258
							c3.173-1.814,6.012-2.522,7.857,2.128c1.158,2.919,0.044,6.922-0.04,9.987c-0.198,7.226,1.342,14.438,4.427,20.968
							c3.208,6.792,8.891,14.06,15.804,16.955c1.113,5.408,8.707,8.962,13.71,7.712
							C218.013,187.007,218.237,182.347,215.199,181.789z"/>
					</g>
					<g>
						<path style="fill:#127077;" d="M128.672,262.582c0,0-12.674-9.717-16.054-19.012c-3.38-9.295-28.729-72.667-28.729-72.667
							L38.473,207.66c0,0,63.161,101.818,69.076,110.268c5.915,8.45-10.562,64.639,6.337,92.946
							c16.899,28.306,31.686,22.391,64.64,35.066c29.801,11.462,56.378,13.249,61.814,32.86c1.079,3.891,4.862,6.395,8.872,5.919
							l58.593-6.952l55.982-8.276c4.92-0.727,8.106-5.566,6.841-10.376c-5.464-20.775-24.544-70.868-83.102-82.18
							c-74.357-14.364-83.651-0.704-84.496-24.786c-0.845-24.081,0.422-42.671,0.422-42.671l67.386-101.395l-36.756-44.572
							l-41.192,99.917c0,0-17.322-5.492-27.039-4.225C156.134,260.47,130.785,260.47,128.672,262.582z"/>
						<polygon style="fill:#D68372;" points="141.065,248.5 140.783,271.032 180.849,311.801 181.905,268.779 174.582,247.655 
													"/>
						<path style="fill:#FCA72B;" d="M140.643,260.259l36.192,42.671l1.408-46.262l17.181,1.972l-6.478,83.933l-6.76,0.845
							c0,0-48.444-36.333-54.922-81.398L140.643,260.259z"/>
						<g>
							
								<ellipse transform="matrix(0.7887 -0.6148 0.6148 0.7887 -60.778 194.679)" style="fill:#085456;" cx="252.804" cy="185.751" rx="10.847" ry="29.162"/>
							<g>
								<path style="fill:#FB9D84;" d="M289.384,132.7c-0.765,0.385-1.189,1.241-1.77,1.878c0.108-0.856,0.193-1.698,0.239-2.49
									c0.204-3.479-4.099-6.32-7.831-4.364c-1.141,0.598-2.248,1.346-3.277,2.197c0.34-1.373-0.069-2.915-1.581-3.87
									c-3.42-2.161-7.306-1.757-10.104,0.532c-1.977,1.617-3.472,3.467-4.984,5.394c-1.674,2.134-2.029,4.74-0.513,6.876
									c-4.763,0.538-11.953,1.895-12.555,5.209c-0.906,4.988,6.905,12.419,6.905,12.419l-18.656,21.045
									c2.318,4.968,8.863,17.381,19.869,26.233l28.879-36.376c0,0,9.647-10.773,7.395-16.837c1.852-0.68,3.245-2.117,3.716-3.978
									c0.88-3.471,1.493-3.759,1.704-8.195C297.003,134.525,291.961,131.402,289.384,132.7z"/>
								<path style="fill:#D68372;" d="M295.718,141.351c-1.14,3.248-1.878,7.986-5.47,9.367c-3.67,1.411-7.023-1.324-7.351-4.966
									c0.826-0.729,1.551-1.578,2.149-2.49c1.621-2.474,3.664-6.23,3.827-9.235c0.034-0.637-0.818-0.954-1.245-0.515
									c-2.101,2.16-2.631,5.57-4.173,8.141c-1.054,1.757-2.628,3.377-4.644,3.982c-2.674,0.802-6.211-0.529-6.478-3.706
									c-0.014-0.173-0.092-0.318-0.196-0.438c0.377-0.666,0.699-1.368,0.979-2.093c0.308-0.638,0.565-1.314,0.527-1.977
									c-0.012-0.217-0.093-0.387-0.218-0.515c0.692-0.857,1.279-2.135,1.632-2.714c0.921-1.507,1.815-3.036,2.634-4.601
									c0.358-0.683-0.647-1.279-1.038-0.607c-0.853,1.467-1.775,2.897-2.72,4.308c-0.514,0.768-1.035,1.533-1.589,2.273
									c-0.27,0.361-0.613,0.677-0.771,1.076c-1.618,0.106-3.408,0.613-4.891,0.824c-2.58,0.368-5.301,0.588-7.791,1.364
									c-0.509,0.159-0.415,0.915,0.126,0.93c2.431,0.064,4.931-0.416,7.342-0.737c1.731-0.23,3.799-0.855,5.624-0.877
									c-0.183,0.592-0.507,1.278-0.627,1.698c-0.031,0.109-0.026,0.211-0.006,0.307c-1.773,3.165-4.785,5.528-8.481,6.006
									c-2.617,0.338-5.901-0.739-7.853,1.393c-0.461,0.503-0.264,1.291,0.395,1.496c1.698,0.529,3.915,0.385,6.06-0.1
									c3.551,0.781,3.172,7.72,3.778,10.15c0.188,0.754,1.311,0.917,1.683,0.22c1.336-2.502-0.076-6.051-1.122-8.433
									c-0.47-1.071-1.101-2.012-1.921-2.636c1.024-0.364,1.973-0.784,2.755-1.227c1.631-0.925,3.019-2.136,4.152-3.554
									c0.58,3.543,5.192,5.233,8.591,4.267c0.735-0.209,1.422-0.53,2.068-0.921c0.093,3.65,3.207,6.747,7.11,6.556
									c6.44-0.314,7.402-6.605,8.408-11.671C297.14,140.873,295.997,140.557,295.718,141.351z"/>
							</g>
						</g>
						<g>
							<path style="fill:#085456;" d="M54.265,180.831c-12.434,10.237-19.426,22.285-15.619,26.91
								c3.808,4.625,16.974,0.076,29.408-10.161c12.434-10.237,19.427-22.285,15.619-26.91
								C79.865,166.044,66.699,170.594,54.265,180.831z"/>
							<g>
								<path style="fill:#FB9D84;" d="M37.03,129.453c0.662,0.543,0.89,1.47,1.317,2.219c0.081-0.859,0.182-1.699,0.31-2.482
									c0.56-3.44,5.379-5.274,8.595-2.551c0.983,0.833,1.9,1.804,2.719,2.859c-0.033-1.414,0.703-2.829,2.387-3.432
									c3.809-1.364,7.513-0.121,9.745,2.723c1.576,2.009,2.632,4.141,3.688,6.351c1.168,2.447,0.946,5.068-0.999,6.823
									c4.531,1.564,11.251,4.457,11.116,7.821c-0.204,5.066-9.447,10.614-9.447,10.614l13.617,24.607
									c-3.346,4.342-12.44,15.029-25.112,21.269l-20.25-41.799c0,0-7.065-12.618-3.545-18.045
									c-1.66-1.067-2.705-2.773-2.759-4.692c-0.101-3.58-0.637-3.995,0.124-8.37C29.196,129.573,34.798,127.624,37.03,129.453z"/>
								<path style="fill:#D68372;" d="M67.347,151.469c-1.3-2.704-5.576-2.269-8.013-3.327c-3.201-1.389-5.338-4.234-6.313-7.478
									c0.032-0.08,0.049-0.17,0.043-0.273c-0.029-0.508-0.218-1.231-0.26-1.848c1.892,0.411,4.034,1.646,5.775,2.279
									c2.136,0.777,4.291,1.701,6.522,2.139c0.507,0.1,0.852-0.584,0.365-0.865c-2.156-1.24-4.628-2.019-6.946-2.902
									c-1.531-0.583-3.287-1.511-4.978-1.999c-0.105-1.207-1.151-2.721-1.544-3.732c-0.62-1.594-1.211-3.204-1.729-4.834
									c-0.233-0.734-1.362-0.432-1.159,0.32c0.463,1.721,1.007,3.424,1.583,5.11c0.236,0.689,0.516,2.008,0.995,2.971
									c-0.151,0.108-0.272,0.265-0.318,0.43c-0.188,0.661-0.083,1.394,0.079,2.096c0.113,0.755,0.268,1.498,0.486,2.22
									c-0.117,0.089-0.218,0.205-0.27,0.369c-0.918,2.927-4.522,3.617-6.993,2.321c-1.824-0.957-3.062-2.815-3.724-4.714
									c-1.018-2.919-0.743-6.458-2.368-9.098c-0.3-0.488-1.224-0.477-1.332,0.174c-0.471,2.835,0.579,6.349,1.431,9.063
									c0.415,1.324,1.02,2.601,1.834,3.72c-1.136,3.495-5.053,5.495-8.355,3.21c-3.145-2.176-2.772-6.885-3.195-10.272
									c-0.101-0.811-1.278-0.864-1.305,0c-0.156,5.074-0.602,11.147,5.265,13.123c3.841,1.294,7.858-1.016,8.773-4.708
									c0.356,0.337,0.732,0.655,1.146,0.932c3.082,2.062,8.574,1.752,9.991-1.846c0.803,1.636,1.903,3.124,3.297,4.38
									c0.728,0.656,1.545,1.236,2.399,1.746c-1.095,0.524-2.019,1.531-2.774,2.598c-1.337,1.89-3.506,5.121-2.631,7.519
									c0.263,0.721,1.259,0.942,1.683,0.22c0.848-1.444,0.948-3.257,1.746-4.783c0.835-1.599,2.25-4.465,4.404-4.33
									c1.724,0.767,3.941,1.642,5.618,1.419C67.264,152.724,67.665,152.132,67.347,151.469z"/>
							</g>
						</g>
					</g>
					<g>
						<path style="fill:#FB9D84;" d="M163.118,181.466h-5.237c-11.97,0-22.221,7.345-26.503,17.772
							c-7.161-2.985-15.713,1.819-17.405,9.86c-0.828,3.934-0.526,8.225,1.777,11.632c2.233,3.304,5.934,5.515,9.746,5.501
							c1.234,0.182,2.496,0.171,3.74-0.063v1.573c0,15.82,12.825,28.645,28.645,28.645h5.237c15.82,0,28.645-12.825,28.645-28.645
							v-17.63C191.763,194.291,178.938,181.466,163.118,181.466z"/>
						<path style="fill:#481907;" d="M203.712,188.218c-6.031,0.107-11.784-1.335-16.928-4.547
							c-5.229-3.265-8.167-8.075-11.935-12.771c-5.764-7.184-14.622-10.59-23.752-9.343c-5.583,0.762-10.625,3.342-14.625,7.107
							c-2.428,1.601-4.3,3.964-5.33,6.782c-0.156,0.273-0.318,0.544-0.466,0.822c-0.928,1.748-3.805,8.717-3.33,12.693
							c-4.066,3.723-4.178,12.381,0.194,15.862c0.799,0.636,1.745,1.062,2.741,1.415c2.935,2.461,6.697,3.705,6.69,8.334
							c-0.007,3.964-2.683,7.043-4.012,10.577c-0.104,0.278-0.144,0.547-0.132,0.803c-0.412,1.987,2.561,3.448,4.284,2.044
							c4.838-3.944,7.364-9.929,6.175-16.158c-0.551-2.888-1.832-5.53-3.747-7.76c-1.095-1.275-2.443-2.237-3.609-3.432
							c-1.958-2.006-2.607-3.624-2.437-5.743c0.611-0.193,1.189-0.605,1.633-1.322c7.296-11.776,19.186-0.614,27.594,5.441
							c1.085,1.113,2.242,2.156,3.486,3.11c1.875,1.438,4.096,2.646,6.503,3.573c4.776,2.328,10.541,2.63,15.733,1.659
							c0.286-0.053,0.553-0.135,0.83-0.201c0.273-0.062,0.545-0.126,0.814-0.197c0.106-0.03,0.214-0.058,0.318-0.09
							c2.167-0.611,4.203-1.543,5.992-2.85c5.134-2.52,8.587-6.824,9.769-12.593C206.485,189.86,205.454,188.187,203.712,188.218z"
							/>
						<g>
							<g>
								<path style="fill:#FFFFFF;" d="M151.943,233.115c0.387,1.049,0.793,2.097,1.245,3.117c0.21,0.288,0.425,0.567,0.644,0.835
									c0.05,0.033,0.098,0.073,0.138,0.13c0.182,0.259,0.398,0.478,0.597,0.717c1.207,1.307,2.541,2.364,4.006,3.225
									c2.426,1.293,5.208,1.982,7.926,2.32c0.07-0.734,0.264-1.463,0.592-2.097C161.26,241.055,155.402,237.675,151.943,233.115z"
									/>
								<path style="fill:#481907;" d="M174.099,237.826c-8.055,2.481-15.489-0.197-21.173-5.987
									c0.662-0.367,1.378-0.664,2.137-0.887c1.183-0.347,0.626-2.299-0.573-2.087c-3.921,0.693-6.885,4.318-7.043,8.23
									c-0.036,0.907,1.223,1.097,1.407,0.192c0.262-1.292,0.802-2.397,1.54-3.327c1.048,5.055,3.215,9.549,7.925,12.32
									c4.199,2.47,11.607,3.627,15.373-0.157c0.557-0.559,0.264-1.576-0.623-1.482c-1.457,0.156-2.81,0.66-4.223,0.988
									c-0.141-0.783-0.423-1.493-0.363-2.321c0.048-0.666,0.273-1.327,0.509-1.963c2.032-0.136,4.031-0.655,5.886-1.686
									C176.003,239.037,175.333,237.447,174.099,237.826z M166.5,243.46c-2.719-0.338-5.5-1.027-7.926-2.32
									c-1.464-0.862-2.799-1.919-4.006-3.225c-0.199-0.239-0.415-0.458-0.597-0.717c-0.04-0.057-0.088-0.097-0.138-0.13
									c-0.219-0.269-0.434-0.547-0.644-0.835c-0.453-1.02-0.859-2.068-1.245-3.117c3.459,4.56,9.318,7.94,15.15,8.247
									C166.764,241.997,166.57,242.726,166.5,243.46z"/>
								<path style="fill:#481907;" d="M159.723,221.79c1.259-1.102,2.897-1.789,4.592-1.497c1.392,0.24,2.178,1.328,3.438,1.715
									c0.399,0.122,0.925-0.147,0.826-0.634c-0.286-1.41-1.815-2.237-3.246-2.594c0.297-0.213,0.522-0.543,0.601-0.907
									c0.518-2.388,0.137-5.185-0.313-7.559c-0.257-1.358-0.763-3.425-2.648-2.978c-1.826,0.432-1.787,2.718-1.784,4.17
									c0.004,2.344,0.069,5.111,1.259,7.194c-1.399,0.292-2.628,1.065-3.609,2.215
									C158.379,221.452,159.184,222.262,159.723,221.79z"/>
								<path style="fill:#280C03;" d="M133.108,216.747c-0.996-5.044-3.148-10.283-8.312-12.258
									c-3.972-1.519-9.289-0.538-11.445,3.424c-0.361,0.664,0.45,1.204,0.994,0.767c3.53-2.839,7.525-4.339,11.725-1.495
									c0.108,0.073,0.199,0.163,0.303,0.24c-1.685,1.704-2.26,3.986-2.444,6.384c-0.162,2.109-0.125,5.141,2.075,6.201
									c0.695,0.335,1.753-0.42,1.186-1.187c-1.995-2.7-1.863-7.71,0.344-10.401c2.309,2.304,3.5,5.573,4.285,8.68
									C132.032,217.943,133.273,217.583,133.108,216.747z"/>
								<path style="fill:#280C03;" d="M155.082,204.586c1.014-2.002,4.638-3.889,6.826-3.869c2.346,0.022,3.734,2.259,6.09,1.916
									c0.917-0.134,1.897-0.935,1.719-1.983c-0.717-4.216-6.561-5.43-10.123-4.577c-3.287,0.787-9.604,4.145-7.5,8.338
									C152.694,205.607,154.397,205.94,155.082,204.586z"/>
								<path style="fill:#481907;" d="M181.888,216.051c-0.011,0.002-0.021,0.006-0.032,0.008c0.35-1.212-0.03-2.924-0.149-4.006
									c-0.128-1.168-0.85-7.626-3.593-5.302c-0.146,0.124-0.254,0.277-0.345,0.444c-0.224,0.118-0.413,0.307-0.478,0.569
									c-0.438,1.753-0.276,3.345,0.163,5.087c0.273,1.084,0.533,2.742,1.273,3.745c0.004,0.013,0.006,0.026,0.01,0.038
									c0.07,0.249,0.222,0.418,0.403,0.542c-0.791,0.536-1.475,1.232-2.028,2.067c-0.53,0.8,0.581,1.671,1.193,0.911
									c1.013-1.258,2.464-2.072,4.062-2.327c1.292-0.206,2.635,0.319,3.863,0.068c0.226-0.046,0.445-0.306,0.312-0.547
									C185.711,215.853,183.389,215.769,181.888,216.051z"/>
								<path style="fill:#280C03;" d="M180.23,195.263c-2.628,0.383-6.655,2.845-6.112,5.956c0.129,0.738,0.784,1.299,1.562,1.023
									c1.915-0.678,2.975-2.372,5.19-2.316c2.021,0.05,3.395,1.677,5.477,1.095c0.541-0.151,1.049-0.736,1.121-1.293
									C187.948,196.023,183.09,194.846,180.23,195.263z"/>
								<path style="fill:#481907;" d="M177.517,227.076c-0.395,0.282-0.387,0.611-0.498,1.049c-0.13,0.516-0.364,0.971-0.694,1.388
									c-0.679,0.859-1.599,1.339-2.693,1.368c-0.687,0.019-0.691,1.181-0.001,1.217c1.416,0.074,2.752-0.451,3.734-1.482
									c0.697-0.732,1.875-2.712,0.802-3.544C177.975,226.923,177.71,226.939,177.517,227.076z"/>
							</g>
						</g>
					</g>
				</g>
			</g>
			<g>
				<g>
					<rect x="293.529" y="380.87" style="fill:#75523B;" width="27.345" height="119.851"/>
					<rect x="410.314" y="380.87" style="fill:#75523B;" width="27.345" height="118.747"/>
					<g>
						<polygon style="fill:#967053;" points="265.142,382.009 456.931,382.009 462.725,367.197 259.348,367.197 						"/>
						<rect x="259.348" y="352.386" style="fill:#F7D1B7;" width="203.377" height="14.812"/>
					</g>
				</g>
				<g>
					<g>
						<g>
							<g>
								<path style="fill:#FCC070;" d="M314.143,231.683c0,0-0.189,0.232-0.533,0.661c-3.769,4.693-26.176,32.954-23.619,38.502
									c0,0-18.912-4.52-25.919-13.616c0,0,29.347-30.276,33.228-41.739c0,0,22.675-24.869,22.919-33.932
									c0.244-9.063,31.273,8.712,26.929,13.017C341.482,200.189,314.143,231.683,314.143,231.683z"/>
								<path style="fill:#127077;" d="M288.162,231.36l19.593,9.659c0,0,9.353-13.38,14.392-19.47
									c0.481-0.581,7.788-7.114,7.788-7.114l-21.293-12.185C308.642,202.25,289.611,223.109,288.162,231.36z"/>
							</g>
							<g>
								<g>
									<path style="fill:#FB9D84;" d="M292.477,207.036c1.617-3.758,5.089-5.643,8.732-5.334c2.573,0.218,4.878,0.906,7.242,1.649
										c3.567,1.121,5.606,4.372,3.546,8.575c-1.953,3.986-6.384,5.652-9.809,4.196c-1.7-0.723-3.353-1.413-4.892-2.387
										c-0.564-0.357-1.15-0.676-1.724-1.016c-0.48-0.285-1.087-0.6-1.448-1.028c-0.21-0.25,0.677,0.315,0.921,0.374
										C293.005,211.573,291.445,209.437,292.477,207.036L292.477,207.036z"/>
								</g>
								<g>
									<path style="fill:#FB9D84;" d="M289.382,211.21c5.759-0.684,12.637,1.349,15.206,6.143
										c2.364,4.411-3.172,11.662-8.412,10.341c-4.323-1.089-8.231-5.012-10.831-8.365
										C283.187,216.543,285.151,211.712,289.382,211.21L289.382,211.21z"/>
								</g>
								<g>
									<path style="fill:#FB9D84;" d="M284.419,220.714c4.144,0.827,8.386,1.919,11.72,4.228c2.811,1.947,3.743,5.577,0.915,9.079
										c-2.685,3.326-6.908,3.807-9.486,1.538c-2.719-2.392-5.1-5.112-7.945-7.374
										C276.574,225.761,280.685,219.968,284.419,220.714L284.419,220.714z"/>
								</g>
							</g>
						</g>
						<path style="fill:#FB9D84;" d="M357.191,230.188l-30.92-7.714c0,0,2.266-10.664-1.343-14.307
							c-3.608-3.642-17.144,4.955-17.144,4.955l-7.472,4.195c0,0,6.337,3.866,10.458,3.272l4.034-1.19c0,0-3.655,6.632,0.555,10.881
							l-12.858,16.144l58.012,18.709C360.514,265.134,360,232.619,357.191,230.188z"/>
					</g>
					<g>
						<rect x="283.275" y="345.621" style="fill:#995F9E;" width="59.247" height="6.836"/>
						<g>
							<path style="fill:#B087B2;" d="M310.952,352.457h-34.181v-1.285c0-6.841,5.546-12.387,12.387-12.387h9.407
								c6.841,0,12.387,5.546,12.387,12.387V352.457z"/>
							<path style="fill:#F2D0F4;" d="M297.28,338.784v12.533h13.672C310.952,351.317,310.382,337.075,297.28,338.784z"/>
						</g>
					</g>
					<g>
						<path style="fill:#F2D0F4;" d="M389.187,348.348l-18.818-6.59l34.479-92.72l0,0c10.334,3.619,15.685,15.016,11.869,25.279
							L389.187,348.348z"/>
						<path style="fill:#B087B2;" d="M322.575,331.838l-1.769-0.62l54.418-155.385l1.769,0.62
							c9.416,3.298,14.376,13.604,11.078,23.02l-42.476,121.287C342.297,330.175,331.991,335.135,322.575,331.838z"/>
						<path style="fill:#E4C1E5;" d="M343.041,325.475l3.033,1.062c16.142,5.653,33.81-2.85,39.463-18.991l24.72-70.585
							c5.653-16.142-2.85-33.81-18.992-39.463l-3.033-1.062L343.041,325.475z"/>
						<path style="fill:#995F9E;" d="M417.151,352.243h-68.932v-1.285c0-6.841,5.546-12.387,12.387-12.387h44.158
							c6.841,0,12.387,5.546,12.387,12.387V352.243z"/>
					</g>
					<g>
						<path style="fill:#5D7755;" d="M452.697,304.987c-3.06,0.491-6.082,0.884-8.888,1.613c2.417-5.192,5.287-10.216,8.365-15.418
							c1.426-2.41-0.981-6.094-3.864-5.026c-7.655,2.835-13.177,8.707-16.892,15.706c0.933-12.146,2.333-24.184,4.981-36.297
							c0.931-4.258-5.199-5.968-6.534-1.801c-2.946,9.199-8.339,16.736-9.985,26.475c-0.511,3.023-0.837,6.044-1.046,9.067
							c-4.074-7.761-10.098-14.325-18.625-17.011c-3.219-1.014-4.831,2.976-3.023,5.193c4.563,5.593,8.856,12.001,12.108,18.779
							c-4.902-0.344-9.913,1.007-14.476,3.687c-3.032,1.781-1.646,6.363,1.753,6.473c3.75,0.121,7.553,0.06,11.295,0.35
							c2.698,0.208,4.421,1.123,6.118,2.453c0.387,1.341,1.38,2.001,2.473,2.115c0.138,0.122,0.268,0.238,0.411,0.363
							c0.951,0.833,2.341,1.426,3.62,0.957c0.262-0.096,0.525-0.193,0.787-0.289c0.413-0.151,0.776-0.373,1.087-0.642
							c0.006,0.345,0.004,0.691,0.012,1.035c0.093,3.882,4.523,4.72,6.647,2.601c0.612,0.235,1.262,0.355,1.894,0.331
							c1.336,2.8,6.182,3.344,6.836-0.394c0.072-0.411,0.157-0.812,0.236-1.217c0.542-0.743,1.001-1.564,1.648-2.446
							c1.229-1.679,2.759-3.127,4.416-4.382c3.409-2.583,7.267-4.676,10.912-6.899C457.964,308.53,455.871,304.479,452.697,304.987z
							"/>
						<g>
							<path style="fill:#967053;" d="M434.319,352.955h-13.521c-8.694,0-15.742-7.048-15.742-15.742v-13.847
								c0-2.851,2.311-5.161,5.161-5.161h34.682c2.851,0,5.161,2.311,5.161,5.161v13.847
								C450.061,345.907,443.013,352.955,434.319,352.955z"/>
							<path style="fill:#C18963;" d="M429.782,340.365c4.561,1.109,9.238,1.702,13.849,0.536c1.911-0.483,4.338-1.176,6.355-2.222
								c0.045-0.483,0.074-0.97,0.074-1.465v-5.043c-3.604,0.948-7.333,1.543-11.059,1.26c-4.815-0.365-9.475-1.674-14.103-2.974
								c-4.066-1.142-8.337-2.535-12.599-2.538c-2.629-0.001-5.057,0.729-7.243,2.022v7.272c0,0.266,0.027,0.526,0.04,0.789
								C413.263,335.191,421.696,338.399,429.782,340.365z"/>
						</g>
					</g>
				</g>
			</g>
		</g>
		<g>
			<g>
				
					<text transform="matrix(1 0 0 1 82.3751 84.2551)" style="fill:#D6D8D8; font-family:'AlegreyaSans-ExtraBold'; font-size:47.3465px;">Congrats Students</text>
			</g>
			<g>
				
					<text transform="matrix(1 0 0 1 80.3751 82.2551)" style="fill:#127077; font-family:'AlegreyaSans-ExtraBold'; font-size:47.3465px;">Congrats Students</text>
			</g>
		</g>
		<path style="fill:#D68372;" d="M315.602,220.828c2.637-0.53,5.369-1.59,6.909-3.168c0.482-0.494,0.281-1.281-0.364-1.504
			c-2.731-0.946-5.108,1.564-7.57,2.511c-3.478,1.338-7.252,0.691-10.317-1.249c-0.028-0.094-0.072-0.186-0.151-0.267
			c-0.305-0.313-0.916-0.762-1.359-1.196c1.616-0.848,3.733-1.283,5.364-1.903c2.274-0.865,4.701-1.632,6.809-2.844
			c0.469-0.27,0.191-0.98-0.332-0.878c-2.56,0.502-5.058,1.602-7.502,2.506c-1.404,0.519-3.22,0.925-4.694,1.601
			c-0.328-0.275-0.781-0.39-1.19-0.579c-0.839-0.387-1.662-0.813-2.479-1.244c-1.502-0.791-2.992-1.611-4.441-2.495
			c-0.664-0.405-1.264,0.597-0.625,1.028c1.466,0.987,2.979,1.906,4.506,2.794c0.586,0.341,1.71,1.186,2.727,1.611
			c-0.049,0.171-0.039,0.36,0.053,0.556c0.282,0.601,0.83,1.074,1.404,1.489c0.591,0.504,1.208,0.969,1.857,1.375
			c-0.034,0.155-0.034,0.319,0.036,0.478c1.277,2.921-1.201,5.774-3.935,6.341c-2.061,0.427-4.217-0.249-5.979-1.294
			c-2.579-1.528-4.667-4.276-7.543-5.177c-0.584-0.183-1.183,0.502-0.849,1.045c1.572,2.566,5.156,4.897,7.758,6.303
			c0.959,0.518,2.001,0.92,3.075,1.168c1.444,3.359-0.205,7.36-4.104,7.865c-3.817,0.493-6.719-3.323-9.267-5.638
			c-0.623-0.566-1.478,0.256-0.942,0.903c3.295,3.977,7.133,9.054,12.947,6.267c3.524-1.689,4.79-5.895,3.136-9.149
			c0.754,0.037,1.511-0.008,2.257-0.174c3.45-0.767,6.702-4.447,5.527-7.84c1.671,0.708,3.469,1.113,5.343,1.151
			c0.49,0.01,1.022-0.011,1.575-0.056c-0.513,0.981-0.656,2.187-0.552,3.445c0.214,2.593,0.659,6.386,3.025,7.952
			c0.659,0.436,1.569-0.242,1.376-0.994C316.466,229.137,312.82,223.195,315.602,220.828z"/>
		<g>
			<g>
				<g>
					<g>
						<path style="fill:#FFA9DA;" d="M66.226,284.133c-1.432,1.77-2.835,3.554-4.323,5.299c-1.365,1.601-3.306,3.08-2.611,5.048
							c0.29,0.821,1.708,1.505,2.873,1.18c2.704-0.755,3.181-2.518,4.249-4.321c1.123-1.895,2.338-3.762,3.52-5.639
							C71.059,283.917,67.651,282.372,66.226,284.133L66.226,284.133z"/>
					</g>
					<g>
						<path style="fill:#FFA9DA;" d="M451.926,31.783c0.502,0.693,1.003,1.385,1.505,2.078c0.536,0.74,1.033,1.588,1.723,2.191
							c1.664,1.455,4.328-0.375,3.146-2.428c-0.464-0.805-1.165-1.461-1.793-2.137c-0.584-0.629-1.169-1.258-1.753-1.886
							C453.391,28.134,450.71,30.104,451.926,31.783L451.926,31.783z"/>
					</g>
					<g>
						<path style="fill:#FFA9DA;" d="M147.118,25.958c-0.347,1.246-0.641,2.523-0.607,3.822c0.032,1.229-0.003,2.812,0.757,3.821
							c0.803,1.066,2.689,1.13,3.058-0.4c0.283-1.173-0.127-2.246-0.237-3.422c-0.107-1.156-0.279-2.303-0.33-3.465
							C149.693,24.829,147.537,24.456,147.118,25.958L147.118,25.958z"/>
					</g>
					<g>
						<path style="fill:#FFA9DA;" d="M341.854,119.833c-0.291,1.776-0.596,3.511-1.205,5.206c-0.607,1.69-1.425,3.331-1.755,5.102
							c-0.613,3.29,3.951,4.603,5.038,1.389c1.152-3.405,0.735-7.745,0.804-11.307C344.767,118.614,342.127,118.169,341.854,119.833
							L341.854,119.833z"/>
					</g>
					<g>
						<path style="fill:#FFA9DA;" d="M439.619,198.604c2.819,0.473,6.308,0.999,9.062-0.012c2.733-1.004,2.557-5.507-0.728-5.381
							c-2.604,0.1-5.083,0.869-7.721,0.868C437.721,194.079,436.987,198.163,439.619,198.604L439.619,198.604z"/>
					</g>
					<g>
						<path style="fill:#FFA9DA;" d="M377.456,404.725c-0.616,2.479-1.251,4.95-1.623,7.481c-0.585,3.982,5.161,4.789,5.467,0.74
							c0.194-2.563,0.116-5.126,0.059-7.693C381.311,403.061,378.011,402.495,377.456,404.725L377.456,404.725z"/>
					</g>
					<g>
						<path style="fill:#FFA9DA;" d="M83.341,448.577c1.962-0.907,3.979-1.654,5.964-2.503c1.741-0.744,4.089-1.275,4.915-3.111
							c0.572-1.27,0.129-2.605-1.249-3.07c-2.135-0.719-4.403,0.881-6.187,1.979c-1.931,1.188-3.735,2.621-5.515,4.02
							C79.636,447.175,81.717,449.328,83.341,448.577L83.341,448.577z"/>
					</g>
				</g>
				<g>
					<g>
						<path style="fill:#FCA72B;" d="M302.852,279.111c1.365,0.461,2.625,1.081,3.838,1.858c1.07,0.685,2.248,1.957,3.604,1.456
							c0.618-0.228,0.916-0.658,0.988-1.297c0.182-1.615-1.842-2.594-3.081-3.185c-1.47-0.7-3.011-1.205-4.607-1.524
							C301.835,276.066,301.142,278.533,302.852,279.111L302.852,279.111z"/>
					</g>
					<g>
						<path style="fill:#FCA72B;" d="M249.036,96.553c-2.241,1.513-4.283,3.268-6.069,5.3c-1.631,1.855,1.067,4.587,2.727,2.727
							c1.582-1.772,3.339-3.332,5.318-4.646C253.105,98.545,251.129,95.14,249.036,96.553L249.036,96.553z"/>
					</g>
					<g>
						<path style="fill:#FCA72B;" d="M268.102,19.995c2.626,1.39,5.591,3.094,8.537,3.655c2.227,0.424,3.94-2.734,1.644-3.899
							c-2.749-1.395-6.05-1.897-9.059-2.417C267.705,17.072,266.538,19.167,268.102,19.995L268.102,19.995z"/>
					</g>
					<g>
						<path style="fill:#FCA72B;" d="M38.247,18.429c-2.868,0.879-5.165,3.867-6.896,6.197c-1.543,2.078,1.899,4.734,3.598,2.776
							c0.9-1.038,1.77-2.091,2.729-3.078c0.964-0.991,2.018-1.984,2.609-3.243C40.915,19.742,39.867,17.933,38.247,18.429
							L38.247,18.429z"/>
					</g>
					<g>
						<path style="fill:#FCA72B;" d="M456.775,108.912c2.734-1.47,5.693-2.625,8.756-3.159c2.735-0.476,1.611-4.836-1.162-4.215
							c-3.646,0.818-6.78,2.336-9.481,4.928C453.584,107.717,455.242,109.736,456.775,108.912L456.775,108.912z"/>
					</g>
					<g>
						<path style="fill:#FCA72B;" d="M484.95,331.116c-2.087,2.512-4.519,5.583-4.931,8.891c-0.157,1.262,1.108,2.413,2.25,2.549
							c1.34,0.159,2.397-0.612,2.848-1.859c0.456-1.259,0.477-2.629,0.77-3.934c0.299-1.332,0.925-2.512,1.605-3.687
							C488.381,331.538,486.157,329.663,484.95,331.116L484.95,331.116z"/>
					</g>
					<g>
						<path style="fill:#FCA72B;" d="M31.804,392.992c0.052,1.754,0.103,3.507,0.155,5.261c0.049,1.668-0.223,3.416,0.739,4.854
							c1.019,1.522,2.951,1.084,3.608-0.471c0.653-1.548-0.004-3.33-0.259-4.936c-0.274-1.723-0.548-3.447-0.822-5.17
							C34.916,390.579,31.747,391.057,31.804,392.992L31.804,392.992z"/>
					</g>
					<g>
						<path style="fill:#FCA72B;" d="M34.082,225.601c1.023,1.921,1.604,3.943,2.23,6.009c0.362,1.197,1.525,2,2.776,1.812
							c1.107-0.166,2.363-1.223,2.193-2.484c-0.41-3.049-1.834-5.673-4.145-7.692C35.49,221.807,33.014,223.596,34.082,225.601
							L34.082,225.601z"/>
					</g>
					<g>
						<path style="fill:#FCA72B;" d="M93.957,110.579c-0.147,1.71-0.301,3.412-0.357,5.127c-0.1,3.095,4.911,3.1,4.81,0
							c-0.056-1.715-0.21-3.418-0.357-5.127C97.827,107.947,94.183,107.942,93.957,110.579L93.957,110.579z"/>
					</g>
				</g>
			</g>
			<g>
				<path style="fill:#A7F2F2;" d="M405.362,30.849c1.412-3.313,2.426-7.023,2.252-10.641c-0.087-1.801-2.77-1.775-3.077-0.081
					c-1.01,5.579-3.73,20.082-12.432,16.276c-1.224-0.535-2.448-1.445-3.555-2.587c3.919-3.39,6.292-8.599,4.429-13.756
					c-0.836-2.315-2.826-4.959-5.509-5.047c-2.467-0.081-4.303,2.05-5.303,4.081c-2.186,4.438-0.964,9.861,1.528,13.96
					c-1.132,0.615-2.312,1.014-3.444,1.073c-2.116,0.11-3.944-1.471-5.465-2.758c-1.685-1.425-3.165-3.073-4.414-4.892
					c-0.042-0.061-0.085-0.127-0.127-0.189c2.64-0.743,4.723-2.481,4.844-5.83c0.201-5.562-6.443-6.729-9.277-2.497
					c-1.186,1.772-1.304,3.711-0.826,5.628c-0.858-0.112-1.709-0.288-2.526-0.487c-4.371-1.068-8.528-3.475-10.091-7.906
					c-0.448-1.269-2.27-0.533-1.925,0.721c1.536,5.585,6.802,9.058,12.2,10.35c1.107,0.265,2.356,0.434,3.623,0.467
					c1.318,2.373,3.236,4.536,4.809,6.078c2.102,2.063,4.844,4.412,7.874,4.835c2.361,0.329,4.747-0.635,6.794-1.847
					c3.374,3.693,8.592,6.203,13.299,3.468C402.103,37.491,404.016,34.006,405.362,30.849z M371.21,18.965
					c2.2,1.622-0.974,4.184-2.486,4.531c-0.004,0.001-0.007,0.001-0.011,0.002c-0.26-0.702-0.415-1.428-0.371-2.162
					C368.414,20.113,369.78,17.911,371.21,18.965z M385.999,19.381c1.574-1.765,3.084,0.325,3.655,1.925
					c0.64,1.793,0.519,3.795-0.177,5.553c-0.564,1.424-1.679,2.942-3.06,4.221C384.069,27.316,383.167,22.556,385.999,19.381z"/>
				<path style="fill:#60DFE2;" d="M425.163,158.802c-5.259,2.119-18.979,7.549-20.398-1.842c-0.2-1.321-0.083-2.841,0.294-4.387
					c4.957,1.509,10.629,0.74,14-3.585c1.513-1.941,2.69-5.035,1.333-7.352c-1.247-2.13-4.028-2.548-6.279-2.311
					c-4.92,0.516-8.857,4.441-10.997,8.735c-1.124-0.63-2.09-1.416-2.743-2.342c-1.221-1.732-0.858-4.121-0.58-6.094
					c0.308-2.185,0.913-4.316,1.786-6.342c0.029-0.068,0.062-0.139,0.092-0.209c2.036,1.838,4.617,2.673,7.515,0.991
					c4.813-2.795,2.259-9.039-2.832-9.18c-2.132-0.059-3.835,0.875-5.202,2.302c-0.363-0.786-0.667-1.599-0.934-2.397
					c-1.426-4.267-1.605-9.068,1.31-12.752c0.835-1.055-0.759-2.204-1.636-1.244c-3.907,4.277-4.038,10.583-2.254,15.84
					c0.366,1.078,0.889,2.225,1.536,3.315c-1.305,2.38-2.112,5.156-2.579,7.309c-0.624,2.878-1.151,6.451,0.107,9.239
					c0.98,2.173,3.068,3.677,5.184,4.764c-1.326,4.823-0.668,10.576,4.155,13.1c3.135,1.641,7.103,1.402,10.492,0.858
					c3.556-0.571,7.235-1.691,10.203-3.767C428.212,160.415,426.76,158.158,425.163,158.802z M404.847,128.821
					c1.073-0.59,3.664-0.608,3.535,1.163c-0.199,2.726-4.06,1.407-5.159,0.312c-0.003-0.003-0.005-0.006-0.008-0.008
					C403.671,129.694,404.203,129.176,404.847,128.821z M415.913,142.719c2.332,0.391,1.369,2.783,0.319,4.119
					c-1.176,1.497-2.935,2.462-4.793,2.81c-1.506,0.282-3.384,0.148-5.202-0.339C408.171,145.316,411.717,142.016,415.913,142.719z"
					/>
				<path style="fill:#A7F2F2;" d="M484.601,250.898c-0.391-1.804-1.069-4.131-2.162-6.126c0.543-0.914,0.981-1.875,1.288-2.779
					c1.495-4.406,1.385-9.692-1.889-13.278c-0.735-0.805-2.071,0.159-1.372,1.043c2.444,3.089,2.294,7.112,1.098,10.689
					c-0.223,0.667-0.488,1.343-0.792,2c-1.145-1.191-2.57-1.97-4.352-1.921c-4.267,0.118-6.408,5.353-2.374,7.695
					c2.429,1.411,4.593,0.71,6.299-0.83c0.025,0.058,0.053,0.118,0.077,0.175c0.732,1.699,1.239,3.485,1.497,5.316
					c0.233,1.654,0.538,3.657-0.486,5.108c-0.547,0.776-1.357,1.435-2.299,1.963c-1.794-3.599-5.094-6.889-9.218-7.322
					c-1.887-0.198-4.219,0.152-5.264,1.938c-1.137,1.942-0.15,4.536,1.118,6.163c2.824,3.623,7.574,4.27,11.728,3.008
					c0.315,1.294,0.421,2.569,0.254,3.675c-1.189,7.872-12.69,3.321-17.099,1.544c-1.339-0.54-2.556,1.352-1.318,2.218
					c2.488,1.74,5.572,2.679,8.553,3.157c2.841,0.456,6.167,0.657,8.795-0.719c4.043-2.116,4.594-6.938,3.483-10.981
					c1.774-0.911,3.524-2.171,4.345-3.993C485.565,256.306,485.124,253.311,484.601,250.898z M472.156,261.288
					c-1.558-0.291-3.031-1.1-4.018-2.355c-0.88-1.12-1.687-3.125,0.268-3.453c3.517-0.59,6.484,2.178,8.105,5.525
					C474.988,261.412,473.417,261.523,472.156,261.288z M479.044,245.066c-0.921,0.918-4.157,2.024-4.324-0.261
					c-0.109-1.485,2.064-1.47,2.963-0.975c0.54,0.297,0.986,0.731,1.367,1.229C479.048,245.061,479.046,245.064,479.044,245.066z"/>
				<path style="fill:#A7F2F2;" d="M52.433,446.725c1.011,3.807-0.731,7.437-3.253,10.242c-0.472,0.524-0.977,1.048-1.519,1.531
					c-0.574-1.554-1.572-2.841-3.231-3.508c-3.961-1.592-8.011,2.355-5.244,6.112c1.666,2.262,3.929,2.482,6.109,1.749
					c0,0.063,0.001,0.129,0.001,0.191c-0.006,1.85-0.252,3.69-0.746,5.472c-0.445,1.609-0.964,3.568-2.481,4.491
					c-0.81,0.493-1.821,0.755-2.893,0.864c-0.215-4.01-1.931-8.332-5.535-10.369c-1.652-0.934-3.93-1.542-5.6-0.321
					c-1.817,1.328-1.946,4.1-1.431,6.098c1.146,4.449,5.245,6.934,9.557,7.433c-0.227,1.313-0.637,2.524-1.231,3.472
					c-4.228,6.746-12.962-2.012-16.297-5.398c-1.013-1.028-2.883,0.221-2.093,1.509c1.588,2.587,4.043,4.677,6.586,6.304
					c2.424,1.551,5.395,3.06,8.353,2.846c4.551-0.329,6.979-4.532,7.571-8.683c1.99-0.128,4.097-0.587,5.577-1.931
					c1.898-1.724,2.687-4.646,3.168-7.068c0.36-1.811,0.666-4.215,0.458-6.48c0.862-0.622,1.647-1.328,2.288-2.035
					c3.127-3.445,5.133-8.337,3.558-12.931C53.754,445.284,52.144,445.635,52.433,446.725z M29.502,468.569
					c-0.361-1.378-0.302-3.538,1.622-3.06c3.455,0.859,5.074,4.57,5.23,8.28c-1.557-0.234-3.045-0.741-4.106-1.459
					C30.935,471.443,29.906,470.114,29.502,468.569z M45.03,460.198c-1.211,0.475-4.619,0.199-3.862-1.963
					c0.492-1.406,2.479-0.526,3.106,0.286c0.377,0.488,0.613,1.064,0.764,1.673C45.036,460.195,45.033,460.197,45.03,460.198z"/>
				<path style="fill:#60DFE2;" d="M29.985,94.534c5.789-0.192,10.394-4.503,12.909-9.451c0.516-1.015,0.971-2.19,1.299-3.414
					c2.614-0.729,5.165-2.09,7.032-3.259c2.496-1.564,5.42-3.682,6.537-6.53c0.871-2.22,0.489-4.764-0.212-7.037
					c4.377-2.42,8.034-6.909,6.472-12.124c-1.016-3.389-3.959-6.062-6.715-8.107c-2.892-2.146-6.264-3.996-9.822-4.67
					c-1.771-0.335-2.372,2.28-0.796,2.973c5.19,2.283,18.659,8.308,12.93,15.883c-0.805,1.065-1.982,2.036-3.349,2.845
					c-2.384-4.597-6.894-8.114-12.341-7.505c-2.446,0.274-5.481,1.592-6.192,4.181c-0.653,2.38,0.991,4.662,2.732,6.108
					c3.806,3.16,9.365,3.236,13.932,1.768c0.334,1.244,0.447,2.485,0.241,3.599c-0.386,2.084-2.35,3.492-3.956,4.671
					c-1.779,1.306-3.726,2.361-5.786,3.152c-0.069,0.027-0.143,0.053-0.214,0.08c-0.107-2.741-1.312-5.171-4.541-6.07
					c-5.362-1.492-8.046,4.697-4.591,8.439c1.447,1.567,3.305,2.133,5.281,2.115c-0.309,0.809-0.678,1.594-1.063,2.343
					c-2.058,4.002-5.367,7.483-10.04,7.97C28.394,92.633,28.685,94.577,29.985,94.534z M41.64,60.766
					c-1.349-1.942,1.035-2.924,2.724-3.106c1.893-0.204,3.812,0.38,5.359,1.467c1.252,0.88,2.466,2.315,3.388,3.953
					C48.903,64.487,44.068,64.26,41.64,60.766z M39.425,78.394c-1.172-0.355-2.995-2.197-1.636-3.342
					c2.09-1.761,3.842,1.923,3.826,3.474c0,0.004-0.001,0.007-0.001,0.011C40.871,78.626,40.129,78.607,39.425,78.394z"/>
				<path style="fill:#A7F2F2;" d="M251.043,312.85c-4.502-2.052-9.885-0.668-13.908,1.946c-0.649-1.113-1.083-2.281-1.176-3.41
					c-0.174-2.112,1.352-3.986,2.593-5.545c1.374-1.727,2.976-3.256,4.757-4.559c0.06-0.044,0.124-0.089,0.185-0.133
					c0.822,2.616,2.622,4.646,5.973,4.667c5.565,0.034,6.533-6.642,2.218-9.347c-1.807-1.133-3.748-1.192-5.651-0.656
					c0.086-0.861,0.236-1.716,0.411-2.539c0.936-4.401,3.218-8.628,7.6-10.324c1.255-0.485,0.464-2.285-0.779-1.902
					c-5.537,1.703-8.85,7.07-9.98,12.505c-0.232,1.115-0.363,2.368-0.358,3.636c-2.332,1.389-4.437,3.371-5.931,4.989
					c-1.999,2.163-4.265,4.974-4.596,8.015c-0.258,2.37,0.777,4.725,2.05,6.735c-3.59,3.483-5.942,8.774-3.067,13.397
					c1.869,3.005,5.409,4.812,8.606,6.063c3.354,1.312,7.092,2.215,10.703,1.932c1.797-0.141,1.691-2.822-0.012-3.078
					c-5.607-0.842-20.185-3.126-16.642-11.938c0.498-1.24,1.371-2.49,2.479-3.631c3.506,3.816,8.784,6.031,13.883,4.015
					c2.289-0.905,4.872-2.973,4.88-5.658C255.288,315.56,253.103,313.788,251.043,312.85z M250.844,301.894
					c-1.555,2.247-4.212-0.848-4.603-2.349c-0.001-0.004-0.001-0.007-0.002-0.011c0.694-0.281,1.415-0.457,2.15-0.436
					C249.612,299.133,251.855,300.433,250.844,301.894z M249.057,320.4c-1.774,0.693-3.778,0.633-5.556-0.011
					c-1.44-0.521-2.991-1.59-4.311-2.932c3.692-2.461,8.423-3.504,11.681-0.769C252.683,318.209,250.64,319.782,249.057,320.4z"/>
				<path style="fill:#60DFE2;" d="M480.307,437.278c-1.654-3.128-5.06-5.178-8.161-6.649c-3.254-1.543-6.921-2.704-10.542-2.674
					c-1.803,0.015-1.884,2.697-0.203,3.071c5.535,1.232,19.917,4.527,15.768,13.071c-0.584,1.202-1.541,2.389-2.727,3.449
					c-3.231-4.051-8.341-6.63-13.569-4.974c-2.346,0.743-5.068,2.626-5.263,5.304c-0.179,2.462,1.877,4.381,3.866,5.461
					c4.348,2.361,9.815,1.357,14.01-0.971c0.57,1.155,0.921,2.351,0.935,3.484c0.026,2.119-1.627,3.882-2.973,5.35
					c-1.491,1.627-3.196,3.04-5.064,4.216c-0.063,0.04-0.13,0.08-0.194,0.12c-0.637-2.668-2.291-4.818-5.633-5.073
					c-5.549-0.423-6.981,6.17-2.865,9.17c1.723,1.256,3.656,1.451,5.591,1.049c-0.146,0.853-0.356,1.696-0.588,2.505
					c-1.241,4.325-3.812,8.382-8.302,9.768c-1.285,0.397-0.623,2.247,0.644,1.952c5.642-1.312,9.322-6.435,10.828-11.778
					c0.309-1.096,0.527-2.337,0.611-3.602c2.423-1.223,4.661-3.053,6.265-4.562c2.145-2.018,4.602-4.665,5.145-7.675
					c0.423-2.346-0.446-4.768-1.574-6.862C480.137,447.204,482.853,442.09,480.307,437.278z M461.164,467.241
					c-1.218-0.121-3.365-1.574-2.254-2.961c1.708-2.133,4.142,1.14,4.428,2.665c0.001,0.004,0.001,0.008,0.002,0.011
					C462.628,467.188,461.896,467.314,461.164,467.241z M459.915,449.519c-1.701-1.643,0.448-3.069,2.07-3.576
					c1.818-0.568,3.813-0.367,5.541,0.398c1.401,0.621,2.872,1.795,4.095,3.226C467.767,451.765,462.975,452.476,459.915,449.519z"
					/>
				<path style="fill:#60DFE2;" d="M63.413,345.582c-5.204,2.252-18.782,8.028-20.438-1.324c-0.233-1.316-0.155-2.839,0.183-4.393
					c4.994,1.383,10.645,0.47,13.905-3.939c1.463-1.979,2.561-5.101,1.147-7.383c-1.3-2.098-4.091-2.445-6.336-2.152
					c-4.905,0.641-8.742,4.664-10.772,9.011c-1.139-0.601-2.125-1.363-2.802-2.271c-1.265-1.7-0.962-4.098-0.734-6.077
					c0.252-2.192,0.803-4.337,1.624-6.385c0.028-0.069,0.058-0.141,0.087-0.211c2.082,1.785,4.683,2.555,7.538,0.8
					c4.741-2.916,2.029-9.093-3.064-9.105c-2.132-0.005-3.811,0.971-5.142,2.433c-0.383-0.776-0.708-1.582-0.994-2.372
					c-1.534-4.23-1.835-9.024,0.986-12.781c0.808-1.076-0.815-2.184-1.667-1.202c-3.797,4.374-3.768,10.682-1.852,15.892
					c0.393,1.069,0.945,2.202,1.62,3.275c-1.244,2.412-1.981,5.208-2.393,7.371c-0.551,2.893-0.987,6.478,0.341,9.234
					c1.035,2.148,3.16,3.598,5.303,4.631c-1.203,4.855-0.4,10.589,4.486,12.991c3.176,1.561,7.136,1.221,10.51,0.591
					c3.54-0.661,7.19-1.874,10.105-4.024C66.502,347.117,64.993,344.898,63.413,345.582z M42.343,316.126
					c1.057-0.617,3.648-0.701,3.563,1.074c-0.13,2.73-4.023,1.509-5.149,0.442c-0.003-0.003-0.005-0.005-0.008-0.008
					C41.189,317.028,41.708,316.497,42.343,316.126z M53.758,329.739c2.341,0.332,1.439,2.747,0.424,4.11
					c-1.138,1.527-2.871,2.536-4.72,2.931c-1.498,0.32-3.379,0.233-5.209-0.207C46.084,332.531,49.546,329.142,53.758,329.739z"/>
			</g>
		</g>
	</g>
</g>
</svg>
