<?xml version="1.0" encoding="UTF-8"?>
<svg version="1.1" xmlns="http://www.w3.org/2000/svg" width="400" height="400">
<path d="M0 0 C5.03308086 2.41975041 8.06586161 5.77478842 10 11 C10.56801803 13.99760776 10.86185536 16.95391074 11 20 C11.66 19.34 12.32 18.68 13 18 C14.69381755 22.92746922 13.13437321 26.50559298 11 31 C10.34 31.99 9.68 32.98 9 34 C9.80972016 36.40084462 9.80972016 36.40084462 11 39 C12.88829411 47.49732348 12.32928641 54.97628044 9 63 C8.278125 63.886875 7.55625 64.77375 6.8125 65.6875 C4.34738769 68.8326433 4.69531887 71.11531562 5 75 C5.5775 74.7525 6.155 74.505 6.75 74.25 C7.4925 74.1675 8.235 74.085 9 74 C9.48984375 74.65355469 9.9796875 75.30710937 10.484375 75.98046875 C14.47970933 79.1879033 18.55054522 78.28655605 23.5 78.0625 C47.58802558 77.55932623 69.42496486 83.92289869 91.80615234 92.37182617 C93.10866943 92.86259644 93.10866943 92.86259644 94.4375 93.36328125 C95.58025391 93.80087769 95.58025391 93.80087769 96.74609375 94.24731445 C101.53450677 95.97943436 101.53450677 95.97943436 106.25390625 94.92578125 C107.01574219 94.39339844 107.77757812 93.86101562 108.5625 93.3125 C115.43112331 88.94890402 122.43432723 86.50829804 130.47265625 85.265625 C131.62689087 85.08616333 131.62689087 85.08616333 132.80444336 84.90307617 C134.32934388 84.67927436 135.85778265 84.47818219 137.38891602 84.30200195 C139.76476455 84.01806796 139.76476455 84.01806796 143 83 C144.59277131 80.53598147 144.59277131 80.53598147 145 78 C143.63875 77.443125 143.63875 77.443125 142.25 76.875 C137.50413084 74.13699856 135.66335385 70.92868362 133.90234375 65.80859375 C132.92206098 61.67103659 132.73716501 58.03522467 132.8125 53.8125 C132.8134668 52.76545898 132.8134668 52.76545898 132.81445312 51.69726562 C132.83837132 48.90415203 132.90755767 46.34311418 133.63671875 43.63671875 C133.75660156 43.09660156 133.87648438 42.55648437 134 42 C133.34 41.34 132.68 40.68 132 40 C131.74325961 36.14889421 132.1095043 32.74008192 133 29 C133.11085938 28.35675781 133.22171875 27.71351562 133.3359375 27.05078125 C134.06086249 23.35092822 134.63886666 21.39122778 137.25 18.5625 C140.40475487 16.77002564 142.36383064 16.07272339 146 16 C151.86871194 18.08665313 156.5035816 21.26839489 161.5 24.9375 C167.55069638 29.35608992 167.55069638 29.35608992 173.9453125 33.24609375 C177 35 177 35 178.375 37.125 C180.60711754 47.39274069 180.84780538 57.06549552 175 66.1875 C173.4375 68.41796875 173.4375 68.41796875 172 70 C171.34 70 170.68 70 170 70 C169.67 74.29 169.34 78.58 169 83 C170.32 83.165 171.64 83.33 173 83.5 C198.52009013 88.64021673 219.72797341 111.15678143 233.8671875 131.71484375 C237.44834298 137.35382738 240.48576831 143.4626963 242 150 C241.67868088 151.3362795 241.34583765 152.66985519 241 154 C241.53529917 156.14470373 241.53529917 156.14470373 242.4375 158.375 C246.31667728 170.60518393 243.90043629 182.27104932 238.78515625 193.71875 C232.13282737 206.21355903 218.69899684 212.92145204 207 220 C207.1429248 221.17957275 207.28584961 222.35914551 207.43310547 223.57446289 C209.5420468 242.90571529 209.23301962 262.24725914 209.1373291 281.66424561 C209.1128721 287.16549621 209.10402049 292.66679334 209.09242249 298.16808319 C209.07329009 306.44548227 209.03486859 314.72258521 209 323 C196.46 323 183.92 323 171 323 C166.38 306.83 161.76 290.66 157 274 C153.84355643 286.01022891 153.84355643 286.01022891 150.68823242 298.02075195 C150.2856843 299.55160551 149.88309877 301.08244923 149.48046875 302.61328125 C149.27989868 303.3774939 149.07932861 304.14170654 148.87268066 304.92907715 C147.2847858 310.96345637 145.6420022 316.97932527 144 323 C129.81 323 115.62 323 101 323 C99.42716627 310.41733016 100.01381349 298.22577079 101.125 285.625 C101.18636139 284.9056427 101.24772278 284.1862854 101.3109436 283.44512939 C102.73249103 266.93569804 104.84467667 250.5093977 107.01806641 234.08447266 C107.14853867 233.08409973 107.27901093 232.08372681 107.41343689 231.05303955 C107.65782643 229.1826976 107.9069369 227.31296335 108.16188049 225.44403076 C109.06288849 218.52673901 109.97878325 211.23956741 108 204.4375 C107.67 203.303125 107.34 202.16875 107 201 C106.27677551 201.2131636 105.55355103 201.42632721 104.80841064 201.64595032 C97.27853085 203.71745016 90.45714232 204.40737918 82.671875 204.29296875 C81.55685608 204.28872391 80.44183716 204.28447906 79.29302979 204.28010559 C75.77842674 204.26349235 72.26442579 204.22587342 68.75 204.1875 C66.34766461 204.17243072 63.94532011 204.15874627 61.54296875 204.14648438 C55.69511172 204.113646 49.84759889 204.06362358 44 204 C44 204.99 44 205.98 44 207 C43.21625 207.680625 42.4325 208.36125 41.625 209.0625 C38.46004235 212.60423833 38.05634194 215.10927002 37.359375 219.6953125 C37 222 37 222 36 225 C36.36259009 226.91157493 36.81455538 228.80663811 37.3125 230.6875 C41.21397289 246.9027447 41.28592267 262.77695813 41.20581055 279.38305664 C41.1874595 283.32119183 41.18530213 287.25909192 41.18554688 291.19726562 C41.18063331 293.73177284 41.1748057 296.26627849 41.16796875 298.80078125 C41.16685593 299.96249344 41.1657431 301.12420563 41.16459656 302.32112122 C41.15821671 303.42985092 41.15183685 304.53858063 41.14526367 305.6809082 C41.14145187 306.63858597 41.13764008 307.59626373 41.13371277 308.58296204 C40.94522452 313.39979061 40.43642893 318.19928181 40 323 C24.82 323 9.64 323 -6 323 C-7.7634375 317.2146875 -7.7634375 317.2146875 -9.5625 311.3125 C-9.93705322 310.10505127 -10.31160645 308.89760254 -10.69750977 307.65356445 C-10.98424561 306.691521 -11.27098145 305.72947754 -11.56640625 304.73828125 C-11.86490479 303.75899658 -12.16340332 302.77971191 -12.47094727 301.77075195 C-13.34271678 297.20512562 -11.9166479 293.49632215 -10.4375 289.1875 C-10.16808594 288.39730469 -9.89867188 287.60710937 -9.62109375 286.79296875 C-9.41613281 286.20128906 -9.21117188 285.60960937 -9 285 C-9.29656494 285.68924561 -9.59312988 286.37849121 -9.89868164 287.08862305 C-11.28062644 290.29087292 -12.67152361 293.48916344 -14.0625 296.6875 C-14.52849609 297.77095703 -14.99449219 298.85441406 -15.47460938 299.97070312 C-15.94833984 301.05673828 -16.42207031 302.14277344 -16.91015625 303.26171875 C-17.33433838 304.24100342 -17.75852051 305.22028809 -18.19555664 306.22924805 C-20.92095789 311.9245291 -24.00662975 317.44088382 -27 323 C-42.18 323 -57.36 323 -73 323 C-76.34752347 299.56733569 -73.09614553 274.74591882 -70.4375 251.375 C-70.08515244 248.22874642 -69.7350087 245.08227029 -69.38771057 241.93545532 C-69.17401227 240.00407604 -68.95718303 238.07303966 -68.73667908 236.14242554 C-68.63980301 235.27606476 -68.54292694 234.40970398 -68.44311523 233.51708984 C-68.35730698 232.76261566 -68.27149872 232.00814148 -68.18309021 231.23080444 C-67.56526344 226.07358998 -67.56526344 226.07358998 -69.875 221.6875 C-72 219 -72 219 -72.75 215.125 C-73.72423087 210.47130792 -76.33056037 208.71242578 -79.91015625 205.8125 C-89.56731607 197.43694457 -92.80189777 183.25275684 -94 171 C-95.47497684 149.01717212 -88.65075352 124.83995006 -74.39453125 107.77734375 C-71.71816257 104.72300004 -68.88346784 101.85906614 -66 99 C-65.22011719 98.18660156 -64.44023438 97.37320313 -63.63671875 96.53515625 C-58.83562636 91.81475449 -53.77410182 88.52902729 -47.8125 85.5 C-47.14710205 85.16129883 -46.4817041 84.82259766 -45.79614258 84.47363281 C-41.5168761 82.42043597 -37.74018461 81.6164634 -33 81 C-31.60761953 79.13252737 -31.60761953 79.13252737 -31 77 C-30.34 76.34 -29.68 75.68 -29 75 C-28.01 75 -27.02 75 -26 75 C-24.84602115 66.24644837 -24.84602115 66.24644837 -27.86328125 58.3125 C-29.44942925 56.81721154 -31.07397578 55.36160237 -32.734375 53.94921875 C-36.79204509 50.45822328 -38.55129724 46.76276086 -39.875 41.5625 C-40.07354595 35.90394049 -39.37677047 31.78170296 -35.875 27.25 C-31.23786046 23.62093427 -26.387934 21.43438613 -20.8125 19.625 C-16.39095548 18.00608803 -14.52755372 15.98281193 -12 12 C-11.11994663 8.27302782 -11.11994663 8.27302782 -11 5 C-11.99 4.34 -12.98 3.68 -14 3 C-9.26324853 0.15794912 -5.41968706 -0.95386492 0 0 Z M-15 33 C-15.13277344 33.75925781 -15.26554687 34.51851562 -15.40234375 35.30078125 C-15.57894531 36.29464844 -15.75554687 37.28851563 -15.9375 38.3125 C-16.11152344 39.29863281 -16.28554687 40.28476563 -16.46484375 41.30078125 C-17 44 -17 44 -18 47 C-20.64 46.67 -23.28 46.34 -26 46 C-26.67958603 48.39719432 -26.67958603 48.39719432 -27 51 C-26.34 51.66 -25.68 52.32 -25 53 C-24.74804688 55.48681641 -24.74804688 55.48681641 -24.71875 58.6015625 C-24.68007812 59.73207031 -24.64140625 60.86257812 -24.6015625 62.02734375 C-24.53453462 64.40167765 -24.49744835 66.77706976 -24.4921875 69.15234375 C-24.21873142 75.8808602 -24.21873142 75.8808602 -20.8515625 81.51464844 C-18.31684358 83.56893659 -15.79661541 85.32317605 -13 87 C-12.11957031 87.55389404 -11.23914063 88.10778809 -10.33203125 88.6784668 C-7.52905214 90.26688032 -6.16568817 90.63614303 -3 90 C0.52249135 86.85911188 3.02489397 83.2793964 5 79 C4.80137304 75.52402826 3.76444017 72.97749278 2 70 C0.68 70 -0.64 70 -2 70 C-1.46890625 69.74347656 -0.9378125 69.48695313 -0.390625 69.22265625 C4.55274416 66.5434945 7.38100792 64.0365323 9.37890625 58.7265625 C11.32323924 50.19106298 10.7795256 41.87401166 7 34 C5.865625 34.350625 4.73125 34.70125 3.5625 35.0625 C-3.05932834 36.71795709 -8.79891015 35.64985276 -15 33 Z M137 40 C133.1340812 46.41679145 133.30341776 55.81012147 134.6875 63 C136.0197414 67.81037498 138.35404691 71.45691898 142 74.875 C144.1986012 76.32684083 144.1986012 76.32684083 148 76 C147.835 76.94875 147.67 77.8975 147.5 78.875 C146.33624403 87.47289855 146.5055272 93.41557715 151 101 C155.31054821 97.00409035 158.49491806 92.62823601 161.75 87.75 C162.72317054 86.30676015 163.69708896 84.86402421 164.671875 83.421875 C165.0956543 82.78862305 165.51943359 82.15537109 165.95605469 81.50292969 C167 80 167 80 168 79 C168.09919077 77.39836084 168.12969898 75.79220082 168.125 74.1875 C168.12757813 73.31480469 168.13015625 72.44210938 168.1328125 71.54296875 C168.01040159 69.19915983 167.5988552 67.25615215 167 65 C166.65853659 58.51219512 166.65853659 58.51219512 169 55 C169 53.68 169 52.36 169 51 C164.38 51 159.76 51 155 51 C155 51.66 155 52.32 155 53 C154.175 52.278125 153.35 51.55625 152.5 50.8125 C149.45282393 48.26355888 146.22680787 46.19592547 142.8359375 44.13671875 C140.7946589 42.87286328 138.88209004 41.48998795 137 40 Z M8 76 C5.03 80.29 2.06 84.58 -1 89 C0.98 92.3 2.96 95.6 5 99 C7.53707769 95.61722974 8.79068977 93.42112136 10.1875 89.5625 C10.53167969 88.63566406 10.87585938 87.70882812 11.23046875 86.75390625 C12.02224166 83.92040421 12.4521337 81.91212997 12 79 C10.68 78.01 9.36 77.02 8 76 Z M-29 77 C-29.66 77.66 -30.32 78.32 -31 79 C-30.15536021 87.33562549 -24.44982451 94.04321507 -19 100 C-14.66012875 95.78884683 -14.66012875 95.78884683 -11 91 C-11 90.34 -11 89.68 -11 89 C-12.70129749 87.64482856 -14.46285924 86.36477042 -16.25 85.125 C-19.13169454 83.12001147 -21.73594218 81.27450615 -24.171875 78.7421875 C-25.94107136 76.65505656 -25.94107136 76.65505656 -29 77 Z M13 81 C12.27829577 83.01609684 11.64675218 85.06486581 11.0625 87.125 C9.64938979 91.93592579 8.11262357 96.45785932 6 101 C5.34 101 4.68 101 4 101 C3.01 99.515 3.01 99.515 2 98 C1.71125 98.61875 1.4225 99.2375 1.125 99.875 C0 102 0 102 -2 104 C-1.84343203 105.90867524 -1.84343203 105.90867524 -1.1640625 108.07421875 C-0.92768066 108.95086182 -0.69129883 109.82750488 -0.44775391 110.73071289 C-0.17624512 111.70645264 0.09526367 112.68219238 0.375 113.6875 C3.19781051 124.37193038 5.60131584 135.11101341 7.83233643 145.93252563 C8.19270679 147.67903097 8.55592588 149.42495104 8.92205811 151.17025757 C9.44253262 153.6549919 9.95323197 156.1415351 10.4609375 158.62890625 C10.61691406 159.36978485 10.77289063 160.11066345 10.93359375 160.87399292 C13.15951073 171.98211361 13.15951073 171.98211361 10.390625 176.80078125 C9.68421875 177.62964844 8.9778125 178.45851563 8.25 179.3125 C7.55390625 180.15425781 6.8578125 180.99601562 6.140625 181.86328125 C4.14235946 183.85790032 2.59025295 184.94406355 0 186 C-1.19390875 185.00766026 -2.37966913 184.00551846 -3.5625 183 C-4.22378906 182.443125 -4.88507813 181.88625 -5.56640625 181.3125 C-6.77103516 180.1678125 -6.77103516 180.1678125 -8 179 C-8.61641357 178.50749756 -9.23282715 178.01499512 -9.86791992 177.50756836 C-13.20793897 174.45292147 -14.86643944 172.28320661 -15.34350586 167.69970703 C-15.15251184 163.61046921 -14.71969305 159.61814094 -14.1875 155.5625 C-14.0203759 154.07214433 -13.85660906 152.58140871 -13.69604492 151.09033203 C-13.26564533 147.18606533 -12.7877674 143.2891424 -12.29724121 139.39202881 C-11.80193294 135.40606858 -11.34516806 131.41567182 -10.8828125 127.42578125 C-9.96934579 119.61097719 -9.00170691 111.8039779 -8 104 C-12.09947304 100.86293483 -12.09947304 100.86293483 -17 100 C-17 100.66 -17 101.32 -17 102 C-24.72092182 98.91840401 -28.68990379 89.1498078 -32 82 C-48.28806078 84.24662907 -63.05426374 96.40060066 -72.875 108.9921875 C-86.91222659 128.86105602 -94.76471272 151.3396662 -91.49609375 175.765625 C-89.06621418 188.37322872 -85.02679147 199.51699135 -75 208 C-54.41497544 220.83863601 -25.62153901 219.57362002 -2.87304688 214.63623047 C1.1814764 213.6712689 4.82690963 212.76424988 8 210 C8.79399073 206.95532653 8.79399073 206.95532653 8.625 203.5625 C8.63789063 202.42941406 8.65078125 201.29632813 8.6640625 200.12890625 C8.26383091 196.90704667 8.26383091 196.90704667 5.9765625 194.85546875 C-10.87725368 184.34948098 -30.64959742 178.00283796 -50 174 C-48.02 174 -46.04 174 -44 174 C-42.07528683 168.66164461 -40.60108576 163.65020618 -40 158 C-40.11583111 159.54238266 -40.24316572 161.08390272 -40.375 162.625 C-40.47941406 163.91277344 -40.47941406 163.91277344 -40.5859375 165.2265625 C-41.04675273 168.31315507 -41.98491426 171.05447051 -43 174 C-42.29206299 174.22026855 -41.58412598 174.44053711 -40.85473633 174.66748047 C-28.38184732 178.58635118 -16.0590306 182.59430518 -4.25 188.25 C-2.99473511 188.84917236 -2.99473511 188.84917236 -1.71411133 189.46044922 C3.23288377 191.90737179 7.55880242 194.73047515 12 198 C16.74587729 200.17519376 19.9330137 200.20233573 25 199 C28.76414024 197.52653721 32.38650289 195.80674855 36 194 C37.24686362 189.79524098 37.16066781 185.50556314 37.16796875 181.15625 C37.17211288 180.39835678 37.17625702 179.64046356 37.18052673 178.85960388 C37.19018613 176.40635308 37.19018714 173.95326686 37.1875 171.5 C37.18756042 170.6663089 37.18762085 169.8326178 37.18768311 168.97366333 C37.17018181 152.076158 36.10554023 135.63682264 33 119 C34.32 124.28 35.64 129.56 37 135 C43.06133253 135.86590465 48.60878528 136.19269459 54.6875 136.1875 C56.14808838 136.1862915 56.14808838 136.1862915 57.63818359 136.18505859 C70.39914764 136.40985444 70.39914764 136.40985444 82 132 C83.11166217 129.31695087 83.11166217 129.31695087 83.8125 126.125 C86.95049115 115.07487553 92.40788766 106.58783947 101 99 C98.57426571 96.57426571 96.57315854 95.95927884 93.34765625 94.79296875 C92.1877417 94.37337891 91.02782715 93.95378906 89.83276367 93.52148438 C88.58857666 93.08126953 87.34438965 92.64105469 86.0625 92.1875 C85.43018463 91.96312256 84.79786926 91.73874512 84.14639282 91.50756836 C48.86168424 78.35531866 48.86168424 78.35531866 13 81 Z M145 82 C141.68147256 89.75970709 141.68147256 89.75970709 140 98 C143.43519517 95.9293572 143.43519517 95.9293572 146 93 C146.53255567 89.2825526 146.35275316 85.73003809 146 82 C145.67 82 145.34 82 145 82 Z M167 82 C165.78041468 83.47403117 164.59886137 84.97967239 163.4375 86.5 C162.79683594 87.3353125 162.15617187 88.170625 161.49609375 89.03125 C161.00238281 89.6809375 160.50867188 90.330625 160 91 C161.65192612 95.20490286 163.01228669 95.80982935 167 99 C167.33 93.39 167.66 87.78 168 82 C167.67 82 167.34 82 167 82 Z M169 84 C168.00749455 89.70690634 167.89522488 95.21408489 168 101 C167.44570313 100.4946875 166.89140625 99.989375 166.3203125 99.46875 C165.59585937 98.8190625 164.87140625 98.169375 164.125 97.5 C163.40570313 96.8503125 162.68640625 96.200625 161.9453125 95.53125 C160.15068902 93.79382728 160.15068902 93.79382728 158 94 C156.41030753 96.01791336 156.41030753 96.01791336 154.875 98.5 C154.33617187 99.3353125 153.79734375 100.170625 153.2421875 101.03125 C152.83226562 101.6809375 152.42234375 102.330625 152 103 C150.35 100.03 148.7 97.06 147 94 C145.31002677 95.64302953 143.64783606 97.31471312 142 99 C141.175 99.721875 140.35 100.44375 139.5 101.1875 C137.74626711 104.47574917 137.93177824 105.08922456 138.875 108.5625 C141.94020315 117.10675379 145.72744689 125.35847318 152 132 C153.69588237 130.35711396 155.35476278 128.69315675 157 127 C157.59296875 126.3915625 158.1859375 125.783125 158.796875 125.15625 C168.01537338 115.27401974 178.87638969 100.85786046 180 87 C176.37 86.01 172.74 85.02 169 84 Z M136 86 C135.97278824 87.89575251 135.95350864 89.79161979 135.9375 91.6875 C135.92589844 92.74324219 135.91429687 93.79898438 135.90234375 94.88671875 C135.99134575 97.72410262 136.35060162 100.2438919 137 103 C138.96529009 99.54792524 139.7746477 96.11523774 140.625 92.25 C140.88539063 91.07953125 141.14578125 89.9090625 141.4140625 88.703125 C141.60742188 87.81109375 141.80078125 86.9190625 142 86 C140.02 86 138.04 86 136 86 Z M126 88 C126.35146506 103.36860866 132.66918345 121.01186345 143.27734375 132.45703125 C143.84582031 132.96621094 144.41429687 133.47539062 145 134 C146.32 133.01 147.64 132.02 149 131 C148.63648438 130.5359375 148.27296875 130.071875 147.8984375 129.59375 C138.87656755 117.19446207 135.19500763 102.06338562 134 87 C130.95613276 86.91773332 128.92824652 87.02391783 126 88 Z M181 89 C180.72027344 89.87140625 180.44054687 90.7428125 180.15234375 91.640625 C175.68552516 104.91181591 169.16145285 115.36586501 160 126 C158.97688259 127.22726613 157.95555361 128.45603005 156.9375 129.6875 C156.298125 130.450625 155.65875 131.21375 155 132 C157.28462578 132.83637553 157.28462578 132.83637553 160 133 C172.16408333 124.7648268 182.82584872 107.32079599 186.4375 93.125 C186.623125 92.09375 186.80875 91.0625 187 90 C184.03 89.505 184.03 89.505 181 89 Z M98.3125 103.1875 C86.38326738 115.853105 81.32455213 130.76923247 81 148 C89.22767335 152.79631649 98.37508748 156 108 156 C108.33821197 153.14633646 108.6706978 150.29219404 109 147.4375 C109.09539062 146.63763672 109.19078125 145.83777344 109.2890625 145.01367188 C109.82714176 140.30547833 110.10176703 135.73852735 110 131 C110.66 131 111.32 131 112 131 C111.67 131.66 111.34 132.32 111 133 C110.35291123 137.56519431 109.94856181 142.16139715 109.5 146.75 C109.43341187 147.42450195 109.36682373 148.09900391 109.29821777 148.79394531 C104.89745334 181.06747009 104.89745334 181.06747009 112.5625 211.75 C118.78108736 217.49023448 126.59983248 221.62822952 135 223 C135.99 222.67 136.98 222.34 138 222 C137.67 221.67 137.34 221.34 137 221 C136.95936168 219.33382885 136.957279 217.66611905 137 216 C138.98 215.505 138.98 215.505 141 215 C141 215.66 141 216.32 141 217 C140.01 217 139.02 217 138 217 C138 217.99 138 218.98 138 220 C140.87413125 220.33397787 140.87413125 220.33397787 144 220 C146.14782671 218.44202118 146.14782671 218.44202118 147 216 C146.40330167 212.59029524 145.22659786 211.20822506 142.6875 208.875 C139.48357795 206.88935942 136.1666769 206.31088673 132.5 205.5625 C126.90255908 204.3676125 123.65701687 203.46968729 120 199 C118.66205719 194.75006402 118.84435443 192.51881856 120.125 188.25 C122.22252613 184.61428805 123.0746518 183.41980679 127 182 C130.35009915 181.77391969 133.64858651 181.82429483 137 182 C137.0515625 181.39671875 137.103125 180.7934375 137.15625 180.171875 C138.0524263 173.8579056 138.0524263 173.8579056 140.52734375 171.6171875 C142.6452227 170.51710314 144.73151917 169.74118681 147 169 C147.76054687 168.70351562 148.52109375 168.40703125 149.3046875 168.1015625 C155.40439376 166.03032268 161.30595318 165.71956498 167.6875 165.6875 C168.48325439 165.68202148 169.27900879 165.67654297 170.09887695 165.67089844 C175.35482568 165.7342297 179.99992064 166.32589111 185 168 C186.5 171.125 186.5 171.125 187 174 C187.66 173.525625 188.32 173.05125 189 172.5625 C192 171 192 171 200 170 C197.36 163.07 194.72 156.14 192 149 C193.95742008 150.95742008 194.6013076 154.02396623 195.5625 156.5625 C196.01753906 157.76003906 196.47257812 158.95757812 196.94140625 160.19140625 C197.29074219 161.11824219 197.64007813 162.04507813 198 163 C211.40430108 159.51120931 227.97094932 154.04357602 236 142 C235.22372865 130.92889189 223.34804621 120.60678023 216 113 C215.20851563 112.14535156 214.41703125 111.29070312 213.6015625 110.41015625 C206.81578509 103.27494512 197.52265605 94.17421868 188 91 C187.70867187 91.88300781 187.41734375 92.76601562 187.1171875 93.67578125 C181.48228739 110.17292592 173.28012738 120.78649176 161 133 C161.4640625 134.1446875 161.4640625 134.1446875 161.9375 135.3125 C163.48789368 139.23408401 164.15897336 142.23267317 164.1875 146.4375 C164.20167969 147.38496094 164.21585937 148.33242187 164.23046875 149.30859375 C163.98865555 152.13248008 163.61466171 153.68242563 162 156 C157.76383201 158.85144211 152.91223889 158.79486066 148 158 C144.65374976 155.47323961 143.32022153 153.96066458 142 150 C141.90625322 148.39803298 141.87007005 146.79220013 141.875 145.1875 C141.87113281 143.94033203 141.87113281 143.94033203 141.8671875 142.66796875 C142 140 142 140 142.69140625 136.9453125 C143.27376856 134.02805979 143.27376856 134.02805979 141.84765625 131.82421875 C141.25855469 131.11910156 140.66945313 130.41398437 140.0625 129.6875 C136.62697555 125.14129396 134.09906877 120.51026233 131.6875 115.375 C131.35049072 114.67076904 131.01348145 113.96653809 130.66625977 113.2409668 C127.71556685 106.85611727 125.96219302 100.54631626 125.375 93.5 C125.30023438 92.6440625 125.22546875 91.788125 125.1484375 90.90625 C125.09945312 90.2771875 125.05046875 89.648125 125 89 C115.59248191 89 104.8515702 96.97038742 98.3125 103.1875 Z M148 133 C147.67 133.66 147.34 134.32 147 135 C149.31 135 151.62 135 154 135 C153.34 134.34 152.68 133.68 152 133 C150.68 133 149.36 133 148 133 Z M154 135 C154.99 135.99 155.98 136.98 157 138 C156.67 137.01 156.34 136.02 156 135 C155.34 135 154.68 135 154 135 Z M69.375 136 C58.4139937 137.42333157 48.01697674 136.88897795 37 136 C37.0721875 137.08667969 37.144375 138.17335937 37.21875 139.29296875 C38.30483435 157.51634121 38.09452937 175.75292358 38 194 C39.88619465 194.64498219 39.88619465 194.64498219 42 195 C44.37064402 193.46482135 44.37064402 193.46482135 46.75 191.1875 C57.36220336 182.10345392 69.20973078 175.5230708 82 170 C82.33 166.04 82.66 162.08 83 158 C82.34 158 81.68 158 81 158 C81 150.41 81 142.82 81 135 C77.04010341 135 73.28321737 135.46167428 69.375 136 Z M145.6875 137.4375 C143.18925958 141.23112434 143.36249011 144.58465371 144 149 C144.92020732 152.03824575 144.92020732 152.03824575 147 154 C149.89706707 155.24677006 149.89706707 155.24677006 153 155 C155.57955419 153.75609295 155.57955419 153.75609295 157 151 C157.73535951 146.56305551 157.51134181 143.06714812 155.5625 139 C153.69436274 136.34555266 153.69436274 136.34555266 150.6875 135.6875 C147.9321964 135.81435202 147.9321964 135.81435202 145.6875 137.4375 Z M158 139 C159 142 159 142 159 142 Z M159 142 C159 144.97 159 147.94 159 151 C159.33 151 159.66 151 160 151 C160 148.03 160 145.06 160 142 C159.67 142 159.34 142 159 142 Z M236 143 C234.948125 144.485 234.948125 144.485 233.875 146 C225.55087022 155.72463503 211.06744704 160.85197034 199 164 C199.99 165.98 200.98 167.96 202 170 C216.38302037 168.41417981 228.95652603 160.99984178 240 152 C239.53816182 147.84345641 239.11990898 145.78533429 236 143 Z M82 150 C81.16060731 152.7392959 81.16060731 152.7392959 82 156 C88.73390198 161.85007735 98.11099499 165.28318954 107 165 C107 162.36 107 159.72 107 157 C105.78183594 156.74605469 104.56367188 156.49210938 103.30859375 156.23046875 C101.68481575 155.88318675 100.06112225 155.53550945 98.4375 155.1875 C97.63763672 155.02185547 96.83777344 154.85621094 96.01367188 154.68554688 C91.02731166 153.60686487 86.62188303 152.16515058 82 150 Z M158 151 C157.67 151.639375 157.34 152.27875 157 152.9375 C153.97670168 156.0552764 151.26343276 155.72043064 147 156 C147.66 156.66 148.32 157.32 149 158 C153.83763919 157.76394255 153.83763919 157.76394255 157.9375 155.4375 C158.288125 154.963125 158.63875 154.48875 159 154 C158.67 153.01 158.34 152.02 158 151 Z M233.3125 158.0625 C228.74099718 161.02975513 224.12064295 163.52462132 219.1875 165.8125 C218.56593018 166.1019751 217.94436035 166.3914502 217.30395508 166.68969727 C213.60175596 168.37449775 209.87967687 169.782031 206 171 C207.32 174.63 208.64 178.26 210 182 C207.60661265 184.41453035 205.20916435 186.80689776 202.7109375 189.11328125 C197.47264171 194.04498782 193.36141816 199.09673374 189.375 205.0625 C177.40867455 222.9038086 177.40867455 222.9038086 167 225 C167.33 226.98 167.66 228.96 168 231 C172.08908773 232.16727504 174.00569932 231.88715975 177.75 229.9375 C182.50222049 227.6124889 187.24386856 225.84963261 192.25 224.1875 C205.59331945 219.62654316 217.13178567 212.99664872 228 204 C228.68835938 203.43796875 229.37671875 202.8759375 230.0859375 202.296875 C238.46610125 194.75838708 241.75613982 184.65873362 242.89453125 173.703125 C243.07939268 167.21243463 242.04839555 161.14518665 240 155 C237.09844894 155 235.70374156 156.43616979 233.3125 158.0625 Z M84 160 C83.9729957 161.45823212 83.95360213 162.91660675 83.9375 164.375 C83.92589844 165.18710938 83.91429687 165.99921875 83.90234375 166.8359375 C83.85533666 169.04937142 83.85533666 169.04937142 85 171 C84.27039063 171.12060791 83.54078125 171.24121582 82.7890625 171.36547852 C78.15558441 172.41961101 74.18604303 174.7390104 70 176.9375 C69.06607422 177.42605469 68.13214844 177.91460937 67.16992188 178.41796875 C60.43807749 182.02813547 54.46893982 186.04184552 48.59375 190.90625 C43.3700571 195.12296595 40.68226798 196 34 196 C32.05630262 197.35429841 32.05630262 197.35429841 31 199 C31.66 199.33 32.32 199.66 33 200 C33 199.34 33 198.68 33 198 C34.64846769 198.44876616 36.29373455 198.90930488 37.9375 199.375 C39.31228516 199.75785156 39.31228516 199.75785156 40.71484375 200.1484375 C43 201 43 201 44 203 C50.31303392 203.05121737 56.62601316 203.08594785 62.93920898 203.10986328 C65.08148196 203.11984606 67.22374157 203.13343702 69.3659668 203.15087891 C87.75805454 204.09576213 87.75805454 204.09576213 105.31811523 199.88208008 C107.41669615 197.53370437 107.39851645 195.86306997 107.30072021 192.78120422 C107.25820129 192.09672714 107.21568237 191.41225006 107.171875 190.70703125 C107.14401917 190.00100266 107.11616333 189.29497406 107.08746338 188.56755066 C106.99415618 186.31454339 106.87246051 184.06409249 106.75 181.8125 C106.68171885 180.28458784 106.61529019 178.75659169 106.55078125 177.22851562 C106.38866061 173.48436373 106.20107068 169.74225413 106 166 C105.26467041 165.88027832 104.52934082 165.76055664 103.77172852 165.63720703 C102.79647217 165.47075684 101.82121582 165.30430664 100.81640625 165.1328125 C99.85420166 164.97184082 98.89199707 164.81086914 97.90063477 164.64501953 C94.25502701 163.83433898 91.11036764 162.45613153 87.77734375 160.8046875 C86.02150888 159.86251838 86.02150888 159.86251838 84 160 Z M140.234375 173.50390625 C138.80761307 174.93498375 138.80761307 174.93498375 138.875 177 C140.32989111 179.58647309 142.06198542 180.45271588 144.80859375 181.45703125 C155.11172793 184.00985772 167.65502281 181.13969802 177.0234375 176.50390625 C180.21029575 174.49522748 180.21029575 174.49522748 183 172 C183 171.01 183 170.02 183 169 C170.94036144 163.59089741 150.66300954 164.62110913 140.234375 173.50390625 Z M188 176 C188.33 176.66 188.66 177.32 189 178 C189.515625 177.505 190.03125 177.01 190.5625 176.5 C193.9238388 174.43148382 196.11959911 174.51494989 200 175 C202.4375 176.625 202.4375 176.625 204 179 C204.25 182.25 204.25 182.25 204 185 C205.32 184.34 206.64 183.68 208 183 C207.77031049 179.01871512 207.59423683 176.68427272 204.9375 173.625 C197.8060934 169.67996656 193.64610732 170.21273999 188 176 Z M179.875 175.25 C169.79917545 181.66853796 155.25282056 183.80767024 143.640625 181.5390625 C141.6875 181 141.6875 181 139 180 C138.56841373 191.09336566 138.42743878 200.15450176 145.8125 208.9375 C151.34578527 214.65220446 156.19934824 216.47995655 164 217 C164.99 216.505 164.99 216.505 166 216 C166.33 218.31 166.66 220.62 167 223 C170.465 222.505 170.465 222.505 174 222 C173.505 218.535 173.505 218.535 173 215 C174.19625 214.484375 175.3925 213.96875 176.625 213.4375 C181.97027916 210.76486042 185.55232331 207.00405265 188.14453125 201.625 C191.01868762 192.80567085 189.09907124 181.19814248 185 173 C182.62872304 172.80523176 182.62872304 172.80523176 179.875 175.25 Z M190 178 C188.32237699 182.90382112 189.23135709 188.03499318 189.74609375 193.09765625 C189.97826443 195.75154568 190.0439582 198.33808676 190 201 C193.511974 197.81727357 196.42686871 194.32458413 199.3125 190.5625 C200.00988281 189.65628906 200.70726562 188.75007812 201.42578125 187.81640625 C203.2428136 184.56558658 203.39836932 182.66810193 203 179 C202 177 202 177 200 176 C196.21860026 175.59772343 193.02652781 175.53394031 190 178 Z M121.125 186.75 C119.47340637 190.05318727 119.55957045 192.35072662 120 196 C121.871978 200.05595234 123.66749349 202.14895896 127.75 203.8125 C131.79478904 205.10500778 135.77906961 205.62313122 140 206 C137.01798629 202.53733277 133.59833008 201.61192596 129.375 200.16015625 C126.61908683 198.81392893 125.50580558 197.65497299 124 195 C124 191.4375 124 191.4375 125 188 C128.09807387 185.41827177 131.04535442 184.56494937 135 184 C129.72863127 180.48575418 125.52812801 182.64041385 121.125 186.75 Z M125 189 C123.91431497 190.84267868 123.91431497 190.84267868 124 193 C125.06744525 196.04984356 126.24697107 197.57295146 129.06640625 199.171875 C132.65318121 200.80276444 136.15456589 202.1240469 140 203 C139.7178711 200.72796198 139.42397144 198.45738316 139.125 196.1875 C138.88136719 194.29064453 138.88136719 194.29064453 138.6328125 192.35546875 C138.20431547 188.88300683 138.20431547 188.88300683 136 186 C131.36731908 185.48525768 128.27009732 185.47835673 125 189 Z M25 200 C22.67612053 200.39387788 20.34206251 200.73486085 18 201 C18 203.31 18 205.62 18 208 C20.29239061 207.91321237 22.5839807 207.80504727 24.875 207.6875 C26.15117187 207.62949219 27.42734375 207.57148438 28.7421875 207.51171875 C29.81726563 207.34285156 30.89234375 207.17398438 32 207 C32.66 206.01 33.32 205.02 34 204 C36.625 203.8125 36.625 203.8125 39 204 C39 202.68 39 201.36 39 200 C35.37471432 199.79859524 33.13498292 200.14223235 30 202 C30 200.68 30 199.36 30 198 C27.67642489 197.81509993 27.67642489 197.81509993 25 200 Z M10 199 C9.67 202.63 9.34 206.26 9 210 C11.64 209.67 14.28 209.34 17 209 C17 206.03 17 203.06 17 200 C14.69 199.67 12.38 199.34 10 199 Z M34 205 C34 208 34 208 34 208 Z M36 206 C37 208 37 208 37 208 Z M38 207 C39 209 39 209 39 209 Z M9 211 C9 211.66 9 212.32 9 213 C-18.59538968 219.08412485 -43.81081413 220.28007604 -71 212 C-70.52017661 217.03814562 -69.24051711 220.09889593 -66 224 C-63.28003634 225.07709351 -61.13405993 225.7257409 -58.3125 226.25 C-57.55195312 226.4056543 -56.79140625 226.56130859 -56.0078125 226.72167969 C-53.67666812 227.18116558 -51.3413393 227.59605964 -49 228 C-47.76636719 228.226875 -46.53273438 228.45375 -45.26171875 228.6875 C-21.65740474 232.21711705 10.40466662 233.31365748 33 225 C36.9835825 219.89284295 37.44693772 216.36886246 37 210 C27.51322698 206.00556926 18.52788974 208.24968131 9 211 Z M148 214 C147.773125 214.94875 147.54625 215.8975 147.3125 216.875 C146 220 146 220 143.375 221.375 C142.199375 221.684375 142.199375 221.684375 141 222 C142.79199472 222.78282648 142.79199472 222.78282648 145 223 C147.36549876 222.05945016 147.36549876 222.05945016 149 220 C149.33397787 216.87413125 149.33397787 216.87413125 149 214 C148.67 214 148.34 214 148 214 Z M174 216 C174.33 217.32 174.66 218.64 175 220 C176.7074998 218.71937515 178.37373596 217.38232443 180 216 C180 215.34 180 214.68 180 214 C177.53721199 214 176.14775881 214.85452863 174 216 Z M151 215 C150.71125 216.11375 150.4225 217.2275 150.125 218.375 C149 222 149 222 147 224 C148.0908767 225.31500164 148.0908767 225.31500164 150.765625 225.1328125 C151.91546875 225.13023437 153.0653125 225.12765625 154.25 225.125 C155.95929688 225.12886719 155.95929688 225.12886719 157.703125 225.1328125 C160.60044376 225.01609587 163.18608964 224.66645245 166 224 C165.67 222.02 165.34 220.04 165 218 C163.86111328 217.80083984 163.86111328 217.80083984 162.69921875 217.59765625 C161.20841797 217.33275391 161.20841797 217.33275391 159.6875 217.0625 C158.20830078 216.80146484 158.20830078 216.80146484 156.69921875 216.53515625 C154 216 154 216 151 215 Z M175 232 C173.35 232.33 171.7 232.66 170 233 C170 233.99 170 234.98 170 236 C171.98 235.67 173.96 235.34 176 235 C175.67 234.01 175.34 233.02 175 232 Z M178 233 C177.01 234.485 177.01 234.485 176 236 C172.375 236.6875 172.375 236.6875 169 237 C169 236.34 169 235.68 169 235 C167.35 235.33 165.7 235.66 164 236 C163.67 237.65 163.34 239.3 163 241 C173.89 239.02 173.89 239.02 185 237 C184.34 235.68 183.68 234.36 183 233 C180.58380177 232.74969023 180.58380177 232.74969023 178 233 Z M187 237 C175.12 239.475 175.12 239.475 163 242 C163.33 242.99 163.66 243.98 164 245 C172.31616812 244.41640925 180.01459326 242.26200586 188 240 C187.67 239.01 187.34 238.02 187 237 Z M145 247 C146 249 146 249 146 249 Z M146 249 C147 251 147 251 147 251 Z M147 251 C147.57452746 254.93075644 147.57452746 254.93075644 150 258 C149.42547254 254.06924356 149.42547254 254.06924356 147 251 Z M150 258 C151 260 151 260 151 260 Z M151 260 C152 262 152 262 152 262 Z M152 262 C153 264 153 264 153 264 Z M153 265 C154 267 154 267 154 267 Z M154 267 C155 269 155 269 155 269 Z M155 269 C156 271 156 271 156 271 Z M-6 274 C-5 276 -5 276 -5 276 Z M-7 277 C-6 280 -6 280 -6 280 Z " fill="#000000" transform="translate(127,67)"/>
<path d="M0 0 C0.66 0 1.32 0 2 0 C2.350625 1.216875 2.70125 2.43375 3.0625 3.6875 C4.86331791 8.60915282 7.59241812 10.33881849 12 13 C11.59007812 13.43570313 11.18015625 13.87140625 10.7578125 14.3203125 C7.38909998 18.04362634 5.21759521 21.00785965 4 26 C3.34 26 2.68 26 2 26 C1.77957031 25.06027344 1.77957031 25.06027344 1.5546875 24.1015625 C0.86643169 21.59377984 0.16240405 19.32908165 -1 17 C-4.00594421 15.46853622 -4.00594421 15.46853622 -7 15 C-7.33 14.34 -7.66 13.68 -8 13 C-7.05125 12.525625 -6.1025 12.05125 -5.125 11.5625 C-2.04774543 9.56663914 -1.3846897 7.7970806 -0.625 4.25 C-0.39255345 2.83708959 -0.17611081 1.42103209 0 0 Z M1 7 C0.319375 8.175625 0.319375 8.175625 -0.375 9.375 C-2 12 -2 12 -4 14 C-1.36 15.98 1.28 17.96 4 20 C5.32 17.69 6.64 15.38 8 13 C7.21625 12.38125 6.4325 11.7625 5.625 11.125 C3 9 3 9 1 7 Z " fill="#000000" transform="translate(321,73)"/>
<path d="M0 0 C0 0.33 0 0.66 0 1 C-0.62648438 1.19335938 -1.25296875 1.38671875 -1.8984375 1.5859375 C-2.71570313 1.84632812 -3.53296875 2.10671875 -4.375 2.375 C-5.59316406 2.75785156 -5.59316406 2.75785156 -6.8359375 3.1484375 C-9.16459185 3.89854283 -9.16459185 3.89854283 -11 6 C-11.58442963 8.87237733 -11.58442963 8.87237733 -11 12 C-7.87688599 15.94982066 -4.5401954 17.93627482 0 20 C1 21 1 21 1.3125 23.8125 C1 27 1 27 -0.5 29.3125 C-4.01168333 31.68288625 -6.79351293 31.71956753 -11 32 C-8.3534665 29.3534665 -5.43778736 28.40058003 -2 27 C-1.5925875 24.62949324 -1.5925875 24.62949324 -2 22 C-4.12325871 20.22491131 -4.12325871 20.22491131 -6.875 18.9375 C-12.69831714 15.94288819 -12.69831714 15.94288819 -14 12 C-13.85713475 7.99977313 -13.61728563 5.75667271 -11.0625 2.625 C-7.31976204 -0.32382385 -4.71285709 -0.08727513 0 0 Z " fill="#000000" transform="translate(274,29)"/>
<path d="M0 0 C5.98958868 2.87960994 8.59249098 7.10228272 10.8125 13.25 C12.81128244 16.19557412 15.74053674 16.85632868 19 18 C19.99 18 20.98 18 22 18 C22 18.66 22 19.32 22 20 C17.74228969 20.42577103 15.55809624 20.34601967 11.875 18.0625 C8.8126785 15.22007924 7.07009862 11.81942479 5.2734375 8.0859375 C3.80313327 5.67752505 2.38787516 4.48212941 0 3 C-2.98650805 2.3355782 -2.98650805 2.3355782 -6 2 C-7.33737094 1.68325425 -8.67288808 1.35729936 -10 1 C-6.77888448 -0.61055776 -3.49299172 -0.45617429 0 0 Z " fill="#000000" transform="translate(180,31)"/>
<path d="M0 0 C0 0.99 0 1.98 0 3 C-1.96722008 4.38123963 -3.96868328 5.71488126 -6 7 C-7.39935013 9.79870027 -7.25265405 11.90498792 -7 15 C-5.83813377 16.77154991 -5.83813377 16.77154991 -4 18 C-1.71669899 18.36146457 -1.71669899 18.36146457 0.6875 18.1875 C1.49574219 18.16042969 2.30398437 18.13335937 3.13671875 18.10546875 C4.05904297 18.05326172 4.05904297 18.05326172 5 18 C5 18.66 5 19.32 5 20 C1.89951072 21.55024464 -0.57894218 21.28992015 -4 21 C-6.75329021 19.20437595 -8.52627461 17.94745078 -10 15 C-10.56752786 10.838129 -10.22733893 9.33126531 -7.8125 5.8125 C-5.30148057 3.30148057 -3.13794837 1.61380202 0 0 Z " fill="#000000" transform="translate(179,99)"/>
<path d="M0 0 C0.66 0 1.32 0 2 0 C2.33 1.98 2.66 3.96 3 6 C4.65 6.33 6.3 6.66 8 7 C8 7.66 8 8.32 8 9 C7.01 9.66 6.02 10.32 5 11 C4.27617533 13.05925139 4.27617533 13.05925139 4 15 C3.34 15 2.68 15 2 15 C1.62875 14.1028125 1.62875 14.1028125 1.25 13.1875 C-0.16370012 10.71352479 -1.65055383 9.56629745 -4 8 C-3.01 7.34 -2.02 6.68 -1 6 C-0.26656572 2.93443402 -0.26656572 2.93443402 0 0 Z M1 6 C1 7.32 1 8.64 1 10 C1.66 10.33 2.32 10.66 3 11 C3.33 10.01 3.66 9.02 4 8 C3.01 7.34 2.02 6.68 1 6 Z " fill="#000000" transform="translate(243,127)"/>
<path d="M0 0 C0.99 0.33 1.98 0.66 3 1 C2.33484375 1.32613281 1.6696875 1.65226562 0.984375 1.98828125 C-1.42307308 3.98004322 -1.42307308 3.98004322 -1.171875 7.79296875 C-1.05241353 9.25969011 -0.91096618 10.72475173 -0.75 12.1875 C-0.65138672 13.31188477 -0.65138672 13.31188477 -0.55078125 14.45898438 C-0.38592263 16.30775601 -0.19541184 18.15420773 0 20 C-4.26352909 22.80553468 -6.86986795 23.30177247 -12 23 C-11.67 22.34 -11.34 21.68 -11 21 C-8.66752239 20.66073053 -6.33414529 20.32759934 -4 20 C-3.34 19.34 -2.68 18.68 -2 18 C-2.24252077 15.96851429 -2.24252077 15.96851429 -2.9375 13.75 C-3.91009969 9.82170776 -4.22379867 6.9538111 -3 3 C-1.4375 1.125 -1.4375 1.125 0 0 Z " fill="#000000" transform="translate(41,65)"/>
<path d="M0 0 C2.5 1.125 2.5 1.125 5 3 C5.5 5.9375 5.5 5.9375 5 9 C4.01971384 10.34789347 3.02028865 11.68212715 2 13 C1.58282721 15.58462162 1.58282721 15.58462162 2 18 C2.66 18.66 3.32 19.32 4 20 C2.35 19.67 0.7 19.34 -1 19 C-1.31922728 14.31799986 -0.74333831 12.65778441 2 9 C2.25086724 5.83267579 2.25086724 5.83267579 2 3 C1.34 2.67 0.68 2.34 0 2 C0 1.34 0 0.68 0 0 Z " fill="#000000" transform="translate(32,138)"/>
<path d="M0 0 C0.99 0.495 0.99 0.495 2 1 C2.37309899 2.65821773 2.70700977 4.32577014 3 6 C4.15645826 7.37375369 4.15645826 7.37375369 7.3125 7.25 C11.17422692 6.98818801 12.20940269 6.48053094 15 4 C15.66 4 16.32 4 17 4 C16.06896676 6.32758311 15.34617872 7.74357132 13.3125 9.25 C9.20452637 10.58231577 5.54172926 10.67203583 1.5625 8.9375 C-0.76643994 6.04961448 -0.27050795 3.58423038 0 0 Z " fill="#000000" transform="translate(352,43)"/>
<path d="M0 0 C1.5 1.375 1.5 1.375 3 3 C3 3.66 3 4.32 3 5 C3.66 5 4.32 5 5 5 C5 5.66 5 6.32 5 7 C4.34 7 3.68 7 3 7 C2.67 8.98 2.34 10.96 2 13 C1.34 13 0.68 13 0 13 C-0.33 11.35 -0.66 9.7 -1 8 C-1.99 8 -2.98 8 -4 8 C-4 7.34 -4 6.68 -4 6 C-3 5 -2 4 -1 3 C-0.67 2.01 -0.34 1.02 0 0 Z M0 5 C0.33 5.99 0.66 6.98 1 8 C1.33 7.01 1.66 6.02 2 5 C1.34 5 0.68 5 0 5 Z " fill="#000000" transform="translate(313,126)"/>
<path d="M0 0 C0.625 2.375 0.625 2.375 1 5 C0.34 5.66 -0.32 6.32 -1 7 C-5.55555556 6.44444444 -5.55555556 6.44444444 -7 5 C-7.04063832 3.33382885 -7.042721 1.66611905 -7 0 C-4.3333581 -1.33332095 -2.83319697 -0.67102033 0 0 Z M-4 0 C-4.33 1.65 -4.66 3.3 -5 5 C-3.35 4.67 -1.7 4.34 0 4 C-0.33 3.01 -0.66 2.02 -1 1 C-1.99 0.67 -2.98 0.34 -4 0 Z " fill="#000000" transform="translate(359,109)"/>
<path d="M0 0 C2.875 -0.125 2.875 -0.125 6 0 C6.66 0.66 7.32 1.32 8 2 C7.625 4.625 7.625 4.625 7 7 C3.25 8.125 3.25 8.125 1 7 C1 6.34 1 5.68 1 5 C2.32 5 3.64 5 5 5 C4.67 4.01 4.34 3.02 4 2 C2.35 2 0.7 2 -1 2 C-0.67 1.34 -0.34 0.68 0 0 Z " fill="#000000" transform="translate(175,10)"/>
<path d="M0 0 C0.66 0 1.32 0 2 0 C4.92004922 5.48969254 5.74076947 9.90076262 4 16 C3.34 16.33 2.68 16.66 2 17 C2.03480469 15.78763672 2.03480469 15.78763672 2.0703125 14.55078125 C2.08835937 13.48214844 2.10640625 12.41351563 2.125 11.3125 C2.14820312 10.25675781 2.17140625 9.20101563 2.1953125 8.11328125 C1.99858729 4.97748141 1.33057654 2.82354627 0 0 Z " fill="#000000" transform="translate(65,14)"/>
<path d="M0 0 C1.2065625 0.0309375 1.2065625 0.0309375 2.4375 0.0625 C2.4375 2.0425 2.4375 4.0225 2.4375 6.0625 C0.78135343 6.44468767 -0.88707024 6.77645102 -2.5625 7.0625 C-3.5625 6.0625 -3.5625 6.0625 -3.6875 3.5625 C-3.51717518 0.15600356 -3.41884482 0.08338646 0 0 Z M-1.5625 1.0625 C-1.2325 2.7125 -0.9025 4.3625 -0.5625 6.0625 C0.0975 5.7325 0.7575 5.4025 1.4375 5.0625 C1.1075 3.7425 0.7775 2.4225 0.4375 1.0625 C-0.2225 1.0625 -0.8825 1.0625 -1.5625 1.0625 Z " fill="#000000" transform="translate(56.5625,65.9375)"/>
<path d="M0 0 C1.67542976 0.28604898 3.34385343 0.61781233 5 1 C5 2.65 5 4.3 5 6 C3.34385343 6.38218767 1.67542976 6.71395102 0 7 C-1 6 -1 6 -1.125 3.5 C-1 1 -1 1 0 0 Z M2 1 C1.67 2.65 1.34 4.3 1 6 C1.99 5.67 2.98 5.34 4 5 C3.67 3.68 3.34 2.36 3 1 C2.67 1 2.34 1 2 1 Z " fill="#000000" transform="translate(49,143)"/>
<path d="M0 0 C0.66 0.33 1.32 0.66 2 1 C1.01 3.64 0.02 6.28 -1 9 C-0.34 9.66 0.32 10.32 1 11 C-0.65 10.67 -2.3 10.34 -4 10 C-2.8905928 6.51329166 -1.73662334 3.22515763 0 0 Z " fill="#000000" transform="translate(270,119)"/>
<path d="M0 0 C0.66 0 1.32 0 2 0 C1.67 1.32 1.34 2.64 1 4 C-1.31 4.33 -3.62 4.66 -6 5 C-6 4.34 -6 3.68 -6 3 C-4.02 2.67 -2.04 2.34 0 2 C0 1.34 0 0.68 0 0 Z " fill="#000000" transform="translate(279,132)"/>
<path d="M0 0 C2.29013653 3.4352048 2.17842973 4.985331 2 9 C1.01 8.67 0.02 8.34 -1 8 C-0.67 5.36 -0.34 2.72 0 0 Z " fill="#000000" transform="translate(125,112)"/>
<path d="M0 0 C2.475 0.495 2.475 0.495 5 1 C6 4 6 4 5.0625 6.1875 C4.5365625 7.0846875 4.5365625 7.0846875 4 8 C3 5 3 5 3 2 C2.01 1.34 1.02 0.68 0 0 Z " fill="#000000" transform="translate(189,109)"/>
<path d="M0 0 C2.31 0.33 4.62 0.66 7 1 C6.67 1.66 6.34 2.32 6 3 C3.03 2.505 3.03 2.505 0 2 C0 1.34 0 0.68 0 0 Z " fill="#000000" transform="translate(119,127)"/>
<path d="M0 0 C0.66 0 1.32 0 2 0 C1.67 1.32 1.34 2.64 1 4 C0.67 2.68 0.34 1.36 0 0 Z " fill="#000000" transform="translate(118,111)"/>
<path d="M0 0 C0.99 0.495 0.99 0.495 2 1 C2 1.66 2 2.32 2 3 C1.34 3 0.68 3 0 3 C0 2.01 0 1.02 0 0 Z " fill="#000000" transform="translate(131,111)"/>
<path d="M0 0 C0.66 0.33 1.32 0.66 2 1 C1.01 1.66 0.02 2.32 -1 3 C-0.67 2.01 -0.34 1.02 0 0 Z " fill="#000000" transform="translate(117,107)"/>
<path d="M0 0 C0.99 0.33 1.98 0.66 3 1 C2.67 1.66 2.34 2.32 2 3 C1.34 2.01 0.68 1.02 0 0 Z " fill="#000000" transform="translate(131,106)"/>
<path d="M0 0 C1 4 1 4 1 4 Z " fill="#000000" transform="translate(277,121)"/>
<path d="" fill="#000000" transform="translate(0,0)"/>
<path d="M0 0 C0.33 0.66 0.66 1.32 1 2 C0.34 1.67 -0.32 1.34 -1 1 C-0.67 0.67 -0.34 0.34 0 0 Z " fill="#000000" transform="translate(265,114)"/>
</svg>
