<?xml version="1.0" encoding="UTF-8"?>
<svg version="1.1" xmlns="http://www.w3.org/2000/svg" width="400" height="400">
<path d="M0 0 C0.94921875 2.29296875 0.94921875 2.29296875 1.6875 5.1875 C2.06455078 6.60095703 2.06455078 6.60095703 2.44921875 8.04296875 C3.01844593 11.09903241 3.03791733 13.89911576 3 17 C-6.46218642 21.29933461 -16.06660905 24.21977431 -26.0625 26.9375 C-26.84303741 27.1524411 -27.62357483 27.3673822 -28.42776489 27.58883667 C-43.67599442 31.78471821 -59.12908558 35.94124614 -74.75805664 38.44116211 C-75.8678186 38.71778687 -75.8678186 38.71778687 -77 39 C-78.37680832 41.75361663 -78.31960885 44.17799602 -78.52490234 47.25390625 C-78.6152475 48.56866943 -78.70559265 49.88343262 -78.79867554 51.23803711 C-78.84531719 51.94266083 -78.89195885 52.64728455 -78.94001389 53.3732605 C-79.08680391 55.57549845 -79.24047734 57.77715015 -79.39639282 59.97875977 C-79.83930823 66.23869416 -80.2763564 72.49895767 -80.69238281 78.76074219 C-80.94725678 82.58944936 -81.21583565 86.41698364 -81.49339676 90.24411011 C-81.59663396 91.70462578 -81.69464725 93.16552024 -81.78739548 94.6267395 C-81.9174062 96.6673913 -82.06639873 98.70680721 -82.21630859 100.74609375 C-82.29545502 101.90810303 -82.37460144 103.0701123 -82.45614624 104.26733398 C-82.63561798 105.16911377 -82.81508972 106.07089355 -83 107 C-86.16043064 109.10695376 -87.11951904 109.27879368 -90.76171875 109.4140625 C-91.70740723 109.45289551 -92.6530957 109.49172852 -93.62744141 109.53173828 C-95.14217041 109.57790283 -95.14217041 109.57790283 -96.6875 109.625 C-97.72825684 109.66222168 -98.76901367 109.69944336 -99.84130859 109.73779297 C-112.04671438 110.14671269 -124.17491486 110.0968856 -136.375 109.5625 C-137.75969482 109.50376709 -137.75969482 109.50376709 -139.17236328 109.44384766 C-140.45989502 109.38076416 -140.45989502 109.38076416 -141.7734375 109.31640625 C-142.54091309 109.27974854 -143.30838867 109.24309082 -144.09912109 109.20532227 C-146 109 -146 109 -148 108 C-148.51523714 105.35383432 -148.90168348 102.78139181 -149.21875 100.109375 C-149.32165848 99.30111267 -149.42456696 98.49285034 -149.53059387 97.66009521 C-149.863251 95.02448657 -150.18211384 92.38742774 -150.5 89.75 C-150.72250019 87.95372642 -150.94540039 86.15750235 -151.16870117 84.36132812 C-155.15909208 51.99181629 -155.15909208 51.99181629 -155 41 C-155.59892563 40.95400665 -156.19785126 40.90801331 -156.81492615 40.86062622 C-163.22055396 40.3032445 -169.33951607 39.19424333 -175.59765625 37.7421875 C-176.58273666 37.51808701 -177.56781708 37.29398651 -178.58274841 37.06309509 C-181.74435146 36.34085681 -184.90352621 35.60864588 -188.0625 34.875 C-189.13371094 34.62833588 -190.20492187 34.38167175 -191.30859375 34.12753296 C-207.00486695 30.51040052 -222.57888455 26.66775499 -238 22 C-237.48914188 15.56318772 -236.27057103 10.04057576 -234 4 C-232.82953125 4.18175781 -231.6590625 4.36351563 -230.453125 4.55078125 C-200.84802599 8.95765843 -170.86583453 10.46254438 -141 12 C-140.59910156 13.24652344 -140.19820313 14.49304688 -139.78515625 15.77734375 C-136.85459394 24.64433047 -133.7170339 33.18553828 -129.3125 41.4375 C-128.76057983 42.4728186 -128.76057983 42.4728186 -128.19750977 43.52905273 C-126.10564907 47.32417131 -123.82536969 50.68991677 -121 54 C-119.10928388 54.02063441 -119.10928388 54.02063441 -117 53 C-115.48276112 50.72414169 -114.2983897 48.63512212 -113.125 46.1875 C-112.78130371 45.4877002 -112.43760742 44.78790039 -112.08349609 44.06689453 C-108.33440222 36.10420189 -105.93664128 27.74124879 -103.65087891 19.26318359 C-102.85030318 16.47948629 -101.92941415 13.74302506 -101 11 C-99.95400635 10.91548584 -98.9080127 10.83097168 -97.83032227 10.74389648 C-69.55247412 8.42570875 -41.54967005 4.92703745 -13.49682617 0.69262695 C-12.71624847 0.57545319 -11.93567078 0.45827942 -11.13143921 0.33755493 C-9.2732467 0.04327394 -7.42324272 -0.30181744 -5.57543945 -0.65551758 C-3 -1 -3 -1 0 0 Z M-99 38 C-99 38.99 -99 39.98 -99 41 C-97.02 41 -95.04 41 -93 41 C-93 40.01 -93 39.02 -93 38 C-94.98 38 -96.96 38 -99 38 Z M-125.9375 60.0625 C-128.23534372 62.8960646 -128.23534372 62.8960646 -128.625 66.5 C-127.82883761 70.95850936 -126.69186542 72.40783917 -123 75 C-118.87151069 75.66350721 -116.80066382 75.43514338 -113.125 73.4375 C-110.32022405 70.220257 -109.92550077 68.24645609 -110 64 C-111.76641172 61.19810554 -113.03049822 59.48475089 -116 58 C-120.33327174 57.50944093 -122.32000344 57.52255561 -125.9375 60.0625 Z " fill="#f00050" transform="translate(328,68)"/>
<path d="M0 0 C2.76001881 0.09506731 5.49593816 0.24900701 8.25 0.4375 C26.5351443 1.52878845 44.71933198 0.93518332 63 0 C65.15448611 8.58316513 66.14297066 17.28292719 67.20703125 26.05078125 C67.41468537 27.73577477 67.62268549 29.42072569 67.83100891 31.1056366 C68.38353718 35.58496024 68.93030438 40.06496797 69.47544098 44.54519653 C69.81263838 47.31363609 70.15128012 50.08189512 70.49041748 52.85009766 C73.08857501 74.06021522 75.67472826 95.27222265 78.125 116.5 C78.22704742 117.3712149 78.32909485 118.24242981 78.43423462 119.14004517 C79.36373158 127.10772424 80.2765379 134.96196492 80 143 C74.74702899 144.40079227 70.11969744 145.1225311 64.671875 145.0625 C63.07230957 145.04896484 63.07230957 145.04896484 61.44042969 145.03515625 C60.63508789 145.02355469 59.82974609 145.01195312 59 145 C56.12432841 131.67564166 53.25527609 118.34987702 50.39466858 105.02227592 C49.06617115 98.83380567 47.73539754 92.64584322 46.39941406 86.45898438 C45.11023594 80.48847216 43.82704753 74.5167014 42.54800415 68.54401016 C42.05894125 66.26539376 41.56772084 63.98723932 41.0743103 61.70956039 C40.38366877 58.51964608 39.70071203 55.3281764 39.01953125 52.13623047 C38.813815 51.19467606 38.60809875 50.25312164 38.39614868 49.28303528 C37.44734853 44.79864989 36.641534 40.61374261 37 36 C37.33 35.67 37.66 35.34 38 35 C35.36 35.33 32.72 35.66 30 36 C29.87389847 37.14335312 29.74779694 38.28670624 29.61787415 39.46470642 C29.06004314 43.90752747 28.14011072 48.20951648 27.11401367 52.56469727 C26.92522141 53.38057816 26.73642914 54.19645905 26.54191589 55.0370636 C25.92126245 57.71445758 25.29475692 60.39044237 24.66796875 63.06640625 C24.23028845 64.94711236 23.79290027 66.82788648 23.35578918 68.70872498 C22.43953231 72.64731818 21.5205079 76.58525174 20.59936523 80.52270508 C19.42838191 85.5286107 18.26307718 90.53581593 17.09974194 95.54350376 C16.19647741 99.42968151 15.2907285 103.31527694 14.38421059 107.20069695 C13.95427734 109.04422724 13.52494764 110.88789841 13.09627342 112.73172188 C5.76590021 144.23409979 5.76590021 144.23409979 4 146 C0.23278835 146.17003463 -3.52811486 146.29736585 -7.29882812 146.34179688 C-8.09353516 146.36951172 -8.88824219 146.39722656 -9.70703125 146.42578125 C-10.79721558 146.44765503 -10.79721558 146.44765503 -11.90942383 146.4699707 C-14.65972258 146.97753022 -14.65972258 146.97753022 -18 151 C-22.29 153.31 -26.58 155.62 -31 158 C-20.11 158 -9.22 158 2 158 C1.67 154.37 1.34 150.74 1 147 C1.99 147 2.98 147 4 147 C5.38226016 149.76452033 5.09525387 152.0461363 5.0625 155.125 C5.05347656 156.22070312 5.04445312 157.31640625 5.03515625 158.4453125 C5.02355469 159.28835938 5.01195312 160.13140625 5 161 C-4.02961796 164.00987265 -15.28041453 163.11053962 -24.75 163.1875 C-26.03571899 163.20695679 -26.03571899 163.20695679 -27.34741211 163.22680664 C-28.55989624 163.22861938 -28.55989624 163.22861938 -29.796875 163.23046875 C-30.51198242 163.23457764 -31.22708984 163.23868652 -31.96386719 163.24291992 C-34.32132201 162.96166482 -35.94742528 162.16445252 -38 161 C-37.63793912 158.33339285 -37.27177044 157.23787347 -35.21484375 155.4375 C-21.84782609 147 -21.84782609 147 -17 147 C-16.94933884 145.83676712 -16.89867767 144.67353424 -16.84648132 143.47505188 C-16.32721753 132.27469249 -15.4047539 121.18207834 -14.14453125 110.04296875 C-13.96000603 108.37750857 -13.77586832 106.71200542 -13.59208679 105.04646301 C-13.10621277 100.65909837 -12.61284568 96.2726111 -12.11709595 91.88635254 C-11.8107737 89.17220422 -11.50642364 86.45784138 -11.20263672 83.7434082 C-8.7836547 62.14379682 -6.30811083 40.55305688 -3.5 19 C-3.37662262 18.04588226 -3.25324524 17.09176453 -3.12612915 16.10873413 C-2.78784818 13.50916903 -2.44276698 10.91064295 -2.09375 8.3125 C-1.99623947 7.56869583 -1.89872894 6.82489166 -1.79826355 6.05854797 C-1.11705818 1.11705818 -1.11705818 1.11705818 0 0 Z " fill="#191919" transform="translate(181,178)"/>
<path d="M0 0 C5.78246153 0.60200745 11.1730745 1.69757286 16.76953125 3.25 C17.57235031 3.46817383 18.37516937 3.68634766 19.20231628 3.91113281 C21.7404686 4.6023238 24.27645192 5.30113282 26.8125 6 C28.53307172 6.4692321 30.25377379 6.93798652 31.97460938 7.40625 C44.34624672 10.78208224 44.34624672 10.78208224 48 12 C44.79489509 26.18926654 36.52856115 42.09083322 24.375 50.4375 C22.92972224 51.3135759 21.47243644 52.17038096 20 53 C18.96875 53.598125 17.9375 54.19625 16.875 54.8125 C13.58254864 56.17242556 10.52117485 56.54846111 7 57 C5.68057599 54.27399186 4.36932285 51.54454161 3.0625 48.8125 C2.68931641 48.04357422 2.31613281 47.27464844 1.93164062 46.48242188 C1.39506836 45.35610352 1.39506836 45.35610352 0.84765625 44.20703125 C0.51773682 43.5210083 0.18781738 42.83498535 -0.15209961 42.12817383 C-2.56483001 36.07238031 -2.18357654 29.78593188 -2.1875 23.375 C-2.19974609 22.34503906 -2.21199219 21.31507812 -2.22460938 20.25390625 C-2.23774302 13.29307258 -1.48626173 6.79891061 0 0 Z " fill="#f00050" transform="translate(72,10)"/>
<path d="M0 0 C1.91229248 -0.05496216 1.91229248 -0.05496216 4.80438232 0.09909058 C6.80438232 2.09909058 6.80438232 2.09909058 7.03485107 5.58346558 C7.03085686 7.0054071 7.01608759 8.42734947 6.99188232 9.84909058 C6.99091553 10.90483276 6.99091553 10.90483276 6.9899292 11.98190308 C6.95520643 16.13320274 6.50643049 19.9982198 5.80438232 24.09909058 C6.97351921 24.09575966 6.97351921 24.09575966 8.16627502 24.09236145 C15.6483809 24.0720085 23.13047267 24.05694307 30.61259937 24.0472784 C34.45575489 24.04214216 38.29888685 24.03522183 42.14202881 24.02365112 C57.58252164 23.97847193 73.00837459 23.99530787 88.44110107 24.54049683 C90.15665947 24.59898048 90.15665947 24.59898048 91.90687561 24.65864563 C92.93999374 24.7003035 93.97311188 24.74196136 95.03753662 24.78488159 C96.39047066 24.83927147 96.39047066 24.83927147 97.77073669 24.89476013 C99.80438232 25.09909058 99.80438232 25.09909058 100.80438232 26.09909058 C100.89164455 27.87980304 100.91137274 29.66392198 100.90203857 31.44674683 C100.89881592 32.52633667 100.89559326 33.60592651 100.89227295 34.7182312 C100.88389404 35.85453979 100.87551514 36.99084839 100.86688232 38.16159058 C100.86237061 39.30176636 100.85785889 40.44194214 100.85321045 41.6166687 C100.8413798 44.44419409 100.82489642 47.27161698 100.80438232 50.09909058 C99.81438232 50.09909058 98.82438232 50.09909058 97.80438232 50.09909058 C97.80438232 43.16909058 97.80438232 36.23909058 97.80438232 29.09909058 C50.77938232 28.60409058 50.77938232 28.60409058 2.80438232 28.09909058 C2.80438232 20.17909058 2.80438232 12.25909058 2.80438232 4.09909058 C-2.14561768 4.59409058 -2.14561768 4.59409058 -7.19561768 5.09909058 C-9.60496795 5.23117956 -12.01597411 5.33670985 -14.42779541 5.41110229 C-15.08644403 5.4315926 -15.74509266 5.4520829 -16.42370033 5.47319412 C-18.5962617 5.53834624 -20.76892058 5.59681722 -22.94171143 5.65377808 C-23.70913603 5.67471401 -24.47656063 5.69564995 -25.26724052 5.71722031 C-44.61992303 6.23384475 -63.97375405 6.25208472 -83.33209229 6.22946167 C-88.33639078 6.22366606 -93.34063676 6.22712712 -98.34493351 6.23303413 C-102.26647842 6.2366558 -106.18801091 6.23549545 -110.1095562 6.23290634 C-111.95653731 6.23224661 -113.80351961 6.23303152 -115.65049934 6.23538589 C-124.88038373 6.24461026 -134.01824966 6.23571961 -143.19561768 5.09909058 C-143.11875732 5.82080444 -143.04189697 6.54251831 -142.96270752 7.28610229 C-142.2417729 14.20417507 -141.80020505 21.14448025 -142.19561768 28.09909058 C-143.94229504 29.84576794 -146.36263307 29.2266864 -148.73638916 29.22848511 C-150.5252504 29.23315292 -150.5252504 29.23315292 -152.35025024 29.23791504 C-153.65918243 29.23593109 -154.96811462 29.23394714 -156.31671143 29.23190308 C-157.68167142 29.2329169 -159.0466312 29.2342553 -160.41159058 29.23590088 C-164.06512661 29.2386034 -167.71862033 29.23413941 -171.37215042 29.22766113 C-173.62246071 29.22410741 -175.87276466 29.22247667 -178.12307739 29.22140503 C-199.49415786 29.20871973 -220.84102894 29.00572967 -242.19561768 28.09909058 C-241.86561768 34.69909058 -241.53561768 41.29909058 -241.19561768 48.09909058 C-242.18561768 48.09909058 -243.17561768 48.09909058 -244.19561768 48.09909058 C-247.23622329 42.01787936 -246.65349669 32.76527035 -246.19561768 26.09909058 C-244.25264443 24.15611733 -241.31057586 24.9788876 -238.72506714 24.97467041 C-237.79358856 24.97826569 -236.86210999 24.98186096 -235.90240479 24.98556519 C-234.9269017 24.98541916 -233.95139862 24.98527313 -232.94633484 24.98512268 C-229.70518815 24.98582225 -226.46409814 24.99361667 -223.22296143 25.00143433 C-220.98236625 25.00329835 -218.74177066 25.00472233 -216.50117493 25.00572205 C-210.59102258 25.00954845 -204.68089463 25.01937977 -198.77075195 25.03042603 C-192.74505951 25.04063752 -186.71936314 25.0452191 -180.69366455 25.05026245 C-168.86097151 25.06100193 -157.02829662 25.07807982 -145.19561768 25.09909058 C-145.41218018 23.86545776 -145.41218018 23.86545776 -145.63311768 22.60690308 C-145.81874268 21.49057495 -146.00436768 20.37424683 -146.19561768 19.22409058 C-146.38124268 18.1335437 -146.56686768 17.04299683 -146.75811768 15.91940308 C-147.28820466 11.29060776 -147.28005939 6.75159456 -147.19561768 2.09909058 C-146.63059225 2.09485864 -146.06556683 2.0906267 -145.48341942 2.08626652 C-131.57809945 1.98184965 -117.67281891 1.87307346 -103.76756859 1.75975132 C-97.04242699 1.70504367 -90.31728045 1.65177975 -83.59210205 1.60177612 C-45.4642835 1.37983706 -45.4642835 1.37983706 -7.35430908 0.29806519 C-3.67683711 0.1565855 -3.67683711 0.1565855 0 0 Z " fill="#f00050" transform="translate(282.19561767578125,339.9009094238281)"/>
<path d="M0 0 C0.66 0 1.32 0 2 0 C2.12375 0.928125 2.12375 0.928125 2.25 1.875 C2.81258459 4.18437567 2.81258459 4.18437567 5.0625 5.25 C5.701875 5.4975 6.34125 5.745 7 6 C7.28571429 13.42857143 7.28571429 13.42857143 5 17 C4.34 17 3.68 17 3 17 C3.02320313 17.61488281 3.04640625 18.22976562 3.0703125 18.86328125 C3.08835938 19.67152344 3.10640625 20.47976562 3.125 21.3125 C3.14820313 22.11300781 3.17140625 22.91351563 3.1953125 23.73828125 C3 26 3 26 1 29 C0.83300768 32.12521833 0.83300768 32.12521833 1 35 C2.65 35.33 4.3 35.66 6 36 C5.46782511 42.26233709 4.4070932 47.81073985 2.375 53.75 C2.1157373 54.52134277 1.85647461 55.29268555 1.58935547 56.08740234 C-0.88319393 63.16502005 -4.15949027 69.56885057 -8 76 C-8.99 76 -9.98 76 -11 76 C-20.04131437 64.39473081 -25.05060723 49.98549675 -29 36 C-25.65221476 36.54014686 -24.01930583 36.98627141 -21.1875 39 C-17.46917032 41.3330696 -14.34078695 42.23463713 -10 42 C-6.89376665 41.23672649 -3.95790016 40.21191743 -1 39 C-1.33 38.401875 -1.66 37.80375 -2 37.1875 C-3 35 -3 35 -3 32 C-4.216875 32.20625 -5.43375 32.4125 -6.6875 32.625 C-10.33498727 33.07123515 -12.79839616 33.03738426 -16 31 C-16.8125 28.875 -16.8125 28.875 -17 27 C-16.2265625 27.2165625 -16.2265625 27.2165625 -15.4375 27.4375 C-9.58241521 28.90853401 -9.58241521 28.90853401 -3.6875 28.375 C-1.39859126 26.50996325 -0.92182933 24.791053 0 22 C0.27165531 19.39509291 0.27165531 19.39509291 0.1953125 16.69921875 C0.18886719 15.72275391 0.18242187 14.74628906 0.17578125 13.74023438 C0.15902344 12.73283203 0.14226562 11.72542969 0.125 10.6875 C0.11597656 9.66076172 0.10695312 8.63402344 0.09765625 7.57617188 C0.07416201 5.05054101 0.04131131 2.5253919 0 0 Z M3 7 C3 9.64 3 12.28 3 15 C3.33 15 3.66 15 4 15 C4 12.36 4 9.72 4 7 C3.67 7 3.34 7 3 7 Z " fill="#f00050" transform="translate(218,44)"/>
<path d="M0 0 C5.11235386 1.9022712 7.39840458 4.28439772 10.03125 8.875 C11.99523947 13.18310593 12 17.34350673 12 22 C13.22175605 23.8622017 13.22175605 23.8622017 14.95703125 25.56640625 C15.57513672 26.21673828 16.19324219 26.86707031 16.83007812 27.53710938 C17.48427734 28.20548828 18.13847656 28.87386719 18.8125 29.5625 C19.45509766 30.23474609 20.09769531 30.90699219 20.75976562 31.59960938 C23.47440207 34.4323958 26.22042344 37.23094218 29 40 C29.21914063 39.33613281 29.43828125 38.67226562 29.6640625 37.98828125 C31.81237273 32.00619789 33.58945578 28.45353887 39 25 C39.99 25 40.98 25 42 25 C42.97786694 30.82755837 43.31181445 35.38559347 41 41 C39.0625 43.4375 39.0625 43.4375 37 45 C36.01 45 35.02 45 34 45 C34.38929688 45.43828125 34.77859375 45.8765625 35.1796875 46.328125 C56 69.93087558 56 69.93087558 56 77 C55.01 77 54.02 77 53 77 C51.16015625 74.6484375 51.16015625 74.6484375 49.0625 71.375 C42.16893135 60.95206329 33.92273553 51.72445252 25 43 C24.67 42.34 24.34 41.68 24 41 C18.75881575 39.25293858 13.31166864 39.67208284 8 41 C8 41.66 8 42.32 8 43 C15.92 42.505 15.92 42.505 24 42 C23.67 42.99 23.34 43.98 23 45 C17.57271722 47.26136782 12.71456117 47.39002839 7 46 C4.4375 44.4375 4.4375 44.4375 3 43 C4.04079533 39.98169354 4.93753082 39.03922483 7.6875 37.3125 C11.1656122 35.93438007 14.28805752 35.37119425 18 35 C17.43410156 34.44570312 16.86820312 33.89140625 16.28515625 33.3203125 C15.55167969 32.59585938 14.81820313 31.87140625 14.0625 31.125 C13.33160156 30.40570313 12.60070312 29.68640625 11.84765625 28.9453125 C10 27 10 27 9 25 C8.34773438 25.04640625 7.69546875 25.0928125 7.0234375 25.140625 C1.09011168 25.3856591 -2.35861738 25.08883707 -7 21 C-10.78575609 17.21424391 -11.58419203 14.30155158 -12 9 C-9.03 9.33 -6.06 9.66 -3 10 C-2.87625 8.72125 -2.7525 7.4425 -2.625 6.125 C-2.25 2.25 -2.25 2.25 0 0 Z M1 5 C0.66733709 11.20970773 1.54970669 15.28264895 4 21 C5.32 20.67 6.64 20.34 8 20 C8.45675183 14.29060212 7.62105556 11.44872541 4 7 C3.01 6.34 2.02 5.68 1 5 Z M-8 13 C-4.97263027 18.10613191 -4.97263027 18.10613191 0 21 C-0.66 18.69 -1.32 16.38 -2 14 C-4.97 13.505 -4.97 13.505 -8 13 Z M38 30 C34.64502678 34.29855944 33.43384872 37.57689095 33 43 C35.32758311 42.06896676 36.74357132 41.34617872 38.25 39.3125 C39.27095909 36.16454282 39.12632947 33.28456632 39 30 C38.67 30 38.34 30 38 30 Z " fill="#1A1A1A" transform="translate(325,183)"/>
<path d="M0 0 C-0.56530444 4.15548351 -2.85450361 6.60893974 -5.4375 9.8125 C-11.07529554 16.91918213 -16.05881896 24.39899172 -21 32 C-19.91689372 34.24626824 -18.86845587 36.17707864 -17.375 38.1875 C-15.46296489 42.09848091 -15.56189267 45.71160321 -16 50 C-16.495 50.99 -16.495 50.99 -17 52 C-20.49167166 51.70902736 -21.76200675 51.24460417 -24.25 48.6875 C-26 46 -26 46 -27 42 C-28.98 45.96 -30.96 49.92 -33 54 C-32.34 54.99 -31.68 55.98 -31 57 C-30.63016977 63.25013085 -32.68792393 68.78816709 -36 74 C-36.99 74.99 -36.99 74.99 -38 76 C-40 75.875 -40 75.875 -42 75 C-44.02755186 72.06004981 -44 70.72295997 -44 67 C-46.97 67 -49.94 67 -53 67 C-53.33 66.01 -53.66 65.02 -54 64 C-51.17031624 58.79338188 -47.34652209 54.67326104 -42 52 C-40.00039988 51.960008 -37.99952758 51.95653201 -36 52 C-35.7525 51.175 -35.505 50.35 -35.25 49.5 C-33.81295189 45.47626529 -31.97645485 41.78020976 -30 38 C-30.68707031 37.81824219 -31.37414062 37.63648438 -32.08203125 37.44921875 C-33.43361328 37.07216797 -33.43361328 37.07216797 -34.8125 36.6875 C-35.70582031 36.44386719 -36.59914063 36.20023438 -37.51953125 35.94921875 C-40.07544916 34.97112733 -41.34777251 34.16060518 -43 32 C-42.875 29.875 -42.875 29.875 -42 28 C-39.11079306 27.03693102 -37.07752119 26.8044064 -34.0625 26.75 C-33.20785156 26.72421875 -32.35320312 26.6984375 -31.47265625 26.671875 C-28.52219666 27.06340518 -27.28648402 28.16694097 -25 30 C-24.65332275 29.48203857 -24.30664551 28.96407715 -23.94946289 28.43041992 C-4.86438797 0 -4.86438797 0 0 0 Z M-38 30 C-38 30.66 -38 31.32 -38 32 C-35.47524538 33.26237731 -33.68799534 33.09856404 -30.875 33.0625 C-29.96492188 33.05347656 -29.05484375 33.04445312 -28.1171875 33.03515625 C-27.06917969 33.01775391 -27.06917969 33.01775391 -26 33 C-26 32.34 -26 31.68 -26 31 C-29.9813783 29.6728739 -33.85045227 29.93084087 -38 30 Z M-25 37 C-24.57576756 38.46224799 -24.13509755 39.91973412 -23.6875 41.375 C-23.44386719 42.18710938 -23.20023438 42.99921875 -22.94921875 43.8359375 C-22.08631815 46.33184629 -22.08631815 46.33184629 -19 48 C-19.25176486 42.66108218 -19.25176486 42.66108218 -21.4375 38 C-22.97157334 36.82031543 -22.97157334 36.82031543 -25 37 Z M-40 55 C-44.96264614 57.17659919 -47.62904069 58.97914499 -50 64 C-43.54972485 63.73672346 -40.52084209 61.49335977 -36 57 C-37.79491686 55.82322835 -37.79491686 55.82322835 -40 55 Z M-41 65 C-40.67 66.98 -40.34 68.96 -40 71 C-36.32769295 67.92000054 -35.43197635 65.7517398 -35 61 C-37.22114466 61 -39.35878948 63.65336573 -41 65 Z " fill="#1A1A1A" transform="translate(144,207)"/>
<path d="M0 0 C0.5326514 6.258654 -1.18150494 10.45108785 -4 16 C-2.89140625 15.71125 -1.7828125 15.4225 -0.640625 15.125 C0.82285243 14.74974938 2.28639768 14.37476322 3.75 14 C4.84441406 13.71382812 4.84441406 13.71382812 5.9609375 13.421875 C9.44571646 12.53484036 12.38123722 12 16 12 C16.0928125 10.63875 16.0928125 10.63875 16.1875 9.25 C17.21892793 5.12428827 18.40258231 4.18973251 22 2 C26.76637952 0.18010964 30.03919872 -0.20995153 35 1 C34.25 7.625 34.25 7.625 32 11 C32.804375 11.7425 33.60875 12.485 34.4375 13.25 C36.76988591 15.75304829 37.63534394 16.7180955 38 20 C33.74672132 22.12663934 29.67976809 22.71996432 25 22 C17.65254237 19.30508475 17.65254237 19.30508475 16 16 C-2.51710644 19.11349577 -21.51717817 23.62348818 -37.92578125 33.06640625 C-40 34 -40 34 -43 33 C-43 32.34 -43 31.68 -43 31 C-36.59972371 25.68563177 -28.43375339 23.12758366 -20.69018555 20.44848633 C-12.03948252 17.52662752 -12.03948252 17.52662752 -6 11 C-5.27954633 7.84881675 -5.27954633 7.84881675 -5 5 C-9.4008703 8.82180842 -10.80805531 11.47371099 -12 17 C-12.66 17 -13.32 17 -14 17 C-14.41813284 10.93707386 -14.13274522 7.80292012 -10 3 C-6.58163714 0.37049011 -4.29412301 -0.36806769 0 0 Z M20 8 C19.03780298 10.62766389 19.03780298 10.62766389 19 13 C25.82377001 10.79809915 25.82377001 10.79809915 31 6 C31 5.34 31 4.68 31 4 C26.19463689 3.43466316 23.65027258 4.93045261 20 8 Z M22 15 C22 15.66 22 16.32 22 17 C24.40545638 18.20272819 25.94996953 18.10071472 28.625 18.0625 C29.44226563 18.05347656 30.25953125 18.04445312 31.1015625 18.03515625 C31.72804688 18.02355469 32.35453125 18.01195312 33 18 C32.31796469 14.85370305 32.31796469 14.85370305 29.75 13.6875 C26.4162184 12.8540546 25.00241256 13.45590211 22 15 Z " fill="#1A1A1A" transform="translate(79,131)"/>
<path d="M0 0 C2.4375 1.625 2.4375 1.625 4 4 C4.1875 7 4.1875 7 3 10 C-2.36781334 14.60098286 -8.68144814 14.8680679 -15.4765625 15.60546875 C-18.37504201 15.93002133 -21.15506328 16.37324191 -24 17 C-23.979375 18.27875 -23.95875 19.5575 -23.9375 20.875 C-23.875 24.75 -23.875 24.75 -25 27 C-26.65 27 -28.3 27 -30 27 C-28.53869727 31.915291 -27.86905288 32.07856827 -23 35 C-23.33 40.61 -23.66 46.22 -24 52 C-24.66 52 -25.32 52 -26 52 C-26 47.05 -26 42.1 -26 37 C-27.65 36.34 -29.3 35.68 -31 35 C-33.13738727 32.04836996 -33.26826038 29.57680512 -33 26 C-32.79375 25.34 -32.5875 24.68 -32.375 24 C-31.79469352 21.91376242 -31.79469352 21.91376242 -32.9375 19.75 C-34.38134296 16.0129947 -34.13534184 12.99258435 -34 9 C-32.88625 8.87625 -32.88625 8.87625 -31.75 8.75 C-28.86876531 8.21506748 -28.86876531 8.21506748 -27 5.9375 C-25 4 -25 4 -22.4375 3.875 C-21.633125 3.91625 -20.82875 3.9575 -20 4 C-19.01 3.34 -18.02 2.68 -17 2 C-14.66666667 2 -12.33333333 2 -10 2 C-6.34058513 0.22573824 -4.17624576 -0.52203072 0 0 Z " fill="#191919" transform="translate(221,30)"/>
<path d="M0 0 C7.046875 -0.3203125 7.046875 -0.3203125 10 2 C11.25 5.125 11.25 5.125 12 8 C9 8 9 8 6.9375 6 C6.298125 5.34 5.65875 4.68 5 4 C4.34 4 3.68 4 3 4 C5.88362881 7.31083308 7.6169224 8.59988503 12 9 C14.56826303 8.48577919 16.99085659 7.90233163 19.5 7.1875 C31.41550447 4.02563286 42.63817347 2.66639748 55 3 C55 3.99 55 4.98 55 6 C54.42258057 6.03963867 53.84516113 6.07927734 53.25024414 6.12011719 C33.56104494 7.53192072 17.05647803 11.06609299 -1 19 C-2.66334294 19.67491664 -4.32846366 20.34563887 -6 21 C-5.896875 22.03125 -5.79375 23.0625 -5.6875 24.125 C-6.10074555 29.24924487 -7.37200576 30.45446018 -11 34 C-14.03191641 36.08444253 -16.36109611 36.20216133 -20 36 C-19.67 33.69 -19.34 31.38 -19 29 C-20.98 28.01 -22.96 27.02 -25 26 C-25 23.75 -25 23.75 -24 21 C-21.01219456 18.54573124 -17.77958554 16.84440782 -13.85546875 17.1875 C-13.14003906 17.331875 -12.42460937 17.47625 -11.6875 17.625 C-5.53243732 18.7548629 -1.00626493 15.22833907 4 12 C3.360625 11.278125 2.72125 10.55625 2.0625 9.8125 C0.00048655 7.00066348 -0.72205734 5.42795945 -1 2 C-0.67 1.34 -0.34 0.68 0 0 Z M-21 23 C-21 23.66 -21 24.32 -21 25 C-18.62625139 25.33425735 -18.62625139 25.33425735 -16 25 C-14.15684329 23.0995533 -14.15684329 23.0995533 -13 21 C-16.76687864 21 -17.91190305 21.23537317 -21 23 Z M-11 23 C-12.35712166 24.55855981 -12.35712166 24.55855981 -13.625 26.5 C-14.07101562 27.1496875 -14.51703125 27.799375 -14.9765625 28.46875 C-15.31429688 28.9740625 -15.65203125 29.479375 -16 30 C-15.67 30.66 -15.34 31.32 -15 32 C-10.71929002 28.22406041 -10.71929002 28.22406041 -9 23 C-9.66 23 -10.32 23 -11 23 Z " fill="#1A1A1A" transform="translate(286,15)"/>
<path d="M0 0 C4.29 0.33 8.58 0.66 13 1 C13 1.99 13 2.98 13 4 C11.02 4 9.04 4 7 4 C8.75454385 7.18234105 8.75454385 7.18234105 11 10 C11.04080783 11.99958364 11.04254356 14.00045254 11 16 C-5.23879527 15.27214055 -5.23879527 15.27214055 -11 12 C-12 9 -12 9 -11 6.9375 C-8.30877932 4.33037997 -5.57101322 3.9739127 -2 3 C-1.34 2.01 -0.68 1.02 0 0 Z " fill="#f00050" transform="translate(75,82)"/>
<path d="M0 0 C8.04770836 1.8502208 17.63352194 4.15774047 23 11 C23 12.32 23 13.64 23 15 C11.09351972 18.96882676 -3.61533034 17.1031659 -16 17 C-17.8731244 13.56061116 -18.13983963 11.66278115 -17.625 7.75 C-17.51414063 6.85796875 -17.40328125 5.9659375 -17.2890625 5.046875 C-17.19367188 4.37140625 -17.09828125 3.6959375 -17 3 C-16.01 2.67 -15.02 2.34 -14 2 C-14 5.96 -14 9.92 -14 14 C-13.08992187 13.8453125 -12.17984375 13.690625 -11.2421875 13.53125 C-4.8491376 12.61657687 1.63227255 12.60677273 8.078125 12.39453125 C9.08101563 12.35714844 10.08390625 12.31976563 11.1171875 12.28125 C12.03097168 12.25095703 12.94475586 12.22066406 13.88623047 12.18945312 C15.9846525 12.2290675 15.9846525 12.2290675 17 11 C15.10545176 10.03912864 13.20930419 9.08141031 11.3125 8.125 C10.25675781 7.59132813 9.20101563 7.05765625 8.11328125 6.5078125 C5.44004095 5.21311895 2.7728867 4.05976746 0 3 C0 2.01 0 1.02 0 0 Z " fill="#1A1A1A" transform="translate(259,322)"/>
<path d="M0 0 C0.66 0.33 1.32 0.66 2 1 C2 1.99 2 2.98 2 4 C2.99 3.67 3.98 3.34 5 3 C4.835 3.639375 4.67 4.27875 4.5 4.9375 C3.96073333 6.80826821 3.96073333 6.80826821 4 8 C4.66 8 5.32 8 6 8 C5.875 9.8125 5.875 9.8125 5 12 C1.79116175 13.95320589 -0.2205439 15 -4 15 C-4 15.66 -4 16.32 -4 17 C-3.071875 16.505 -2.14375 16.01 -1.1875 15.5 C2 14 2 14 5 14 C4.00225828 16.55872472 3.35661889 17.78313716 0.9765625 19.23046875 C0.20054687 19.54628906 -0.57546875 19.86210938 -1.375 20.1875 C-2.53128906 20.67283203 -2.53128906 20.67283203 -3.7109375 21.16796875 C-7.87457146 22.68137154 -11.3007061 23.11546778 -15.75 23.0625 C-16.73484375 23.05347656 -17.7196875 23.04445313 -18.734375 23.03515625 C-19.48203125 23.02355469 -20.2296875 23.01195313 -21 23 C-21 22.01 -21 21.02 -21 20 C-14.07 19.01 -14.07 19.01 -7 18 C-7.99 15.03 -8.98 12.06 -10 9 C-11.65 9 -13.3 9 -15 9 C-15 8.01 -15 7.02 -15 6 C-13.87851562 5.60167969 -13.87851562 5.60167969 -12.734375 5.1953125 C-11.74953125 4.84210937 -10.7646875 4.48890625 -9.75 4.125 C-8.77546875 3.77695312 -7.8009375 3.42890625 -6.796875 3.0703125 C-4.04565543 2.08449066 -4.04565543 2.08449066 -1.765625 0.8046875 C-1.18296875 0.53914063 -0.6003125 0.27359375 0 0 Z M-4 10 C-4.33 10.66 -4.66 11.32 -5 12 C-3.35 11.67 -1.7 11.34 0 11 C-1.32 10.67 -2.64 10.34 -4 10 Z " fill="#1A1A1A" transform="translate(354,59)"/>
<path d="M0 0 C1.3303125 0.25716797 1.3303125 0.25716797 2.6875 0.51953125 C5 1.1875 5 1.1875 7 3.1875 C6.79744564 11.28967444 2.04200041 18.4491668 -3.375 24.125 C-9.65209207 29.97810397 -14.45053868 31.56237137 -23.05859375 31.29296875 C-23.69925781 31.25816406 -24.33992188 31.22335938 -25 31.1875 C-24.505 29.7025 -24.505 29.7025 -24 28.1875 C-23.34773438 28.08953125 -22.69546875 27.9915625 -22.0234375 27.890625 C-12.92233258 26.3335038 -7.36080507 22.67154528 -2 15.1875 C0.91791382 10.47179036 0.91791382 10.47179036 2 5.1875 C-0.97 4.1975 -3.94 3.2075 -7 2.1875 C-7 1.5275 -7 0.8675 -7 0.1875 C-4.31943083 -1.15278459 -2.91141236 -0.58820686 0 0 Z " fill="#f00050" transform="translate(127,26.8125)"/>
<path d="M0 0 C5.22582023 0.12580678 10.27719357 0.63859679 15 3 C15 3.99 15 4.98 15 6 C10.61492059 5.47973634 6.32501905 4.90136124 2 4 C2.69520048 19.08657827 2.69520048 19.08657827 9.81640625 31.76171875 C11.7021515 33.37456731 11.7021515 33.37456731 13.609375 34.7109375 C14.06828125 35.13632812 14.5271875 35.56171875 15 36 C15 36.99 15 37.98 15 39 C9.65059707 37.95621406 6.8655411 35.48662172 3.546875 31.375 C-2.26169264 22.45679513 -1.60649444 11.24042535 -1 1 C-0.67 0.67 -0.34 0.34 0 0 Z " fill="#f00050" transform="translate(54,10)"/>
<path d="M0 0 C-0.33 0.99 -0.66 1.98 -1 3 C-2.92578125 3.7734375 -2.92578125 3.7734375 -5.3125 4.375 C-9.6343167 5.70584514 -11.69616988 6.94525899 -14 11 C-14.83730774 13.32800591 -15.43131816 15.58310219 -16 18 C-9.2646132 15.21294339 -5.91964114 12.11701572 -2 6 C-1.01 6.33 -0.02 6.66 1 7 C-1.21442727 12.94398898 -3.60193915 17.12212427 -9.375 20.3125 C-12.64727604 21.16952468 -15.63275873 21.13204868 -19 21 C-20.75465546 17.49068908 -19.80042655 13.73742475 -19 10 C-14.88022885 1.60200496 -8.87947689 -0.62312119 0 0 Z " fill="#1A1A1A" transform="translate(346,290)"/>
<path d="M0 0 C0.66 0 1.32 0 2 0 C2.12375 0.928125 2.12375 0.928125 2.25 1.875 C2.81258459 4.18437567 2.81258459 4.18437567 5.0625 5.25 C5.701875 5.4975 6.34125 5.745 7 6 C7.28571429 13.42857143 7.28571429 13.42857143 5 17 C4.34 17 3.68 17 3 17 C3.02320313 17.61488281 3.04640625 18.22976562 3.0703125 18.86328125 C3.09738281 20.07564453 3.09738281 20.07564453 3.125 21.3125 C3.14820313 22.11300781 3.17140625 22.91351563 3.1953125 23.73828125 C3 26 3 26 1 29 C0.75944532 31.05709596 0.75944532 31.05709596 0.875 33.1875 C0.91625 34.445625 0.9575 35.70375 1 37 C0.01 37 -0.98 37 -2 37 C-2.33 35.35 -2.66 33.7 -3 32 C-4.216875 32.20625 -5.43375 32.4125 -6.6875 32.625 C-10.33498727 33.07123515 -12.79839616 33.03738426 -16 31 C-16.8125 28.875 -16.8125 28.875 -17 27 C-16.2265625 27.2165625 -16.2265625 27.2165625 -15.4375 27.4375 C-9.58241521 28.90853401 -9.58241521 28.90853401 -3.6875 28.375 C-1.39859126 26.50996325 -0.92182933 24.791053 0 22 C0.27165531 19.39509291 0.27165531 19.39509291 0.1953125 16.69921875 C0.18886719 15.72275391 0.18242187 14.74628906 0.17578125 13.74023438 C0.15902344 12.73283203 0.14226562 11.72542969 0.125 10.6875 C0.11597656 9.66076172 0.10695312 8.63402344 0.09765625 7.57617188 C0.07416201 5.05054101 0.04131131 2.5253919 0 0 Z M3 7 C3 9.64 3 12.28 3 15 C3.33 15 3.66 15 4 15 C4 12.36 4 9.72 4 7 C3.67 7 3.34 7 3 7 Z " fill="#1A1A1A" transform="translate(218,44)"/>
<path d="M0 0 C7.49712093 0.33320537 11.93229242 1.8493814 17.3125 7.375 C19.20093284 10.3125622 19.6790093 12.54935001 20 16 C19.01 16 18.02 16 17 16 C15.7890625 14.35546875 15.7890625 14.35546875 14.625 12.1875 C12.04428196 7.80105432 9.61959197 5.77879761 4.6875 4.3125 C4.130625 4.209375 3.57375 4.10625 3 4 C5.67205058 10.38323194 9.55849218 14.27474669 16 17 C15.67 17.99 15.34 18.98 15 20 C8.94452372 18.57518205 5.06470259 16.80209637 1.25 11.625 C-0.70884031 7.51143535 -1.4534019 4.3602057 0 0 Z " fill="#1A1A1A" transform="translate(17,205)"/>
<path d="M0 0 C6.8209917 0.34683009 10.99573428 1.89559209 15.875 6.9375 C17.2451313 9.44940739 17.23497727 11.18027277 17 14 C14 13 14 13 12.25 10.125 C9.42533924 6.20186006 7.4792139 5.55049712 3 4 C4.73237596 9.08560897 4.73237596 9.08560897 8.375 12.8125 C10.89374153 13.95193069 13.40831336 15.03737354 16 16 C16 16.66 16 17.32 16 18 C10.92145615 18.63481798 7.87919513 17.33242042 3.76953125 14.55859375 C0.21013636 11.42349759 -0.84124588 7.8256724 -1.25 3.125 C-1 1 -1 1 0 0 Z " fill="#1A1A1A" transform="translate(356,123)"/>
<path d="M0 0 C0.804375 0.185625 1.60875 0.37125 2.4375 0.5625 C3.283125 0.706875 4.12875 0.85125 5 1 C5.33 0.67 5.66 0.34 6 0 C10.62007558 -0.42000687 13.30765965 0.15162316 17 3 C17.33 3.99 17.66 4.98 18 6 C14 6 14 6 11 4 C10.01 4 9.02 4 8 4 C8.680625 5.093125 9.36125 6.18625 10.0625 7.3125 C11.22265625 9.17578125 11.22265625 9.17578125 12 11 C11.67 11.99 11.34 12.98 11 14 C10.01 13.67 9.02 13.34 8 13 C6.8125 9.9375 6.8125 9.9375 6 7 C5.01 7.495 5.01 7.495 4 8 C4 9.32 4 10.64 4 12 C4 12.66 4 13.32 4 14 C2.02 14.33 0.04 14.66 -2 15 C-3.28571429 7.57142857 -3.28571429 7.57142857 -2 4 C-0.7934375 4.0309375 -0.7934375 4.0309375 0.4375 4.0625 C2.93354885 4.29633621 2.93354885 4.29633621 4 3 C2.35 2.67 0.7 2.34 -1 2 C-0.67 1.34 -0.34 0.68 0 0 Z " fill="#1A1A1A" transform="translate(75,67)"/>
<path d="M0 0 C3.07522923 -0.45003355 5.21819177 -0.47194521 7.921875 1.16015625 C10.90509679 3.57015567 12.73120412 5.17569264 13.9375 8.875 C13.958125 9.57625 13.97875 10.2775 14 11 C13.01 11 12.02 11 11 11 C10.54625 10.236875 10.0925 9.47375 9.625 8.6875 C7.78501462 5.64444726 6.12128885 4.602824 3 3 C3.56031273 5.93638223 3.56031273 5.93638223 5 9 C8.0005907 10.91839859 8.0005907 10.91839859 11 12 C11 12.66 11 13.32 11 14 C7.10496422 14.45291114 5.42316144 14.28517401 2.125 12.0625 C-0.72418203 7.9563259 -0.47493725 4.84435994 0 0 Z " fill="#1A1A1A" transform="translate(155,13)"/>
<path d="M0 0 C-0.47424857 4.26823714 -2.95761403 6.17492731 -6 9 C-6.804375 9.8971875 -6.804375 9.8971875 -7.625 10.8125 C-9 12 -9 12 -12 12 C-11.40323978 8.70326367 -10.31828226 6.8276819 -8.125 4.3125 C-7.61195313 3.71050781 -7.09890625 3.10851563 -6.5703125 2.48828125 C-4.53523331 0.55951217 -2.79558969 0 0 0 Z " fill="#1A1A1A" transform="translate(342,57)"/>
<path d="M0 0 C0.99 0.33 1.98 0.66 3 1 C4.1875 4.5625 4.1875 4.5625 5 8 C3.35 8.33 1.7 8.66 0 9 C0 8.34 0 7.68 0 7 C0.66 7 1.32 7 2 7 C1.34 4.69 0.68 2.38 0 0 Z " fill="#1A1A1A" transform="translate(209,52)"/>
<path d="M0 0 C0.99 0 1.98 0 3 0 C3 0.66 3 1.32 3 2 C4.65 1.67 6.3 1.34 8 1 C7.67 1.99 7.34 2.98 7 4 C5.35 4 3.7 4 2 4 C1.34 2.68 0.68 1.36 0 0 Z " fill="#1A1A1A" transform="translate(203,62)"/>
<path d="M0 0 C1.98 0 3.96 0 6 0 C6 0.99 6 1.98 6 3 C4.02 3 2.04 3 0 3 C0 2.01 0 1.02 0 0 Z " fill="#1A1A1A" transform="translate(82,83)"/>
<path d="M0 0 C0 0.66 0 1.32 0 2 C-1.98 2.33 -3.96 2.66 -6 3 C-6 2.01 -6 1.02 -6 0 C-3.50907189 -1.24546405 -2.58919267 -0.7767578 0 0 Z " fill="#1A1A1A" transform="translate(217,47)"/>
<path d="M0 0 C1.32 0 2.64 0 4 0 C3.67 0.99 3.34 1.98 3 3 C0.9375 3.6875 0.9375 3.6875 -1 4 C-1 1 -1 1 0 0 Z " fill="#1A1A1A" transform="translate(202,49)"/>
<path d="M0 0 C0.99 0 1.98 0 3 0 C3 0.66 3 1.32 3 2 C2.01 2.33 1.02 2.66 0 3 C0 2.01 0 1.02 0 0 Z " fill="#1A1A1A" transform="translate(204,54)"/>
<path d="M0 0 C0.99 0 1.98 0 3 0 C3 0.66 3 1.32 3 2 C2.01 2 1.02 2 0 2 C0 1.34 0 0.68 0 0 Z " fill="#191919" transform="translate(213,52)"/>
</svg>
