<?xml version="1.0" encoding="UTF-8"?>
<svg version="1.1" xmlns="http://www.w3.org/2000/svg" width="400" height="400">
<path d="M0 0 C3.63 0 7.26 0 11 0 C11.22786458 2.21354167 11.45572917 4.42708333 11.68359375 6.640625 C12.24119331 10.7985279 13.04108572 13.35640603 15.71484375 16.640625 C19.75356316 21.84238954 22.80008499 27.51433566 25.94335938 33.28515625 C28.44283783 37.74368539 30.54256159 41.22648277 35 44 C35.66 44 36.32 44 37 44 C37 43.01 37 42.02 37 41 C36.18015625 40.27167969 35.3603125 39.54335938 34.515625 38.79296875 C31.20972127 35.12259427 31.50295464 33.16314053 31.75 28.3125 C32.19789367 23.51832075 32.19789367 23.51832075 31 19 C30.42910916 12.83437892 30.42910916 12.83437892 32.625 9.625 C35.56278062 7.61493957 37.4396496 7.07266021 41 7 C46.16354542 8.98597901 49.84462328 13.58753469 53 18 C54.72043944 22.58783851 53.76041937 25.81417352 51.96484375 30.19140625 C51 32 51 32 48.875 34.0625 C46.23043503 36.79521713 46.2843527 39.30341493 46 43 C50.5538166 41.0093316 53.20656134 39.03965201 56.25 35.125 C57.38695312 33.67287109 57.38695312 33.67287109 58.546875 32.19140625 C58.94197266 31.67594238 59.33707031 31.16047852 59.74414062 30.62939453 C61.06650354 28.91371606 62.41383402 27.2199105 63.765625 25.52734375 C64.67786916 24.37301642 65.58934355 23.21808029 66.5 22.0625 C67.1501709 21.24773193 67.1501709 21.24773193 67.81347656 20.41650391 C69.94300907 17.67304442 71.52484161 15.47231131 72 12 C72.185625 10.7625 72.37125 9.525 72.5625 8.25 C72.706875 7.1775 72.85125 6.105 73 5 C73.66 5 74.32 5 75 5 C75.33 4.34 75.66 3.68 76 3 C78.4375 3.375 78.4375 3.375 81 4 C81.33 4.66 81.66 5.32 82 6 C82.66 6 83.32 6 84 6 C84.8125 8.625 84.8125 8.625 85 12 C83.37873325 14.03697617 81.71140469 16.03814584 80 18 C79.16643587 20.54412036 79.16643587 20.54412036 80 23 C80.74507812 23.721875 81.49015625 24.44375 82.2578125 25.1875 C85.35470947 28.36380459 87.33496265 31.60087021 89.5 35.4375 C92.30652477 40.38114875 95.24307768 44.72054799 99 49 C99 47.02 99 45.04 99 43 C98.34 42.67 97.68 42.34 97 42 C95.80746898 37.1106228 94.58691834 30.45429972 97.1875 25.9375 C99 25 99 25 101.25 25.125 C109.51549296 27.75492958 109.51549296 27.75492958 112.9375 30.625 C114.60184417 34.34529874 114.19932938 37.99126461 114 42 C114 42.99 114 43.98 114 45 C116.95149988 41.50977976 119.88378434 38.00534696 122.78613281 34.47412109 C123.76471298 33.28573271 124.75208173 32.10458431 125.7421875 30.92578125 C129.15287445 26.59683243 129.54212386 23.3113632 130 18 C130.99 17.505 130.99 17.505 132 17 C132 19.64 132 22.28 132 25 C132.99 25 133.98 25 135 25 C134.2981424 22.1490712 134.2981424 22.1490712 133 21 C132.95919217 19.00041636 132.95745644 16.99954746 133 15 C134.9375 15.375 134.9375 15.375 137 16 C137.33 16.66 137.66 17.32 138 18 C138.66 18.33 139.32 18.66 140 19 C140.33 19.99 140.66 20.98 141 22 C140.06235423 23.3196496 139.12148073 24.63708105 138.16796875 25.9453125 C136.65004136 28.6156463 135.94942386 31.29320556 135.125 34.25 C133.57104101 39.64603081 131.48178646 43.82541746 128.45703125 48.51953125 C123.39251494 57.14142899 121.83054204 65.99705068 121.9375 75.8125 C121.94426758 76.99489258 121.94426758 76.99489258 121.95117188 78.20117188 C121.96288688 80.13414761 121.98082002 82.06708393 122 84 C124.84790485 84.33427606 124.84790485 84.33427606 128 84 C130.06458531 82.296767 130.06458531 82.296767 131.625 80 C133.2890625 77.75 133.2890625 77.75 135 76 C136.32 76 137.64 76 139 76 C138.02306018 78.93081946 137.35852855 80.69662969 134.96875 82.71875 C132.26134067 85.85590684 132.40145687 88.16066462 132.25 92.25 C132.19328125 93.51328125 132.1365625 94.7765625 132.078125 96.078125 C132.05234375 97.04234375 132.0265625 98.0065625 132 99 C129.36 99 126.72 99 124 99 C124 103.95 124 108.9 124 114 C125.23153809 113.96447021 126.46307617 113.92894043 127.73193359 113.89233398 C132.29022752 113.76220895 136.84868574 113.6389631 141.40722656 113.51782227 C143.3822134 113.46436959 145.35715029 113.40903775 147.33203125 113.35180664 C150.16655708 113.26998674 153.00119236 113.19487082 155.8359375 113.12109375 C156.72243988 113.09405869 157.60894226 113.06702362 158.52230835 113.03916931 C164.77225659 112.88612829 164.77225659 112.88612829 167 114 C168.85754155 137.73525313 156.1977847 159.6612572 141.3046875 177.22265625 C128.38046231 192.01235269 108.2781595 209.36120126 87.70996094 211.20532227 C86.89301758 211.24197998 86.07607422 211.2786377 85.234375 211.31640625 C83.90019531 211.37924805 83.90019531 211.37924805 82.5390625 211.44335938 C81.61867187 211.48267578 80.69828125 211.52199219 79.75 211.5625 C78.81414062 211.60568359 77.87828125 211.64886719 76.9140625 211.69335938 C74.60951359 211.7991805 72.30486161 211.90126557 70 212 C69.0341016 214.80435207 68.100684 217.56623124 67.4296875 220.45703125 C65.76722301 227.51665158 62.47993911 232.26005267 57 237 C54.64326646 238.39100438 52.63028079 239.17803725 50 240 C50.3257416 247.94809502 51.41121377 254.60009726 57.375 260.25 C59.30293857 261.53529238 61.24213721 262.80373584 63.1875 264.0625 C66 266 66 266 68 269 C68.3125 272.5 68.3125 272.5 68 276 C67.0206121 277.02019573 66.02104551 278.02149805 65 279 C64.57548375 282.99045275 64.89117489 285.60131098 67 289 C70.74802019 291.77142338 74.83189672 293.1519921 79.4375 293.625 C80.613125 293.74875 81.78875 293.8725 83 294 C84.4783226 296.95664519 84.06032783 299.74229737 84 303 C84.63808594 302.98839844 85.27617187 302.97679687 85.93359375 302.96484375 C87.17302734 302.95130859 87.17302734 302.95130859 88.4375 302.9375 C89.26121094 302.92589844 90.08492187 302.91429687 90.93359375 302.90234375 C93 303 93 303 94 304 C94.12337174 305.84031989 94.17791308 307.68529411 94.20532227 309.52954102 C94.22526749 310.71068985 94.24521271 311.89183868 94.26576233 313.10877991 C94.29083107 315.03686745 94.29083107 315.03686745 94.31640625 317.00390625 C94.3475779 318.9661338 94.3475779 318.9661338 94.37937927 320.96800232 C94.434663 324.45155447 94.48404431 327.9351666 94.53222656 331.41882324 C94.58239574 334.9713273 94.63810567 338.5237439 94.69335938 342.07617188 C94.80101791 349.05070546 94.90244567 356.02531798 95 363 C97.31 363.33 99.62 363.66 102 364 C103 367 103 367 102 374 C62.07 374 22.14 374 -19 374 C-19.33 371.03 -19.66 368.06 -20 365 C-16.62902617 363.50178941 -14.79557881 363 -11 363 C-11.00222061 362.26306412 -11.00444122 361.52612823 -11.00672913 360.76686096 C-11.02673203 353.83587231 -11.04197413 346.90488796 -11.05181217 339.97387791 C-11.05703995 336.41022578 -11.06413569 332.84659743 -11.07543945 329.28295898 C-11.08834176 325.18993903 -11.09322906 321.0969442 -11.09765625 317.00390625 C-11.10281754 315.71851456 -11.10797882 314.43312286 -11.11329651 313.10877991 C-11.11337204 311.92763107 -11.11344757 310.74648224 -11.11352539 309.52954102 C-11.115746 308.48363297 -11.11796661 307.43772491 -11.12025452 306.36012268 C-11 304 -11 304 -10 303 C-8.48071962 302.92820036 -6.95832518 302.91607993 -5.4375 302.9375 C-4.61121094 302.94652344 -3.78492188 302.95554687 -2.93359375 302.96484375 C-2.29550781 302.97644531 -1.65742188 302.98804688 -1 303 C-1.020625 301.700625 -1.04125 300.40125 -1.0625 299.0625 C-1.08399454 297.70834367 -1.07148199 296.35243917 -1 295 C0.59744463 293.40255537 2.55704994 293.49481702 4.75 293.125 C8.7564054 292.36950641 11.60685188 291.33278933 15 289 C15.66 289 16.32 289 17 289 C17.2493357 287.39884424 17.47378648 285.79379841 17.6875 284.1875 C17.81511719 283.29417969 17.94273437 282.40085937 18.07421875 281.48046875 C18.26598194 278.94560269 18.26598194 278.94560269 16.546875 277.38671875 C16.03640625 276.92910156 15.5259375 276.47148437 15 276 C14.4927776 272.08714148 14.52776295 269.82641484 16.5 266.375 C18.66092601 264.32212029 20.46531255 263.05210177 23 261.5625 C27.85503746 258.67474538 30.0480733 255.23702774 32.25 250.0625 C33.09433459 246.61480044 33.14146476 243.53661912 33 240 C31.2365625 239.2575 31.2365625 239.2575 29.4375 238.5 C23.70199836 235.59157187 19.42001489 231.48549109 16.96875 225.46875 C16.22299855 222.99285517 15.61030135 220.51207912 15 218 C14.34828217 215.99507897 13.68484376 213.99384891 13 212 C12.43716309 211.99589111 11.87432617 211.99178223 11.29443359 211.98754883 C-3.9853266 211.79293195 -15.80069622 210.30121543 -28.6875 201.5625 C-33.17083876 198.63739483 -35.62559566 197.45915388 -40.9375 198.5 C-42.62810846 198.98938666 -44.31603887 199.48820789 -46 200 C-49.6875 200.125 -49.6875 200.125 -52 200 C-52 199.34 -52 198.68 -52 198 C-50.75108386 197.51801537 -49.50081192 197.03954323 -48.25 196.5625 C-47.55390625 196.29566406 -46.8578125 196.02882812 -46.140625 195.75390625 C-44 195 -44 195 -40 194 C-42.97 191.36 -45.94 188.72 -49 186 C-50.32 186.99 -51.64 187.98 -53 189 C-53.99 189 -54.98 189 -56 189 C-55.38722388 186.03824877 -54.74627478 184.61941217 -53 182 C-53.96099609 180.98292969 -53.96099609 180.98292969 -54.94140625 179.9453125 C-67.75123873 166.16185639 -77.45286301 151.0460508 -83 133 C-83.20625 132.36835938 -83.4125 131.73671875 -83.625 131.0859375 C-84.21187088 127.82146821 -84.10309722 124.55398946 -84.0625 121.25 C-84.05798828 120.55261719 -84.05347656 119.85523438 -84.04882812 119.13671875 C-84.0371002 117.42444197 -84.01916653 115.71220967 -84 114 C-76.3693201 110.18466005 -62.58209134 113.17356818 -54.1875 113.5 C-52.91068359 113.54769531 -51.63386719 113.59539062 -50.31835938 113.64453125 C-47.21215822 113.76086837 -44.1060666 113.88012424 -41 114 C-41 109.05 -41 104.1 -41 99 C-43.64 99 -46.28 99 -49 99 C-49 94.71 -49 90.42 -49 86 C-45.93466836 84.46733418 -42.73245728 84.89723529 -39.375 84.9375 C-38.31539062 84.94426758 -38.31539062 84.94426758 -37.234375 84.95117188 C-35.48954725 84.96296125 -33.744763 84.98089676 -32 85 C-34.4214604 72.18925697 -37.39511738 60.49094385 -43.0625 48.671875 C-43.42311523 47.9185791 -43.78373047 47.1652832 -44.15527344 46.38916016 C-44.86577319 44.91967427 -45.58718429 43.45539564 -46.32128906 41.99755859 C-48.46700575 37.62391783 -49.4327665 33.89162654 -50 29 C-51.48800372 26.7927642 -51.48800372 26.7927642 -53 25 C-53 24.01 -53 23.02 -53 22 C-52.34 22 -51.68 22 -51 22 C-51 21.01 -51 20.02 -51 19 C-49.02 18.34 -47.04 17.68 -45 17 C-45 18.98 -45 20.96 -45 23 C-46.32 23.33 -47.64 23.66 -49 24 C-48.34 24.99 -47.68 25.98 -47 27 C-46.34 27 -45.68 27 -45 27 C-44.67 24.03 -44.34 21.06 -44 18 C-43.34 18.33 -42.68 18.66 -42 19 C-42.185625 20.7634375 -42.185625 20.7634375 -42.375 22.5625 C-42.35268251 26.85489666 -40.94690302 28.58903769 -37.93359375 31.66015625 C-35.18319783 34.98841313 -33.20378267 38.66402626 -31.125 42.4375 C-30.71967041 43.17291016 -30.31434082 43.90832031 -29.89672852 44.66601562 C-28.92503902 46.44067682 -27.96165016 48.21987871 -27 50 C-26.96261719 49.05898438 -26.92523438 48.11796875 -26.88671875 47.1484375 C-26.82097656 45.90320312 -26.75523437 44.65796875 -26.6875 43.375 C-26.60048828 41.53035156 -26.60048828 41.53035156 -26.51171875 39.6484375 C-25.97545799 35.8250211 -24.9977769 33.28523313 -23 30 C-19.86128812 28.43064406 -17.46144178 28.64798897 -14 29 C-10.6406456 31.16491728 -9.29221357 32.91637467 -8.25 36.78125 C-7.74230676 39.51715248 -7.32422584 42.23682155 -7 45 C-6.34 45 -5.68 45 -5 45 C-3.21229093 42.8664718 -1.53127176 40.73155942 0.125 38.5 C0.82689453 37.56994141 0.82689453 37.56994141 1.54296875 36.62109375 C2.70096609 35.08497483 3.85121357 33.54301941 5 32 C6.485 32.495 6.485 32.495 8 33 C4.37787861 38.80362631 0.46382436 43.90995125 -4.265625 48.859375 C-6.11761612 51.14516584 -7.05097135 53.23038578 -8 56 C-11.465 56.495 -11.465 56.495 -15 57 C-17.12508244 53.81237635 -17.5020163 51.73487777 -18 48 C-19.96822886 49.96822886 -19.66248381 53.34808709 -20 56 C-23.09273799 56.35345577 -24.70133897 56.16847545 -27.4375 54.625 C-31.10744044 50.86554882 -33.41802781 46.54764449 -36 42 C-37.10058127 40.18532065 -38.20462511 38.37273576 -39.3125 36.5625 C-40.88949697 33.98384091 -42.03993174 31.88020478 -43 29 C-44.32 29.33 -45.64 29.66 -47 30 C-45.23056773 34.73788773 -43.32971415 39.38418304 -41.09375 43.921875 C-34.27531809 57.76301833 -31.20839412 69.29087639 -30 85 C-21.09 85 -12.18 85 -3 85 C-3.061875 82.07125 -3.12375 79.1425 -3.1875 76.125 C-3.23930274 61.46729161 2.01472953 51.62327704 9 39 C9.66 39 10.32 39 11 39 C10.6443396 38.23707642 10.6443396 38.23707642 10.28149414 37.45874023 C9.19897331 35.1226067 8.13069177 32.78021802 7.0625 30.4375 C6.68931641 29.63763672 6.31613281 28.83777344 5.93164062 28.01367188 C3.76957585 23.24154691 2.58647173 19.19160768 2 14 C1.01268258 12.65724831 0.01405257 11.32267727 -1 10 C-1.37431183 6.35045966 -0.73802143 3.69010715 0 0 Z M6 3 C6 3.99 6 4.98 6 6 C5.34 6 4.68 6 4 6 C4 6.66 4 7.32 4 8 C3.01 8.495 3.01 8.495 2 9 C3.32 10.32 4.64 11.64 6 13 C6.99 12.67 7.98 12.34 9 12 C9 10.02 9 8.04 9 6 C8.34 6 7.68 6 7 6 C6.67 5.01 6.34 4.02 6 3 Z M75 9 C75 10.98 75 12.96 75 15 C76.32 15 77.64 15 79 15 C79.33 14.01 79.66 13.02 80 12 C78.62514468 10.45833358 78.62514468 10.45833358 77 9 C76.34 9 75.68 9 75 9 Z M37 11 C37.66 11.66 38.32 12.32 39 13 C39.99 12.67 40.98 12.34 42 12 C40.35 11.67 38.7 11.34 37 11 Z M6.375 15.5 C5.92125 15.995 5.4675 16.49 5 17 C5.40089844 17.91136719 5.80179687 18.82273437 6.21484375 19.76171875 C7.43356894 22.53551981 8.64581488 25.31207565 9.85546875 28.08984375 C11.34315521 31.50547171 12.84933535 34.91234429 14.36328125 38.31640625 C21.15831941 53.70223491 24.35387127 67.2854621 26 84 C36.89 84 47.78 84 59 84 C59.12375 81.1125 59.2475 78.225 59.375 75.25 C60.11602109 61.35673821 62.37073736 51.19670164 68.95898438 38.9453125 C71.65740163 33.90286674 74.21212602 29.03634634 75.75 23.5 C76.11351562 22.21609375 76.11351562 22.21609375 76.484375 20.90625 C76.65453125 20.2771875 76.8246875 19.648125 77 19 C75.68 18.67 74.36 18.34 73 18 C72.61255615 18.53890869 72.2251123 19.07781738 71.82592773 19.63305664 C70.0363322 22.1143347 68.23700888 24.58840319 66.4375 27.0625 C65.82841797 27.91005859 65.21933594 28.75761719 64.59179688 29.63085938 C53.00238217 45.5126499 53.00238217 45.5126499 44 47 C39.05123257 47.16008671 34.80323183 47.08699489 30.4921875 44.48828125 C27.13536258 41.13671781 25.08053054 37.38804059 22.8125 33.25 C21.95075767 31.68896456 21.08261003 30.13144187 20.20703125 28.578125 C19.8303833 27.89137695 19.45373535 27.20462891 19.06567383 26.49707031 C18.71400146 26.00303711 18.3623291 25.50900391 18 25 C17.34 25 16.68 25 16 25 C16 25.66 16 26.32 16 27 C14.02 26.34 12.04 25.68 10 25 C10.33 24.01 10.66 23.02 11 22 C11.66 22.33 12.32 22.66 13 23 C13 22.34 13 21.68 13 21 C13.66 20.67 14.32 20.34 15 20 C13.38405168 17.95880212 11.7143618 15.95927063 10 14 C7.87635519 13.77390663 7.87635519 13.77390663 6.375 15.5 Z M36 23 C35.7763932 25.9254644 35.7763932 25.9254644 37 28 C36.01 28.33 35.02 28.66 34 29 C34.33 31.31 34.66 33.62 35 36 C38.47147842 36.74957157 38.47147842 36.74957157 42 37 C42 37.66 42 38.32 42 39 C41.34 39 40.68 39 40 39 C40 41.31 40 43.62 40 46 C41.32 45.67 42.64 45.34 44 45 C44.03738281 44.24074219 44.07476562 43.48148438 44.11328125 42.69921875 C44.17902344 41.70535156 44.24476563 40.71148437 44.3125 39.6875 C44.37050781 38.70136719 44.42851562 37.71523438 44.48828125 36.69921875 C45.05659895 33.70145133 45.76499605 32.9473895 48 31 C48 30.34 48 29.68 48 29 C47.34 29 46.68 29 46 29 C45.87625 28.195625 45.7525 27.39125 45.625 26.5625 C45.41875 25.716875 45.2125 24.87125 45 24 C42.04335481 22.5216774 39.25770263 22.93967217 36 23 Z M78 24 C77.01 27.3 76.02 30.6 75 34 C75.99 33.67 76.98 33.34 78 33 C78.37125 34.19625 78.7425 35.3925 79.125 36.625 C80.47194541 40.72328889 82.14789157 44.57645341 83.9375 48.5 C86.25236988 53.82650408 87.9765111 59.03723523 89.3125 64.6875 C89.47161865 65.35136719 89.6307373 66.01523438 89.79467773 66.69921875 C91.08660673 72.52392008 91.44834868 77.93183548 92 84 C100.91 84 109.82 84 119 84 C119.12375 81.421875 119.2475 78.84375 119.375 76.1875 C120.08466245 63.96876192 122.06673328 54.86244215 128 44 C130.61920631 39.04885517 132.63827169 34.44691323 134 29 C130.14704345 28.54049004 130.14704345 28.54049004 128.53955078 30.3894043 C128.09595215 31.02789307 127.65235352 31.66638184 127.1953125 32.32421875 C126.69386719 33.02353516 126.19242188 33.72285156 125.67578125 34.44335938 C124.90814453 35.55420898 124.90814453 35.55420898 124.125 36.6875 C120.47695257 41.90765995 117.09282873 46.13964999 112 50 C110.989375 50.78375 109.97875 51.5675 108.9375 52.375 C106 54 106 54 103.5 54 C93.86594824 50.14637929 89.9717101 42.4365887 85.35546875 33.79492188 C83.27282189 29.98389282 81.31572939 26.90126321 78 24 Z M109 32 C107.12456646 35.86763446 107.12456646 35.86763446 108 40 C107.34 40 106.68 40 106 40 C105.67 39.34 105.34 38.68 105 38 C103.68 38 102.36 38 101 38 C101.08715017 39.93833996 101.19532964 41.8757429 101.3125 43.8125 C101.37050781 44.89144531 101.42851562 45.97039063 101.48828125 47.08203125 C102.03068507 50.17497517 102.55289624 51.13022903 105 53 C105.66 51.68 106.32 50.36 107 49 C105.68 48.34 104.36 47.68 103 47 C103 46.34 103 45.68 103 45 C105.31 45.33 107.62 45.66 110 46 C112.2773501 43.18490007 112.2773501 43.18490007 112 40 C111.34 40 110.68 40 110 40 C110 39.01 110 38.02 110 37 C110.66 37 111.32 37 112 37 C111.65213292 35.02463255 111.65213292 35.02463255 111 33 C110.34 32.67 109.68 32.34 109 32 Z M-23 34 C-22.67 35.65 -22.34 37.3 -22 39 C-22.66 39 -23.32 39 -24 39 C-24 40.98 -24 42.96 -24 45 C-21.23735711 45.59732819 -18.83967231 46 -16 46 C-15.01 44.02 -14.02 42.04 -13 40 C-13.99 39.67 -14.98 39.34 -16 39 C-17.65177773 37.34822227 -18.17252291 35.15144042 -19 33 C-21.0745356 32.8509288 -21.0745356 32.8509288 -23 34 Z M74 34 C72.55352609 36.6412553 71.11782644 39.28751536 69.6875 41.9375 C69.28337891 42.67291016 68.87925781 43.40832031 68.46289062 44.16601562 C62.8891654 54.5431138 60.80765359 64.1881236 60.9375 75.9375 C60.958125 78.598125 60.97875 81.25875 61 84 C70.57 84 80.14 84 90 84 C90 65.94993571 83.14866278 49.85981346 75 34 C74.67 34 74.34 34 74 34 Z M11 39 C10.68869141 39.83917969 10.68869141 39.83917969 10.37109375 40.6953125 C7.81949011 47.33588767 4.75473633 53.58935296 1.48828125 59.8984375 C-0.40939761 63.85318033 -1.12885519 66.9602737 -1.09765625 71.328125 C-1.09515869 72.0490332 -1.09266113 72.76994141 -1.09008789 73.51269531 C-1.08098389 74.41600586 -1.07187988 75.31931641 -1.0625 76.25 C-1.041875 79.1375 -1.02125 82.025 -1 85 C11.375 84.505 11.375 84.505 24 84 C22.84096321 68.15983047 19.55179729 53.13363896 12 39 C11.67 39 11.34 39 11 39 Z M108 48 C108.33 48.66 108.66 49.32 109 50 C109.33 49.34 109.66 48.68 110 48 C109.34 48 108.68 48 108 48 Z M-46 89 C-46.16666667 92 -46.16666667 92 -46 95 C-44.90041483 96.32486564 -44.90041483 96.32486564 -42.15952969 96.12304783 C-40.23620862 96.12166514 -40.23620862 96.12166514 -38.27403259 96.12025452 C-37.56264006 96.12110894 -36.85124752 96.12196337 -36.11829764 96.12284368 C-33.71677952 96.12450057 -31.31533012 96.11897374 -28.91381836 96.11352539 C-27.19940696 96.11324354 -25.48499544 96.11340122 -23.77058411 96.1139679 C-19.10136027 96.11425594 -14.43216188 96.10835804 -9.76294398 96.10139394 C-4.88888473 96.09516161 -0.01482495 96.0945567 4.85923767 96.09336853 C14.0956943 96.09025486 23.33213915 96.08204098 32.56859058 96.07201904 C43.08110865 96.06085902 53.59362728 96.05534774 64.10614979 96.05032361 C85.73743978 96.0398584 107.36871915 96.02225826 129 96 C129.04241723 93.66705225 129.04092937 91.33297433 129 89 C127.1121046 87.1121046 123.82613257 87.87375866 121.31872559 87.87301636 C120.61212217 87.87145637 119.90551875 87.86989638 119.17750311 87.86828911 C116.79214278 87.86427675 114.40684526 87.86746965 112.02148438 87.87060547 C110.31854719 87.86925153 108.61561029 87.86747164 106.91267395 87.86529541 C102.27437694 87.86072017 97.63610206 87.86251101 92.99780464 87.8656745 C88.15490787 87.86819763 83.31201305 87.86586069 78.46911621 87.86428833 C70.33471332 87.8624665 62.20031949 87.8648733 54.06591797 87.86962891 C44.64728427 87.87507155 35.22867222 87.87330891 25.81003904 87.8678025 C17.73873061 87.86327176 9.6674287 87.86262063 1.5961194 87.86524117 C-3.23123753 87.86680416 -8.05858427 87.86699711 -12.88594055 87.86370468 C-17.42321605 87.86082653 -21.96046352 87.86280062 -26.49773598 87.86859894 C-28.16792568 87.86992684 -29.83811772 87.86953192 -31.5083065 87.86733627 C-33.7784786 87.86462593 -36.04855939 87.86800444 -38.31872559 87.87301636 C-39.59226646 87.87339338 -40.86580734 87.87377041 -42.17794037 87.87415886 C-44.90255486 87.67758658 -44.90255486 87.67758658 -46 89 Z M-37 99 C-37.01300614 101.89381344 -37.02252128 104.78756789 -37.0300293 107.68139648 C-37.0340551 108.49719933 -37.0380809 109.31300217 -37.0422287 110.15352631 C-37.05273306 115.55148738 -36.84070932 120.7508626 -35.8125 126.0625 C-35.677229 126.79815186 -35.54195801 127.53380371 -35.40258789 128.29174805 C-29.55848924 158.54602326 -14.75190222 187.51455129 10.66796875 205.8046875 C23.32853243 214.14611398 36.31396767 217.87641435 51.25 214.875 C72.02575694 209.7291528 88.68638282 193.69149594 99.7265625 175.86328125 C112.94131005 153.69137415 120.88369108 128.93688825 121 103 C120.67 102.01 120.34 101.02 120 100 C116.14720784 99.09721591 112.58139603 98.87648109 108.6282196 98.87974548 C107.34239487 98.87837082 106.05657013 98.87699615 104.73178101 98.87557983 C103.31426978 98.87911853 101.8967588 98.88275333 100.47924805 98.88647461 C98.98099265 98.8867568 97.48273712 98.88659813 95.98448181 98.8860321 C91.92291182 98.88574536 87.86137139 98.89162228 83.79980826 98.89860606 C79.55304855 98.90486 75.30628815 98.90544502 71.05952454 98.90663147 C63.02025994 98.90973876 54.98100895 98.91794405 46.94175035 98.92798096 C37.78824331 98.93916077 28.63473563 98.94465726 19.48122346 98.94967639 C0.65414126 98.96012715 -18.17292827 98.97771496 -37 99 Z M-81 117 C-80.2332092 138.24432375 -69.33827121 157.04372631 -56 173 C-55.02740234 174.16595703 -55.02740234 174.16595703 -54.03515625 175.35546875 C-52.70846256 176.91940649 -51.35807346 178.46323266 -50 180 C-48.35 179.34 -46.7 178.68 -45 178 C-45.66 179.65 -46.32 181.3 -47 183 C-33.20535614 196.44501003 -16.73887354 207.04481339 3.1875 207.125 C4.115625 207.08375 5.04375 207.0425 6 207 C4.85599278 205.82132589 3.7056961 204.6483473 2.53125 203.5 C1.51041667 202.5 0.51000071 201.47872416 -0.46875 200.4375 C-4.85977585 196.1325727 -8.90449744 195.10575304 -14.828125 193.81640625 C-35.60432169 188.46883838 -52.61488512 169.75305026 -63.22265625 151.94775391 C-64.35925176 149.92259114 -65.44305629 147.88025894 -66.5 145.8125 C-66.81388672 145.20857422 -67.12777344 144.60464844 -67.45117188 143.98242188 C-70.35256115 138.00822645 -71.30456511 132.78173955 -73 126 C-62.11 125.67 -51.22 125.34 -40 125 C-40 123.02 -40 121.04 -40 119 C-41.74280686 117.25719314 -44.17231352 117.76703718 -46.546875 117.68359375 C-47.70316406 117.64169922 -48.85945313 117.59980469 -50.05078125 117.55664062 C-51.27152344 117.51732422 -52.49226563 117.47800781 -53.75 117.4375 C-55.51150391 117.37272461 -55.51150391 117.37272461 -57.30859375 117.30664062 C-65.20850065 117.03288147 -73.09573113 116.94810661 -81 117 Z M137.3125 117.4375 C135.40307617 117.49647461 135.40307617 117.49647461 133.45507812 117.55664062 C131.64620117 117.61948242 131.64620117 117.61948242 129.80078125 117.68359375 C128.70934814 117.72025146 127.61791504 117.75690918 126.4934082 117.79467773 C124.05993841 117.7244981 124.05993841 117.7244981 123 119 C122.95919217 120.99958364 122.95745644 123.00045254 123 125 C124.28632324 125.03758423 124.28632324 125.03758423 125.59863281 125.07592773 C128.7893437 125.17123412 131.97990219 125.27045751 135.17041016 125.37231445 C136.54959378 125.4155455 137.92882685 125.45722866 139.30810547 125.49731445 C141.29406938 125.55530403 143.27985269 125.61937723 145.265625 125.68359375 C146.45961914 125.72025146 147.65361328 125.75690918 148.88378906 125.79467773 C151.42463255 125.96208994 153.5771424 126.26317859 156 127 C151.8543176 149.61281308 136.3205244 170.60738221 117.625 183.6875 C109.94559207 188.89088331 102.90520333 192.58613744 93.875 194.8125 C87.00549202 196.63089917 83.39316363 199.5439742 79 205 C78.01 205.99 78.01 205.99 77 207 C96.73870907 208.17908218 112.68452756 198.55622161 127 186 C135.67032281 178.25205196 142.51162053 169.5982724 149 160 C149.99 158.53626953 149.99 158.53626953 151 157.04296875 C158.30713471 145.38091224 164.27218962 130.88167045 164 117 C155.09463504 116.93504249 146.21212671 117.12515061 137.3125 117.4375 Z M-69 129 C-65.93774634 149.24714928 -48.15156449 168.91040529 -32.13964844 180.77612305 C-25.95319457 185.15804101 -19.31992561 188.8947652 -12 191 C-11.34 190.67 -10.68 190.34 -10 190 C-10.92619141 188.88818359 -10.92619141 188.88818359 -11.87109375 187.75390625 C-25.20199854 171.35479838 -33.43743088 152.43347785 -37.57250977 131.71484375 C-37.84873173 129.97957819 -37.84873173 129.97957819 -39 129 C-41.21855264 128.91216458 -43.43988496 128.89305391 -45.66015625 128.90234375 C-46.32462265 128.9037587 -46.98908905 128.90517365 -47.6736908 128.90663147 C-49.80333899 128.91224482 -51.93288339 128.92479946 -54.0625 128.9375 C-55.50325369 128.94251329 -56.94400903 128.94707649 -58.38476562 128.95117188 C-61.92321102 128.96221855 -65.46159539 128.97949208 -69 129 Z M122 129 C120.2675 134.94 120.2675 134.94 118.5 141 C113.7257073 156.77260179 106.99707131 169.88294857 98.1015625 183.671875 C96.57340841 186.09192571 95.19147849 188.4075523 94 191 C107.74605448 187.86911991 117.14123128 179.51211722 127 170 C127.72058594 169.34257812 128.44117188 168.68515625 129.18359375 168.0078125 C140.12533104 157.74855782 149.33917195 143.64331219 153 129 C142.77 129 132.54 129 122 129 Z M19 215 C19.45354552 222.25672829 22.23518834 227.30608095 27.4375 232.375 C33.91151751 236.48047452 40.50119399 236.77948115 48 236 C54.12611142 234.29489899 58.73688583 230.41819269 62 225 C63.26941102 221.71869226 64.21387619 218.42722399 65 215 C64.33613281 215.20496094 63.67226562 215.40992188 62.98828125 215.62109375 C62.10527344 215.89050781 61.22226563 216.15992188 60.3125 216.4375 C59.44238281 216.70433594 58.57226562 216.97117188 57.67578125 217.24609375 C46.25134741 220.46494883 34.26124474 220.24792089 23.22265625 215.875 C21.08795022 214.87789666 21.08795022 214.87789666 19 215 Z M37 240 C36.97421875 240.68964844 36.9484375 241.37929687 36.921875 242.08984375 C36.34619993 251.62773294 33.97050804 257.53686495 28 265 C36.58 265 45.16 265 54 265 C52.16460542 261.08978477 52.16460542 261.08978477 50 258.125 C46.79652918 252.68627155 46.64890306 246.15604091 46 240 C43.03 240 40.06 240 37 240 Z M54.82348633 267.49829102 C51.08845321 267.98839338 47.58742032 268.08333854 43.82421875 268.02734375 C42.4889347 268.01471683 41.15364812 268.0023545 39.81835938 267.99023438 C37.74007054 267.96528404 35.66191679 267.93709326 33.58374023 267.90405273 C31.55984354 267.87396554 29.53576886 267.85670257 27.51171875 267.83984375 C26.30990967 267.82300537 25.10810059 267.80616699 23.86987305 267.78881836 C20.86899886 267.69546285 20.86899886 267.69546285 19 270 C19.32041397 272.60280568 19.32041397 272.60280568 20 275 C33.35583789 278.96427697 49.84484785 280.70839638 63 275 C63.66 274.01 64.32 273.02 65 272 C63.37660195 270.29115995 61.70680947 268.62553283 60 267 C57.79341313 266.94834262 57.79341313 266.94834262 54.82348633 267.49829102 Z M22 279 C21.93941406 279.60328125 21.87882812 280.2065625 21.81640625 280.828125 C21.73261719 281.62734375 21.64882812 282.4265625 21.5625 283.25 C21.48128906 284.03890625 21.40007812 284.8278125 21.31640625 285.640625 C20.72771414 290.03037849 20.72771414 290.03037849 20 292 C19.01 292.33 18.02 292.66 17 293 C17 293.33 17 293.66 17 294 C33.17 294 49.34 294 66 294 C64.68 292.02 63.36 290.04 62 288 C61.390625 285.4453125 61.390625 285.4453125 61.25 283.125 C61.19328125 282.34382813 61.1365625 281.56265625 61.078125 280.7578125 C61.05234375 280.17773438 61.0265625 279.59765625 61 279 C60.1028125 279.15597656 59.205625 279.31195313 58.28125 279.47265625 C45.94495273 281.39701667 34.35035007 280.80109272 22 279 Z M3 297 C3 298.98 3 300.96 3 303 C28.74 303 54.48 303 81 303 C80.505 300.03 80.505 300.03 80 297 C54.59 297 29.18 297 3 297 Z M-7 307 C-7 325.48 -7 343.96 -7 363 C25.01 363 57.02 363 90 363 C90 344.52 90 326.04 90 307 C57.99 307 25.98 307 -7 307 Z M-16 367 C-16 368.32 -16 369.64 -16 371 C21.95 371 59.9 371 99 371 C99 369.68 99 368.36 99 367 C61.05 367 23.1 367 -16 367 Z " fill="#191919" transform="translate(166,12)"/>
<path d="M0 0 C7.85593259 6.44345178 12.09053921 12.90486323 13.625 23 C14.25253234 31.29879503 12.09406533 39.80568593 6.75 46.25 C4.3125 48.875 4.3125 48.875 1.75 51.25 C1.0075 51.95125 0.265 52.6525 -0.5 53.375 C-8.05560285 58.5265474 -16.29061391 59.19941119 -25.25 58.25 C-33.0084255 56.490243 -39.0812292 52.23435594 -44.25 46.25 C-49.97974795 37.01949912 -51.91346307 27.99612623 -49.6015625 17.23046875 C-46.55560102 7.92336423 -41.80760549 2.31380162 -33.125 -2.1875 C-22.08681772 -7.44855571 -10.14300919 -7.23947603 0 0 Z M-22.25 15.25 C-28.84440259 21.07077387 -28.84440259 21.07077387 -32.25 28.25 C-27.9255386 26.59159005 -25.15454176 23.37688289 -22 20.125 C-20.1025 18.18625 -18.205 16.2475 -16.25 14.25 C-16.25 24.48 -16.25 34.71 -16.25 45.25 C-15.26 45.25 -14.27 45.25 -13.25 45.25 C-12.17349529 32.90864238 -12.13971286 20.63100347 -12.25 8.25 C-16.30592788 8.25 -19.47177136 12.58143828 -22.25 15.25 Z " fill="#f00050" transform="translate(226.25,137.75)"/>
<path d="M0 0 C3.26892205 0.26504773 4.63439501 0.59783451 6.875 3.0625 C8.73526221 7.91985132 7.63255123 12.10234632 6 17 C6.20517062 19.27362547 6.57174793 21.49384561 6.94140625 23.74609375 C7.01134459 26.43638864 6.22155352 27.63268277 5 30 C4.72968786 31.91129794 4.50408115 33.82921237 4.3125 35.75 C3.35368321 42.06736543 0.95277522 45.97380188 -4 50 C-8.52741172 51.50913724 -13.06426798 51.77429281 -17.5 50 C-17.995 49.67 -18.49 49.34 -19 49 C-19 48.34 -19 47.68 -19 47 C-18.00419922 47.05220703 -18.00419922 47.05220703 -16.98828125 47.10546875 C-9.92660696 47.43378781 -9.92660696 47.43378781 -4 44 C-1.3329954 40.35597392 0 37.63098934 0 33 C-1.3303125 33.1546875 -1.3303125 33.1546875 -2.6875 33.3125 C-7.00684858 32.90501428 -8.25642975 31.2277297 -11 28 C-10.4375 26.0625 -10.4375 26.0625 -9 24 C-5.625 23.0625 -5.625 23.0625 -2 23 C0.4375 24.4375 0.4375 24.4375 2 26 C3.10844919 22.67465243 2.84454356 20.37817425 2 17 C1.38511719 17.02320313 0.77023438 17.04640625 0.13671875 17.0703125 C-1.07564453 17.09738281 -1.07564453 17.09738281 -2.3125 17.125 C-3.51326172 17.15980469 -3.51326172 17.15980469 -4.73828125 17.1953125 C-7 17 -7 17 -10 15 C-9.67 13.35 -9.34 11.7 -9 10 C-3.52667068 8.53154579 -0.88077452 9.55961274 4 12 C3.71110084 7.21344195 3.71110084 7.21344195 1.4375 3.1875 C0.963125 2.795625 0.48875 2.40375 0 2 C0 1.34 0 0.68 0 0 Z M-7 12 C-5.68798827 13.56249809 -5.68798827 13.56249809 -4 15 C-3.01 15 -2.02 15 -1 15 C-1.33 14.01 -1.66 13.02 -2 12 C-3.65 12 -5.3 12 -7 12 Z M-6 26 C-6.66 26.66 -7.32 27.32 -8 28 C-5.04622502 30.36980013 -5.04622502 30.36980013 -1 30 C-1 29.01 -1 28.02 -1 27 C-3.39719432 26.32041397 -3.39719432 26.32041397 -6 26 Z " fill="#f00050" transform="translate(146,255)"/>
<path d="M0 0 C0 0.66 0 1.32 0 2 C-0.474375 2.391875 -0.94875 2.78375 -1.4375 3.1875 C-3.74665826 5.86612359 -3.67554343 8.56076032 -4 12 C-2.96875 11.484375 -1.9375 10.96875 -0.875 10.4375 C2.73052374 8.86604974 5.15678443 8.96889338 9 10 C9.6875 11.8125 9.6875 11.8125 10 14 C8.3867554 16.16514407 7.39104956 16.91152419 4.73828125 17.51171875 C3.93777344 17.56972656 3.13726562 17.62773437 2.3125 17.6875 C1.10013672 17.78611328 1.10013672 17.78611328 -0.13671875 17.88671875 C-1.05904297 17.94279297 -1.05904297 17.94279297 -2 18 C-2.33 20.64 -2.66 23.28 -3 26 C-2.13375 25.484375 -1.2675 24.96875 -0.375 24.4375 C3.40766638 22.82636432 5.10219679 22.91224097 9 24 C10 25 10 25 10.3125 27.375 C10 30 10 30 8.4375 31.8125 C5.19571384 33.39183172 2.55711122 33.20521796 -1 33 C1.00733669 40.38413601 1.00733669 40.38413601 6 46 C8.52475462 47.26237731 10.31200466 47.09856404 13.125 47.0625 C14.03507812 47.05347656 14.94515625 47.04445313 15.8828125 47.03515625 C16.58148438 47.02355469 17.28015625 47.01195312 18 47 C18 47.99 18 48.98 18 50 C14.28024805 51.85987597 10.0596337 51.43094573 6 51 C1.10145139 48.82286728 -1.10450264 45.96711147 -3.26171875 41.2265625 C-4.27895245 38.15871482 -4.57847048 35.19862231 -4.7265625 31.98046875 C-4.89735704 29.68196868 -4.89735704 29.68196868 -7 27 C-7.1901307 23.57764741 -7.13556209 20.5964732 -6.375 17.25 C-5.69032666 14.72357379 -5.69032666 14.72357379 -8 12 C-8.46178176 7.84396413 -8.40915141 5.68678987 -6.25 2.0625 C-4 0 -4 0 0 0 Z M2 12 C1.01 13.485 1.01 13.485 0 15 C2.97065509 14.65772428 2.97065509 14.65772428 6 14 C6.33 13.34 6.66 12.68 7 12 C4.58380177 11.74969023 4.58380177 11.74969023 2 12 Z M0 28 C0 28.66 0 29.32 0 30 C3.465 29.505 3.465 29.505 7 29 C6.67 28.01 6.34 27.02 6 26 C2.81509993 25.7226499 2.81509993 25.7226499 0 28 Z " fill="#f00050" transform="translate(306,213)"/>
<path d="M0 0 C3.23237596 1.42037497 4.75463673 3.75392172 6.91015625 6.51171875 C7.709375 7.52363281 8.50859375 8.53554687 9.33203125 9.578125 C9.9353125 10.36058594 10.53859375 11.14304688 11.16015625 11.94921875 C9.21466441 16.27562204 7.03509025 18.23676495 3.16015625 20.94921875 C1.171875 20.9140625 1.171875 20.9140625 -0.83984375 19.94921875 C-2.578125 17.62109375 -2.578125 17.62109375 -4.15234375 14.69921875 C-4.68472656 13.7453125 -5.21710938 12.79140625 -5.765625 11.80859375 C-6.97531819 8.58861041 -6.9382686 7.16760356 -5.83984375 3.94921875 C-2.76766865 -0.07639001 -2.76766865 -0.07639001 0 0 Z " fill="#f00050" transform="translate(257.83984375,120.05078125)"/>
<path d="M0 0 C2.97 0.33 5.94 0.66 9 1 C10.18594057 5.23325806 9.71869389 8.10395424 8.5625 12.3125 C8.27503906 13.38113281 7.98757812 14.44976562 7.69140625 15.55078125 C7.46324219 16.35902344 7.23507813 17.16726562 7 18 C3.44998559 18.91232888 1.19349271 19.10709554 -2.25 17.8125 C-2.93578125 17.57144531 -3.6215625 17.33039063 -4.328125 17.08203125 C-6 16 -6 16 -6.94921875 14.27734375 C-7.02731957 10.77482237 -5.383455 8.68908526 -3.5625 5.75 C-2.90378906 4.67234375 -2.24507812 3.5946875 -1.56640625 2.484375 C-1.04949219 1.66453125 -0.53257813 0.8446875 0 0 Z " fill="#f00050" transform="translate(62,117)"/>
<path d="M0 0 C1.47968324 0.14049518 2.95874516 0.28754826 4.4375 0.4375 C5.67306641 0.55931641 5.67306641 0.55931641 6.93359375 0.68359375 C9 1 9 1 10 2 C9.83441026 7.82111639 8.52509843 13.40797241 7 19 C5.39504433 18.88557539 3.79101881 18.75805306 2.1875 18.625 C1.29417969 18.55539063 0.40085937 18.48578125 -0.51953125 18.4140625 C-3 18 -3 18 -6 16 C-5.59683075 9.68368172 -3.28767869 5.35006016 0 0 Z " fill="#f00050" transform="translate(273,237)"/>
<path d="M0 0 C0 0.99 0 1.98 0 3 C-2.22771342 3.50643553 -4.45724076 4.0048962 -6.6875 4.5 C-8.54955078 4.91765625 -8.54955078 4.91765625 -10.44921875 5.34375 C-13.42398218 5.89354126 -15.99368602 6.13795705 -19 6 C-18 3 -18 3 -16.25 2.05078125 C-10.61317429 0.20119781 -5.92981094 -0.28237195 0 0 Z " fill="#f00050" transform="translate(114,65)"/>
<path d="M0 0 C0 0.66 0 1.32 0 2 C-4.06873272 3.85154567 -7.89082406 4.54646296 -12.3125 5.125 C-13.56675781 5.29257813 -14.82101562 5.46015625 -16.11328125 5.6328125 C-17.06589844 5.75398438 -18.01851563 5.87515625 -19 6 C-19 5.01 -19 4.02 -19 3 C-12.47059106 0.04328652 -7.12600133 -0.35368021 0 0 Z " fill="#f00050" transform="translate(355,65)"/>
<path d="M0 0 C0.66 0.33 1.32 0.66 2 1 C0.63285948 6.01284859 -2.7277214 10.09773479 -7 13 C-9.2265625 12.6953125 -9.2265625 12.6953125 -11 12 C-7.72469104 7.36279281 -4.69564393 3.31457218 0 0 Z " fill="#f00050" transform="translate(100,45)"/>
<path d="M0 0 C-0.49963144 4.32256898 -1.77655876 6.29918078 -4.875 9.3125 C-5.57367188 10.00988281 -6.27234375 10.70726562 -6.9921875 11.42578125 C-9 13 -9 13 -12 13 C-11.40527314 9.70724395 -10.33371431 7.86941865 -8.125 5.375 C-7.61195313 4.78460938 -7.09890625 4.19421875 -6.5703125 3.5859375 C-4.54226652 1.53771196 -2.98437149 0 0 0 Z " fill="#f00050" transform="translate(342,45)"/>
<path d="M0 0 C0.99 0.33 1.98 0.66 3 1 C3.02703381 2.93742341 3.04641125 4.87495479 3.0625 6.8125 C3.07410156 7.89144531 3.08570313 8.97039062 3.09765625 10.08203125 C3 13 3 13 2 16 C1.01 15.67 0.02 15.34 -1 15 C-1.02685412 12.68756208 -1.04632841 10.3750373 -1.0625 8.0625 C-1.07410156 6.77472656 -1.08570313 5.48695312 -1.09765625 4.16015625 C-1 1 -1 1 0 0 Z " fill="#f00050" transform="translate(316,91)"/>
<path d="M0 0 C-0.47620289 4.37653129 -1.66899889 6.06538005 -5.0625 8.8125 C-5.79597656 9.41707031 -6.52945313 10.02164063 -7.28515625 10.64453125 C-7.85105469 11.09183594 -8.41695312 11.53914063 -9 12 C-9.66 11.67 -10.32 11.34 -11 11 C-9.4542763 5.74453942 -5.85043885 0 0 0 Z " fill="#f00050" transform="translate(64,88)"/>
<path d="M0 0 C0.99 0.33 1.98 0.66 3 1 C3.02705729 2.77074917 3.04642195 4.54161711 3.0625 6.3125 C3.07410156 7.29863281 3.08570312 8.28476562 3.09765625 9.30078125 C3 12 3 12 2 15 C1.01 15 0.02 15 -1 15 C-1.02685412 12.68756208 -1.04632841 10.3750373 -1.0625 8.0625 C-1.07410156 6.77472656 -1.08570312 5.48695312 -1.09765625 4.16015625 C-1 1 -1 1 0 0 Z " fill="#f00050" transform="translate(76,40)"/>
<path d="M0 0 C-0.33 0.99 -0.66 1.98 -1 3 C-6.38027025 4.19088986 -11.45291384 5.2919519 -17 5 C-17 4.34 -17 3.68 -17 3 C-11.06108578 0.4084738 -6.45892714 -0.40368295 0 0 Z " fill="#f00050" transform="translate(131,207)"/>
<path d="M0 0 C1.875 0.125 1.875 0.125 4 1 C6.07190488 5.35100024 6.19055047 9.23623816 6 14 C5.01 13.67 4.02 13.34 3 13 C2.05078125 11.07421875 2.05078125 11.07421875 1.3125 8.6875 C0.93544922 7.51767578 0.93544922 7.51767578 0.55078125 6.32421875 C0 4 0 4 0 0 Z " fill="#f00050" transform="translate(88,89)"/>
<path d="M0 0 C1.921875 0.6171875 1.921875 0.6171875 4 2 C4.828125 4.8203125 4.828125 4.8203125 5.25 8.125 C5.39953125 9.22070312 5.5490625 10.31640625 5.703125 11.4453125 C5.80109375 12.28835937 5.8990625 13.13140625 6 14 C5.01 14.33 4.02 14.66 3 15 C1.094753 9.89665983 -0.42589023 5.53657294 0 0 Z " fill="#f00050" transform="translate(329,88)"/>
<path d="M0 0 C5.62541841 0.45003347 8.61487125 1.68441485 13 5 C12.67 5.99 12.34 6.98 12 8 C10.18118176 7.43667573 8.36999528 6.84866086 6.5625 6.25 C5.55316406 5.92515625 4.54382813 5.6003125 3.50390625 5.265625 C1 4 1 4 0.15234375 1.859375 C0.10207031 1.24578125 0.05179687 0.6321875 0 0 Z " fill="#f00050" transform="translate(95,81)"/>
<path d="M0 0 C5.2905277 -0.66131596 8.15696618 0.95446148 12.4609375 3.7109375 C12.96882813 4.13632813 13.47671875 4.56171875 14 5 C14 5.66 14 6.32 14 7 C8.29290936 6.53411505 4.84060277 5.06242216 0 2 C0 1.34 0 0.68 0 0 Z " fill="#f00050" transform="translate(335,81)"/>
<path d="M0 0 C0.99 0 1.98 0 3 0 C3 4.95 3 9.9 3 15 C2.01 15 1.02 15 0 15 C-1.33257403 4.44191344 -1.33257403 4.44191344 0 0 Z " fill="#f00050" transform="translate(75,92)"/>
<path d="M0 0 C-1.3937282 4.43458973 -3.60582235 6.87378374 -7 10 C-8.32 9.34 -9.64 8.68 -11 8 C-9.93119777 6.65499045 -8.84437492 5.32428562 -7.75 4 C-7.14671875 3.2575 -6.5434375 2.515 -5.921875 1.75 C-4 0 -4 0 0 0 Z " fill="#38A1FD" transform="translate(305,88)"/>
<path d="M0 0 C4.428413 2.2142065 6.57895218 4.69591499 9 9 C9 9.99 9 10.98 9 12 C5.54804233 10.5741914 3.8985744 8.90253666 1.75 5.875 C0.96882813 4.78832031 0.96882813 4.78832031 0.171875 3.6796875 C-0.21484375 3.12539063 -0.6015625 2.57109375 -1 2 C-0.67 1.34 -0.34 0.68 0 0 Z " fill="#f00050" transform="translate(56,46)"/>
<path d="M0 0 C0.66 0.33 1.32 0.66 2 1 C2 5.95 2 10.9 2 16 C1.01 16 0.02 16 -1 16 C-1.02685095 13.52076199 -1.04676547 11.0418116 -1.0625 8.5625 C-1.07506836 7.50192383 -1.07506836 7.50192383 -1.08789062 6.41992188 C-1.09653588 4.61306441 -1.05220011 2.80612397 -1 1 C-0.67 0.67 -0.34 0.34 0 0 Z " fill="#f00050" transform="translate(317,39)"/>
<path d="M0 0 C0 0.99 0 1.98 0 3 C-4.49656104 5.24828052 -8.07872966 5.16682272 -13 5 C-12.67 4.01 -12.34 3.02 -12 2 C-7.92532275 0.51117562 -4.33458585 -0.26270217 0 0 Z " fill="#f00050" transform="translate(58,78)"/>
<path d="M0 0 C-1.34680915 2.91271644 -2.87448745 5.29328277 -4.9375 7.75 C-5.69353516 8.67039063 -5.69353516 8.67039063 -6.46484375 9.609375 C-8 11 -8 11 -11 11 C-10.42073787 7.46180427 -9.15676523 5.74971757 -6.625 3.25 C-6.01914063 2.63640625 -5.41328125 2.0228125 -4.7890625 1.390625 C-3 0 -3 0 0 0 Z " fill="#389FFA" transform="translate(121,190)"/>
<path d="M0 0 C4.70238725 0.46101836 8.23262357 1.03176403 12 4 C12 4.99 12 5.98 12 7 C7.24518354 6.42365861 4.02951788 4.44931479 0 2 C0 1.34 0 0.68 0 0 Z " fill="#f00050" transform="translate(46,60)"/>
<path d="M0 0 C2.46313739 1.82748903 3.83428618 3.22976216 4.48828125 6.26953125 C4.72518293 8.51479346 4.90361349 10.74455578 5 13 C2 12 2 12 1.015625 10.0390625 C0.76296875 9.24242187 0.5103125 8.44578125 0.25 7.625 C-0.01296875 6.83351562 -0.2759375 6.04203125 -0.546875 5.2265625 C-1 3 -1 3 0 0 Z " fill="#f00050" transform="translate(109,227)"/>
<path d="M0 0 C-1.39134418 4.42700422 -3.47884142 6.99413292 -7 10 C-7.99 10 -8.98 10 -10 10 C-8.41650438 4.96160484 -5.719924 0 0 0 Z " fill="#f00050" transform="translate(88,227)"/>
<path d="M0 0 C0.99 0 1.98 0 3 0 C3 4.29 3 8.58 3 13 C2.01 13.33 1.02 13.66 0 14 C0 9.38 0 4.76 0 0 Z " fill="#f00050" transform="translate(97,230)"/>
<path d="M0 0 C8.86956522 0.73913043 8.86956522 0.73913043 12 4 C12 4.66 12 5.32 12 6 C7.27536912 5.53680089 3.82942948 4.90108294 0 2 C0 1.34 0 0.68 0 0 Z " fill="#f00050" transform="translate(114,221)"/>
<path d="M0 0 C0 0.99 0 1.98 0 3 C-4.1196377 4.29243536 -7.66831683 5.26252625 -12 5 C-12 4.01 -12 3.02 -12 2 C-7.8803623 0.70756464 -4.33168317 -0.26252625 0 0 Z " fill="#f00050" transform="translate(83,218)"/>
<path d="M0 0 C0.66 0 1.32 0 2 0 C2 4.29 2 8.58 2 13 C1.01 13 0.02 13 -1 13 C-1.02686553 11.02090602 -1.04633375 9.04171029 -1.0625 7.0625 C-1.07410156 5.96035156 -1.08570312 4.85820312 -1.09765625 3.72265625 C-1 1 -1 1 0 0 Z " fill="#f00050" transform="translate(98,185)"/>
<path d="M0 0 C4.3890815 0.51035831 7.33708062 1.52214277 11 4 C10.67 4.99 10.34 5.98 10 7 C5.05 5.02 5.05 5.02 0 3 C0 2.01 0 1.02 0 0 Z " fill="#f00050" transform="translate(72,202)"/>
<path d="M0 0 C3.25597758 0.24118352 4.7276304 1.52224212 6.8125 3.875 C7.534375 4.90625 8.25625 5.9375 9 7 C8.67 7.99 8.34 8.98 8 10 C1.42857143 5 1.42857143 5 0 0 Z " fill="#f00050" transform="translate(80,191)"/>
<path d="M0 0 C-0.33 0.99 -0.66 1.98 -1 3 C-4.3 3.66 -7.6 4.32 -11 5 C-10.67 3.68 -10.34 2.36 -10 1 C-6.52674819 -0.1577506 -3.63932552 -0.06866652 0 0 Z " fill="#f00050" transform="translate(299,78)"/>
<path d="M0 0 C2.79872437 2.52788007 4.45773019 4.20411134 5 8 C2.13275314 7.42655063 1.1385485 7.1385485 -1 5 C-0.625 2.375 -0.625 2.375 0 0 Z " fill="#f00050" transform="translate(301,49)"/>
<path d="M0 0 C1.9375 0.3125 1.9375 0.3125 4 1 C4.33 1.99 4.66 2.98 5 4 C3.35 4 1.7 4 0 4 C-0.33 3.34 -0.66 2.68 -1 2 C-0.67 1.34 -0.34 0.68 0 0 Z " fill="#f00050" transform="translate(294,62)"/>
<path d="M0 0 C0.99 0 1.98 0 3 0 C3 0.66 3 1.32 3 2 C2.01 2 1.02 2 0 2 C0 1.34 0 0.68 0 0 Z " fill="#f00050" transform="translate(207,39)"/>
</svg>
