<?xml version="1.0" encoding="UTF-8"?>
<svg version="1.1" xmlns="http://www.w3.org/2000/svg" width="400" height="400">
<path d="M0 0 C0.66 -0.66 1.32 -1.32 2 -2 C6.65885781 -1.8199097 8.70642475 0.27098742 11.8125 3.5625 C12.99779297 4.80193359 12.99779297 4.80193359 14.20703125 6.06640625 C14.79871094 6.70449219 15.39039063 7.34257812 16 8 C18.64 6.02 21.28 4.04 24 2 C49.82558121 15.57435673 66.94066261 51.21631895 75.1875 77.5625 C85.82170144 113.47595129 82.59656783 152.04640985 67 186 C73.62739361 173.45486438 73.62739361 173.45486438 78 160 C80.2890625 159.32421875 80.2890625 159.32421875 83 159 C96.85982668 167.45632597 105.19319812 190.06114009 109 205 C110.89326646 213.28808344 112.47881945 221.6368635 114 230 C114.19416504 230.98436035 114.38833008 231.9687207 114.58837891 232.98291016 C115.97141667 240.37894442 116.21816567 247.48540461 116 255 C115.15107178 254.99476318 114.30214355 254.98952637 113.42749023 254.98413086 C92.36372731 254.8579521 92.36372731 254.8579521 71.3125 255.5 C70.38985352 255.54543945 69.46720703 255.59087891 68.51660156 255.63769531 C67.19740723 255.7029541 67.19740723 255.7029541 65.8515625 255.76953125 C61.62888904 255.97794646 57.41510241 256.12763199 53.1875 256.1875 C52.21167969 256.20167969 51.23585938 256.21585937 50.23046875 256.23046875 C48 256 48 256 46 254 C45.01 254 44.02 254 43 254 C42.56566995 249.78722952 42.13877255 245.5737861 41.71826172 241.35961914 C41.57471291 239.93103552 41.42925902 238.50264182 41.28173828 237.07446289 C40.58312785 230.29984268 39.90857182 223.52073925 39.6875 216.7109375 C39.66042969 215.87739746 39.63335937 215.04385742 39.60546875 214.18505859 C40.27228379 210.49199265 42.83280634 208.93554597 45.71875 206.78125 C62.13694395 193.96156431 69.87411926 169.57809755 74 150 C74.226875 148.96488281 74.45375 147.92976562 74.6875 146.86328125 C78.0042698 128.50588171 77.4319328 108.11878409 73 90 C72.79600586 89.1642041 72.59201172 88.3284082 72.38183594 87.46728516 C66.41917454 63.76852687 56.37443229 42.35568032 40 24 C38.82050781 22.65808594 38.82050781 22.65808594 37.6171875 21.2890625 C33.86469603 17.06596154 30.05998044 12.92901333 26 9 C22.21720806 10.2958353 19.88854082 11.74678943 17.125 14.625 C16.43535156 15.34171875 15.74570312 16.0584375 15.03515625 16.796875 C12.58538115 19.44883883 10.19328918 22.14122484 7.83984375 24.87890625 C5.80491181 27.22491058 3.71709033 29.5173645 1.625 31.8125 C-1.64614774 35.44898211 -4.85633669 39.12755374 -8 42.875 C-8.7425 43.75929687 -9.485 44.64359375 -10.25 45.5546875 C-11.87444595 47.82456063 -12.59451189 49.27562676 -13 52 C-12.30777344 52.53173828 -12.30777344 52.53173828 -11.6015625 53.07421875 C3.05979824 65.04090251 12.52166247 82.2194516 15 101 C16.91989816 123.64738236 12.91238487 146.26292163 -2.08984375 164.1015625 C-7.92573638 169.90165211 -13.86984661 173.64497443 -22 175 C-22.08765625 176.05574219 -22.1753125 177.11148438 -22.265625 178.19921875 C-23.03559067 184.26734471 -24.92203388 189.99284463 -26.75 195.8125 C-27.13760498 197.0497583 -27.52520996 198.2870166 -27.92456055 199.56176758 C-31.04382005 209.39374926 -34.42259791 219.13355717 -37.95300293 228.82504272 C-38.52478835 230.39668115 -39.09211345 231.96994967 -39.65490723 233.54483032 C-40.44897989 235.75837678 -41.26231698 237.96380953 -42.08203125 240.16796875 C-42.31720963 240.83122162 -42.552388 241.49447449 -42.79469299 242.17782593 C-43.88220489 245.03748558 -44.57928634 246.72490532 -47.18237305 248.42700195 C-47.78218994 248.61609131 -48.38200684 248.80518066 -49 249 C-65.25670092 234.06438539 -78.50029665 215.23027292 -86.25268555 194.54296875 C-90.15295475 184.05123004 -90.15295475 184.05123004 -98.9375 177.75 C-100.13375 177.30011719 -101.33 176.85023438 -102.5625 176.38671875 C-108.12916631 174.14107496 -111.86936274 170.24929112 -116 166 C-116.64582031 165.37480469 -117.29164063 164.74960937 -117.95703125 164.10546875 C-129.50092642 152.15917201 -132.51691147 135.26234612 -132.34936523 119.23535156 C-131.76048264 99.20136617 -125.15755395 80.15713621 -117 62 C-137.02307971 47.29097198 -137.02307971 47.29097198 -158 34 C-158.27908203 34.73001221 -158.55816406 35.46002441 -158.84570312 36.2121582 C-159.91494577 38.79457821 -161.11316438 41.16414058 -162.46875 43.60546875 C-174.14227797 65.01665491 -182.82756345 87.14119455 -188 111 C-188.17644043 111.80421387 -188.35288086 112.60842773 -188.53466797 113.43701172 C-194.52642627 141.89934825 -192.31496458 172.17017833 -176.84765625 197.2578125 C-171.26795976 205.53888425 -164.59719376 214.78298545 -155.8125 219.83203125 C-153 222 -153 222 -152.1953125 224.86328125 C-152.17210937 226.00152344 -152.14890625 227.13976562 -152.125 228.3125 C-152.08761719 229.61960937 -152.05023438 230.92671875 -152.01171875 232.2734375 C-152.00447265 233.84894651 -152.00092424 235.4244746 -152 237 C-151.99307129 237.97356445 -151.98614258 238.94712891 -151.97900391 239.95019531 C-151.93240135 246.63403778 -151.94338038 253.31627136 -152 260 C-152.99 260 -153.98 260 -155 260 C-155.495 249.605 -155.495 249.605 -156 239 C-155.98839844 240.57652344 -155.97679687 242.15304687 -155.96484375 243.77734375 C-155.95546757 245.83072799 -155.94636718 247.8841135 -155.9375 249.9375 C-155.92912109 250.97841797 -155.92074219 252.01933594 -155.91210938 253.09179688 C-155.90888672 254.08115234 -155.90566406 255.07050781 -155.90234375 256.08984375 C-155.89710693 257.00628662 -155.89187012 257.92272949 -155.88647461 258.86694336 C-156 261 -156 261 -157 262 C-158.92761817 262.09920863 -160.85889354 262.12799365 -162.7890625 262.12939453 C-164.6460376 262.13412277 -164.6460376 262.13412277 -166.54052734 262.13894653 C-167.90201859 262.13715675 -169.26350951 262.1351058 -170.625 262.1328125 C-172.01123064 262.13348559 -173.39746117 262.13445566 -174.78369141 262.13571167 C-177.69239422 262.1371884 -180.60106637 262.1350349 -183.50976562 262.13037109 C-187.24596598 262.12467381 -190.98209452 262.12795294 -194.71829224 262.13394356 C-197.58179266 262.13754985 -200.44527593 262.13641027 -203.30877686 262.13381577 C-204.68674732 262.13314668 -206.06471932 262.13397426 -207.44268799 262.13629532 C-209.36543754 262.13882292 -211.28819252 262.13429024 -213.2109375 262.12939453 C-214.85521729 262.12820114 -214.85521729 262.12820114 -216.53271484 262.12698364 C-219 262 -219 262 -220 261 C-221.30634353 234.0022338 -214.35304853 204.42161755 -196 184 C-195.34 183.01 -194.68 182.02 -194 181 C-192.68 181 -191.36 181 -190 181 C-190.39832031 179.80117188 -190.39832031 179.80117188 -190.8046875 178.578125 C-191.15789062 177.47984375 -191.51109375 176.3815625 -191.875 175.25 C-192.22304687 174.18265625 -192.57109375 173.1153125 -192.9296875 172.015625 C-195.71449625 162.27199236 -196.36150445 152.5261167 -196.3125 142.4375 C-196.30686035 141.20878174 -196.3012207 139.98006348 -196.29541016 138.71411133 C-196.16098689 128.54785281 -195.2344696 118.91156909 -193 109 C-192.80132324 108.11038574 -192.60264648 107.22077148 -192.39794922 106.30419922 C-186.40919961 80.21837228 -176.62122128 50.40374249 -160 29 C-159.01 28.67 -158.02 28.34 -157 28 C-154.77564779 29.19963989 -152.78232499 30.43238033 -150.70703125 31.85546875 C-150.08778275 32.2689003 -149.46853424 32.68233185 -148.83052063 33.10829163 C-146.81712894 34.45740578 -144.81466849 35.82179703 -142.8125 37.1875 C-141.44477635 38.11011226 -140.07677492 39.03231286 -138.70849609 39.95410156 C-129.25383351 46.34913029 -119.97640691 52.94506038 -111 60 C-111.56265579 64.87141462 -113.05248893 68.50864104 -115.25 72.875 C-122.00026544 86.7597206 -125.95099731 101.58965101 -127 117 C-127.08121094 118.02287109 -127.08121094 118.02287109 -127.1640625 119.06640625 C-127.79192789 134.1066363 -123.08108564 150.24513589 -113.2890625 161.6875 C-106.63275934 168.41195643 -98.8366571 172.8611142 -90.3359375 176.87109375 C-88 178 -88 178 -87 179 C-84.36424457 179.10024126 -81.76045755 179.13875021 -79.125 179.125 C-78.39152344 179.12886719 -77.65804687 179.13273438 -76.90234375 179.13671875 C-73.67566762 179.13084138 -71.08156579 179.0271886 -68 178 C-68 177.34 -68 176.68 -68 176 C-68.54527344 176.144375 -69.09054688 176.28875 -69.65234375 176.4375 C-75.24959924 177.81528597 -80.23945745 178.18287437 -86 178 C-86 177.01 -86 176.02 -86 175 C-87.258125 174.814375 -88.51625 174.62875 -89.8125 174.4375 C-100.56759187 172.00238486 -109.23004303 164.43545794 -115.08349609 155.31103516 C-124 140.74416028 -124 140.74416028 -124 134 C-121.88862972 132.27196208 -119.94117041 130.89819052 -117.625 129.5 C-116.6664209 128.90844116 -116.6664209 128.90844116 -115.68847656 128.30493164 C-107.33187591 123.2555406 -99.9698682 119.80087496 -90 121 C-86.375 122 -86.375 122 -84 123 C-84 125.64 -84 128.28 -84 131 C-83.67 131 -83.34 131 -83 131 C-83.33 128.03 -83.66 125.06 -84 122 C-84.79664063 121.82984375 -85.59328125 121.6596875 -86.4140625 121.484375 C-97.75596817 118.89036251 -97.75596817 118.89036251 -102 115 C-102 113.68 -102 112.36 -102 111 C-101.42894531 110.85046875 -100.85789062 110.7009375 -100.26953125 110.546875 C-94.03152074 108.52373646 -89.99990724 105.48757375 -85.375 101 C-77.5723965 93.44610307 -69.6875564 89.13466836 -58.625 88.6875 C-50.90467223 88.88750849 -44.09246906 91.25871598 -38 96 C-31.6682893 104.85504929 -29.74105907 113.15594067 -31 124 C-31.21398437 124.7528125 -31.42796875 125.505625 -31.6484375 126.28125 C-31.76445312 126.8484375 -31.88046875 127.415625 -32 128 C-31.38125 128.61875 -30.7625 129.2375 -30.125 129.875 C-28 132 -28 132 -27 134.875 C-27 139.09136209 -28.27166209 140.84087189 -31 144 C-31.83402344 144.26167969 -32.66804687 144.52335938 -33.52734375 144.79296875 C-36.26406003 145.79383481 -36.26406003 145.79383481 -37.15234375 148.72265625 C-37.54099609 150.37587891 -37.54099609 150.37587891 -37.9375 152.0625 C-39.42384608 157.59365673 -41.37767649 161.35077533 -44.73828125 165.921875 C-46.75174518 169.23816853 -46.86061438 172.16689536 -47 176 C-45.68 176.33 -44.36 176.66 -43 177 C-42.67 176.34 -42.34 175.68 -42 175 C-39.28553021 174.68758545 -36.66090639 174.48663408 -33.9375 174.375 C-33.17888672 174.33632813 -32.42027344 174.29765625 -31.63867188 174.2578125 C-29.75952805 174.16326438 -27.87979664 174.08053244 -26 174 C-25.67 173.01 -25.34 172.02 -25 171 C-22.55859375 169.859375 -22.55859375 169.859375 -19.4375 168.75 C-7.84811029 164.10875151 -1.79409444 156.08172961 3.44140625 144.9296875 C11.6847479 124.89959765 12.65504669 104.08385734 4.75 83.8125 C-0.14002405 72.97437652 -6.39711642 65.12648188 -15.10888672 57.12573242 C-15.7535791 56.51834229 -16.39827148 55.91095215 -17.0625 55.28515625 C-17.65160156 54.74769775 -18.24070313 54.21023926 -18.84765625 53.65649414 C-20 52 -20 52 -19.87109375 49.98217773 C-19 48 -19 48 -16 45 C-21.445 41.04 -21.445 41.04 -27 37 C-26.67 35.68 -26.34 34.36 -26 33 C-26.56847656 32.89042969 -27.13695312 32.78085938 -27.72265625 32.66796875 C-32.82316758 31.62061834 -37.284442 30.20728247 -42 28 C-42 27.01 -42 26.02 -42 25 C-35.93476735 25.34761215 -31.38666674 25.97821134 -26 29 C-25.01 29 -24.02 29 -23 29 C-21.32545529 26.92948894 -19.8474323 24.89529338 -18.375 22.6875 C-13.88914182 16.16823085 -9.11038216 10.04851994 -4 4 C-11.56890781 1.4371644 -19.08783465 0.05412861 -27 -1 C-26.67 -1.99 -26.34 -2.98 -26 -4 C-17.40166218 -6.86611261 -7.98200842 -3.37821222 0 0 Z M1.125 5.625 C-3.97407426 10.7870258 -8.2860944 16.58485797 -12.69726562 22.33007812 C-13.86847286 23.83140074 -15.08032696 25.30080185 -16.296875 26.765625 C-16.94140625 27.54421875 -17.5859375 28.3228125 -18.25 29.125 C-19.09304687 30.11886719 -19.09304687 30.11886719 -19.953125 31.1328125 C-21.1871175 32.94505322 -21.1871175 32.94505322 -20.89453125 35.0703125 C-19.78818677 37.45692461 -18.62563098 38.31776881 -16.4375 39.75 C-15.79683594 40.17796875 -15.15617188 40.6059375 -14.49609375 41.046875 C-13.75552734 41.51867187 -13.75552734 41.51867187 -13 42 C-7.95713906 36.55707911 -3.02075894 31.10145616 1.625 25.3125 C5.02154385 21.08649713 8.61269129 17.26568322 12.56640625 13.55859375 C14.22565887 12.1076054 14.22565887 12.1076054 14 10 C12.02004518 8.18565292 12.02004518 8.18565292 9.5625 6.375 C8.73878906 5.74335938 7.91507813 5.11171875 7.06640625 4.4609375 C3.79387448 2.14727609 4.42035955 2.61619345 1.125 5.625 Z M-78 104 C-79.18619317 104.9807494 -80.37351473 105.9601374 -81.5625 106.9375 C-82.366875 107.618125 -83.17125 108.29875 -84 109 C-83.67 109.66 -83.34 110.32 -83 111 C-82.45472656 110.63648438 -81.90945312 110.27296875 -81.34765625 109.8984375 C-79.75209519 108.83473013 -78.15282866 107.77656924 -76.55078125 106.72265625 C-74.95721811 105.64645205 -73.38675518 104.53420202 -71.85546875 103.37109375 C-65.68734135 98.80507736 -59.49828407 97.32118143 -52 96 C-60.80703867 90.12864089 -71.31516578 98.18101097 -78 104 Z M-54.9375 117.375 C-60.96033166 119.74254964 -66.6075421 121.06243951 -73 122 C-73.33 125.96 -73.66 129.92 -74 134 C-75.98 134 -77.96 134 -80 134 C-82.54331238 135.54285631 -82.54331238 135.54285631 -84 138 C-84.40802691 140.62822118 -84.40802691 140.62822118 -83 143 C-81.865625 143.37125 -80.73125 143.7425 -79.5625 144.125 C-77.640625 144.80078125 -77.640625 144.80078125 -76 146 C-75.12800507 148.75390236 -74.80095249 151.4054943 -74.4453125 154.26953125 C-73.68148281 158.95301329 -71.42279684 161.74966338 -67.9375 164.8125 C-63.43041975 166.63451116 -58.82196967 166.75510137 -54 167 C-54 167.99 -54 168.98 -54 170 C-58.455 170.495 -58.455 170.495 -63 171 C-63.02578125 171.69867188 -63.0515625 172.39734375 -63.078125 173.1171875 C-63.13484375 174.02726562 -63.1915625 174.93734375 -63.25 175.875 C-63.31960937 177.23238281 -63.31960937 177.23238281 -63.390625 178.6171875 C-63.59171875 179.40351563 -63.7928125 180.18984375 -64 181 C-65.98 181.99 -65.98 181.99 -68 183 C-61.565 186.96 -61.565 186.96 -55 191 C-51.36578678 187.36578678 -48.16646449 183.98069821 -45 180 C-45 179.67 -45 179.34 -45 179 C-46.65 178.67 -48.3 178.34 -50 178 C-50.76851399 166.4893682 -50.76851399 166.4893682 -48.9921875 163.046875 C-47.71108322 161.65070147 -46.35554418 160.32401989 -45 159 C-43.00219964 155.07839188 -41.89841182 151.55031953 -41.1875 147.25 C-40.73046875 144.94921875 -40.73046875 144.94921875 -40 143 C-37 141.0625 -37 141.0625 -34 140 C-33.34 139.34 -32.68 138.68 -32 138 C-32.09111938 135.46048456 -32.09111938 135.46048456 -33 133 C-36.44450737 130.70366176 -38.93812283 130.45983515 -43 130 C-43.66 130.99 -44.32 131.98 -45 133 C-47.625 133.1875 -47.625 133.1875 -50 133 C-51 128.25 -51 128.25 -51 126 C-49.02 126 -47.04 126 -45 126 C-45.66 122.37 -46.32 118.74 -47 115 C-49.95478759 115 -52.21146901 116.25347001 -54.9375 117.375 Z M-87 133 C-87 136 -87 136 -87 136 Z M-89 136 C-90.07440549 140.94761132 -90.07440549 140.94761132 -88.875 145.75 C-87.13837793 148.13957084 -87.13837793 148.13957084 -84.5 149.25 C-80.69443724 151.91389393 -80.1251102 155.63676775 -79 160 C-77.57159414 155.71478243 -78.26702511 152.14676135 -80 148 C-82.91841857 145.91367303 -82.91841857 145.91367303 -86 145 C-88.04698414 142.95301586 -87.70045693 138.69588759 -88 136 C-88.33 136 -88.66 136 -89 136 Z M-78 160 C-77 162 -77 162 -77 162 Z M-29 177 C-29.1959375 177.51304687 -29.391875 178.02609375 -29.59375 178.5546875 C-32.28726612 185.45101757 -35.28705158 192.19414975 -38.35742188 198.92919922 C-38.69837891 199.68475098 -39.03933594 200.44030273 -39.390625 201.21875 C-39.8551709 202.2387207 -39.8551709 202.2387207 -40.32910156 203.27929688 C-41.12108755 205.00275081 -41.12108755 205.00275081 -41 207 C-42.98 206.34 -44.96 205.68 -47 205 C-46.34309381 208.78239671 -45.279869 212.21841526 -43.9375 215.8125 C-43.57527344 216.78832031 -43.21304688 217.76414062 -42.83984375 218.76953125 C-42.56269531 219.50558594 -42.28554687 220.24164063 -42 221 C-38.49553895 217.84220361 -37.47091389 214.14712215 -36.08203125 209.75390625 C-35.81992355 208.94638412 -35.55781586 208.138862 -35.2877655 207.30686951 C-34.73635744 205.6010953 -34.18944717 203.89386147 -33.64672852 202.18530273 C-32.81558319 199.57219351 -31.96853704 196.96464823 -31.11914062 194.35742188 C-30.58498462 192.69822313 -30.05175036 191.0387273 -29.51953125 189.37890625 C-29.26645706 188.59963272 -29.01338287 187.82035919 -28.75263977 187.01747131 C-27.63868845 183.48678401 -27 180.73683561 -27 177 C-27.66 177 -28.32 177 -29 177 Z M-41 181 C-43.21330931 183.35790053 -43.21330931 183.35790053 -45.1875 186 C-45.86167969 186.86625 -46.53585938 187.7325 -47.23046875 188.625 C-48.53793227 190.37982963 -49.78612029 192.17918043 -51 194 C-48.69 196.31 -46.38 198.62 -44 201 C-40.78341719 197.2050411 -38.88864085 192.85015351 -36.8125 188.375 C-36.44447266 187.59898437 -36.07644531 186.82296875 -35.69726562 186.0234375 C-33.71410787 182.16868677 -33.71410787 182.16868677 -33 178 C-36.69494597 178 -37.99885881 178.88690514 -41 181 Z M-86 183 C-82.52730583 195.1544296 -76.24467035 206.26207536 -69.6875 217 C-69.26718506 217.70068604 -68.84687012 218.40137207 -68.41381836 219.12329102 C-67.36053283 220.80494869 -66.18921809 222.41155949 -65 224 C-64.01 224 -63.02 224 -62 224 C-61.1369594 221.21079611 -60.28427693 218.41913928 -59.4375 215.625 C-59.19064453 214.8309375 -58.94378906 214.036875 -58.68945312 213.21875 C-58.46064453 212.45820313 -58.23183594 211.69765625 -57.99609375 210.9140625 C-57.78138428 210.2123291 -57.5666748 209.5105957 -57.34545898 208.78759766 C-56.79358223 206.90550191 -56.79358223 206.90550191 -58 205 C-58.66 205 -59.32 205 -60 205 C-60.66 206.32 -61.32 207.64 -62 209 C-63.72265625 208.8671875 -63.72265625 208.8671875 -66 208 C-67.655519 206.06313161 -69.04094475 204.23433982 -70.4375 202.125 C-70.83364502 201.5465332 -71.22979004 200.96806641 -71.63793945 200.37207031 C-74.12473258 196.64009523 -76.00152136 192.92115494 -77.6875 188.75 C-78.71291397 186.11217378 -78.71291397 186.11217378 -80 184 C-83.15010169 182.62015956 -83.15010169 182.62015956 -86 183 Z M-189 184 C-188 186 -188 186 -188 186 Z M-77 184 C-75.42295735 188.68632561 -72.86200034 192.34249667 -70 196.3125 C-69.54882812 196.95767578 -69.09765625 197.60285156 -68.6328125 198.26757812 C-67.47579063 199.88501255 -66.24333423 201.44793244 -65 203 C-64.34 203 -63.68 203 -63 203 C-61.35 200.03 -59.7 197.06 -58 194 C-60.40936462 192.32183559 -62.82647793 190.65749199 -65.25 189 C-65.93191406 188.52304687 -66.61382812 188.04609375 -67.31640625 187.5546875 C-67.98027344 187.10351562 -68.64414063 186.65234375 -69.328125 186.1875 C-69.9355957 185.76855469 -70.54306641 185.34960938 -71.16894531 184.91796875 C-73.25458754 183.70122207 -73.25458754 183.70122207 -77 184 Z M-188 187 C-187 189 -187 189 -187 189 Z M-187 189 C-186 191 -186 191 -186 191 Z M64 189 C65 191 65 191 65 191 Z M-186 191 C-184.37802106 202.91613858 -173.32983481 212.16995528 -165 220 C-164.34 219.67 -163.68 219.34 -163 219 C-163.67804688 218.37996094 -164.35609375 217.75992188 -165.0546875 217.12109375 C-171.82415706 210.67978407 -177.01348296 203.98083425 -182.00390625 196.08984375 C-183.82228247 193.0375529 -183.82228247 193.0375529 -186 191 Z M43 214 C43 216.64 43 219.28 43 222 C43.33 222 43.66 222 44 222 C44 219.36 44 216.72 44 214 C43.67 214 43.34 214 43 214 Z M44 223 C43.87113817 230.40239645 44.20274098 237.63959083 45 245 C45.33 245 45.66 245 46 245 C46.11459026 237.58982977 45.91160286 230.35793733 45 223 C44.67 223 44.34 223 44 223 Z " fill="#191919" transform="translate(262,128)"/>
<path d="M0 0 C4.51082826 0.33812001 6.3726835 1.91784967 9.3125 5.25 C25.61265446 24.33905132 31.10565993 47.32470913 35.3125 71.4375 C35.48410645 72.39519287 35.65571289 73.35288574 35.83251953 74.33959961 C37.02677198 81.59290867 37.17870437 88.65841281 37 96 C35.72660767 95.99214478 35.72660767 95.99214478 34.42749023 95.98413086 C18.5429657 95.89947341 2.72481856 95.97771522 -13.14453125 96.7734375 C-25.11285027 97.36659907 -25.11285027 97.36659907 -31 97 C-32.90507829 95.09492171 -32.5135783 91.76895912 -32.75390625 89.21875 C-32.81907944 88.53123657 -32.88425262 87.84372314 -32.95140076 87.13537598 C-33.08885981 85.67281253 -33.22404993 84.21003437 -33.35717773 82.74707031 C-33.55916908 80.53645401 -33.77022153 78.32684428 -33.98242188 76.1171875 C-34.363389 72.08070445 -34.69544464 68.0430056 -35 64 C-35.1084021 62.56527344 -35.1084021 62.56527344 -35.21899414 61.1015625 C-35.36107376 57.76012366 -35.38487976 55.5728443 -33.48828125 52.75 C-32.77027344 52.1725 -32.05226563 51.595 -31.3125 51 C-17.33109426 38.34175569 -6.62929763 21.61561727 -1.69140625 3.4140625 C-1 1 -1 1 0 0 Z " fill="#f00050" transform="translate(341,287)"/>
<path d="M0 0 C1.15667679 -0.00860046 2.31335358 -0.01720093 3.50508118 -0.02606201 C5.41811539 -0.03245193 5.41811539 -0.03245193 7.36979675 -0.03897095 C8.72156994 -0.04687141 10.07334102 -0.05514032 11.42510986 -0.06375122 C15.87043746 -0.08997711 20.3157745 -0.10527906 24.76115417 -0.11953735 C26.29087009 -0.12489674 27.82058595 -0.13027424 29.35030174 -0.13566971 C35.7129335 -0.15729896 42.07556271 -0.17603613 48.43822193 -0.1872921 C57.55987949 -0.20353453 66.68111128 -0.23671837 75.80260831 -0.29369295 C82.21456341 -0.33237922 88.62640456 -0.35192318 95.03847331 -0.35721266 C98.8690309 -0.3608679 102.69913445 -0.37290642 106.52956581 -0.4053154 C110.1338448 -0.43537371 113.73739452 -0.44171654 117.34177208 -0.42993164 C119.29344376 -0.42960544 121.24507027 -0.45408607 123.19657898 -0.47930908 C132.73810547 -0.41118743 132.73810547 -0.41118743 135.81686401 2.50286865 C138.39285436 6.43379196 138.67073212 9.24211857 138.61662292 13.84140015 C138.60759949 14.83526733 138.59857605 15.82913452 138.58927917 16.8531189 C138.57187683 17.99200562 138.57187683 17.99200562 138.55412292 19.15390015 C139.54412292 18.82390015 140.53412292 18.49390015 141.55412292 18.15390015 C145.14790486 17.75256803 148.75630759 17.59526786 152.36662292 17.40390015 C153.35211121 17.33557983 154.33759949 17.26725952 155.35295105 17.1968689 C160.8427752 16.90928912 164.91818855 16.77959687 169.55412292 20.15390015 C172.73348949 24.54270875 171.9786755 29.99187995 171.55412292 35.15390015 C168.58787314 52.65228121 158.07760899 65.76268097 144.27677917 76.2828064 C137.04686819 81.25142528 129.63298908 85.48579082 121.36662292 88.46640015 C115.34007262 90.84194511 111.77948375 94.55856379 107.40959167 99.2437439 C104.49878469 102.3116712 101.30371399 104.86585914 97.92912292 107.40390015 C97.3814325 107.81841431 96.83374207 108.23292847 96.26945496 108.66000366 C93.82765465 110.493371 91.36328249 112.28890517 88.87052917 114.05233765 C82.99667341 118.31546449 79.82448543 122.31117598 77.97209167 129.37265015 C77.41298375 133.09306922 77.36990341 136.77603021 77.36662292 140.52890015 C77.35437683 141.25850952 77.34213074 141.9881189 77.32951355 142.73983765 C77.31670249 147.52263267 77.69498556 151.67482569 79.55412292 156.15390015 C82.15183678 158.82059955 82.15183678 158.82059955 85.42912292 161.02890015 C86.00049988 161.44599243 86.57187683 161.86308472 87.16056824 162.29281616 C88.94775889 163.59538241 90.75013512 164.87473537 92.55412292 166.15390015 C94.27781439 167.3993172 95.99569265 168.65171444 97.70695496 169.91415405 C99.2266259 171.03427837 100.75729599 172.13943465 102.28849792 173.2437439 C104.55412292 175.15390015 104.55412292 175.15390015 105.55412292 178.15390015 C102.78686298 180.92116009 99.77270102 181.07043391 96.05412292 181.71640015 C95.38381042 181.84208374 94.71349792 181.96776733 94.02287292 182.09725952 C83.59512902 183.9833382 73.26549047 184.37925958 62.67912292 184.40390015 C62.00069336 184.4055719 61.32226379 184.40724365 60.62327576 184.40896606 C33.12416759 184.41301136 33.12416759 184.41301136 21.55412292 179.15390015 C21.55412292 175.15390015 21.55412292 175.15390015 23.07951355 173.50985718 C23.78269714 172.98246948 24.48588074 172.45508179 25.21037292 171.91171265 C25.98638855 171.32003296 26.76240417 170.72835327 27.56193542 170.1187439 C28.79556824 169.20802124 28.79556824 169.20802124 30.05412292 168.27890015 C30.8456073 167.67948608 31.63709167 167.08007202 32.45256042 166.4624939 C35.5728138 164.10440077 38.6927443 161.75641655 41.89787292 159.51449585 C42.61974792 159.00233521 43.34162292 158.49017456 44.08537292 157.9624939 C44.73054871 157.51704224 45.37572449 157.07159058 46.04045105 156.61264038 C48.44104055 154.29916905 48.5342084 151.99980907 48.60490417 148.7749939 C48.58814636 147.91003296 48.57138855 147.04507202 48.55412292 146.15390015 C48.60632996 144.59348999 48.60632996 144.59348999 48.65959167 143.0015564 C48.88520461 133.79439977 48.69237273 125.62964261 42.69865417 118.2359314 C39.48945177 115.12025766 35.8516392 112.66877088 32.16496277 110.16171265 C26.3760151 106.17962296 21.36275491 101.56965239 16.29631042 96.7203064 C11.92275548 92.62710753 8.09672516 90.45856261 2.49162292 88.40390015 C-14.76002835 81.74251589 -30.43294667 69.69848142 -39.03962708 53.07577515 C-42.94164365 44.22817943 -46.76480963 33.29907142 -43.19587708 23.84140015 C-41.30725253 20.94101245 -40.59821332 20.33312762 -37.44587708 19.15390015 C-34.69685364 18.92684937 -34.69685364 18.92684937 -31.58650208 18.95858765 C-30.47146301 18.96503296 -29.35642395 18.97147827 -28.20759583 18.9781189 C-27.04872864 18.99487671 -25.88986145 19.01163452 -24.69587708 19.02890015 C-22.93437317 19.0424353 -22.93437317 19.0424353 -21.13728333 19.0562439 C-18.23994171 19.07979952 -15.34301266 19.11269362 -12.44587708 19.15390015 C-12.4072052 17.83325562 -12.4072052 17.83325562 -12.36775208 16.4859314 C-12.28267395 14.74376343 -12.28267395 14.74376343 -12.19587708 12.96640015 C-12.14947083 11.81784546 -12.10306458 10.66929077 -12.05525208 9.4859314 C-11.35105414 5.63541322 -10.14901615 3.93325555 -7.44587708 1.15390015 C-4.83903096 -0.14952291 -2.92047405 0.01612346 0 0 Z M-8.44587708 7.15390015 C-9.3827728 10.07869642 -9.33741424 13.09434443 -9.44587708 16.15390015 C-9.49743958 17.05753296 -9.54900208 17.96116577 -9.60212708 18.8921814 C-10.35992881 43.23656222 -4.15721998 67.30044886 12.30412292 85.65390015 C13.02084167 86.40671265 13.73756042 87.15952515 14.47599792 87.93515015 C16.55412292 90.15390015 16.55412292 90.15390015 18.51115417 92.6734314 C20.65114058 95.27169404 22.86725841 97.23796212 25.49162292 99.34140015 C26.45197449 100.11483765 27.41232605 100.88827515 28.40177917 101.68515015 C30.57582544 103.40182825 32.77383092 105.08271833 34.98771667 106.74765015 C35.56078552 107.18053345 36.13385437 107.61341675 36.72428894 108.05941772 C38.34678701 109.27948609 39.97759181 110.48848459 41.60881042 111.6968689 C49.86825123 118.58703901 52.33650081 125.33569449 53.33927917 135.77108765 C54.41869496 155.89772315 54.41869496 155.89772315 49.74162292 161.1812439 C46.87041177 163.64978764 43.72390869 165.49434988 40.35441589 167.20272827 C37.73231567 168.58809611 35.48952481 170.36807864 33.17912292 172.21640015 C32.47013855 172.74362671 31.76115417 173.27085327 31.03068542 173.8140564 C30.5434198 174.25620483 30.05615417 174.69835327 29.55412292 175.15390015 C29.55412292 175.81390015 29.55412292 176.47390015 29.55412292 177.15390015 C52.77932567 180.51736512 73.32892018 180.51736512 96.55412292 177.15390015 C95.19434062 173.98064918 93.81823804 172.30155223 91.03459167 170.27890015 C89.99528503 169.51319702 89.99528503 169.51319702 88.9349823 168.73202515 C88.21117371 168.2112439 87.48736511 167.69046265 86.74162292 167.15390015 C85.31796509 166.11289062 83.89477736 165.07123785 82.47209167 164.02890015 C81.78768005 163.53937866 81.10326843 163.04985718 80.39811707 162.54550171 C78.55412292 161.15390015 78.55412292 161.15390015 76.12443542 158.76327515 C72.20640112 156.31003786 68.72040877 156.95849603 64.24162292 157.40390015 C62.98768738 157.50251343 62.98768738 157.50251343 61.7084198 157.6031189 C59.65534785 157.76736465 57.60441906 157.95802554 55.55412292 158.15390015 C55.88412292 157.49390015 56.21412292 156.83390015 56.55412292 156.15390015 C61.83412292 156.15390015 67.11412292 156.15390015 72.55412292 156.15390015 C72.59150574 154.23706421 72.62888855 152.32022827 72.66740417 150.3453064 C72.7330902 147.80231894 72.79953661 145.25935105 72.86662292 142.71640015 C72.88918152 141.45634155 72.91174011 140.19628296 72.9349823 138.89804077 C73.41287567 122.25866262 73.41287567 122.25866262 79.55412292 116.15390015 C79.55412292 115.49390015 79.55412292 114.83390015 79.55412292 114.15390015 C80.0981073 113.90768921 80.64209167 113.66147827 81.20256042 113.4078064 C90.21004057 108.60481449 98.18457651 101.1094271 105.55412292 94.15390015 C106.38814636 93.3959314 107.2221698 92.63796265 108.08146667 91.85702515 C125.48835341 75.4425187 134.08047516 52.94660716 134.86662292 29.2671814 C135.62001295 16.87601502 135.62001295 16.87601502 132.55412292 5.15390015 C129.18840887 2.91009078 128.07036804 2.89993759 124.13311768 2.88647461 C123.00727768 2.87794464 121.88143768 2.86941467 120.72148132 2.86062622 C118.86758789 2.86198578 118.86758789 2.86198578 116.97624207 2.8633728 C115.6752507 2.85665558 114.37425934 2.84993835 113.03384399 2.84301758 C109.46360023 2.82533849 105.8934523 2.82066144 102.32316899 2.81938601 C99.34347661 2.81748745 96.36380657 2.81013051 93.38412279 2.80304182 C86.35492187 2.7867534 79.32577219 2.78187331 72.29655457 2.78329468 C65.04317995 2.78449661 57.79010266 2.76338581 50.53680331 2.73180735 C44.31081524 2.70566644 38.08492443 2.69492644 31.85888189 2.6962055 C28.13968198 2.69671573 24.42074632 2.69099888 20.70160103 2.6698494 C16.55465955 2.64691109 12.40838554 2.6559744 8.26139832 2.6680603 C7.02749359 2.65682129 5.79358887 2.64558228 4.52229309 2.63400269 C3.39363327 2.64239166 2.26497345 2.65078064 1.10211182 2.65942383 C0.12153337 2.65833429 -0.85904509 2.65724476 -1.86933804 2.65612221 C-5.17195597 3.29417594 -6.35773826 4.57604754 -8.44587708 7.15390015 Z M138.55412292 22.15390015 C138.52834167 23.16065796 138.50256042 24.16741577 138.47599792 25.2046814 C137.69889495 46.8618632 132.52500793 65.91255156 120.55412292 84.15390015 C137.79414038 78.98960282 153.48407929 64.91623533 162.07756042 49.40390015 C165.81723713 41.79484696 169.15359619 32.60218827 166.55412292 24.15390015 C164.71456315 21.88550038 164.71456315 21.88550038 161.94035339 21.92684937 C160.86156921 21.937323 159.78278503 21.94779663 158.67131042 21.95858765 C156.92140808 21.96825562 156.92140808 21.96825562 155.13615417 21.9781189 C153.91283386 21.99487671 152.68951355 22.01163452 151.42912292 22.02890015 C149.58254089 22.0424353 149.58254089 22.0424353 147.69865417 22.0562439 C144.65028478 22.07987467 141.6022991 22.1128196 138.55412292 22.15390015 Z M-25.38337708 22.46640015 C-26.29023254 22.48895874 -27.19708801 22.51151733 -28.13142395 22.53475952 C-29.4453009 22.58793335 -29.4453009 22.58793335 -30.78572083 22.6421814 C-31.98249451 22.68145752 -31.98249451 22.68145752 -33.20344543 22.7215271 C-35.97287358 23.25551265 -37.39593209 24.24013932 -39.44587708 26.15390015 C-41.74050654 37.08713466 -36.92172673 47.6322557 -31.19978333 56.6812439 C-22.18039221 69.39677747 -10.21481817 78.19540303 3.55412292 85.15390015 C4.21412292 85.15390015 4.87412292 85.15390015 5.55412292 85.15390015 C4.38770872 82.73134758 3.12709554 80.41202256 1.78459167 78.0796814 C-8.27301387 60.47025651 -11.2999564 42.26782355 -12.44587708 22.15390015 C-16.76317561 22.15390015 -21.06945314 22.30458984 -25.38337708 22.46640015 Z " fill="#191919" transform="translate(136.4458770751953,16.846099853515625)"/>
<path d="M0 0 C1.32 0 2.64 0 4 0 C4.4125 1.09957031 4.825 2.19914062 5.25 3.33203125 C10.58294916 17.15071273 17.57211671 28.26636685 29 38 C29.67861084 38.24427734 30.35722168 38.48855469 31.05639648 38.74023438 C33.81146317 39.84361262 35.14414802 40.64788466 37 43 C38.21733809 49.24034277 38.11860922 55.41261077 38.0625 61.75 C38.07917479 63.50133899 38.09931931 65.25264861 38.12304688 67.00390625 C38.16255547 71.34279169 38.18790807 75.6642296 38 80 C36.22083533 81.77916467 33.61686701 81.12764835 31.2109375 81.12939453 C29.9729541 81.13254669 28.7349707 81.13569885 27.45947266 81.13894653 C26.09798141 81.13715675 24.73649049 81.1351058 23.375 81.1328125 C21.98876936 81.13348559 20.60253883 81.13445566 19.21630859 81.13571167 C16.30760578 81.1371884 13.39893363 81.1350349 10.49023438 81.13037109 C6.75403402 81.12467381 3.01790548 81.12795294 -0.71829224 81.13394356 C-3.58179266 81.13754985 -6.44527593 81.13641027 -9.30877686 81.13381577 C-10.68674732 81.13314668 -12.06471932 81.13397426 -13.44268799 81.13629532 C-15.36543754 81.13882292 -17.28819252 81.13429024 -19.2109375 81.12939453 C-20.85521729 81.12820114 -20.85521729 81.12820114 -22.53271484 81.12698364 C-25 81 -25 81 -26 80 C-27.30634353 53.0022338 -20.35304853 23.42161755 -2 3 C-1.34 2.01 -0.68 1.02 0 0 Z " fill="#f00050" transform="translate(68,309)"/>
<path d="M0 0 C0.42042837 6.2013185 0.07430176 8.1849161 -4 13 C-5.03486732 16.86350466 -5.3989764 19.02472435 -3.875 22.75 C-2.13209531 25.13449525 -2.13209531 25.13449525 0.49609375 26.3046875 C3.60847123 28.41197584 3.95457444 29.80517084 4.9375 33.375 C6.68244668 38.74461234 8.31883044 40.91242008 13 44 C13.99 44.66 14.98 45.32 16 46 C16.1875 49.625 16.1875 49.625 16 53 C9.85221129 54.6277833 4.35987804 55.20190089 -2 55 C-2 54.01 -2 53.02 -2 52 C-3.8871875 51.7215625 -3.8871875 51.7215625 -5.8125 51.4375 C-16.56759187 49.00238486 -25.23004303 41.43545794 -31.08349609 32.31103516 C-40 17.74416028 -40 17.74416028 -40 11 C-37.88862972 9.27196208 -35.94117041 7.89819052 -33.625 6.5 C-32.98594727 6.10562744 -32.34689453 5.71125488 -31.68847656 5.30493164 C-21.4640408 -0.87307978 -11.72257102 -4.93581938 0 0 Z " fill="#f00050" transform="translate(178,251)"/>
<path d="M0 0 C11.76551465 -0.57968777 24.75770698 0.25256899 36 4 C36.23524251 9.45334906 35.50296101 13.97128375 33.9375 19.1875 C33.60468018 20.29907471 33.60468018 20.29907471 33.26513672 21.43310547 C29.78536973 32.4337359 24.18176093 42.85525623 13.9609375 48.75390625 C5.70519142 53 5.70519142 53 3 53 C2.67 54.65 2.34 56.3 2 58 C-3.61 58.66 -9.22 59.32 -15 60 C-15 52.88888889 -15 52.88888889 -11 48 C-9.07499885 43.57316809 -7.30144364 39.06282018 -6.6015625 34.2734375 C-6.40304688 33.52320313 -6.20453125 32.77296875 -6 32 C-4.23163483 31.03543718 -2.4614252 30.07331639 -0.66796875 29.15625 C1.36634141 27.94909678 1.36634141 27.94909678 2.625 24.625 C3.06675235 20.35472725 2.35711407 18.53567111 0 15 C-0.66 14.67 -1.32 14.34 -2 14 C-1.33333333 9.33333333 -0.66666667 4.66666667 0 0 Z " fill="#f00050" transform="translate(233,242)"/>
<path d="M0 0 C3.86790003 1.93395001 4.87634236 2.7803006 7.25 6.125 C7.77078125 6.84945312 8.2915625 7.57390625 8.828125 8.3203125 C9.40820312 9.15175781 9.40820312 9.15175781 10 10 C13.19174043 9.54403708 16.02784655 8.98977066 19.0625 7.875 C22.21843086 6.93493549 23.88254156 7.08310046 27 8 C25.63968068 12.08095797 23.61869588 14.96930897 20.92578125 18.25390625 C19.81933168 19.9619816 19.81933168 19.9619816 20.16015625 21.96484375 C21.46120897 25.11762731 23.63175291 27.41810482 25.8203125 30 C27 32 27 32 26.6796875 34.25 C26.45539062 34.8275 26.23109375 35.405 26 36 C25.41992188 35.86722656 24.83984375 35.73445313 24.2421875 35.59765625 C23.46101563 35.42105469 22.67984375 35.24445313 21.875 35.0625 C21.10929687 34.88847656 20.34359375 34.71445313 19.5546875 34.53515625 C16.71449055 33.94019145 13.86473381 33.46084848 11 33 C10.46890625 33.721875 9.9378125 34.44375 9.390625 35.1875 C8.68421875 36.115625 7.9778125 37.04375 7.25 38 C6.55390625 38.928125 5.8578125 39.85625 5.140625 40.8125 C4.43421875 41.534375 3.7278125 42.25625 3 43 C1.68 43 0.36 43 -1 43 C-1.495 35.575 -1.495 35.575 -2 28 C-3.959375 27.4225 -5.91875 26.845 -7.9375 26.25 C-11.27734375 25.265625 -11.27734375 25.265625 -14 24 C-14.87890625 21.859375 -14.87890625 21.859375 -15 20 C-10.34932255 18.23594993 -5.72354447 16.57451482 -1 15 C-0.67 10.05 -0.34 5.1 0 0 Z " fill="#f00050" transform="translate(33,94)"/>
<path d="M0 0 C0 0.99 0 1.98 0 3 C-1.17175781 3.4846875 -2.34351563 3.969375 -3.55078125 4.46875 C-12.9164096 8.43274173 -21.11676045 12.47114963 -29 19 C-24.95911203 23.98581399 -20.6500731 28.30046795 -15.75 32.4375 C-14.81414062 33.24864258 -14.81414062 33.24864258 -13.859375 34.07617188 C-10.84964688 36.9976761 -10.84964688 36.9976761 -7 38 C-5.9103488 36.8131637 -4.87751435 35.57380294 -3.875 34.3125 C-0.52075049 30.37703398 3.08286599 26.85533098 8 25 C10.23828125 25.37890625 10.23828125 25.37890625 12 26 C7.73206099 31.46829686 2.73252326 37.75582558 -4 40 C-4.020625 40.680625 -4.04125 41.36125 -4.0625 42.0625 C-5.46887896 46.46915407 -8.6309507 48.94762374 -12 52 C-12.99 51.67 -13.98 51.34 -15 51 C-14.34 50.05125 -13.68 49.1025 -13 48.125 C-10.82031543 45.33761045 -10.82031543 45.33761045 -11 43 C-12.88026221 41.28046988 -14.77383957 39.66550617 -16.75 38.0625 C-21.55003771 34.09371274 -26.23745177 30.03920489 -30.8125 25.8125 C-31.33360352 25.33111572 -31.85470703 24.84973145 -32.39160156 24.35375977 C-33.59629793 23.23788423 -34.79845945 22.11927291 -36 21 C-36.60328125 21.433125 -37.2065625 21.86625 -37.828125 22.3125 C-38.62734375 22.869375 -39.4265625 23.42625 -40.25 24 C-41.03890625 24.556875 -41.8278125 25.11375 -42.640625 25.6875 C-45 27 -45 27 -49 27 C-46.38743618 21.92855259 -42.31869367 16.4523266 -36.96484375 14.109375 C-35 14 -35 14 -33.25 15.4375 C-32.8375 15.953125 -32.425 16.46875 -32 17 C-31.62230469 16.49210937 -31.24460938 15.98421875 -30.85546875 15.4609375 C-23.4845985 6.24303419 -11.96662656 0 0 0 Z " fill="#1A1A1A" transform="translate(161,132)"/>
<path d="M0 0 C1.70061081 -0.00478867 1.70061081 -0.00478867 3.43557739 -0.00967407 C10.21765998 0.01587352 16.89059773 0.41470585 23.6328125 1.1484375 C23.9628125 2.1384375 24.2928125 3.1284375 24.6328125 4.1484375 C23.61451103 4.17935989 23.61451103 4.17935989 22.57563782 4.21090698 C14.4318048 4.4583721 6.28800523 4.7069235 -1.85577393 4.95615387 C-3.3171583 5.00087015 -4.77854339 5.04556329 -6.2399292 5.09023285 C-23.47698037 5.61716344 -40.71362593 6.1537225 -57.94921875 6.7265625 C-58.64885931 6.74977192 -59.34849987 6.77298134 -60.06934166 6.79689407 C-67.43914319 7.04140505 -74.80885713 7.28833379 -82.1784668 7.53857422 C-84.59553925 7.61949951 -87.01261276 7.70039316 -89.4296875 7.78125 C-90.51131668 7.81865295 -91.59294586 7.85605591 -92.70735168 7.89459229 C-98.59810871 8.09029208 -104.47316289 8.18447017 -110.3671875 8.1484375 C-110.6971875 7.1584375 -111.0271875 6.1684375 -111.3671875 5.1484375 C-100.37359002 3.45788406 -89.52856534 2.68314933 -78.421875 2.296875 C-76.71914936 2.23294289 -75.01644173 2.16852938 -73.31375122 2.10366821 C-69.75895958 1.96982748 -66.20403524 1.84092753 -62.64892578 1.71582031 C-58.18588526 1.55849662 -53.72334922 1.39009585 -49.26084518 1.21830368 C-32.84297651 0.5894141 -16.4314284 0.02852841 0 0 Z " fill="#191919" transform="translate(243.3671875,29.8515625)"/>
<path d="M0 0 C0.99 0 1.98 0 3 0 C3.20023914 8.36554613 3.1224874 16.5631709 2.0625 24.875 C1.97564941 25.55820312 1.88879883 26.24140625 1.79931641 26.9453125 C1.14419181 31.71161637 1.14419181 31.71161637 0 34 C1.25296875 33.62746094 2.5059375 33.25492187 3.796875 32.87109375 C5.44776644 32.39271043 7.09881653 31.91487436 8.75 31.4375 C9.575 31.19064453 10.4 30.94378906 11.25 30.68945312 C12.04921875 30.46064453 12.8484375 30.23183594 13.671875 29.99609375 C14.4050293 29.78138428 15.13818359 29.5666748 15.89355469 29.34545898 C18.23869816 28.96085328 19.75825808 29.27121236 22 30 C21.40512305 35.71742844 18.13756911 39.87930328 15.0625 44.56054688 C12.68384405 48.03803862 12.68384405 48.03803862 12.20581055 52.06616211 C13.5559981 55.35384596 16.61834975 57.01001159 19.4375 59 C26.6436339 64.11953538 26.6436339 64.11953538 28 68 C22.35453639 67.14628674 18.81417804 64.4470774 14.25 61.1875 C13.08017578 60.38602539 13.08017578 60.38602539 11.88671875 59.56835938 C10.77490234 58.78235352 10.77490234 58.78235352 9.640625 57.98046875 C8.96547852 57.50504639 8.29033203 57.02962402 7.59472656 56.53979492 C5.67499281 54.68618794 5.20186832 53.65217578 5 51 C5.71264648 49.16894531 5.71264648 49.16894531 6.87109375 47.328125 C7.28037109 46.66425781 7.68964844 46.00039063 8.11132812 45.31640625 C8.54896484 44.63449219 8.98660156 43.95257813 9.4375 43.25 C9.87126953 42.55261719 10.30503906 41.85523438 10.75195312 41.13671875 C11.82352027 39.41750114 12.91032356 37.707797 14 36 C12.57107422 36.34224609 12.57107422 36.34224609 11.11328125 36.69140625 C9.23189453 37.12259766 9.23189453 37.12259766 7.3125 37.5625 C6.07113281 37.85253906 4.82976562 38.14257812 3.55078125 38.44140625 C0.23888546 38.96241956 -1.81860153 38.91852996 -5 38 C-3.45541868 25.31626161 -1.74668267 12.65732372 0 0 Z " fill="#191919" transform="translate(156,314)"/>
<path d="M0 0 C3 1 3 1 4.2109375 3.37890625 C6.53542942 9.73615766 8.7502 16.11540327 10.8125 22.5625 C11.03147949 23.24062744 11.25045898 23.91875488 11.47607422 24.61743164 C12.51152337 27.94780656 13 30.46941477 13 34 C6.565 34.495 6.565 34.495 0 35 C3.3 37.31 6.6 39.62 10 42 C8.87915317 46.48338733 7.65144262 47.73183728 4.5 51 C-0.15741495 55.95810889 -4.16111221 61.11677913 -8.08984375 66.6640625 C-10 69 -10 69 -13 70 C-13 65.14754177 -11.22110529 63.02097737 -8.4375 59.3125 C-7.98584473 58.69616699 -7.53418945 58.07983398 -7.06884766 57.44482422 C-3.47148842 52.5595058 0.21304425 47.73996448 4 43 C3.29488281 42.73960937 2.58976562 42.47921875 1.86328125 42.2109375 C-1.21652785 40.90842615 -3.96223116 39.37255439 -6.8125 37.625 C-7.78832031 37.03976562 -8.76414063 36.45453125 -9.76953125 35.8515625 C-10.50558594 35.24054688 -11.24164063 34.62953125 -12 34 C-12 32.68 -12 31.36 -12 30 C-5.73 30 0.54 30 7 30 C6.4946875 28.16953125 5.989375 26.3390625 5.46875 24.453125 C4.81223498 22.05215578 4.15599949 19.65111012 3.5 17.25 C3.16613281 16.0434375 2.83226562 14.836875 2.48828125 13.59375 C2.17246094 12.43359375 1.85664063 11.2734375 1.53125 10.078125 C1.09135742 8.47565918 1.09135742 8.47565918 0.64257812 6.84082031 C0 4 0 4 0 0 Z " fill="#191919" transform="translate(251,306)"/>
<path d="M0 0 C7.9139974 -0.32156197 17.78923525 -0.60538237 25 3 C23.70788253 27.58423493 23.70788253 27.58423493 21 33 C17.18788097 33.1958691 13.37529466 33.38029565 9.5625 33.5625 C8.47388672 33.61857422 7.38527344 33.67464844 6.26367188 33.73242188 C5.22919922 33.78076172 4.19472656 33.82910156 3.12890625 33.87890625 C2.17056885 33.9260376 1.21223145 33.97316895 0.22485352 34.02172852 C-2 34 -2 34 -3 33 C-3.82869462 22.51604941 -2.93414157 10.1505438 0 0 Z M4 4 C1.89181418 12.5645049 1.84033894 20.21864194 2 29 C7.61 29 13.22 29 19 29 C19.66 21.41 20.32 13.82 21 6 C15.39 5.34 9.78 4.68 4 4 Z " fill="#f00050" transform="translate(326,109)"/>
<path d="M0 0 C3.02798378 2.14174462 4.75225165 3.54012798 6.5625 6.8125 C7.38690161 11.84303225 7.13018467 15.6561053 4.875 20.25 C0.97274069 24.57412518 -2.59249977 26.46867646 -8.4375 26.8125 C-14.2594477 26.18217102 -17.67696684 24.48467756 -21.4375 19.8125 C-22.98007217 15.18478349 -23.37590059 10.39431716 -21.68359375 5.73828125 C-17.14151935 -2.75806969 -8.45732762 -2.92162227 0 0 Z M-17.4375 6.8125 C-18.718064 10.95550116 -18.71349125 13.04262967 -17.25 17.125 C-15.34882939 19.94397712 -14.66532994 20.91588057 -11.4375 21.8125 C-8.12016291 22.24252518 -5.63260514 22.53009662 -2.6875 20.76171875 C0.92704136 17.81621509 2.41438336 16.12086364 2.9375 11.5 C2.84927364 7.74992689 2.84927364 7.74992689 0.625 4.9375 C-6.13190469 0.24903552 -12.14108247 0.45679896 -17.4375 6.8125 Z " fill="#f00050" transform="translate(340.4375,11.1875)"/>
<path d="M0 0 C2.4375 0.75 2.4375 0.75 5 2 C6.12280209 4.43273786 6.07358593 6.82416244 6.3125 9.5 C6.72702293 13.25880965 7.83265277 16.51409645 9.125 20.0625 C11.45546422 26.84125906 11.05479925 31.03530477 7.9375 37.4375 C7.3014948 38.63029266 6.65907418 39.8197974 6 41 C2.01286892 38.0381312 -1.39597919 35.26112496 -4 31 C-3.9265944 24.93879502 -1.440362 18.90702496 0.51171875 13.2265625 C1.37718547 9.28003428 -0.15131335 6.45088174 -2 3 C-1.34 2.01 -0.68 1.02 0 0 Z " fill="#f00050" transform="translate(207,325)"/>
<path d="M0 0 C4.31072589 1.54744006 6.53747895 4.8416386 9.1875 8.375 C9.63802734 8.9525 10.08855469 9.53 10.55273438 10.125 C12.7833023 13.0545015 14.26939585 15.4020548 15 19 C12.27831329 20.37134601 9.5493512 21.72204712 6.8125 23.0625 C5.65911133 23.64741211 5.65911133 23.64741211 4.48242188 24.24414062 C-1.31719008 27.05682797 -1.31719008 27.05682797 -5.05078125 26.74609375 C-5.69402344 26.49988281 -6.33726563 26.25367187 -7 26 C-3.51207729 3.51207729 -3.51207729 3.51207729 0 0 Z M2 8 C1.46605821 9.4117783 0.94834896 10.82970244 0.4375 12.25 C0.14746094 13.03890625 -0.14257812 13.8278125 -0.44140625 14.640625 C-1.25632628 17.27666421 -1.25632628 17.27666421 0 21 C3.3 19.68 6.6 18.36 10 17 C9.05125 15.700625 8.1025 14.40125 7.125 13.0625 C6.59132813 12.33160156 6.05765625 11.60070312 5.5078125 10.84765625 C4.11987896 8.88901765 4.11987896 8.88901765 2 8 Z " fill="#191919" transform="translate(55,58)"/>
<path d="M0 0 C-0.22544633 4.35862913 -0.46489673 7.85851145 -3 11.5 C-6.56294062 14.46911718 -8.39634473 14.78719133 -12.91015625 14.44921875 C-15 14 -15 14 -17.5 12.4375 C-19.42061885 9.31649437 -19.72139186 6.6219058 -20 3 C-16.10576926 1.91323793 -12.25898921 1.6149902 -8.2421875 1.28125 C-4.98395818 0.87255225 -3.54853415 0 0 0 Z M-16 6 C-15.67 6.99 -15.34 7.98 -15 9 C-12.69 9.33 -10.38 9.66 -8 10 C-7.34 8.68 -6.68 7.36 -6 6 C-9.3 6 -12.6 6 -16 6 Z " fill="#191919" transform="translate(216,272)"/>
<path d="M0 0 C0.66 0 1.32 0 2 0 C3.33143119 3.02597997 2.90647493 4.31358405 1.9375 7.5625 C-0.41361369 11.73383074 -1.51545044 12.42647384 -6 14 C-9.12537057 14.69452679 -12.24309643 15.37371202 -15.390625 15.9609375 C-18.23772229 16.76610317 -18.23772229 16.76610317 -19.359375 19.6015625 C-19.67648437 20.78878906 -19.67648437 20.78878906 -20 22 C-20.66 22 -21.32 22 -22 22 C-22.43195891 18.28515335 -22.31515192 16.4839833 -20.25 13.3125 C-16.21680195 10.44272446 -12.55753296 9.69807989 -7.7421875 8.7734375 C-4.86380812 7.96158691 -3.78766772 7.34305963 -2 5 C-0.80972016 2.40084462 -0.80972016 2.40084462 0 0 Z " fill="#f00050" transform="translate(378,40)"/>
<path d="M0 0 C0.66 0 1.32 0 2 0 C2 2.31 2 4.62 2 7 C3.65 7.66 5.3 8.32 7 9 C7 9.99 7 10.98 7 12 C1.25 12.125 1.25 12.125 -1 11 C-1.268125 11.94875 -1.53625 12.8975 -1.8125 13.875 C-3 17 -3 17 -6 19 C-6.84454356 15.62182575 -7.10844919 13.32534757 -6 10 C-8.97 9.505 -8.97 9.505 -12 9 C-12.33 7.68 -12.66 6.36 -13 5 C-12.39671875 5.05800781 -11.7934375 5.11601563 -11.171875 5.17578125 C-8.69679296 5.31550362 -6.45544644 5.36047141 -4 5 C-1.52791204 2.64167228 -1.52791204 2.64167228 0 0 Z " fill="#1A1A1A" transform="translate(340,62)"/>
<path d="M0 0 C1.09183594 0.00064453 2.18367188 0.00128906 3.30859375 0.00195312 C11.34351504 0.04675752 11.34351504 0.04675752 13.625 1.1875 C13.625 1.8475 13.625 2.5075 13.625 3.1875 C10.6940072 4.6529964 7.65895339 4.56603567 4.4375 4.75 C3.73367187 4.7924585 3.02984375 4.83491699 2.3046875 4.87866211 C-4.92463122 5.27894859 -12.13656959 5.28110039 -19.375 5.1875 C-19.705 4.1975 -20.035 3.2075 -20.375 2.1875 C-13.50644921 0.08369449 -7.15330988 -0.081974 0 0 Z " fill="#191919" transform="translate(203.375,124.8125)"/>
<path d="M0 0 C0.66 0 1.32 0 2 0 C2.3125 2.25 2.3125 2.25 2 5 C-0.9571496 8.35143622 -3.79522638 9.25842652 -8 10.25 C-12.16599934 11.34729447 -13.80365143 12.46808828 -16 16.1875 C-16.350625 16.90292969 -16.70125 17.61835937 -17.0625 18.35546875 C-17.371875 18.89816406 -17.68125 19.44085938 -18 20 C-18.66 20 -19.32 20 -20 20 C-21.35688365 16.91617353 -20.90841398 15.72524195 -19.8125 12.4375 C-17.99949525 8.99904272 -17.2126427 7.95191544 -14 6 C-10.91433641 5.11604332 -7.82297089 4.48931432 -4.6796875 3.84375 C-1.68654445 3.20911397 -1.68654445 3.20911397 0 0 Z " fill="#f00050" transform="translate(364,35)"/>
<path d="M0 0 C-0.0703125 1.828125 -0.0703125 1.828125 -1 4 C-3.33792501 5.13607609 -5.42232156 5.97160504 -7.875 6.75 C-8.51308594 6.97042969 -9.15117187 7.19085938 -9.80859375 7.41796875 C-12.65920663 8.37610794 -14.9743871 9 -18 9 C-17.73828125 7.13671875 -17.73828125 7.13671875 -17 5 C-15.29296875 3.76953125 -15.29296875 3.76953125 -13.1875 2.8125 C-12.50042969 2.48894531 -11.81335938 2.16539063 -11.10546875 1.83203125 C-7.2961969 0.32669748 -4.09598461 -0.11377735 0 0 Z " fill="#1A1A1A" transform="translate(382,86)"/>
<path d="M0 0 C0.99 0 1.98 0 3 0 C3 4.62 3 9.24 3 14 C3.99 14 4.98 14 6 14 C6 14.99 6 15.98 6 17 C3.69 17 1.38 17 -1 17 C-1.02691685 14.54159395 -1.04679802 12.08348118 -1.0625 9.625 C-1.07087891 8.92632812 -1.07925781 8.22765625 -1.08789062 7.5078125 C-1.11328125 2.2265625 -1.11328125 2.2265625 0 0 Z " fill="#191919" transform="translate(201,253)"/>
<path d="M0 0 C0 0.66 0 1.32 0 2 C-1.91149668 3.0098473 -3.82941569 4.00754495 -5.75 5 C-6.81734375 5.556875 -7.8846875 6.11375 -8.984375 6.6875 C-12 8 -12 8 -16 8 C-15.9375 6.25 -15.9375 6.25 -15 4 C-10.1793699 0.44339116 -5.94188744 -1.44532397 0 0 Z " fill="#1A1A1A" transform="translate(167,139)"/>
<path d="M0 0 C3.91784128 1.33110544 6.38894988 2.95695562 9.3125 5.875 C10.00988281 6.55304688 10.70726562 7.23109375 11.42578125 7.9296875 C13 10 13 10 13 14 C9.08215872 12.66889456 6.61105012 11.04304438 3.6875 8.125 C2.99011719 7.44695312 2.29273438 6.76890625 1.57421875 6.0703125 C0 4 0 4 0 0 Z " fill="#191919" transform="translate(362,110)"/>
<path d="M0 0 C5.33489907 0.45990509 9.37523328 1.06722111 14 4 C14.33 4.99 14.66 5.98 15 7 C9.01488629 6.65697965 4.24882694 6.17692157 -1 3 C-0.67 2.01 -0.34 1.02 0 0 Z " fill="#1A1A1A" transform="translate(366,100)"/>
<path d="M0 0 C0.99 0 1.98 0 3 0 C4.59162079 5.57067277 5.20674944 10.21101581 5 16 C4.01 16 3.02 16 2 16 C0.40837921 10.42932723 -0.20674944 5.78898419 0 0 Z " fill="#1A1A1A" transform="translate(60,136)"/>
<path d="M0 0 C1.31291016 0.13535156 1.31291016 0.13535156 2.65234375 0.2734375 C5.0625 0.625 5.0625 0.625 8.0625 1.625 C8.0625 2.615 8.0625 3.605 8.0625 4.625 C6.12530622 4.67906122 4.18768079 4.71782025 2.25 4.75 C1.17105469 4.77320313 0.09210938 4.79640625 -1.01953125 4.8203125 C-3.9375 4.625 -3.9375 4.625 -6.9375 2.625 C-6.9375 1.965 -6.9375 1.305 -6.9375 0.625 C-4.36021711 -0.66364145 -2.84878844 -0.30955998 0 0 Z " fill="#1A1A1A" transform="translate(229.9375,141.375)"/>
<path d="M0 0 C2.5 0.125 2.5 0.125 3.5 1.125 C3.625 4.125 3.625 4.125 3.5 7.125 C2.5 8.125 2.5 8.125 0.0625 8.3125 C-2.5 8.125 -2.5 8.125 -4.5 6.125 C-3.77607362 0.18880368 -3.77607362 0.18880368 0 0 Z " fill="#191919" transform="translate(195.5,253.875)"/>
<path d="M0 0 C-1.21395953 3.64187858 -2.09006077 3.91745993 -5.375 5.6875 C-6.56222656 6.34298828 -6.56222656 6.34298828 -7.7734375 7.01171875 C-10 8 -10 8 -13 8 C-12.875 5.6875 -12.875 5.6875 -12 3 C-7.9511138 0.26935582 -4.83180659 -0.34512904 0 0 Z " fill="#1A1A1A" transform="translate(169,148)"/>
<path d="M0 0 C0.99 0 1.98 0 3 0 C4.19088986 5.38027025 5.2919519 10.45291384 5 16 C4.01 16 3.02 16 2 16 C0.80911014 10.61972975 -0.2919519 5.54708616 0 0 Z " fill="#1A1A1A" transform="translate(63,160)"/>
<path d="M0 0 C0.89203125 0.00902344 1.7840625 0.01804688 2.703125 0.02734375 C3.37859375 0.03894531 4.0540625 0.05054688 4.75 0.0625 C4.75 1.0525 4.75 2.0425 4.75 3.0625 C2.64850989 3.45221999 0.5436518 3.82381477 -1.5625 4.1875 C-2.73425781 4.39632812 -3.90601563 4.60515625 -5.11328125 4.8203125 C-8.25 5.0625 -8.25 5.0625 -11.25 3.0625 C-7.92392552 -0.26357448 -4.54621004 -0.05981855 0 0 Z " fill="#1A1A1A" transform="translate(54.25,155.9375)"/>
<path d="M0 0 C0 0.99 0 1.98 0 3 C-1.7491497 3.33776684 -3.49936145 3.67003671 -5.25 4 C-6.71179688 4.2784375 -6.71179688 4.2784375 -8.203125 4.5625 C-11 5 -11 5 -15 5 C-15 4.01 -15 3.02 -15 2 C-9.87080814 -0.10428384 -5.4389165 -0.21755666 0 0 Z " fill="#191919" transform="translate(84,152)"/>
<path d="M0 0 C1.4370809 -0.05422947 2.87475462 -0.09289723 4.3125 -0.125 C5.11300781 -0.14820313 5.91351563 -0.17140625 6.73828125 -0.1953125 C9 0 9 0 12 2 C12 2.66 12 3.32 12 4 C8.04 4 4.08 4 0 4 C0 2.68 0 1.36 0 0 Z " fill="#191919" transform="translate(229,131)"/>
</svg>
