<?xml version="1.0" encoding="UTF-8"?>
<svg version="1.1" xmlns="http://www.w3.org/2000/svg" width="400" height="400">
<path d="M0 0 C0.84565018 0.12510452 1.69130035 0.25020905 2.56257629 0.37910461 C4.3611747 0.6472481 6.15923621 0.91901374 7.95678711 1.1940918 C10.65002056 1.60459174 13.34519855 1.99945364 16.04101562 2.39257812 C45.35121664 6.75746664 45.35121664 6.75746664 49.51953125 10.92578125 C49.48665542 13.65447532 48.95555354 16.22244305 48.51953125 18.92578125 C49.84984375 18.61640625 49.84984375 18.61640625 51.20703125 18.30078125 C54.74480235 17.90027886 56.38586092 18.35894609 59.51953125 19.92578125 C60.33203125 23.11328125 60.33203125 23.11328125 60.51953125 26.92578125 C58.08203125 29.86328125 58.08203125 29.86328125 55.51953125 31.92578125 C56.6796875 31.91224609 56.6796875 31.91224609 57.86328125 31.8984375 C64.97392128 32.10084433 68.90642708 33.09000285 73.99609375 38.13671875 C78.9539576 43.95903065 79.93304757 50.48248747 79.51953125 57.92578125 C79.2269364 59.93214596 78.89319238 61.93292188 78.51953125 63.92578125 C78.35453125 65.14265625 78.18953125 66.35953125 78.01953125 67.61328125 C77.51953125 70.92578125 77.51953125 70.92578125 76.51953125 73.92578125 C76.43069248 75.27523526 76.38815831 76.62812528 76.37890625 77.98046875 C76.35957031 78.76035156 76.34023437 79.54023437 76.3203125 80.34375 C76.28662489 81.97371216 76.26824187 83.60406685 76.265625 85.234375 C76.13490655 89.41048548 75.92553908 91.38687158 73.34765625 94.80859375 C70.51953125 96.92578125 70.51953125 96.92578125 67.40014648 98.11328125 C64.19420434 99.66923274 64.19420434 99.66923274 63.70239258 103.12451172 C63.66911865 104.41760254 63.63584473 105.71069336 63.6015625 107.04296875 C63.57277512 107.73713898 63.54398773 108.4313092 63.514328 109.14651489 C63.42596782 111.36465912 63.37655448 113.58135865 63.33203125 115.80078125 C63.27154948 118.01234159 63.20251424 120.22286393 63.11759949 122.43362427 C63.0427263 124.4445664 62.99490863 126.45646172 62.94848633 128.46826172 C62.49950522 132.08719767 61.75292222 134.06684907 59.51953125 136.92578125 C58.85953125 136.92578125 58.19953125 136.92578125 57.51953125 136.92578125 C57.600939 140.3017293 57.71373326 143.67594038 57.83203125 147.05078125 C57.85458984 148.00210938 57.87714844 148.9534375 57.90039062 149.93359375 C58.10447866 155.27698959 58.47303867 159.33723688 61.51953125 163.92578125 C66.26017588 166.29610357 71.33544335 165.27359922 76.203125 163.84375 C78.77882727 162.98038968 81.32057713 162.05558512 83.87109375 161.1171875 C92.47855623 158.30639943 92.47855623 158.30639943 96.65625 159.57421875 C98.69384164 160.17233519 98.69384164 160.17233519 100.8515625 158.52734375 C101.67011719 157.87507812 102.48867188 157.2228125 103.33203125 156.55078125 C107.42441922 153.55210049 110.26175749 151.62244815 115.51953125 151.92578125 C120.7773782 154.76346177 123.35264884 158.07659719 126.33203125 163.05078125 C126.72583984 163.68371094 127.11964844 164.31664062 127.52539062 164.96875 C131.66025185 171.64977791 131.66025185 171.64977791 131.64453125 175.92578125 C131.64710938 176.62703125 131.6496875 177.32828125 131.65234375 178.05078125 C131.51953125 179.92578125 131.51953125 179.92578125 130.51953125 181.92578125 C127.95703125 182.92578125 127.95703125 182.92578125 124.51953125 182.92578125 C120.94830574 180.90433285 117.77040238 178.36259268 115.07421875 175.265625 C113.01189296 173.48829398 111.51917803 173.43300203 108.83203125 173.23828125 C107.61966797 173.13966797 107.61966797 173.13966797 106.3828125 173.0390625 C105.76792969 173.00167969 105.15304687 172.96429688 104.51953125 172.92578125 C104.60203125 173.81265625 104.68453125 174.69953125 104.76953125 175.61328125 C104.45652617 179.76059859 103.3537211 180.93648648 100.51953125 183.92578125 C86.02665387 192.58889361 67.2815817 197.50394316 50.49609375 194.359375 C46.05672315 193.08622217 42.44239119 191.38273037 38.51953125 188.92578125 C41.37277185 206.38644044 41.37277185 206.38644044 45.38769531 223.60717773 C46.58875055 228.26511633 46.41990946 231.38835174 44.83203125 235.86328125 C44.33195038 238.04890979 44.33195038 238.04890979 45.45703125 240.48828125 C46.49497477 243.84633381 46.62962633 246.16350794 46.5859375 249.640625 C46.5715564 251.12550415 46.5715564 251.12550415 46.55688477 252.64038086 C46.54455811 253.39456299 46.53223145 254.14874512 46.51953125 254.92578125 C47.87316772 254.90052368 47.87316772 254.90052368 49.25415039 254.87475586 C52.63098276 254.83332366 56.00290764 254.83257764 59.37963867 254.85864258 C60.83542284 254.86170875 62.29133532 254.84896238 63.74682617 254.81958008 C75.74970133 254.59342107 75.74970133 254.59342107 79.90185547 257.71923828 C81.74530015 260.04540662 83.11344425 262.31192267 84.51953125 264.92578125 C84.93961456 265.50045135 85.35969788 266.07512146 85.79251099 266.66720581 C89.68735453 272.13407642 90.16196444 276.31696566 89.83203125 282.92578125 C89.79819336 284.23095703 89.79819336 284.23095703 89.76367188 285.5625 C89.70537919 287.68435376 89.61572209 289.80530754 89.51953125 291.92578125 C90.134832 291.91911942 90.75013275 291.91245758 91.38407898 291.90559387 C97.79172538 291.83919129 104.19927392 291.7939601 110.60717773 291.76098633 C112.99816865 291.74590582 115.38913193 291.72543848 117.7800293 291.69946289 C121.2180056 291.66304819 124.65561594 291.64604726 128.09375 291.6328125 C129.16163254 291.61732864 130.22951508 291.60184479 131.32975769 291.58589172 C140.57887999 291.58379732 140.57887999 291.58379732 144.51953125 294.92578125 C154.68830419 305.57591622 155.90770499 315.84666609 155.578125 330.15673828 C155.52326611 332.74927816 155.53597089 335.32940926 155.58203125 337.921875 C155.63832233 341.59466977 155.69433029 345.2550015 155.51953125 348.92578125 C153.60780529 350.83750721 150.15614563 350.0562717 147.62785339 350.05949402 C146.53238559 350.06289235 146.53238559 350.06289235 145.41478711 350.06635934 C142.94602401 350.07273158 140.47731538 350.07186772 138.00854492 350.07104492 C136.24370248 350.07403591 134.47886069 350.0774383 132.71401978 350.08122253 C127.88582068 350.0901098 123.0576393 350.09240365 118.22943282 350.09303832 C115.18580872 350.0937504 112.14218905 350.09588853 109.09856606 350.09853554 C98.39586735 350.10783008 87.69318112 350.11186852 76.99047852 350.11108398 C68.24045948 350.11055817 59.49048593 350.11743019 50.74047852 350.1315918 C-32.93843183 350.26386598 -32.93843183 350.26386598 -70.4921875 349.0390625 C-71.75293406 349.00011557 -73.01368061 348.96116863 -74.31263161 348.92104149 C-77.74638815 348.8107034 -81.17913066 348.68538358 -84.61206055 348.55200195 C-86.09702184 348.50274158 -86.09702184 348.50274158 -87.61198235 348.45248604 C-88.50026789 348.41320425 -89.38855343 348.37392246 -90.30375671 348.33345032 C-91.06905543 348.30292729 -91.83435415 348.27240427 -92.62284374 348.24095631 C-94.48046875 347.92578125 -94.48046875 347.92578125 -96.48046875 345.92578125 C-96.68974304 343.97499084 -96.68974304 343.97499084 -96.6315918 341.55883789 C-96.61464767 340.65351822 -96.59770355 339.74819855 -96.58024597 338.81544495 C-96.55118668 337.83220749 -96.52212738 336.84897003 -96.4921875 335.8359375 C-96.46953323 334.82164169 -96.44687897 333.80734589 -96.42353821 332.76231384 C-96.37348097 330.60762093 -96.31850068 328.45303772 -96.2590332 326.29858398 C-96.16920458 323.03320511 -96.09393695 319.7677589 -96.02148438 316.50195312 C-95.97091992 314.40492681 -95.91951324 312.3079206 -95.8671875 310.2109375 C-95.8442009 309.24591812 -95.82121429 308.28089874 -95.79753113 307.28663635 C-95.66273954 302.51956976 -95.45045025 297.76122294 -95.1105957 293.00415039 C-95.01957329 291.70448082 -95.01957329 291.70448082 -94.92671204 290.3785553 C-94.12708054 285.98338467 -91.65419072 282.78268115 -88.98046875 279.30078125 C-88.46871094 278.59566406 -87.95695312 277.89054687 -87.4296875 277.1640625 C-83.94001116 272.38532366 -83.94001116 272.38532366 -82.48046875 270.92578125 C-80.33947994 270.82999822 -78.19537638 270.8034526 -76.05224609 270.80322266 C-74.65953451 270.79910882 -73.2668241 270.79458269 -71.87411499 270.78970337 C-71.13190075 270.78844074 -70.38968651 270.78717812 -69.62498093 270.78587723 C-64.87649543 270.7683248 -60.12848228 270.69426762 -55.38042259 270.6312809 C-51.2068252 270.57918275 -47.03478501 270.54638164 -42.86083984 270.55517578 C-38.82518013 270.56257587 -34.79321407 270.51653989 -30.75841141 270.43485641 C-29.22366679 270.41332058 -27.68852281 270.41099744 -26.15372849 270.42863846 C-21.42447552 270.47668009 -17.03458071 270.36264278 -12.48046875 268.92578125 C-9.21409123 265.60763455 -7.45993375 262.09043795 -5.48046875 257.92578125 C-2.86374355 256.61741865 -1.16268709 256.9539556 1.75390625 257.14453125 C3.32785156 257.21027344 3.32785156 257.21027344 4.93359375 257.27734375 C7.14357571 257.37568018 9.35239797 257.50551728 11.55859375 257.66796875 C17.58037053 257.96098234 17.58037053 257.96098234 22.59228516 255.06469727 C26.26611395 249.78610064 27.3168943 245.30884502 27.51953125 238.92578125 C24.87953125 238.59578125 22.23953125 238.26578125 19.51953125 237.92578125 C4.92667651 208.4295855 5.30011719 163.26438219 11.51953125 131.92578125 C10.88015625 131.53390625 10.24078125 131.14203125 9.58203125 130.73828125 C6.98559015 128.45656028 6.77971435 127.33761625 6.51953125 123.92578125 C7.14900537 114.26150219 9.64204966 105.11696029 12.51953125 95.92578125 C11.88789063 95.88839844 11.25625 95.85101563 10.60546875 95.8125 C2.8382452 95.2417098 -5.03883554 94.29495427 -12.48046875 91.92578125 C-13.14046875 90.93578125 -13.80046875 89.94578125 -14.48046875 88.92578125 C-13.61421875 88.18328125 -12.74796875 87.44078125 -11.85546875 86.67578125 C-11.31277344 86.21042969 -10.77007812 85.74507813 -10.2109375 85.265625 C-8.48046875 83.92578125 -8.48046875 83.92578125 -5.16796875 82.23828125 C-2.10927103 79.60637856 -1.99558483 78.95471516 -1.54296875 75.11328125 C-1.38092916 71.87248947 -1.58572113 69.34210897 -2.16796875 66.11328125 C-2.48046875 62.92578125 -2.48046875 62.92578125 -0.54296875 60.30078125 C0.13765625 59.51703125 0.81828125 58.73328125 1.51953125 57.92578125 C2.1030363 55.382875 2.1030363 55.382875 1.51953125 52.92578125 C0.55495291 51.56660268 -0.44901504 50.23493404 -1.48046875 48.92578125 C-1.88265625 47.47171875 -1.88265625 47.47171875 -2.29296875 45.98828125 C-3.60055006 42.61609788 -5.0194404 41.63706855 -7.8515625 39.53515625 C-9.9805853 37.4316613 -10.98918647 35.17574333 -12.29296875 32.48828125 C-14.89488572 27.37369512 -17.54304318 25.06062796 -22.42578125 22.18359375 C-26.32939364 19.79392989 -28.09796181 17.17530391 -29.41796875 12.86328125 C-29.48046875 9.92578125 -29.48046875 9.92578125 -28.60546875 7.61328125 C-25.30600496 4.99311882 -21.617256 4.88831035 -17.48046875 4.92578125 C-16.49046875 5.25578125 -15.50046875 5.58578125 -14.48046875 5.92578125 C-14.04734375 4.95640625 -13.61421875 3.98703125 -13.16796875 2.98828125 C-10.05579734 -2.65973354 -5.54652479 -0.84887019 0 0 Z M-8.48046875 2.92578125 C-8.81046875 3.91578125 -9.14046875 4.90578125 -9.48046875 5.92578125 C10.39107474 10.20765387 10.39107474 10.20765387 30.39453125 13.80078125 C31.12841064 13.92042236 31.86229004 14.04006348 32.6184082 14.16333008 C36.98076879 14.82820235 41.12416873 15.02906653 45.51953125 14.92578125 C45.51953125 13.93578125 45.51953125 12.94578125 45.51953125 11.92578125 C32.82421524 9.12152546 20.12317756 6.5840648 7.26953125 4.61328125 C5.60204834 4.35659668 5.60204834 4.35659668 3.90087891 4.09472656 C-0.29596089 3.46829369 -4.22805924 2.92578125 -8.48046875 2.92578125 Z M-10.48046875 7.92578125 C-12.80497916 15.73084465 -12.591378 24.73297124 -8.80859375 31.9921875 C-4.4218044 38.3788367 1.59468241 41.50016711 8.89453125 43.61328125 C9.76078125 43.71640625 10.62703125 43.81953125 11.51953125 43.92578125 C12.23496094 44.0134375 12.95039063 44.10109375 13.6875 44.19140625 C16.09662947 44.36432908 18.14934125 44.4034241 20.51953125 43.92578125 C21.92521929 41.9759559 23.24903485 39.96627547 24.51953125 37.92578125 C27.71318415 35.93849976 31.08415491 34.44527463 34.51953125 32.92578125 C35.85645832 32.26635101 37.19115414 31.60226959 38.51953125 30.92578125 C38.51953125 31.91578125 38.51953125 32.90578125 38.51953125 33.92578125 C39.17953125 33.59578125 39.83953125 33.26578125 40.51953125 32.92578125 C40.86904746 30.92854578 41.19779753 28.92767998 41.51953125 26.92578125 C42.00612023 25.34490994 42.51922055 23.77202265 43.0546875 22.20703125 C43.46473022 21.00143555 43.46473022 21.00143555 43.88305664 19.77148438 C44.09309326 19.16240234 44.30312988 18.55332031 44.51953125 17.92578125 C43.52848389 17.7649707 42.53743652 17.60416016 41.51635742 17.43847656 C5.25743983 11.54124673 5.25743983 11.54124673 -10.48046875 7.92578125 Z M-25.48046875 9.92578125 C-25.60475739 12.71797907 -25.60475739 12.71797907 -24.48046875 15.92578125 C-20.09715651 20.25647294 -20.09715651 20.25647294 -14.48046875 21.92578125 C-14.48046875 17.96578125 -14.48046875 14.00578125 -14.48046875 9.92578125 C-17.87945375 8.22628875 -22.08148375 8.22628875 -25.48046875 9.92578125 Z M46.94140625 23.671875 C44.57595692 27.06690327 44.57595692 27.06690327 43.51953125 30.92578125 C49.23194591 30.5384989 52.25641407 30.05567602 56.51953125 25.92578125 C56.18953125 24.60578125 55.85953125 23.28578125 55.51953125 21.92578125 C50.73088661 21.10577015 50.73088661 21.10577015 46.94140625 23.671875 Z M40.51953125 33.92578125 C40.51953125 35.24578125 40.51953125 36.56578125 40.51953125 37.92578125 C41.17953125 37.92578125 41.83953125 37.92578125 42.51953125 37.92578125 C42.26953125 39.80078125 42.26953125 39.80078125 41.51953125 41.92578125 C39.01421421 43.66023151 36.92122109 44.03925387 33.89453125 44.61328125 C30.22450125 45.58682886 30.22450125 45.58682886 29.08203125 49.11328125 C28.16359488 55.33823884 28.21570036 60.0222146 30.51953125 65.92578125 C34.47953125 66.25578125 38.43953125 66.58578125 42.51953125 66.92578125 C42.84953125 65.60578125 43.17953125 64.28578125 43.51953125 62.92578125 C42.14467593 61.38411483 42.14467593 61.38411483 40.51953125 59.92578125 C39.37361765 56.70868221 39.55906879 54.0363531 39.95703125 50.67578125 C40.05886719 49.78375 40.16070312 48.89171875 40.265625 47.97265625 C40.34941406 47.2971875 40.43320313 46.62171875 40.51953125 45.92578125 C41.42703125 45.80203125 42.33453125 45.67828125 43.26953125 45.55078125 C47.73834288 43.31637544 48.26446348 40.60902452 49.85546875 36.04296875 C50.07460937 35.34429687 50.29375 34.645625 50.51953125 33.92578125 C47.54953125 34.58578125 44.57953125 35.24578125 41.51953125 35.92578125 C41.18953125 35.26578125 40.85953125 34.60578125 40.51953125 33.92578125 Z M24.51953125 41.92578125 C23.64987619 44.05524728 23.64987619 44.05524728 23.51953125 45.92578125 C24.83953125 45.92578125 26.15953125 45.92578125 27.51953125 45.92578125 C27.84953125 45.26578125 28.17953125 44.60578125 28.51953125 43.92578125 C30.83359345 43.19502477 33.16781994 42.52439867 35.51953125 41.92578125 C35.51953125 41.59578125 35.51953125 41.26578125 35.51953125 40.92578125 C33.86953125 40.92578125 32.21953125 40.92578125 30.51953125 40.92578125 C30.84953125 39.93578125 31.17953125 38.94578125 31.51953125 37.92578125 C28.29748841 37.92578125 26.81409556 39.80772188 24.51953125 41.92578125 Z M54.51953125 39.92578125 C53.52953125 41.41078125 53.52953125 41.41078125 52.51953125 42.92578125 C53.50953125 42.92578125 54.49953125 42.92578125 55.51953125 42.92578125 C55.18953125 41.93578125 54.85953125 40.94578125 54.51953125 39.92578125 Z M1.51953125 45.92578125 C3.06986128 49.93852358 3.06986128 49.93852358 5.76953125 51.23828125 C9.01788972 52.05037087 11.26642407 51.57640269 14.51953125 50.92578125 C15.17953125 51.25578125 15.83953125 51.58578125 16.51953125 51.92578125 C16.84953125 50.60578125 17.17953125 49.28578125 17.51953125 47.92578125 C12.23953125 47.26578125 6.95953125 46.60578125 1.51953125 45.92578125 Z M50.51953125 43.92578125 C50.18953125 44.58578125 49.85953125 45.24578125 49.51953125 45.92578125 C50.17953125 45.92578125 50.83953125 45.92578125 51.51953125 45.92578125 C51.84953125 47.57578125 52.17953125 49.22578125 52.51953125 50.92578125 C50.04453125 49.93578125 50.04453125 49.93578125 47.51953125 48.92578125 C47.51953125 48.26578125 47.51953125 47.60578125 47.51953125 46.92578125 C46.19953125 47.25578125 44.87953125 47.58578125 43.51953125 47.92578125 C42.33039011 51.6418473 42.09671549 55.04997008 42.51953125 58.92578125 C45.16708788 61.27075998 46.81323055 61.87869454 50.33203125 62.11328125 C51.41484375 62.02046875 51.41484375 62.02046875 52.51953125 61.92578125 C52.51953125 62.91578125 52.51953125 63.90578125 52.51953125 64.92578125 C50.53953125 64.92578125 48.55953125 64.92578125 46.51953125 64.92578125 C45.85953125 66.90578125 45.19953125 68.88578125 44.51953125 70.92578125 C45.62750086 72.23698778 45.62750086 72.23698778 48.39453125 72.30078125 C49.94140625 72.11515625 49.94140625 72.11515625 51.51953125 71.92578125 C53.32313753 69.60685889 54.32051074 67.50625774 55.26953125 64.73828125 C57.29375373 61.80315866 60.17805921 61.66833059 63.51953125 60.92578125 C61.72133309 57.49975515 61.72133309 57.49975515 57.51953125 56.92578125 C57.51953125 53.95578125 57.51953125 50.98578125 57.51953125 47.92578125 C56.85953125 47.59578125 56.19953125 47.26578125 55.51953125 46.92578125 C54.52953125 47.42078125 54.52953125 47.42078125 53.51953125 47.92578125 C52.85953125 46.60578125 52.19953125 45.28578125 51.51953125 43.92578125 C51.18953125 43.92578125 50.85953125 43.92578125 50.51953125 43.92578125 Z M21.51953125 48.92578125 C20.69839948 50.31655426 19.8880063 51.71367018 19.08203125 53.11328125 C18.62957031 53.89058594 18.17710937 54.66789062 17.7109375 55.46875 C13.76100482 63.61467675 14.61530887 74.24054396 17.4765625 82.609375 C20.90769734 90.22983553 26.58366225 95.95784675 34.01953125 99.67578125 C41.29431056 102.27391672 49.53102182 103.59225441 56.76953125 100.30078125 C61.59580201 97.56493116 64.62535572 94.34531504 66.58203125 89.05078125 C66.47830874 83.86465598 64.5411855 79.86950325 60.796875 76.26953125 C58.77074851 74.65342106 58.77074851 74.65342106 55.51953125 72.92578125 C54.52953125 73.25578125 53.53953125 73.58578125 52.51953125 73.92578125 C50.95834697 73.9931899 49.39450605 74.01092581 47.83203125 73.98828125 C46.61966797 73.97474609 46.61966797 73.97474609 45.3828125 73.9609375 C44.76792969 73.94933594 44.15304688 73.93773438 43.51953125 73.92578125 C43.25140625 73.28640625 42.98328125 72.64703125 42.70703125 71.98828125 C41.63285373 69.59446439 41.63285373 69.59446439 38.51953125 68.92578125 C36.186533 68.88623891 33.85244936 68.88176393 31.51953125 68.92578125 C37.46844537 78.91995697 44.33653584 82.06697039 55.51953125 84.92578125 C55.51953125 85.25578125 55.51953125 85.58578125 55.51953125 85.92578125 C46.03464918 85.53705658 39.86306277 83.68528682 33.20703125 76.73828125 C26.27125614 68.35812075 26.07669092 60.53754764 26.51953125 49.92578125 C24.86953125 49.59578125 23.21953125 49.26578125 21.51953125 48.92578125 Z M12.95703125 54.11328125 C11.08060353 56.47921185 11.28090803 57.98276154 11.51953125 60.92578125 C12.50953125 61.42078125 12.50953125 61.42078125 13.51953125 61.92578125 C14.17953125 58.95578125 14.83953125 55.98578125 15.51953125 52.92578125 C14.32513498 52.82493404 14.32513498 52.82493404 12.95703125 54.11328125 Z M5.51953125 54.92578125 C5.84953125 56.24578125 6.17953125 57.56578125 6.51953125 58.92578125 C7.17953125 58.59578125 7.83953125 58.26578125 8.51953125 57.92578125 C8.51953125 56.93578125 8.51953125 55.94578125 8.51953125 54.92578125 C7.52953125 54.92578125 6.53953125 54.92578125 5.51953125 54.92578125 Z M1.51953125 62.92578125 C1.26922148 65.50958302 1.26922148 65.50958302 1.51953125 67.92578125 C3.99453125 68.91578125 3.99453125 68.91578125 6.51953125 69.92578125 C8.1857455 68.76126115 8.1857455 68.76126115 9.51953125 66.92578125 C9.28909261 64.27112076 9.28909261 64.27112076 8.51953125 61.92578125 C5.03371269 60.72377485 4.83960781 60.71239688 1.51953125 62.92578125 Z M11.51953125 62.92578125 C11.33390625 64.87484375 11.33390625 64.87484375 11.14453125 66.86328125 C10.93359375 69.078125 10.93359375 69.078125 10.51953125 70.92578125 C9.52953125 71.42078125 9.52953125 71.42078125 8.51953125 71.92578125 C7.05715472 75.56547395 6.40259369 79.00583075 6.51953125 82.92578125 C8.36328969 86.43746286 10.7070278 89.14757663 13.51953125 91.92578125 C16.1151143 88.03240667 15.34752196 85.28318691 14.51953125 80.92578125 C14.35195312 80.33152344 14.184375 79.73726562 14.01171875 79.125 C13.31045558 75.99157804 13.16455001 72.87749918 12.95703125 69.67578125 C12.87324219 68.4125 12.78945312 67.14921875 12.703125 65.84765625 C12.64253906 64.8834375 12.58195312 63.91921875 12.51953125 62.92578125 C12.18953125 62.92578125 11.85953125 62.92578125 11.51953125 62.92578125 Z M2.51953125 71.92578125 C2.46796875 72.66183594 2.41640625 73.39789063 2.36328125 74.15625 C1.44778131 82.03163017 1.44778131 82.03163017 -1.39453125 84.76953125 C-3.38437672 85.97890729 -5.33550406 87.02290076 -7.48046875 87.92578125 C-7.15046875 88.58578125 -6.82046875 89.24578125 -6.48046875 89.92578125 C-4.04000303 90.65849062 -4.04000303 90.65849062 -1.16796875 91.11328125 C-0.20246094 91.29246094 0.76304687 91.47164062 1.7578125 91.65625 C4.37360143 91.91153916 6.05305034 91.7518473 8.51953125 90.92578125 C7.8646875 90.25160156 7.20984375 89.57742187 6.53515625 88.8828125 C4.00857002 85.1761734 4.10370591 83.04910904 4.26953125 78.61328125 C4.305625 77.35902344 4.34171875 76.10476562 4.37890625 74.8125 C4.44851562 73.38357422 4.44851562 73.38357422 4.51953125 71.92578125 C3.85953125 71.92578125 3.19953125 71.92578125 2.51953125 71.92578125 Z M17.51953125 90.92578125 C16.52521119 94.5259369 15.55198057 98.1314903 14.58203125 101.73828125 C14.30423828 102.74310547 14.02644531 103.74792969 13.74023438 104.78320312 C10.99897554 114.71506516 10.99897554 114.71506516 10.51953125 124.92578125 C15.19318393 131.04307331 26.24122756 133.38465549 33.5703125 134.64453125 C37.67919525 135.03637172 41.76845699 135.17721191 45.89453125 135.23828125 C46.68045654 135.25608643 47.46638184 135.2738916 48.27612305 135.29223633 C51.395594 135.28786873 54.07364389 135.09808788 56.99609375 133.96875 C61.13596556 128.41707575 59.64515051 118.98109274 59.58203125 112.36328125 C59.57751953 111.44998047 59.57300781 110.53667969 59.56835938 109.59570312 C59.55671865 107.37232387 59.54036976 105.14909004 59.51953125 102.92578125 C58.92422607 103.08731689 58.3289209 103.24885254 57.71557617 103.4152832 C46.11127096 106.11284876 34.80027316 103.70309617 24.87890625 97.65625 C22.1429316 95.64956661 19.86310473 93.37323653 17.51953125 90.92578125 Z M12.51953125 92.92578125 C13.51953125 94.92578125 13.51953125 94.92578125 13.51953125 94.92578125 Z M15.51953125 132.92578125 C9.01208945 158.95554846 11.83177855 188.63192124 16.39453125 214.80078125 C16.54374023 215.67371826 16.69294922 216.54665527 16.84667969 217.44604492 C18.0086809 223.61308714 20.00953268 229.18142211 22.51953125 234.92578125 C29.19444956 235.38088932 35.11327682 233.69302385 41.51953125 231.92578125 C42.5050809 228.82914686 42.49488231 226.87768822 41.6640625 223.75 C41.35190796 222.52543091 41.35190796 222.52543091 41.03344727 221.27612305 C40.68624634 219.95801636 40.68624634 219.95801636 40.33203125 218.61328125 C38.35519931 210.8158154 36.8227834 203.05926208 35.58203125 195.11328125 C34.35627149 187.43257963 32.54686018 180.55246384 29.60107422 173.36474609 C25.55094798 163.35041074 25.18369162 152.60478084 24.51953125 141.92578125 C25.17953125 142.25578125 25.83953125 142.58578125 26.51953125 142.92578125 C27.05029297 145.19140625 27.05029297 145.19140625 27.44921875 148.17578125 C27.60519531 149.25988281 27.76117188 150.34398437 27.921875 151.4609375 C28.23265172 153.73911064 28.54004255 156.01774868 28.84375 158.296875 C30.31491147 168.45147734 33.20581885 177.61206885 40.64453125 185.05078125 C51.09113441 191.86378331 62.47355573 192.56944201 74.52734375 190.23046875 C89.00968236 186.71911617 89.00968236 186.71911617 100.51953125 177.92578125 C100.5919233 173.17505302 98.90666552 168.97784238 95.89453125 165.36328125 C94.71890625 164.15671875 94.71890625 164.15671875 93.51953125 162.92578125 C89.72405816 163.57579337 86.15293787 164.63540135 82.49121094 165.79296875 C67.5698954 170.4628486 67.5698954 170.4628486 59.64453125 168.05078125 C54.43561406 162.84186406 54.37687782 155.78779684 54.31958008 148.79125977 C54.3376992 145.16708017 54.41298153 141.54847164 54.51953125 137.92578125 C53.46636719 137.96058594 52.41320312 137.99539062 51.328125 138.03125 C38.77989504 138.31530561 27.58526956 136.45646803 15.51953125 132.92578125 Z M110.89453125 156.42578125 C110.44078125 156.92078125 109.98703125 157.41578125 109.51953125 157.92578125 C109.84953125 158.58578125 110.17953125 159.24578125 110.51953125 159.92578125 C110.7781326 163.97720244 110.82394679 165.46915794 108.51953125 168.92578125 C109.46828125 169.09078125 110.41703125 169.25578125 111.39453125 169.42578125 C116.26571066 170.74795852 119.57788862 174.05671613 123.28515625 177.34375 C124.0225 177.86582031 124.75984375 178.38789063 125.51953125 178.92578125 C126.50953125 178.59578125 127.49953125 178.26578125 128.51953125 177.92578125 C128.05738202 169.14494595 122.07822672 162.01243403 116.03515625 156.10546875 C113.77438617 154.3457972 112.98466468 154.49642732 110.89453125 156.42578125 Z M105.51953125 159.92578125 C103.04453125 161.41078125 103.04453125 161.41078125 100.51953125 162.92578125 C101.17538314 166.53570504 101.17538314 166.53570504 102.51953125 169.92578125 C103.17953125 169.92578125 103.83953125 169.92578125 104.51953125 169.92578125 C105.83953125 167.61578125 107.15953125 165.30578125 108.51953125 162.92578125 C107.52953125 161.93578125 106.53953125 160.94578125 105.51953125 159.92578125 Z M31.51953125 237.92578125 C31.51953125 238.58578125 31.51953125 239.24578125 31.51953125 239.92578125 C33.16953125 239.92578125 34.81953125 239.92578125 36.51953125 239.92578125 C37.17953125 241.24578125 37.83953125 242.56578125 38.51953125 243.92578125 C39.83953125 243.59578125 41.15953125 243.26578125 42.51953125 242.92578125 C41.52953125 240.61578125 40.53953125 238.30578125 39.51953125 235.92578125 C36.63557388 235.92578125 34.2247531 236.98483452 31.51953125 237.92578125 Z M32.51953125 242.92578125 C32.20822266 243.83457031 32.20822266 243.83457031 31.890625 244.76171875 C29.64876502 250.85882749 26.80297953 255.67096006 22.8125 260.796875 C22.38582031 261.49941406 21.95914063 262.20195312 21.51953125 262.92578125 C21.84953125 263.91578125 22.17953125 264.90578125 22.51953125 265.92578125 C25.95320905 266.34255011 27.30250737 266.06890476 30.23828125 264.1328125 C31.15609375 263.34261719 32.07390625 262.55242187 33.01953125 261.73828125 C34.39625 260.57232422 34.39625 260.57232422 35.80078125 259.3828125 C36.69796875 258.57199219 37.59515625 257.76117188 38.51953125 256.92578125 C39.9271875 255.66314453 39.9271875 255.66314453 41.36328125 254.375 C43.96005778 251.96925734 43.96005778 251.96925734 43.51953125 247.92578125 C42.44703125 247.84328125 41.37453125 247.76078125 40.26953125 247.67578125 C36.24568615 246.87101223 35.03783872 246.04848251 32.51953125 242.92578125 Z M33.51953125 264.92578125 C30.55901602 267.34818059 28.2076167 268.83133815 24.33203125 269.36328125 C21.51953125 268.92578125 21.51953125 268.92578125 19.64453125 267.80078125 C18.06719948 265.17189497 18.44606533 262.93788415 18.51953125 259.92578125 C5.82268847 258.22367718 5.82268847 258.22367718 -5.62109375 262.26953125 C-8.2860979 266.02027783 -10.03000894 269.57440183 -11.48046875 273.92578125 C20.53667158 274.05084267 52.51513194 273.87160017 84.51953125 272.92578125 C82.40765024 267.36469982 80.3352199 262.62698731 75.51953125 258.92578125 C70.77720405 257.67274337 66.2750325 257.44041859 61.38671875 257.43505859 C59.15157261 257.42581038 56.93169675 257.33144071 54.69921875 257.2265625 C45.66999886 256.96358654 39.99899114 258.23173882 33.51953125 264.92578125 Z M-64.48828125 272.7265625 C-74.27140159 272.11578514 -74.27140159 272.11578514 -83.26953125 275.11865234 C-86.42178641 278.23480511 -88.17155337 281.74077376 -89.48046875 285.92578125 C-89.48046875 286.58578125 -89.48046875 287.24578125 -89.48046875 287.92578125 C-65.12265489 288.04856201 -40.82250231 287.84187929 -16.48046875 286.92578125 C-16.15046875 282.30578125 -15.82046875 277.68578125 -15.48046875 272.92578125 C-26.50239356 272.87383251 -37.522812 272.86466311 -48.54475403 272.92056274 C-53.86481274 272.94095365 -59.17037353 272.87439784 -64.48828125 272.7265625 Z M9.51953125 276.36328125 C8.41474426 276.38292938 7.30995728 276.40257751 6.17169189 276.42282104 C3.05832755 276.47938801 -0.05480005 276.54299052 -3.16796875 276.609375 C-4.56760361 276.63445129 -4.56760361 276.63445129 -5.99551392 276.66003418 C-10.06331136 276.35244516 -10.06331136 276.35244516 -13.48046875 277.92578125 C-13.71500127 280.41015354 -13.88149439 282.86846585 -14.00390625 285.359375 C-14.04502533 286.15049179 -14.08614441 286.94160858 -14.12850952 287.75669861 C-14.62789537 298.02865037 -14.83779473 308.30969827 -15.03808594 318.59106445 C-15.10653396 322.04198535 -15.18395052 325.49263728 -15.26171875 328.94335938 C-15.30652642 331.13670785 -15.35081743 333.33006695 -15.39453125 335.5234375 C-15.41842926 336.5554982 -15.44232727 337.5875589 -15.46694946 338.65089417 C-15.48381805 339.59375778 -15.50068665 340.5366214 -15.51806641 341.50805664 C-15.53503571 342.33978897 -15.552005 343.1715213 -15.56948853 344.02845764 C-15.69326979 345.9373768 -15.69326979 345.9373768 -14.48046875 346.92578125 C-11.34486989 347.02113083 -8.23133262 347.05129004 -5.09545898 347.03930664 C-4.11020233 347.03945267 -3.12494568 347.03959869 -2.10983276 347.03974915 C1.16377932 347.03904957 4.43733529 347.0312551 7.7109375 347.0234375 C9.97395293 347.02157348 12.23696876 347.0201495 14.49998474 347.01914978 C20.46932073 347.01532335 26.43863257 347.005492 32.40795898 346.9944458 C39.56316376 346.98244042 46.7183766 346.97783004 53.87358856 346.97199249 C64.75558628 346.96228031 75.63753095 346.94312462 86.51953125 346.92578125 C86.51953125 323.49578125 86.51953125 300.06578125 86.51953125 275.92578125 C60.84326541 275.85070445 35.19053918 275.87008608 9.51953125 276.36328125 Z M-77.54296875 290.36328125 C-78.6088472 290.39275345 -78.6088472 290.39275345 -79.69625854 290.42282104 C-86.54428737 289.93902139 -86.54428737 289.93902139 -92.48046875 291.92578125 C-92.60849232 293.54610254 -92.6688237 295.17183565 -92.70166016 296.796875 C-92.72483307 297.83465088 -92.74800598 298.87242676 -92.7718811 299.94165039 C-92.79173065 301.07078857 -92.8115802 302.19992676 -92.83203125 303.36328125 C-92.85518402 304.51368896 -92.87833679 305.66409668 -92.90219116 306.84936523 C-92.9499109 309.28722594 -92.99513495 311.72513655 -93.03808594 314.16308594 C-93.10518059 317.90969026 -93.18290993 321.65596963 -93.26171875 325.40234375 C-93.30663137 327.7643108 -93.35092315 330.12628975 -93.39453125 332.48828125 C-93.41842926 333.61741943 -93.44232727 334.74655762 -93.46694946 335.90991211 C-93.48381805 336.94768799 -93.50068665 337.98546387 -93.51806641 339.0546875 C-93.54352036 340.4324939 -93.54352036 340.4324939 -93.56948853 341.83813477 C-93.71668232 343.91501444 -93.71668232 343.91501444 -92.48046875 344.92578125 C-90.18132409 345.07974573 -87.87752686 345.1644346 -85.57397461 345.22290039 C-84.85206436 345.24255356 -84.13015411 345.26220673 -83.3863678 345.28245544 C-80.98944542 345.34655685 -78.59240923 345.40375966 -76.1953125 345.4609375 C-74.53763241 345.50392588 -72.87996337 345.54734232 -71.2223053 345.59117126 C-66.85104331 345.70559156 -62.47965475 345.8141725 -58.10821533 345.92156982 C-53.65082925 346.03210192 -49.19358619 346.14811199 -44.73632812 346.26367188 C-35.98450618 346.48976026 -27.23254308 346.70968477 -18.48046875 346.92578125 C-17.76813694 339.24849131 -17.30372669 331.61840777 -17.1640625 323.91015625 C-17.13289085 322.43739227 -17.13289085 322.43739227 -17.10108948 320.93487549 C-17.03655675 317.84857053 -16.97716484 314.76219269 -16.91796875 311.67578125 C-16.87469156 309.56249296 -16.83107463 307.44921159 -16.78710938 305.3359375 C-16.68097669 300.1992903 -16.57944902 295.06257105 -16.48046875 289.92578125 C-36.83870059 289.82881598 -57.19155362 289.75719152 -77.54296875 290.36328125 Z M89.51953125 294.92578125 C89.49267187 297.07154762 89.47320037 299.2174077 89.45703125 301.36328125 C89.44542969 302.55824219 89.43382812 303.75320313 89.421875 304.984375 C89.18051333 307.81451466 89.18051333 307.81451466 90.51953125 308.92578125 C92.46893325 309.08594607 94.42400352 309.17756379 96.37890625 309.2421875 C98.25147095 309.30515015 98.25147095 309.30515015 100.16186523 309.36938477 C101.53107523 309.40942978 102.90029763 309.44905229 104.26953125 309.48828125 C104.95427521 309.50946014 105.63901917 309.53063904 106.34451294 309.55245972 C121.07064379 310.00526483 135.78724986 310.03350971 150.51953125 309.92578125 C149.4174222 308.17448468 148.31275693 306.42479661 147.20703125 304.67578125 C146.59214844 303.70125 145.97726562 302.72671875 145.34375 301.72265625 C144.74175781 300.7996875 144.13976562 299.87671875 143.51953125 298.92578125 C142.87596931 297.8633017 142.87596931 297.8633017 142.21940613 296.77935791 C140.66544422 294.72343944 140.66544422 294.72343944 138.22261047 294.44476318 C136.87358894 294.45808685 136.87358894 294.45808685 135.49731445 294.47167969 C134.4764827 294.47198181 133.45565094 294.47228394 132.40388489 294.47259521 C130.75376656 294.50356293 130.75376656 294.50356293 129.0703125 294.53515625 C127.94255905 294.54081604 126.8148056 294.54647583 125.65287781 294.55230713 C122.0454999 294.57472494 118.43910972 294.62493341 114.83203125 294.67578125 C112.3886862 294.69583916 109.94532561 294.71409116 107.50195312 294.73046875 C101.50747463 294.77460746 95.51357349 294.84157394 89.51953125 294.92578125 Z M89.51953125 311.92578125 C89.49487935 316.74958927 89.47669432 321.57336092 89.46459961 326.3972168 C89.45955951 328.03947589 89.45272747 329.68173048 89.4440918 331.32397461 C89.43201199 333.67953604 89.42629986 336.03503834 89.421875 338.390625 C89.41671371 339.12917221 89.41155243 339.86771942 89.40623474 340.62864685 C89.40603875 342.39476213 89.45758406 344.16075271 89.51953125 345.92578125 C90.57601655 347.20624758 90.57601655 347.20624758 92.99354553 347.04603577 C94.09274826 347.04381516 95.19195099 347.04159454 96.32446289 347.03930664 C98.18627953 347.03919334 98.18627953 347.03919334 100.08570862 347.03907776 C101.45036865 347.03397036 102.81502827 347.02875435 104.1796875 347.0234375 C105.56831308 347.02157325 106.95693932 347.02014938 108.3455658 347.01914978 C112.0067424 347.01532512 115.66787955 347.00549528 119.32904053 346.9944458 C123.06245388 346.98423057 126.79587359 346.97965192 130.52929688 346.97460938 C137.85939302 346.96387296 145.18945661 346.94679716 152.51953125 346.92578125 C152.53418267 343.41276488 152.54298131 339.89975649 152.55078125 336.38671875 C152.55706543 334.90546509 152.55706543 334.90546509 152.56347656 333.39428711 C152.57492195 326.51274808 152.32761623 319.7656434 151.51953125 312.92578125 C138.37508989 311.75058525 125.26878754 311.81037851 112.08203125 311.86328125 C109.88606873 311.86830856 107.6901051 311.87286928 105.49414062 311.87695312 C100.16924597 311.88785591 94.84439401 311.90449551 89.51953125 311.92578125 Z " fill="#191919" transform="translate(170.48046875,38.07421875)"/>
<path d="M0 0 C4.45198772 -0.70480017 8.93737314 -0.68521283 13.43823242 -0.72070312 C15.66477923 -0.74970406 17.88284637 -0.84259532 20.10742188 -0.9375 C30.41231237 -1.17214867 30.41231237 -1.17214867 34.40478516 1.77539062 C36.25487805 4.10717934 37.60420996 6.37102251 39 9 C39.41953949 9.57512329 39.83907898 10.15024658 40.27133179 10.74279785 C44.16723416 16.2100014 44.64249138 20.39001877 44.3125 27 C44.27866211 28.30517578 44.27866211 28.30517578 44.24414062 29.63671875 C44.18584794 31.75857251 44.09619084 33.87952629 44 36 C44.61530075 35.99333817 45.2306015 35.98667633 45.86454773 35.97981262 C52.27219413 35.91341004 58.67974267 35.86817885 65.08764648 35.83520508 C67.4786374 35.82012457 69.86960068 35.79965723 72.26049805 35.77368164 C75.69847435 35.73726694 79.13608469 35.72026601 82.57421875 35.70703125 C83.64210129 35.69154739 84.70998383 35.67606354 85.81022644 35.66011047 C95.05934874 35.65801607 95.05934874 35.65801607 99 39 C109.16877294 49.65013497 110.38817374 59.92088484 110.05859375 74.23095703 C110.00373486 76.82349691 110.01643964 79.40362801 110.0625 81.99609375 C110.11879108 85.66888852 110.17479904 89.32922025 110 93 C108.08827404 94.91172596 104.63661438 94.13049045 102.10832214 94.13371277 C101.37801027 94.13597833 100.6476984 94.13824388 99.89525586 94.14057809 C97.42649276 94.14695033 94.95778413 94.14608647 92.48901367 94.14526367 C90.72417123 94.14825466 88.95932944 94.15165705 87.19448853 94.15544128 C82.36628943 94.16432855 77.53810805 94.1666224 72.70990157 94.16725707 C69.66627747 94.16796915 66.6226578 94.17010728 63.57903481 94.17275429 C52.8763361 94.18204883 42.17364987 94.18608727 31.47094727 94.18530273 C22.72092823 94.18477692 13.97095468 94.19164894 5.22094727 94.20581055 C-78.45796308 94.33808473 -78.45796308 94.33808473 -116.01171875 93.11328125 C-117.27246531 93.07433432 -118.53321186 93.03538738 -119.83216286 92.99526024 C-123.2659194 92.88492215 -126.69866191 92.75960233 -130.1315918 92.6262207 C-131.61655309 92.57696033 -131.61655309 92.57696033 -133.1315136 92.52670479 C-134.01979914 92.487423 -134.90808468 92.44814121 -135.82328796 92.40766907 C-136.58858668 92.37714604 -137.3538854 92.34662302 -138.14237499 92.31517506 C-140 92 -140 92 -142 90 C-142.20927429 88.04920959 -142.20927429 88.04920959 -142.15112305 85.63305664 C-142.13417892 84.72773697 -142.1172348 83.8224173 -142.09977722 82.8896637 C-142.07071793 81.90642624 -142.04165863 80.92318878 -142.01171875 79.91015625 C-141.97773735 78.38871254 -141.97773735 78.38871254 -141.94306946 76.83653259 C-141.89301222 74.68183968 -141.83803193 72.52725647 -141.77856445 70.37280273 C-141.68873583 67.10742386 -141.6134682 63.84197765 -141.54101562 60.57617188 C-141.49045117 58.47914556 -141.43904449 56.38213935 -141.38671875 54.28515625 C-141.36373215 53.32013687 -141.34074554 52.35511749 -141.31706238 51.3608551 C-141.18227079 46.59378851 -140.9699815 41.83544169 -140.63012695 37.07836914 C-140.56944534 36.21192276 -140.50876373 35.34547638 -140.44624329 34.45277405 C-139.64661179 30.05760342 -137.17372197 26.8568999 -134.5 23.375 C-133.73236328 22.31732422 -133.73236328 22.31732422 -132.94921875 21.23828125 C-129.45954241 16.45954241 -129.45954241 16.45954241 -128 15 C-125.85901119 14.90421697 -123.71490763 14.87767135 -121.57177734 14.87744141 C-120.17906576 14.87332757 -118.78635535 14.86880144 -117.39364624 14.86392212 C-116.28032488 14.86202818 -116.28032488 14.86202818 -115.14451218 14.86009598 C-110.39602668 14.84254355 -105.64801353 14.76848637 -100.89995384 14.70549965 C-96.72635645 14.6534015 -92.55431626 14.62060039 -88.38037109 14.62939453 C-84.34471138 14.63679462 -80.31274532 14.59075864 -76.27794266 14.50907516 C-74.74319804 14.48753933 -73.20805406 14.48521619 -71.67325974 14.50285721 C-66.94400677 14.55089884 -62.55411196 14.43686153 -58 13 C-54.73362248 9.6818533 -52.979465 6.1646567 -51 2 C-48.44276771 0.72138385 -46.63262898 0.88663391 -43.7734375 0.90234375 C-42.7421875 0.90556641 -41.7109375 0.90878906 -40.6484375 0.91210938 C-39.56820312 0.92048828 -38.48796875 0.92886719 -37.375 0.9375 C-35.74304688 0.94426758 -35.74304688 0.94426758 -34.078125 0.95117188 C-31.38536211 0.96298224 -28.69270812 0.97945222 -26 1 C-26.33 1.99 -26.66 2.98 -27 4 C-27.59425781 3.96745117 -28.18851562 3.93490234 -28.80078125 3.90136719 C-31.53536485 3.78760341 -34.26317765 3.76826984 -37 3.75 C-37.93457031 3.69714844 -38.86914062 3.64429688 -39.83203125 3.58984375 C-43.09963968 3.49924859 -43.09963968 3.49924859 -48 5 C-51.96 10.94 -51.96 10.94 -56 17 C-24.65 17 6.7 17 39 17 C34.90162662 10.17074493 34.90162662 10.17074493 30 4 C27.62661361 3.84028023 25.27881728 3.7407567 22.90234375 3.68359375 C22.19348526 3.66281265 21.48462677 3.64203156 20.75428772 3.62062073 C18.48212695 3.55505402 16.20984736 3.4962077 13.9375 3.4375 C12.40037817 3.39432151 10.8632685 3.35070745 9.32617188 3.30664062 C5.5509041 3.19936551 1.7755164 3.09811863 -2 3 C-1.34 2.01 -0.68 1.02 0 0 Z M-110.0078125 16.80078125 C-119.79093284 16.19000389 -119.79093284 16.19000389 -128.7890625 19.19287109 C-131.94131766 22.30902386 -133.69108462 25.81499251 -135 30 C-135 30.66 -135 31.32 -135 32 C-110.64218614 32.12278076 -86.34203356 31.91609804 -62 31 C-61.67 26.38 -61.34 21.76 -61 17 C-72.02192481 16.94805126 -83.04234325 16.93888186 -94.06428528 16.99478149 C-99.38434399 17.0151724 -104.68990478 16.94861659 -110.0078125 16.80078125 Z M-36 20.4375 C-37.10478699 20.45714813 -38.20957397 20.47679626 -39.34783936 20.49703979 C-42.4612037 20.55360676 -45.5743313 20.61720927 -48.6875 20.68359375 C-50.08713486 20.70867004 -50.08713486 20.70867004 -51.51504517 20.73425293 C-55.58284261 20.42666391 -55.58284261 20.42666391 -59 22 C-59.23453252 24.48437229 -59.40102564 26.9426846 -59.5234375 29.43359375 C-59.56455658 30.22471054 -59.60567566 31.01582733 -59.64804077 31.83091736 C-60.14742662 42.10286912 -60.35732598 52.38391702 -60.55761719 62.6652832 C-60.62606521 66.1162041 -60.70348177 69.56685603 -60.78125 73.01757812 C-60.82605767 75.2109266 -60.87034868 77.4042857 -60.9140625 79.59765625 C-60.93796051 80.62971695 -60.96185852 81.66177765 -60.98648071 82.72511292 C-61.0033493 83.66797653 -61.0202179 84.61084015 -61.03759766 85.58227539 C-61.05456696 86.41400772 -61.07153625 87.24574005 -61.08901978 88.10267639 C-61.21280104 90.01159555 -61.21280104 90.01159555 -60 91 C-56.86440114 91.09534958 -53.75086387 91.12550879 -50.61499023 91.11352539 C-49.62973358 91.11367142 -48.64447693 91.11381744 -47.62936401 91.1139679 C-44.35575193 91.11326832 -41.08219596 91.10547385 -37.80859375 91.09765625 C-35.54557832 91.09579223 -33.28256249 91.09436825 -31.01954651 91.09336853 C-25.05021052 91.0895421 -19.08089868 91.07971075 -13.11157227 91.06866455 C-5.95636749 91.05665917 1.19884535 91.05204879 8.35405731 91.04621124 C19.23605503 91.03649906 30.1179997 91.01734337 41 91 C41 67.57 41 44.14 41 20 C15.32373416 19.9249232 -10.32899207 19.94430483 -36 20.4375 Z M-123.0625 34.4375 C-124.12837845 34.4669722 -124.12837845 34.4669722 -125.21578979 34.49703979 C-132.06381862 34.01324014 -132.06381862 34.01324014 -138 36 C-138.12802357 37.62032129 -138.18835495 39.2460544 -138.22119141 40.87109375 C-138.24436432 41.90886963 -138.26753723 42.94664551 -138.29141235 44.01586914 C-138.3112619 45.14500732 -138.33111145 46.27414551 -138.3515625 47.4375 C-138.37471527 48.58790771 -138.39786804 49.73831543 -138.42172241 50.92358398 C-138.46944215 53.36144469 -138.5146662 55.7993553 -138.55761719 58.23730469 C-138.62471184 61.98390901 -138.70244118 65.73018838 -138.78125 69.4765625 C-138.82616262 71.83852955 -138.8704544 74.2005085 -138.9140625 76.5625 C-138.93796051 77.69163818 -138.96185852 78.82077637 -138.98648071 79.98413086 C-139.0033493 81.02190674 -139.0202179 82.05968262 -139.03759766 83.12890625 C-139.06305161 84.50671265 -139.06305161 84.50671265 -139.08901978 85.91235352 C-139.23621357 87.98923319 -139.23621357 87.98923319 -138 89 C-135.70085534 89.15396448 -133.39705811 89.23865335 -131.09350586 89.29711914 C-130.37159561 89.31677231 -129.64968536 89.33642548 -128.90589905 89.35667419 C-126.50897667 89.4207756 -124.11194048 89.47797841 -121.71484375 89.53515625 C-120.05716366 89.57814463 -118.39949462 89.62156107 -116.74183655 89.66539001 C-112.37057456 89.77981031 -107.999186 89.88839125 -103.62774658 89.99578857 C-99.1703605 90.10632067 -94.71311744 90.22233074 -90.25585938 90.33789062 C-81.50403743 90.56397901 -72.75207433 90.78390352 -64 91 C-63.28766819 83.32271006 -62.82325794 75.69262652 -62.68359375 67.984375 C-62.6524221 66.51161102 -62.6524221 66.51161102 -62.62062073 65.00909424 C-62.556088 61.92278928 -62.49669609 58.83641144 -62.4375 55.75 C-62.39422281 53.63671171 -62.35060588 51.52343034 -62.30664062 49.41015625 C-62.20050794 44.27350905 -62.09898027 39.1367898 -62 34 C-82.35823184 33.90303473 -102.71108487 33.83141027 -123.0625 34.4375 Z M44 39 C43.97314062 41.14576637 43.95366912 43.29162645 43.9375 45.4375 C43.92589844 46.63246094 43.91429687 47.82742188 43.90234375 49.05859375 C43.66098208 51.88873341 43.66098208 51.88873341 45 53 C46.949402 53.16016482 48.90447227 53.25178254 50.859375 53.31640625 C52.7319397 53.3793689 52.7319397 53.3793689 54.64233398 53.44360352 C56.01154398 53.48364853 57.38076638 53.52327104 58.75 53.5625 C59.43474396 53.58367889 60.11948792 53.60485779 60.82498169 53.62667847 C75.55111254 54.07948358 90.26771861 54.10772846 105 54 C103.89789095 52.24870343 102.79322568 50.49901536 101.6875 48.75 C101.07261719 47.77546875 100.45773437 46.8009375 99.82421875 45.796875 C99.22222656 44.87390625 98.62023437 43.9509375 98 43 C97.35643806 41.93752045 97.35643806 41.93752045 96.69987488 40.85357666 C95.14591297 38.79765819 95.14591297 38.79765819 92.70307922 38.51898193 C91.35405769 38.5323056 91.35405769 38.5323056 89.9777832 38.54589844 C88.95695145 38.54620056 87.93611969 38.54650269 86.88435364 38.54681396 C85.23423531 38.57778168 85.23423531 38.57778168 83.55078125 38.609375 C82.4230278 38.61503479 81.29527435 38.62069458 80.13334656 38.62652588 C76.52596865 38.64894369 72.91957847 38.69915216 69.3125 38.75 C66.86915495 38.77005791 64.42579436 38.78830991 61.98242188 38.8046875 C55.98794338 38.84882621 49.99404224 38.91579269 44 39 Z M44 56 C43.9753481 60.82380802 43.95716307 65.64757967 43.94506836 70.47143555 C43.94002826 72.11369464 43.93319622 73.75594923 43.92456055 75.39819336 C43.91248074 77.75375479 43.90676861 80.10925709 43.90234375 82.46484375 C43.89718246 83.20339096 43.89202118 83.94193817 43.88670349 84.7028656 C43.8865075 86.46898088 43.93805281 88.23497146 44 90 C45.0564853 91.28046633 45.0564853 91.28046633 47.47401428 91.12025452 C48.57321701 91.11803391 49.67241974 91.11581329 50.80493164 91.11352539 C52.66674828 91.11341209 52.66674828 91.11341209 54.56617737 91.11329651 C55.9308374 91.10818911 57.29549702 91.1029731 58.66015625 91.09765625 C60.04878183 91.095792 61.43740807 91.09436813 62.82603455 91.09336853 C66.48721115 91.08954387 70.1483483 91.07971403 73.80950928 91.06866455 C77.54292263 91.05844932 81.27634234 91.05387067 85.00976562 91.04882812 C92.33986177 91.03809171 99.66992536 91.02101591 107 91 C107.01465142 87.48698363 107.02345006 83.97397524 107.03125 80.4609375 C107.03753418 78.97968384 107.03753418 78.97968384 107.04394531 77.46850586 C107.0553907 70.58696683 106.80808498 63.83986215 106 57 C92.85555864 55.824804 79.74925629 55.88459726 66.5625 55.9375 C64.36653748 55.94252731 62.17057385 55.94708803 59.97460938 55.95117188 C54.64971472 55.96207466 49.32486276 55.97871426 44 56 Z " fill="#f00050" transform="translate(216,294)"/>
<path d="M0 0 C0.84565018 0.12510452 1.69130035 0.25020905 2.56257629 0.37910461 C4.3611747 0.6472481 6.15923621 0.91901374 7.95678711 1.1940918 C10.65002056 1.60459174 13.34519855 1.99945364 16.04101562 2.39257812 C45.35121664 6.75746664 45.35121664 6.75746664 49.51953125 10.92578125 C49.48665542 13.65447532 48.95555354 16.22244305 48.51953125 18.92578125 C49.84984375 18.61640625 49.84984375 18.61640625 51.20703125 18.30078125 C54.74480235 17.90027886 56.38586092 18.35894609 59.51953125 19.92578125 C60.33203125 23.11328125 60.33203125 23.11328125 60.51953125 26.92578125 C56.46987637 32.6736785 50.62839536 34.31511151 44.01953125 35.61328125 C42.78203125 35.76796875 42.78203125 35.76796875 41.51953125 35.92578125 C39.51953125 32.92578125 39.51953125 32.92578125 39.64453125 30.30078125 C40.77977978 25.92196548 42.59438635 22.00477011 44.51953125 17.92578125 C43.72498535 17.89419922 42.93043945 17.86261719 42.11181641 17.83007812 C31.81568865 17.27281726 21.98048425 15.47324403 11.89453125 13.42578125 C10.25796273 13.10080504 8.62124443 12.77658215 6.984375 12.453125 C-5.57234699 9.95920913 -5.57234699 9.95920913 -9.48046875 8.92578125 C-11.68232279 15.53134337 -11.47680583 23.46489236 -8.85546875 29.92578125 C-5.92247184 35.54478585 -1.62453416 38.93826878 4.30859375 41.30078125 C9.26760047 42.70262061 14.41738208 43.27362685 19.51953125 43.92578125 C18.85953125 45.24578125 18.19953125 46.56578125 17.51953125 47.92578125 C11.78110874 48.12991486 6.91414078 48.19719579 1.51953125 45.92578125 C2.48616874 48.02789822 2.48616874 48.02789822 4.51953125 49.92578125 C8.45807258 51.0252907 11.63284964 51.22134179 15.51953125 49.92578125 C14.94608188 52.79302811 14.65807975 53.78723275 12.51953125 55.92578125 C12.21354062 58.49494782 12.00866038 60.97336509 11.89453125 63.55078125 C11.85585937 64.2571875 11.8171875 64.96359375 11.77734375 65.69140625 C11.68305401 67.43576649 11.60020234 69.18073816 11.51953125 70.92578125 C10.52953125 71.25578125 9.53953125 71.58578125 8.51953125 71.92578125 C7.01227655 78.76823053 7.01227655 78.76823053 8.82421875 85.26171875 C10.47457894 87.30550057 10.47457894 87.30550057 12.26953125 89.07421875 C13.51953125 90.92578125 13.51953125 90.92578125 13.20703125 93.65234375 C12.98015625 94.40257812 12.75328125 95.1528125 12.51953125 95.92578125 C4.11484963 95.42836132 -4.43317949 94.48777538 -12.48046875 91.92578125 C-13.14046875 90.93578125 -13.80046875 89.94578125 -14.48046875 88.92578125 C-13.61421875 88.18328125 -12.74796875 87.44078125 -11.85546875 86.67578125 C-11.31277344 86.21042969 -10.77007812 85.74507813 -10.2109375 85.265625 C-8.48046875 83.92578125 -8.48046875 83.92578125 -5.16796875 82.23828125 C-2.10927103 79.60637856 -1.99558483 78.95471516 -1.54296875 75.11328125 C-1.38092916 71.87248947 -1.58572113 69.34210897 -2.16796875 66.11328125 C-2.48046875 62.92578125 -2.48046875 62.92578125 -0.54296875 60.30078125 C0.13765625 59.51703125 0.81828125 58.73328125 1.51953125 57.92578125 C2.1030363 55.382875 2.1030363 55.382875 1.51953125 52.92578125 C0.55495291 51.56660268 -0.44901504 50.23493404 -1.48046875 48.92578125 C-1.74859375 47.95640625 -2.01671875 46.98703125 -2.29296875 45.98828125 C-3.60055006 42.61609788 -5.0194404 41.63706855 -7.8515625 39.53515625 C-9.9805853 37.4316613 -10.98918647 35.17574333 -12.29296875 32.48828125 C-14.89488572 27.37369512 -17.54304318 25.06062796 -22.42578125 22.18359375 C-26.32939364 19.79392989 -28.09796181 17.17530391 -29.41796875 12.86328125 C-29.48046875 9.92578125 -29.48046875 9.92578125 -28.60546875 7.61328125 C-25.30600496 4.99311882 -21.617256 4.88831035 -17.48046875 4.92578125 C-16.49046875 5.25578125 -15.50046875 5.58578125 -14.48046875 5.92578125 C-14.04734375 4.95640625 -13.61421875 3.98703125 -13.16796875 2.98828125 C-10.05579734 -2.65973354 -5.54652479 -0.84887019 0 0 Z M-8.48046875 2.92578125 C-8.81046875 3.91578125 -9.14046875 4.90578125 -9.48046875 5.92578125 C10.39107474 10.20765387 10.39107474 10.20765387 30.39453125 13.80078125 C31.12841064 13.92042236 31.86229004 14.04006348 32.6184082 14.16333008 C36.98076879 14.82820235 41.12416873 15.02906653 45.51953125 14.92578125 C45.51953125 13.93578125 45.51953125 12.94578125 45.51953125 11.92578125 C32.82421524 9.12152546 20.12317756 6.5840648 7.26953125 4.61328125 C5.60204834 4.35659668 5.60204834 4.35659668 3.90087891 4.09472656 C-0.29596089 3.46829369 -4.22805924 2.92578125 -8.48046875 2.92578125 Z M-25.48046875 9.92578125 C-25.60475739 12.71797907 -25.60475739 12.71797907 -24.48046875 15.92578125 C-20.09715651 20.25647294 -20.09715651 20.25647294 -14.48046875 21.92578125 C-14.48046875 17.96578125 -14.48046875 14.00578125 -14.48046875 9.92578125 C-17.87945375 8.22628875 -22.08148375 8.22628875 -25.48046875 9.92578125 Z M46.94140625 23.671875 C44.57595692 27.06690327 44.57595692 27.06690327 43.51953125 30.92578125 C49.23194591 30.5384989 52.25641407 30.05567602 56.51953125 25.92578125 C56.18953125 24.60578125 55.85953125 23.28578125 55.51953125 21.92578125 C50.73088661 21.10577015 50.73088661 21.10577015 46.94140625 23.671875 Z M5.51953125 54.92578125 C5.84953125 56.24578125 6.17953125 57.56578125 6.51953125 58.92578125 C7.17953125 58.59578125 7.83953125 58.26578125 8.51953125 57.92578125 C8.51953125 56.93578125 8.51953125 55.94578125 8.51953125 54.92578125 C7.52953125 54.92578125 6.53953125 54.92578125 5.51953125 54.92578125 Z M1.51953125 62.92578125 C1.26922148 65.50958302 1.26922148 65.50958302 1.51953125 67.92578125 C3.99453125 68.91578125 3.99453125 68.91578125 6.51953125 69.92578125 C8.1857455 68.76126115 8.1857455 68.76126115 9.51953125 66.92578125 C9.28909261 64.27112076 9.28909261 64.27112076 8.51953125 61.92578125 C5.03371269 60.72377485 4.83960781 60.71239688 1.51953125 62.92578125 Z M2.51953125 71.92578125 C2.46796875 72.66183594 2.41640625 73.39789063 2.36328125 74.15625 C1.44778131 82.03163017 1.44778131 82.03163017 -1.39453125 84.76953125 C-3.38437672 85.97890729 -5.33550406 87.02290076 -7.48046875 87.92578125 C-7.15046875 88.58578125 -6.82046875 89.24578125 -6.48046875 89.92578125 C-4.04000303 90.65849062 -4.04000303 90.65849062 -1.16796875 91.11328125 C-0.20246094 91.29246094 0.76304687 91.47164062 1.7578125 91.65625 C4.37360143 91.91153916 6.05305034 91.7518473 8.51953125 90.92578125 C7.8646875 90.25160156 7.20984375 89.57742187 6.53515625 88.8828125 C4.00857002 85.1761734 4.10370591 83.04910904 4.26953125 78.61328125 C4.305625 77.35902344 4.34171875 76.10476562 4.37890625 74.8125 C4.44851562 73.38357422 4.44851562 73.38357422 4.51953125 71.92578125 C3.85953125 71.92578125 3.19953125 71.92578125 2.51953125 71.92578125 Z " fill="#f00050" transform="translate(170.48046875,38.07421875)"/>
<path d="M0 0 C2.62697064 -0.22137393 5.00893964 -0.28162025 7.625 -0.1875 C8.33140625 -0.17396484 9.0378125 -0.16042969 9.765625 -0.14648438 C11.51074128 -0.1111104 13.25546608 -0.05730221 15 0 C15.1296588 10.34389084 14.93674132 20.66184979 14.5625 31 C14.52326416 32.1638623 14.48402832 33.32772461 14.44360352 34.52685547 C14.40162842 35.61111816 14.35965332 36.69538086 14.31640625 37.8125 C14.27974854 38.78832031 14.24309082 39.76414062 14.20532227 40.76953125 C14 43 14 43 13 44 C11.16884117 44.09851171 9.33380067 44.12972629 7.5 44.125 C6.4996875 44.12757813 5.499375 44.13015625 4.46875 44.1328125 C2 44 2 44 1 43 C0.84285346 41.36743242 0.74914586 39.72864662 0.68359375 38.08984375 C0.64169922 37.10048828 0.59980469 36.11113281 0.55664062 35.09179688 C0.51732422 34.05087891 0.47800781 33.00996094 0.4375 31.9375 C0.39431641 30.89271484 0.35113281 29.84792969 0.30664062 28.77148438 C0.20018775 26.18113116 0.0981724 23.59067814 0 21 C-1.32 22.65 -2.64 24.3 -4 26 C-6.9719385 24.87548273 -9.33440687 23.77706209 -12 22 C-11.47997654 17.20118705 -9.19383031 13.78699342 -6.5625 9.875 C-6.15451172 9.25496094 -5.74652344 8.63492187 -5.32617188 7.99609375 C-4.22511573 6.32564968 -3.11307284 4.66246109 -2 3 C-1.34 2.01 -0.68 1.02 0 0 Z " fill="#f00050" transform="translate(197,329)"/>
<path d="M0 0 C2.87029869 1.79393668 4.49131638 2.98263276 6 6 C6.52274617 11.67983816 6.71435943 16.35705072 3 21 C5.31 21.99 7.62 22.98 10 24 C10.02689216 25.47906892 10.04634621 26.95827483 10.0625 28.4375 C10.07410156 29.26121094 10.08570313 30.08492188 10.09765625 30.93359375 C10 33 10 33 9 34 C7.49740523 34.09910095 5.99023289 34.13079701 4.484375 34.1328125 C3.56269531 34.13410156 2.64101562 34.13539063 1.69140625 34.13671875 C0.23541016 34.13091797 0.23541016 34.13091797 -1.25 34.125 C-2.20519531 34.12886719 -3.16039063 34.13273437 -4.14453125 34.13671875 C-5.07136719 34.13542969 -5.99820313 34.13414062 -6.953125 34.1328125 C-7.80036133 34.13168457 -8.64759766 34.13055664 -9.52050781 34.12939453 C-12.12590539 33.99342951 -14.4825729 33.69089753 -17 33 C-18.40457737 30.19084526 -18.24895157 28.11189466 -18 25 C-15.4761959 20.80437662 -12.25137368 19.3987162 -7.9609375 17.34375 C-5.81882429 16.15711156 -5.81882429 16.15711156 -5.2265625 13.84375 C-5.15179688 13.2353125 -5.07703125 12.626875 -5 12 C-6.2375 12.2475 -7.475 12.495 -8.75 12.75 C-12.03161925 13.16384541 -12.68060211 13.2103352 -15.5625 11.3125 C-17 9 -17 9 -17 7 C-13.46910026 -0.06179947 -7.2130398 -0.94908418 0 0 Z " fill="#f00050" transform="translate(118,341)"/>
<path d="M0 0 C0.804375 -0.00128906 1.60875 -0.00257813 2.4375 -0.00390625 C3.283125 -0.00003906 4.12875 0.00382812 5 0.0078125 C6.2684375 0.00201172 6.2684375 0.00201172 7.5625 -0.00390625 C8.366875 -0.00261719 9.17125 -0.00132812 10 0 C10.7425 0.00112793 11.485 0.00225586 12.25 0.00341797 C14 0.1328125 14 0.1328125 15 1.1328125 C15.23323615 8.24651512 15.23323615 8.24651512 14.375 11.5078125 C14.25125 12.0440625 14.1275 12.5803125 14 13.1328125 C14.66 13.7928125 15.32 14.4528125 16 15.1328125 C16.44231864 19.03996045 16.36343561 21.42174283 14.5625 24.9453125 C10.9616651 28.01919595 7.71484028 28.97489919 3 29.1328125 C-1.89786241 28.24579805 -5.64137807 26.88221748 -9 23.1328125 C-7.515 19.6678125 -7.515 19.6678125 -6 16.1328125 C-3.13275314 16.70626187 -2.1385485 16.994264 0 19.1328125 C2.57061311 19.78049043 2.57061311 19.78049043 5 20.1328125 C4.27731765 16.8342986 4.27731765 16.8342986 0.9375 15.4453125 C-0.031875 15.0121875 -1.00125 14.5790625 -2 14.1328125 C-0.55746343 10.76689384 1.33264727 8.62234171 4 6.1328125 C3.01 6.6278125 3.01 6.6278125 2 7.1328125 C-1.0625 7.2578125 -1.0625 7.2578125 -4 7.1328125 C-5 6.1328125 -5 6.1328125 -5.125 3.6328125 C-4.92350591 -0.39706938 -3.63360082 0.00551979 0 0 Z " fill="#f00050" transform="translate(287,353.8671875)"/>
<path d="M0 0 C1.67578125 0.76171875 1.67578125 0.76171875 2.43359375 2.4296875 C2.67578125 4.76171875 2.67578125 4.76171875 0.98046875 7.375 C0.17867188 8.26574219 -0.623125 9.15648437 -1.44921875 10.07421875 C-2.23554688 10.97785156 -3.021875 11.88148438 -3.83203125 12.8125 C-6.32421875 14.76171875 -6.32421875 14.76171875 -9.00390625 14.6171875 C-11.32421875 13.76171875 -11.32421875 13.76171875 -13.32421875 12.76171875 C-12.83131309 8.55752338 -10.5613113 6.71305153 -7.51171875 3.94921875 C-6.63902344 3.13839844 -5.76632812 2.32757813 -4.8671875 1.4921875 C-2.32421875 -0.23828125 -2.32421875 -0.23828125 0 0 Z " fill="#f00050" transform="translate(276.32421875,133.23828125)"/>
<path d="M0 0 C1.65 0.33 3.3 0.66 5 1 C4.57202798 6.70629354 2.15654048 10.41078616 -1 15 C-5.75 13.125 -5.75 13.125 -8 12 C-7.41463247 8.33939179 -5.916761 6.45464836 -3.4375 3.75 C-2.79683594 3.04359375 -2.15617188 2.3371875 -1.49609375 1.609375 C-0.75552734 0.81273437 -0.75552734 0.81273437 0 0 Z " fill="#f00050" transform="translate(137,267)"/>
<path d="M0 0 C1.65 0 3.3 0 5 0 C6.56835699 5.01874237 7.64342001 9.7404452 8 15 C7.34 15.66 6.68 16.32 6 17 C4.68 17 3.36 17 2 17 C-0.29612756 5.47835991 -0.29612756 5.47835991 0 0 Z " fill="#f00050" transform="translate(119,66)"/>
<path d="M0 0 C1.32 0.33 2.64 0.66 4 1 C3.45144652 5.571279 2.58255197 9.67435795 1 14 C-1.31 13.67 -3.62 13.34 -6 13 C-6 8.61793033 -5.43228025 7.69573036 -3 4.25 C-2.443125 3.45078125 -1.88625 2.6515625 -1.3125 1.828125 C-0.879375 1.22484375 -0.44625 0.6215625 0 0 Z " fill="#f00050" transform="translate(113,174)"/>
<path d="M0 0 C1.32 0.66 2.64 1.32 4 2 C3.91601729 4.85541213 3.39043615 6.56239033 1.48046875 8.703125 C-1.99755648 11.83700878 -1.99755648 11.83700878 -4 13 C-4.99 12.67 -5.98 12.34 -7 12 C-7.33 10.35 -7.66 8.7 -8 7 C-5.36 4.69 -2.72 2.38 0 0 Z " fill="#f00050" transform="translate(276,281)"/>
<path d="M0 0 C1.65 0.33 3.3 0.66 5 1 C6 4 6 4 5.22265625 6.04296875 C4.83980469 6.75066406 4.45695312 7.45835938 4.0625 8.1875 C3.68222656 8.90292969 3.30195313 9.61835937 2.91015625 10.35546875 C2.60980469 10.89816406 2.30945313 11.44085938 2 12 C-0.31 11.67 -2.62 11.34 -5 11 C-5 6.86356447 -4.84767359 6.30197567 -2.5 3.25 C-2.0359375 2.63640625 -1.571875 2.0228125 -1.09375 1.390625 C-0.55234375 0.70226563 -0.55234375 0.70226563 0 0 Z " fill="#f00050" transform="translate(259,44)"/>
<path d="M0 0 C0.66 0 1.32 0 2 0 C2 1.98 2 3.96 2 6 C3.98 6 5.96 6 8 6 C10.03147515 10.87554037 11.1473357 14.6959147 11 20 C10.01 19.67 9.02 19.34 8 19 C7.7525 17.88625 7.505 16.7725 7.25 15.625 C6.8375 14.42875 6.425 13.2325 6 12 C3.69034152 10.94647157 1.3570226 9.94280904 -1 9 C-2.0625 6.5625 -2.0625 6.5625 -2 4 C-1.0625 1.6875 -1.0625 1.6875 0 0 Z " fill="#f00050" transform="translate(293,158)"/>
<path d="M0 0 C1.65 0 3.3 0 5 0 C4.67 4.29 4.34 8.58 4 13 C2.02 13 0.04 13 -2 13 C-3.18771723 9.57056481 -2.80226223 7.62215325 -1.5625 4.25 C-1.27503906 3.45078125 -0.98757813 2.6515625 -0.69140625 1.828125 C-0.46324219 1.22484375 -0.23507812 0.6215625 0 0 Z " fill="#f00050" transform="translate(272,71)"/>
<path d="M0 0 C3.42106076 0.25341191 4.30782184 1.30782184 6.8125 3.8125 C9 7 9 7 8.8125 9.375 C8.544375 9.91125 8.27625 10.4475 8 11 C6.35 11.33 4.7 11.66 3 12 C2.10577086 10.7636832 1.23512109 9.51028438 0.375 8.25 C-0.11226562 7.55390625 -0.59953125 6.8578125 -1.1015625 6.140625 C-2 4 -2 4 -1.1484375 1.734375 C-0.76945313 1.16203125 -0.39046875 0.5896875 0 0 Z " fill="#f00050" transform="translate(242,249)"/>
<path d="M0 0 C1.65 0 3.3 0 5 0 C4.67 4.29 4.34 8.58 4 13 C2.02 13 0.04 13 -2 13 C-1.85915204 11.20793453 -1.71216299 9.41635083 -1.5625 7.625 C-1.48128906 6.62726563 -1.40007812 5.62953125 -1.31640625 4.6015625 C-1 2 -1 2 0 0 Z " fill="#f00050" transform="translate(151,204)"/>
<path d="M0 0 C1.65 0.33 3.3 0.66 5 1 C4.49701212 5.40114397 2.91227269 7.71195019 0 11 C-1.65 10.67 -3.3 10.34 -5 10 C-4.49701212 5.59885603 -2.91227269 3.28804981 0 0 Z " fill="#f00050" transform="translate(148,189)"/>
<path d="M0 0 C0.66 0.33 1.32 0.66 2 1 C1.25 4.375 1.25 4.375 0 8 C-1.875 9.1875 -1.875 9.1875 -4 10 C-5.37086915 11.29470975 -6.71340837 12.62150897 -8 14 C-10.4375 13.1875 -10.4375 13.1875 -13 12 C-13.33 11.01 -13.66 10.02 -14 9 C-12.02 9.66 -10.04 10.32 -8 11 C-7.67 9.35 -7.34 7.7 -7 6 C-6.401875 5.938125 -5.80375 5.87625 -5.1875 5.8125 C-2.12856542 4.6763243 -1.44958901 2.82669858 0 0 Z " fill="#f00050" transform="translate(151,163)"/>
<path d="M0 0 C0.66 0 1.32 0 2 0 C2 0.66 2 1.32 2 2 C3.65 1.67 5.3 1.34 7 1 C7.33 2.32 7.66 3.64 8 5 C8.78375 4.938125 9.5675 4.87625 10.375 4.8125 C11.674375 4.9053125 11.674375 4.9053125 13 5 C13.99 6.485 13.99 6.485 15 8 C17.05003955 9.19232613 17.05003955 9.19232613 19 10 C19 10.33 19 10.66 19 11 C16.125 11.125 16.125 11.125 13 11 C12.34 10.34 11.68 9.68 11 9 C9.34302621 8.30959426 7.6744239 7.6469365 6 7 C3.99248185 6.01517978 1.99065541 5.01847486 0 4 C0 2.68 0 1.36 0 0 Z " fill="#f00050" transform="translate(122,95)"/>
<path d="M0 0 C0.66 0 1.32 0 2 0 C2 1.32 2 2.64 2 4 C3.32 4 4.64 4 6 4 C6 5.65 6 7.3 6 9 C6.99 9.33 7.98 9.66 9 10 C9.33 11.65 9.66 13.3 10 15 C10.66 15 11.32 15 12 15 C12 15.66 12 16.32 12 17 C9.6640625 16.7734375 9.6640625 16.7734375 7 16 C5.5234375 14.0390625 5.5234375 14.0390625 4.375 11.625 C2.73021786 8.22165746 2.73021786 8.22165746 0.33203125 5.34765625 C-0.10753906 4.90292969 -0.54710938 4.45820313 -1 4 C-0.6875 1.8125 -0.6875 1.8125 0 0 Z " fill="#f00050" transform="translate(97,259)"/>
<path d="M0 0 C3.54470259 0.29539188 4.78215295 0.77626519 7.3125 3.375 C9 6 9 6 9 9 C7.35 9.33 5.7 9.66 4 10 C3.13342884 8.90554162 2.28207276 7.79902219 1.4375 6.6875 C0.96183594 6.07261719 0.48617187 5.45773438 -0.00390625 4.82421875 C-0.33261719 4.22222656 -0.66132813 3.62023437 -1 3 C-0.67 2.01 -0.34 1.02 0 0 Z " fill="#f00050" transform="translate(149,130)"/>
<path d="M0 0 C0.99 0 1.98 0 3 0 C3.33 5.28 3.66 10.56 4 16 C3.01 16.33 2.02 16.66 1 17 C-0.22517308 11.33357449 -0.09228867 5.76291482 0 0 Z " fill="#f00050" transform="translate(181,12)"/>
<path d="M0 0 C0.99 0.33 1.98 0.66 3 1 C2.58846263 5.97093824 2.20399168 10.44508386 0 15 C-0.99 15 -1.98 15 -3 15 C-2.69052329 13.06201479 -2.37731166 11.12462574 -2.0625 9.1875 C-1.88847656 8.10855469 -1.71445313 7.02960937 -1.53515625 5.91796875 C-1 3 -1 3 0 0 Z " fill="#f00050" transform="translate(198,14)"/>
<path d="M0 0 C-1.34128135 5.53278558 -5.55165 8.78421365 -10 12 C-10.66 12 -11.32 12 -12 12 C-11.51221748 7.72081695 -10.40381422 5.9438658 -7.125 3.1875 C-6.42632812 2.58292969 -5.72765625 1.97835938 -5.0078125 1.35546875 C-3 0 -3 0 0 0 Z " fill="#f00050" transform="translate(216,22)"/>
<path d="M0 0 C2.97 0 5.94 0 9 0 C7.125 4.875 7.125 4.875 6 6 C3.5 6.125 3.5 6.125 1 6 C0 5 0 5 -0.0625 2.4375 C-0.041875 1.633125 -0.02125 0.82875 0 0 Z " fill="#191919" transform="translate(215,91)"/>
<path d="M0 0 C1.32 0.33 2.64 0.66 4 1 C4.33 2.65 4.66 4.3 5 6 C3.1875 6.6875 3.1875 6.6875 1 7 C-0.75 5.5625 -0.75 5.5625 -2 4 C-1.34 2.68 -0.68 1.36 0 0 Z " fill="#f00050" transform="translate(232,24)"/>
<path d="M0 0 C1.67542976 0.28604898 3.34385343 0.61781233 5 1 C5 2.65 5 4.3 5 6 C3.35 6 1.7 6 0 6 C-0.38218767 4.34385343 -0.71395102 2.67542976 -1 1 C-0.67 0.67 -0.34 0.34 0 0 Z " fill="#f00050" transform="translate(141,285)"/>
<path d="M0 0 C1.67542976 0.28604898 3.34385343 0.61781233 5 1 C4.67 2.65 4.34 4.3 4 6 C2.35 6 0.7 6 -1 6 C-1.042721 4.33388095 -1.04063832 2.66617115 -1 1 C-0.67 0.67 -0.34 0.34 0 0 Z " fill="#f00050" transform="translate(128,219)"/>
<path d="M0 0 C2.125 0.375 2.125 0.375 4 1 C4 2.65 4 4.3 4 6 C2.35 6 0.7 6 -1 6 C-1.625 4.125 -1.625 4.125 -2 2 C-1.34 1.34 -0.68 0.68 0 0 Z " fill="#f00050" transform="translate(281,302)"/>
<path d="M0 0 C1.65 0.33 3.3 0.66 5 1 C5 2.32 5 3.64 5 5 C1.25 6.125 1.25 6.125 -1 5 C-0.67 3.35 -0.34 1.7 0 0 Z " fill="#f00050" transform="translate(282,269)"/>
<path d="M0 0 C1.65 0 3.3 0 5 0 C5.5625 1.9375 5.5625 1.9375 6 4 C5 5 5 5 2.4375 5.0625 C1.2309375 5.0315625 1.2309375 5.0315625 0 5 C-0.33 4.01 -0.66 3.02 -1 2 C-0.67 1.34 -0.34 0.68 0 0 Z " fill="#f00050" transform="translate(273,154)"/>
<path d="M0 0 C1.65 0.33 3.3 0.66 5 1 C4.6875 2.9375 4.6875 2.9375 4 5 C3.01 5.33 2.02 5.66 1 6 C0.34 5.67 -0.32 5.34 -1 5 C-0.67 3.35 -0.34 1.7 0 0 Z " fill="#f00050" transform="translate(247,151)"/>
<path d="M0 0 C2.125 0.9375 2.125 0.9375 4 2 C3.34 3.32 2.68 4.64 2 6 C0.68 5.67 -0.64 5.34 -2 5 C-2 3.68 -2 2.36 -2 1 C-1.34 0.67 -0.68 0.34 0 0 Z " fill="#f00050" transform="translate(134,65)"/>
<path d="M0 0 C1.65 0 3.3 0 5 0 C5.33 0.99 5.66 1.98 6 3 C5.67 3.66 5.34 4.32 5 5 C3.35 5 1.7 5 0 5 C0 3.35 0 1.7 0 0 Z " fill="#f00050" transform="translate(268,98)"/>
<path d="M0 0 C1.65 0 3.3 0 5 0 C5 1.65 5 3.3 5 5 C3.35 5 1.7 5 0 5 C0 3.35 0 1.7 0 0 Z " fill="#f00050" transform="translate(144,145)"/>
</svg>
