<?xml version="1.0" encoding="UTF-8"?>
<svg version="1.1" xmlns="http://www.w3.org/2000/svg" width="400" height="400">
<path d="M0 0 C10.59383956 8.15696462 17.4297579 17.68867913 19.9609375 30.93359375 C21.72847139 46.53665154 16.8320885 61.71477308 7.22045898 73.94116211 C-2.1037618 85.25485691 -13.47813548 92.53476458 -27.0390625 97.93359375 C-26.64525391 99.03872314 -26.25144531 100.14385254 -25.84570312 101.2824707 C-24.38734042 105.3789384 -22.93516676 109.47757713 -21.48486328 113.5769043 C-20.85602003 115.35159279 -20.22549471 117.12568619 -19.59326172 118.89916992 C-18.68535701 121.44686169 -17.78350176 123.99662484 -16.8828125 126.546875 C-16.4562738 127.73764397 -16.4562738 127.73764397 -16.02111816 128.95246887 C-14.92828833 132.06187928 -14.0390625 134.61213054 -14.0390625 137.93359375 C-13.45640625 137.97097656 -12.87375 138.00835937 -12.2734375 138.046875 C-3.93016064 138.71591135 4.47102572 140.05699094 11.9609375 143.93359375 C11.9295166 143.04220703 11.9295166 143.04220703 11.89746094 142.1328125 C11.81351896 139.3999167 11.76203469 136.66729318 11.7109375 133.93359375 C11.67742187 132.99902344 11.64390625 132.06445312 11.609375 131.1015625 C11.52133244 124.80651974 12.30723792 120.15454238 15.9609375 114.93359375 C19.49367831 111.30251112 23.54633424 109.63755746 28.5859375 109.43359375 C33.51153962 109.73932078 37.232684 111.14361691 40.7109375 114.74609375 C42.21682037 117.38138878 43.10270353 120.02880185 43.9609375 122.93359375 C44.8890625 121.94359375 44.8890625 121.94359375 45.8359375 120.93359375 C47.9609375 118.93359375 47.9609375 118.93359375 49.9609375 118.93359375 C48.63214476 121.85949314 47.15757121 123.97467044 44.9609375 126.30859375 C37.48071038 134.71804163 31.31016309 144.08158051 25.5859375 153.74609375 C25.18141357 154.42663818 24.77688965 155.10718262 24.36010742 155.80834961 C18.7338403 165.49939852 15.25959139 173.46201739 16.9609375 184.93359375 C18.55991953 189.20892071 20.62435395 193.02314564 22.9609375 196.93359375 C23.31929688 197.68382812 23.67765625 198.4340625 24.046875 199.20703125 C25.28266112 201.54129391 26.56254028 201.86763943 28.9609375 202.93359375 C29.9096875 203.59359375 30.8584375 204.25359375 31.8359375 204.93359375 C38.55292898 209.2324683 45.12040128 209.88396178 52.9609375 208.93359375 C63.67363278 205.48582975 70.74034272 197.50422058 77.54296875 188.95703125 C80.1240075 185.72969039 82.78017491 182.57792234 85.4609375 179.43359375 C90.36916903 173.66016781 95.18540025 167.8175273 99.9609375 161.93359375 C96.23413855 160.51741015 92.5205309 159.11854411 88.734375 157.8671875 C74.53033774 153.09576478 61.48466611 146.51568551 53.8984375 132.99609375 C51.70471829 128.13803046 50.80133917 123.20010283 51.9609375 117.93359375 C54.05457982 115.36888191 55.81018432 114.07795347 59.140625 113.66015625 C70.43565011 113.23454661 79.16304976 117.50939766 87.64453125 124.765625 C93.77798253 130.50603893 100.0069197 136.8947912 102.9609375 144.93359375 C102.6309375 145.92359375 102.3009375 146.91359375 101.9609375 147.93359375 C101.35507812 147.09957031 100.74921875 146.26554688 100.125 145.40625 C90.60559766 132.52434909 80.33349552 121.88602224 63.9609375 118.93359375 C61.59748494 118.80304113 59.33069833 118.83485372 56.9609375 118.93359375 C57.39357182 126.86522294 59.97914614 133.38429975 65.7734375 138.99609375 C75.659507 146.6546154 87.571263 150.78132101 99.48510742 154.03125 C100.29955322 154.25425781 101.11399902 154.47726563 101.953125 154.70703125 C103.04149658 154.99199463 103.04149658 154.99199463 104.15185547 155.28271484 C105.9609375 155.93359375 105.9609375 155.93359375 107.9609375 157.93359375 C108.42550552 161.11694055 108.26258276 162.49266841 106.4296875 165.171875 C105.78 165.85636719 105.1303125 166.54085937 104.4609375 167.24609375 C103.48640625 168.29216797 103.48640625 168.29216797 102.4921875 169.359375 C101.986875 169.87886719 101.4815625 170.39835938 100.9609375 170.93359375 C101.60160156 171.00835937 102.24226562 171.083125 102.90234375 171.16015625 C109.38305638 172.14530184 113.730211 173.79276911 117.9609375 178.93359375 C120.41383188 183.63497464 120.31939948 187.91231577 118.9609375 192.93359375 C116.29514254 198.37181547 112.39796923 201.48159905 106.9609375 203.93359375 C98.59720443 206.70546386 90.04511251 206.23119257 81.31445312 206.1484375 C74.15980519 206.24850251 69.55280145 206.89167111 63.91748047 211.46435547 C57.86650452 216.00825031 49.28170539 216.95484625 41.9609375 215.93359375 C38.75151938 215.02615729 35.64931899 213.98086086 32.52734375 212.80859375 C29.93959896 211.77224212 29.93959896 211.77224212 26.9609375 211.93359375 C24.12659985 215.28326552 22.84309438 217.87774197 22.0859375 222.18359375 C20.06182157 232.40709457 13.23777981 239.98247572 4.9609375 245.93359375 C-2.24982615 250.03102521 -12.66160723 255.67989171 -21.2421875 254.67578125 C-23.0390625 253.93359375 -23.0390625 253.93359375 -24.7265625 251.12109375 C-28.60636496 245.77325792 -33.3699098 244.42965592 -39.73828125 243.24609375 C-43.16797794 242.74672436 -46.59348096 242.30608905 -50.0390625 241.93359375 C-49.0390625 239.93359375 -49.0390625 239.93359375 -46.0390625 238.93359375 C-37.05811911 238.17481598 -29.54200317 238.66427934 -22.26171875 244.3125 C-21.47087891 244.99119141 -21.47087891 244.99119141 -20.6640625 245.68359375 C-18.23565573 248.25898944 -18.23565573 248.25898944 -15.0390625 247.93359375 C-18.4535935 244.3965405 -18.4535935 244.3965405 -22.3515625 241.43359375 C-24.0390625 239.93359375 -24.0390625 239.93359375 -24.5390625 237.55859375 C-23.86836306 234.03742166 -22.63159921 232.38599334 -20.0390625 229.93359375 C-16.31777894 229.05223712 -15.03161769 229.93808873 -11.7265625 231.93359375 C-10.8396875 232.59359375 -9.9528125 233.25359375 -9.0390625 233.93359375 C-8.7709375 233.19109375 -8.5028125 232.44859375 -8.2265625 231.68359375 C-7.09676829 229.06722821 -5.83013048 227.13172264 -4.0390625 224.93359375 C-1.7290625 225.26359375 0.5809375 225.59359375 2.9609375 225.93359375 C3.1775 225.27488281 3.3940625 224.61617187 3.6171875 223.9375 C5.42659028 219.89264321 7.90352383 216.47592362 10.4609375 212.87109375 C11.45287898 211.46520253 12.44254192 210.0577003 13.4296875 208.6484375 C13.86732422 208.030896 14.30496094 207.41335449 14.75585938 206.77709961 C16.00260088 204.8698579 17.08086847 203.03721982 17.9609375 200.93359375 C17.18095916 198.91741098 17.18095916 198.91741098 15.7109375 197.05859375 C11.63145243 191.39773525 10.59756948 186.02109453 10.6484375 179.12109375 C10.64827637 178.41259277 10.64811523 177.7040918 10.64794922 176.97412109 C10.72902599 172.12839592 11.60994282 168.43729707 13.42578125 164.01171875 C14.29158522 160.64961867 13.41688808 157.77501586 12.50390625 154.48828125 C11.81958965 151.26854704 11.88471803 148.21504237 11.9609375 144.93359375 C11.12433594 144.88460937 10.28773438 144.835625 9.42578125 144.78515625 C0.52749026 144.21361596 -8.21563057 143.20644177 -17.0390625 141.93359375 C-16.89831299 142.47741699 -16.75756348 143.02124023 -16.61254883 143.58154297 C-15.26238331 149.14286818 -14.68541815 154.34310639 -14.7265625 160.05859375 C-14.73147705 160.88045166 -14.7363916 161.70230957 -14.74145508 162.54907227 C-15.0391212 178.31316458 -18.85965754 194.27846943 -30.0390625 205.93359375 C-35.74328785 210.93359375 -35.74328785 210.93359375 -40.0390625 210.93359375 C-38.39112294 207.25877666 -36.10709606 204.23281921 -33.7265625 200.99609375 C-20.88442903 182.94046047 -20.08281244 162.2078131 -22.0390625 140.93359375 C-25.9990625 140.60359375 -29.9590625 140.27359375 -34.0390625 139.93359375 C-33.5440625 142.40859375 -33.5440625 142.40859375 -33.0390625 144.93359375 C-32.01272833 163.52603206 -34.8996081 182.69995907 -45.609375 198.359375 C-47.0390625 199.93359375 -47.0390625 199.93359375 -50.0390625 200.93359375 C-48.60046694 195.57839628 -47.14478676 190.23359198 -45.5390625 184.92578125 C-41.42540174 171.04924781 -39.37217958 157.33053564 -38.0390625 142.93359375 C-38.8125 143.35511719 -39.5859375 143.77664062 -40.3828125 144.2109375 C-48.37617835 148.4153688 -54.9657927 151.47047223 -64.01953125 148.86328125 C-68.64743912 146.73283237 -72.69387697 143.01863132 -75.4453125 138.75390625 C-76.92789566 136.70950613 -76.92789566 136.70950613 -79.51953125 136.32421875 C-80.41285156 136.2778125 -81.30617187 136.23140625 -82.2265625 136.18359375 C-83.12761719 136.126875 -84.02867187 136.07015625 -84.95703125 136.01171875 C-85.64410156 135.9859375 -86.33117187 135.96015625 -87.0390625 135.93359375 C-90.9993139 154.67406914 -91.58705743 176.20630396 -81.34375 193.06640625 C-79.40631154 195.83914752 -77.23428405 198.3620485 -75.0390625 200.93359375 C-75.0390625 201.59359375 -75.0390625 202.25359375 -75.0390625 202.93359375 C-82.82530344 200.48648945 -87.207585 193.77551785 -91.0390625 186.93359375 C-95.16032401 177.41295799 -96.24084992 169.10197943 -96.2890625 158.80859375 C-96.3096875 157.7309375 -96.3303125 156.65328125 -96.3515625 155.54296875 C-96.40342204 144.78211436 -94.35412852 134.84135549 -88.0390625 125.93359375 C-83.56741918 121.77392554 -81.08891765 120.80207516 -75.0390625 120.93359375 C-75.0390625 121.92359375 -75.0390625 122.91359375 -75.0390625 123.93359375 C-75.60496094 124.19914063 -76.17085937 124.4646875 -76.75390625 124.73828125 C-77.48738281 125.09148437 -78.22085938 125.4446875 -78.9765625 125.80859375 C-80.07291016 126.33066406 -80.07291016 126.33066406 -81.19140625 126.86328125 C-83.20238709 127.80209145 -83.20238709 127.80209145 -84.0390625 129.93359375 C-81.0690625 129.93359375 -78.0990625 129.93359375 -75.0390625 129.93359375 C-74.58015625 128.70382813 -74.12125 127.4740625 -73.6484375 126.20703125 C-73.02903834 124.57406982 -72.40922466 122.94126557 -71.7890625 121.30859375 C-71.48871094 120.50035156 -71.18835938 119.69210938 -70.87890625 118.859375 C-69.06022196 114.09983951 -67.12207605 110.00475267 -64.0390625 105.93359375 C-63.7090625 105.93359375 -63.3790625 105.93359375 -63.0390625 105.93359375 C-63.6702237 112.0207929 -64.8544065 117.76989807 -66.4140625 123.68359375 C-66.62289062 124.52019531 -66.83171875 125.35679687 -67.046875 126.21875 C-68.130702 130.36240567 -69.0289954 133.7298966 -72.0390625 136.93359375 C-70.74970331 138.08202298 -69.45749671 139.22725602 -68.1640625 140.37109375 C-67.08511719 141.32822266 -67.08511719 141.32822266 -65.984375 142.3046875 C-62.14617717 145.51860014 -58.80734324 145.25854954 -53.9453125 145.2265625 C-49.53634387 144.78211002 -46.77490763 143.28579253 -43.0390625 140.93359375 C-42.7090625 140.27359375 -42.3790625 139.61359375 -42.0390625 138.93359375 C-43.0290625 138.60359375 -44.0190625 138.27359375 -45.0390625 137.93359375 C-47.39924713 132.98258755 -47.21170927 128.50612648 -46.8515625 123.18359375 C-46.79967773 122.35520996 -46.74779297 121.52682617 -46.69433594 120.67333984 C-45.61657107 105.47224448 -43.93734941 88.22112233 -34.0390625 75.93359375 C-30.62483569 74.22648035 -26.73366099 75.09100439 -22.984375 75.2890625 C-19.36539933 74.85228957 -18.29524235 73.70749603 -16.0390625 70.93359375 C-17.0290625 67.46859375 -17.0290625 67.46859375 -18.0390625 63.93359375 C-22.68959122 63.66426854 -22.68959122 63.66426854 -27.0390625 64.93359375 C-26.7265625 62.99609375 -26.7265625 62.99609375 -26.0390625 60.93359375 C-25.0490625 60.60359375 -24.0590625 60.27359375 -23.0390625 59.93359375 C-23.6784375 59.31484375 -24.3178125 58.69609375 -24.9765625 58.05859375 C-35.99095938 46.94978775 -41.22088851 39.62730607 -43.0390625 23.93359375 C-43.47734375 24.30871094 -43.915625 24.68382812 -44.3671875 25.0703125 C-53.42232074 32.37699522 -63.54413673 35.77118553 -75.0390625 36.93359375 C-76.10640625 37.041875 -76.10640625 37.041875 -77.1953125 37.15234375 C-85.17966527 37.52085234 -93.23994511 35.43790112 -101.0390625 33.93359375 C-103.16001214 26.64282937 -98.86376047 20.37511271 -95.49609375 14.0234375 C-87.79444554 1.01661594 -75.60480372 -7.64840567 -61.33203125 -12.265625 C-40.17345389 -17.02349263 -17.7095298 -12.04156975 0 0 Z M-82.4140625 11.30859375 C-85.39747335 15.05698174 -87.67994542 19.33134211 -89.0390625 23.93359375 C-88.7090625 24.59359375 -88.3790625 25.25359375 -88.0390625 25.93359375 C-87.6265625 25.29292969 -87.2140625 24.65226562 -86.7890625 23.9921875 C-79.22294168 12.65989493 -69.71916991 4.66961523 -56.0390625 1.93359375 C-47.37993239 1.00157224 -38.74135614 0.79014935 -30.0390625 0.93359375 C-46.26105637 -9.88106883 -70.16361112 -1.85835026 -82.4140625 11.30859375 Z M20.39404297 119.27001953 C15.21140519 125.28611729 16.72437937 136.67859467 16.8359375 144.05859375 C16.84496094 145.20585937 16.85398437 146.353125 16.86328125 147.53515625 C16.88661212 150.33486123 16.91934518 153.1341107 16.9609375 155.93359375 C17.6209375 155.93359375 18.2809375 155.93359375 18.9609375 155.93359375 C20.23356309 154.38608403 20.23356309 154.38608403 21.46484375 152.34765625 C21.9544458 151.58622314 22.44404785 150.82479004 22.94848633 150.0402832 C23.46822021 149.22132568 23.9879541 148.40236816 24.5234375 147.55859375 C28.09986192 142.00039475 31.62183869 136.9488894 36.2734375 132.24609375 C39.55921051 128.8282462 39.55921051 128.8282462 40.3359375 124.12109375 C38.69724197 120.32229958 37.29640532 118.39893953 33.9609375 115.93359375 C27.88270894 114.19695702 25.05114827 115.29791071 20.39404297 119.27001953 Z M91.8359375 180.62109375 C90.87944858 181.80772902 89.92239977 182.99391316 88.96484375 184.1796875 C88.47516113 184.79569824 87.98547852 185.41170898 87.48095703 186.04638672 C84.5129683 189.73134543 81.39787874 193.29366588 78.31396484 196.8815918 C75.98843975 199.12198398 75.98843975 199.12198398 74.9609375 201.93359375 C81.31552592 202.06094021 87.31069654 201.66536532 93.5859375 200.68359375 C94.39289063 200.57402344 95.19984375 200.46445312 96.03125 200.3515625 C102.66464834 199.32855464 107.50006632 197.33136567 112.3984375 192.55859375 C114.38383471 189.22312643 114.72548213 187.75631689 113.9609375 183.93359375 C111.57201945 180.02296763 109.05694012 177.44804396 104.8984375 175.49609375 C98.16195714 174.20612942 96.02541206 175.19698035 91.8359375 180.62109375 Z " fill="#191919" transform="translate(259.0390625,82.06640625)"/>
<path d="M0 0 C1.82976128 -0.0049926 1.82976128 -0.0049926 3.69648743 -0.01008606 C6.24679186 -0.01510701 8.79710274 -0.0174959 11.34741211 -0.01733398 C15.26621958 -0.01954703 19.18475682 -0.03782511 23.10351562 -0.05664062 C25.58984279 -0.0595702 28.07617129 -0.06155791 30.5625 -0.0625 C31.73632736 -0.06968552 32.91015472 -0.07687103 34.11955261 -0.08427429 C35.7381292 -0.07965935 35.7381292 -0.07965935 37.3894043 -0.07495117 C38.81617744 -0.0770887 38.81617744 -0.0770887 40.27177429 -0.07926941 C42.55078125 0.16796875 42.55078125 0.16796875 44.55078125 2.16796875 C45.08827209 4.03851318 45.08827209 4.03851318 45.49633789 6.33886719 C45.65312515 7.20026306 45.80991241 8.06165894 45.97145081 8.94915771 C46.13298141 9.88245911 46.29451202 10.8157605 46.4609375 11.77734375 C46.63330429 12.73690979 46.80567108 13.69647583 46.98326111 14.68511963 C47.53402725 17.76146542 48.07373291 20.83963776 48.61328125 23.91796875 C48.98040297 25.97799246 49.34823299 28.03789007 49.71679688 30.09765625 C51.02864795 37.44867245 52.33969154 44.79955605 53.55078125 52.16796875 C52.98270752 52.23266357 52.41463379 52.2973584 51.8293457 52.36401367 C30.18185717 54.91322262 11.82269168 60.50515163 -2.71484375 77.875 C-6.86656095 83.37218111 -9.78545776 88.84175388 -12.44921875 95.16796875 C-13.18333984 95.17731445 -13.91746094 95.18666016 -14.67382812 95.19628906 C-33.73103558 95.46205623 -33.73103558 95.46205623 -52.3125 99.23046875 C-55.35377921 100.13944386 -58.31137455 100.71224554 -61.44921875 101.16796875 C-65.03525683 94.38852071 -67.75519819 87.40387897 -70.44140625 80.2265625 C-70.91414538 78.97339967 -71.38730874 77.7203968 -71.86087036 76.46754456 C-73.10175185 73.18186401 -74.33779249 69.89438546 -75.57250977 66.60638428 C-77.53600811 61.37990114 -79.50652429 56.15606042 -81.47757721 50.93242264 C-82.18584434 49.05381492 -82.89233726 47.1745386 -83.59881592 45.29525757 C-86.43592021 37.7690911 -89.36800209 30.29913299 -92.52783203 22.90258789 C-93.4594927 20.13747631 -93.64523367 18.06201284 -93.44921875 15.16796875 C-86.3514188 12.09358845 -79.29718153 9.89131519 -71.76171875 8.16796875 C-70.10329956 7.78668823 -70.10329956 7.78668823 -68.41137695 7.39770508 C-46.04457237 2.48337419 -22.88018768 0.02211052 0 0 Z M2.55078125 14.16796875 C1.0176883 18.28851722 -0.49859777 22.41504881 -2.01171875 26.54296875 C-2.44935547 27.71859375 -2.88699219 28.89421875 -3.33789062 30.10546875 C-3.74716797 31.22695313 -4.15644531 32.3484375 -4.578125 33.50390625 C-4.9604126 34.5407959 -5.3427002 35.57768555 -5.73657227 36.64599609 C-6.74589743 39.1359285 -6.74589743 39.1359285 -5.44921875 41.16796875 C-3.13921875 37.53796875 -0.82921875 33.90796875 1.55078125 30.16796875 C2.93411223 32.93463071 4.05436397 35.3956409 5.05859375 38.27734375 C5.32285156 39.03144531 5.58710938 39.78554688 5.859375 40.5625 C6.12878906 41.33980469 6.39820313 42.11710937 6.67578125 42.91796875 C6.95292969 43.71074219 7.23007813 44.50351562 7.515625 45.3203125 C8.19638769 47.26870226 8.87390526 49.21822533 9.55078125 51.16796875 C8.69613281 51.36132812 7.84148437 51.5546875 6.9609375 51.75390625 C5.85621094 52.01429687 4.75148438 52.2746875 3.61328125 52.54296875 C2.51113281 52.79820313 1.40898437 53.0534375 0.2734375 53.31640625 C-0.62503906 53.59742188 -1.52351563 53.8784375 -2.44921875 54.16796875 C-2.77921875 54.82796875 -3.10921875 55.48796875 -3.44921875 56.16796875 C1.52200563 57.32714314 5.6871024 56.87198185 10.61328125 55.85546875 C11.30744141 55.72462891 12.00160156 55.59378906 12.71679688 55.45898438 C16.51724162 54.7118884 20.01280406 53.7472997 23.55078125 52.16796875 C23.55078125 51.83796875 23.55078125 51.50796875 23.55078125 51.16796875 C19.59078125 51.16796875 15.63078125 51.16796875 11.55078125 51.16796875 C11.45925781 49.98332031 11.36773437 48.79867187 11.2734375 47.578125 C10.51729235 40.77281863 8.69744389 34.22212808 6.98828125 27.60546875 C6.65504708 26.29766654 6.32236062 24.98972464 5.99023438 23.68164062 C5.18244165 20.50900544 4.3691637 17.33788565 3.55078125 14.16796875 C3.22078125 14.16796875 2.89078125 14.16796875 2.55078125 14.16796875 Z M-49.44921875 34.16796875 C-49.11921875 36.80796875 -48.78921875 39.44796875 -48.44921875 42.16796875 C-49.90328125 42.60109375 -49.90328125 42.60109375 -51.38671875 43.04296875 C-54.55586078 43.81011557 -54.55586078 43.81011557 -55.44921875 46.16796875 C-50.99421875 45.67296875 -50.99421875 45.67296875 -46.44921875 45.16796875 C-45.45921875 48.13796875 -44.46921875 51.10796875 -43.44921875 54.16796875 C-44.25359375 54.45671875 -45.05796875 54.74546875 -45.88671875 55.04296875 C-48.58186555 55.90059443 -48.58186555 55.90059443 -49.44921875 58.16796875 C-46.47921875 57.83796875 -43.50921875 57.50796875 -40.44921875 57.16796875 C-40.11921875 58.15796875 -39.78921875 59.14796875 -39.44921875 60.16796875 C-38.78921875 59.83796875 -38.12921875 59.50796875 -37.44921875 59.16796875 C-37.77921875 57.84796875 -38.10921875 56.52796875 -38.44921875 55.16796875 C-35.14921875 54.50796875 -31.84921875 53.84796875 -28.44921875 53.16796875 C-26.54492188 55.90234375 -26.54492188 55.90234375 -24.640625 58.63671875 C-24.24746094 59.14203125 -23.85429687 59.64734375 -23.44921875 60.16796875 C-23.11921875 60.16796875 -22.78921875 60.16796875 -22.44921875 60.16796875 C-22.44921875 57.19796875 -22.44921875 54.22796875 -22.44921875 51.16796875 C-20.79921875 50.50796875 -19.14921875 49.84796875 -17.44921875 49.16796875 C-17.44921875 48.83796875 -17.44921875 48.50796875 -17.44921875 48.16796875 C-20.08921875 47.83796875 -22.72921875 47.50796875 -25.44921875 47.16796875 C-26.10921875 45.18796875 -26.76921875 43.20796875 -27.44921875 41.16796875 C-26.12921875 40.17796875 -24.80921875 39.18796875 -23.44921875 38.16796875 C-25.75921875 38.16796875 -28.06921875 38.16796875 -30.44921875 38.16796875 C-31.10921875 36.84796875 -31.76921875 35.52796875 -32.44921875 34.16796875 C-32.77921875 34.16796875 -33.10921875 34.16796875 -33.44921875 34.16796875 C-33.44921875 35.81796875 -33.44921875 37.46796875 -33.44921875 39.16796875 C-36.8216749 39.88829919 -39.99761082 40.40546471 -43.44921875 40.16796875 C-45.84778772 38.42013262 -46.83006614 36.72727449 -48.44921875 34.16796875 C-48.77921875 34.16796875 -49.10921875 34.16796875 -49.44921875 34.16796875 Z " fill="#f00050" transform="translate(166.44921875,9.83203125)"/>
<path d="M0 0 C2.61019102 1.25483097 5.01573282 2.60533758 7.3984375 4.25 C8.03579834 4.68940918 8.67315918 5.12881836 9.32983398 5.58154297 C10.00473877 6.04963379 10.67964355 6.51772461 11.375 7 C12.07890869 7.47969238 12.78281738 7.95938477 13.50805664 8.45361328 C17.04986976 10.88212615 20.50233902 13.36069405 23.84765625 16.0546875 C24.45367676 16.5290625 25.05969727 17.0034375 25.68408203 17.4921875 C26.8240765 18.39123076 27.94521271 19.31490441 29.04248047 20.265625 C31.26642273 21.99359994 33.11086938 23.10571007 35.97338867 22.76538086 C38.40346245 21.99638408 40.67173685 21.03804792 43 20 C43.96848877 19.60361328 44.93697754 19.20722656 45.93481445 18.79882812 C50.21887618 17.04435501 54.47375028 15.22325047 58.73242188 13.40820312 C59.76818359 12.97056641 60.80394531 12.53292969 61.87109375 12.08203125 C62.80880615 11.68218018 63.74651855 11.2823291 64.71264648 10.87036133 C67 10 67 10 69 10 C68.0238837 27.52855659 68.0238837 27.52855659 67.18359375 35.99609375 C67.12300781 36.98738281 67.06242187 37.97867188 67 39 C66.91862793 39.7410498 66.83725586 40.48209961 66.75341797 41.24560547 C66.24724661 48.69973588 68.66637414 52.55727409 73.25 58.25 C74.42251114 59.77555295 75.59439993 61.30158446 76.765625 62.828125 C77.5999707 63.89643555 77.5999707 63.89643555 78.45117188 64.98632812 C84 72.20050441 84 72.20050441 84 75 C78.78283683 75.89055782 73.92254626 76.02414777 68.64453125 75.8671875 C52.38752015 75.03662409 52.38752015 75.03662409 37.29394531 79.66503906 C33.26108034 83.87749723 31.19738795 88.92645738 29.14111328 94.31494141 C27.15604181 98.98584771 24.24685757 103.02492465 21.375 107.1875 C20.60820923 108.363125 20.60820923 108.363125 19.82592773 109.5625 C19.35485596 110.27792969 18.88378418 110.99335938 18.3984375 111.73046875 C17.98255371 112.36364014 17.56666992 112.99681152 17.13818359 113.64916992 C16.76258301 114.09494385 16.38698242 114.54071777 16 115 C15.34 115 14.68 115 14 115 C12.99633371 110.53574419 11.9996415 106.07000887 11.00927734 101.6027832 C10.67165563 100.0844566 10.33215829 98.56654576 9.99072266 97.04907227 C9.49924593 94.86321879 9.01461514 92.67594088 8.53125 90.48828125 C8.37813354 89.81412674 8.22501709 89.13997223 8.06726074 88.44538879 C7.29162067 84.90169574 6.82910154 81.62854062 7 78 C5.80503906 77.62230469 4.61007813 77.24460937 3.37890625 76.85546875 C-3.22527384 74.65407539 -9.62886036 71.9632553 -16.0625 69.3125 C-17.32215549 68.79595529 -18.58192038 68.2796773 -19.84179688 67.76367188 C-22.8956137 66.51172398 -25.94830382 65.25710616 -29 64 C-29 63.01 -29 62.02 -29 61 C-27.19140625 59.1953125 -27.19140625 59.1953125 -24.5625 57.125 C-23.57636719 56.29484375 -22.59023438 55.4646875 -21.57421875 54.609375 C-19.01383889 52.59886052 -16.47913488 51.23607021 -13.51953125 49.890625 C-8.10362689 47.12243296 -3.85969613 44.53515922 -1 39 C1.98254849 26.54239296 0.66904753 12.68253467 0 0 Z M5 16 C3.72829432 22.474138 4.31097348 25.97658059 7 32 C7.99 32 8.98 32 10 32 C9.69075786 29.89535207 9.3774944 27.7912947 9.0625 25.6875 C8.88847656 24.51574219 8.71445312 23.34398437 8.53515625 22.13671875 C8.07906969 18.98358597 8.07906969 18.98358597 7 16 C6.34 16 5.68 16 5 16 Z M15.61328125 43.5390625 C12.3890828 48.3131388 12.11905593 53.4087019 13 59 C14.80669179 64.33887575 18.12358207 67.3024071 23 70 C28.02684672 71.67561557 32.28540388 71.57826653 37.125 69.4375 C42.05010008 66.70239588 45.01050773 63.23622179 46.6640625 57.828125 C47.54821901 52.80056835 46.85022765 49.20755748 44.3125 44.79296875 C41.56179493 41.03530914 38.467302 38.48910067 34 37 C26.39560704 35.95008381 20.79706244 37.78579549 15.61328125 43.5390625 Z " fill="#f00050" transform="translate(51,205)"/>
<path d="M0 0 C46.80231563 2.73462929 46.80231563 2.73462929 66.375 4.5625 C67.62925781 4.67698486 68.88351562 4.79146973 70.17578125 4.90942383 C88.71607848 6.71607848 88.71607848 6.71607848 91 9 C91.21321531 11.13583565 91.3597458 13.27834643 91.48071289 15.42138672 C91.5198732 16.09327026 91.55903351 16.76515381 91.59938049 17.45739746 C91.72860627 19.69791628 91.85084378 21.93875423 91.97265625 24.1796875 C92.06064902 25.74701367 92.14890482 27.31432508 92.2374115 28.88162231 C92.42285529 32.18540327 92.60481177 35.48935406 92.78442383 38.79345703 C93.01191727 42.97275926 93.24827858 47.15150219 93.4871769 51.33016586 C95.37191021 84.43309168 95.37191021 84.43309168 95 100 C89.9671382 99.49452025 85.03380227 98.91039022 80.08984375 97.80859375 C78.57680664 97.47504883 78.57680664 97.47504883 77.03320312 97.13476562 C76.01162109 96.90466797 74.99003906 96.67457031 73.9375 96.4375 C72.88111328 96.20353516 71.82472656 95.96957031 70.73632812 95.72851562 C68.15658727 95.15653688 65.57788225 94.58028727 63 94 C63.15726562 93.18789062 63.31453125 92.37578125 63.4765625 91.5390625 C65.75889087 76.10779756 63.8408068 64.07465765 54.4375 51.3125 C43.79476295 37.74810966 26.70717244 27.96886341 9.578125 25.67578125 C8.48757812 25.55783203 8.48757812 25.55783203 7.375 25.4375 C6.26125 25.293125 5.1475 25.14875 4 25 C2.7784096 22.5568192 2.58900522 20.4869109 2.24609375 17.7734375 C2.11396484 16.7421875 1.98183594 15.7109375 1.84570312 14.6484375 C1.71099609 13.56820312 1.57628906 12.48796875 1.4375 11.375 C1.29892578 10.28703125 1.16035156 9.1990625 1.01757812 8.078125 C0.67513472 5.38581132 0.33608589 2.69311346 0 0 Z M20 14 C20 14.66 20 15.32 20 16 C27.08274995 16.79035677 34.13792984 17.25380196 41.2578125 17.53515625 C42.28687714 17.57813339 43.31594177 17.62111053 44.37619019 17.66539001 C47.62568791 17.80048066 50.87533272 17.93155838 54.125 18.0625 C56.34376101 18.15403037 58.56251115 18.24582474 60.78125 18.33789062 C66.18737915 18.56164426 71.59364388 18.78180198 77 19 C77.99 21.64 78.98 24.28 80 27 C80.33 27 80.66 27 81 27 C81.32150943 22.90075477 81.41384837 20.65644914 79.1875 17.125 C72.17900525 10.31674795 56.78138485 12.84237834 47.48999023 12.86962891 C45.30510608 12.87501824 43.12042508 12.86963335 40.93554688 12.86328125 C33.89386118 12.86028466 26.98625384 13.01204491 20 14 Z " fill="#f00050" transform="translate(219,38)"/>
<path d="M0 0 C1.76025391 2.53393555 1.76025391 2.53393555 3.3515625 5.94921875 C3.64503571 6.57173019 3.93850891 7.19424164 4.24087524 7.83561707 C7.52588519 14.91159712 10.47479792 22.13854754 13.39117432 29.37234497 C14.7695494 32.79108972 16.16040791 36.20471837 17.55038452 39.61875916 C18.28001062 41.4110456 19.00903036 43.203579 19.73745728 44.99635315 C23.14585952 53.37962255 26.61715203 61.73613005 30.09619141 70.090271 C59.80182633 141.47296812 59.80182633 141.47296812 68.8125 165.9375 C69.2441748 167.10176514 69.67584961 168.26603027 70.12060547 169.46557617 C71.99444551 174.66303349 73.52150442 179.48553458 74 185 C71.4606921 181.88238762 69.85142087 178.74526437 68.234375 175.0703125 C67.96892883 174.46986115 67.70348267 173.86940979 67.42999268 173.25076294 C66.53090496 171.21131958 65.64020307 169.16833581 64.75 167.125 C64.09513014 165.63115067 63.44017942 164.13733679 62.78515625 162.64355469 C54.22521404 143.07193373 45.9056973 123.39560162 37.55830383 103.73271179 C32.51946041 91.86391778 27.46447279 80.00202326 22.40896606 68.14031982 C13.58537269 47.43560983 4.77823078 26.72398448 -4 6 C-6.31 6.66 -8.62 7.32 -11 8 C-10.64397705 8.75692139 -10.2879541 9.51384277 -9.92114258 10.29370117 C-2.01845526 27.11392595 5.73820789 43.98966801 13.30395508 60.96472168 C15.60843451 66.13172031 17.92895282 71.29140401 20.25390625 76.44921875 C20.62377151 77.26975739 20.99363678 78.09029602 21.37471008 78.93569946 C22.13553096 80.62347763 22.8963597 82.31125225 23.65719604 83.99902344 C31.51062932 101.42482039 39.31261061 118.87289033 47.05206299 136.34960938 C49.0844035 140.93813036 51.12315083 145.52374675 53.16612244 150.10754395 C54.55299066 153.22112766 55.93635928 156.33625834 57.31900024 159.45172119 C57.97120044 160.91943708 58.62478159 162.38654025 59.27987671 163.85296631 C62.533087 171.13782797 65.66543805 178.35578452 68 186 C67.34 186 66.68 186 66 186 C53.11132124 161.77265812 41.40216802 137.0235791 29.90039062 112.11425781 C26.14862772 103.98974028 22.38649307 95.87001595 18.625 87.75 C18.21957977 86.8747467 17.81415955 85.99949341 17.39645386 85.09771729 C12.24304602 73.97402768 7.07786386 62.8560031 1.87619019 51.75479126 C0.95043463 49.7776249 0.02696473 47.79940327 -0.89624023 45.82104492 C-3.58337496 40.07313735 -6.30530401 34.34852667 -9.1484375 28.67578125 C-9.624021 27.71639648 -10.09960449 26.75701172 -10.58959961 25.76855469 C-11.44733176 24.04656535 -12.31907614 22.33143265 -13.20922852 20.62597656 C-15.75948058 15.48692403 -17.0687941 10.76031606 -16 5 C-11.92328403 0.32376698 -6.00031114 -2.17649234 0 0 Z " fill="#191919" transform="translate(65,25)"/>
<path d="M0 0 C1.27286865 0.02481445 2.5457373 0.04962891 3.85717773 0.07519531 C4.83372314 0.10709961 5.81026855 0.13900391 6.81640625 0.171875 C8.24448994 4.26394247 9.6685491 8.35738104 11.08886719 12.45214844 C11.5727836 13.84543797 12.05780485 15.23834428 12.54394531 16.63085938 C13.24183131 18.6305164 13.93575465 20.63151023 14.62890625 22.6328125 C15.04785156 23.83728027 15.46679688 25.04174805 15.8984375 26.28271484 C16.81640625 29.171875 16.81640625 29.171875 16.81640625 31.171875 C17.36055176 30.89923828 17.90469727 30.62660156 18.46533203 30.34570312 C20.95142522 29.10873564 23.44614518 27.89023561 25.94140625 26.671875 C26.79734375 26.24261719 27.65328125 25.81335938 28.53515625 25.37109375 C37.29293506 21.12693941 37.29293506 21.12693941 41.81640625 22.171875 C44.71007479 25.6133427 45.53419428 29.53523078 46.75390625 33.796875 C48.51701316 38.7636927 48.51701316 38.7636927 52.73828125 41.578125 C55.97003724 42.34433692 55.97003724 42.34433692 59.171875 42.6796875 C60.04457031 42.84210938 60.91726562 43.00453125 61.81640625 43.171875 C62.47640625 44.161875 63.13640625 45.151875 63.81640625 46.171875 C63.03136719 46.13707031 62.24632812 46.10226562 61.4375 46.06640625 C55.08464635 45.90271309 50.33572524 45.88377007 44.81640625 49.171875 C41.46109508 52.40735363 40.32686986 56.8562647 38.81640625 61.171875 C26.7033604 61.70055736 13.5356976 56.24845153 4.5703125 48.140625 C-0.70685356 42.64075285 -5.01492124 36.20393823 -5.27734375 28.375 C-5.24640625 27.64796875 -5.21546875 26.9209375 -5.18359375 26.171875 C-4.52359375 26.171875 -3.86359375 26.171875 -3.18359375 26.171875 C-2.77367188 26.93113281 -2.36375 27.69039063 -1.94140625 28.47265625 C-1.40257813 29.46652344 -0.86375 30.46039063 -0.30859375 31.484375 C0.22507812 32.47050781 0.75875 33.45664062 1.30859375 34.47265625 C2.82362751 37.26773958 2.82362751 37.26773958 4.81640625 40.171875 C5.80640625 39.676875 5.80640625 39.676875 6.81640625 39.171875 C6.3066626 38.31432617 5.79691895 37.45677734 5.27172852 36.57324219 C3.37876949 33.38565424 1.49247628 30.19416483 -0.3918457 27.00146484 C-1.20774447 25.62116183 -2.02543819 24.24191816 -2.8449707 22.86376953 C-4.02380229 20.88070172 -5.19608984 18.89389239 -6.3671875 16.90625 C-6.73388046 16.29255554 -7.10057343 15.67886108 -7.4783783 15.04656982 C-10.83964224 9.31436061 -10.83964224 9.31436061 -11.18359375 6.171875 C-9.09862104 -0.20568859 -6.47500228 -0.16326653 0 0 Z " fill="#191919" transform="translate(98.18359375,286.828125)"/>
<path d="M0 0 C0.66 0 1.32 0 2 0 C1.97905273 0.825 1.95810547 1.65 1.93652344 2.5 C1.38800971 27.38447096 2.47161893 49.40511505 20 69 C20.96486328 70.10408203 20.96486328 70.10408203 21.94921875 71.23046875 C38.00100535 88.46907875 64.42610912 98.9631825 87.75170898 100.13867188 C109.85682298 100.84102267 132.27835111 99.26677167 151.82421875 87.8125 C155 86 155 86 157 86 C155.51989743 90.26003882 152.51416775 91.86746173 148.75 93.9375 C148.12593262 94.28449951 147.50186523 94.63149902 146.85888672 94.98901367 C121.94464183 108.44070427 89.93294923 110.13279035 62.89550781 102.39794922 C39.24674991 95.29054449 18.74819127 82.27027 5.89453125 60.74609375 C-4.18052582 41.8944969 -5.50707713 20.38929746 0 0 Z " fill="#191919" transform="translate(34,284)"/>
<path d="M0 0 C0.33 0 0.66 0 1 0 C1.76849285 21.9162776 -3.60706398 42.1076391 -18.125 59.125 C-27.94273491 69.45597232 -39.08258803 76.24597099 -52 82 C-53.06863281 82.48339844 -54.13726562 82.96679688 -55.23828125 83.46484375 C-84.28010031 95.60557878 -119.84242309 95.34863823 -149.32421875 85.18359375 C-152 84 -152 84 -153 82 C-148.60068232 82.4451176 -144.25486471 82.9059109 -139.9140625 83.75390625 C-119.51375202 87.68080498 -98.30925262 87.34766526 -78 83 C-77.24460937 82.83902832 -76.48921875 82.67805664 -75.7109375 82.51220703 C-51.63737776 77.12978098 -27.95202941 64.68803758 -14.21386719 43.57104492 C-6.93530586 31.66389889 -3.6963534 19.06009261 -1.578125 5.38671875 C-1 2 -1 2 0 0 Z " fill="#191919" transform="translate(348,293)"/>
<path d="M0 0 C4.77451651 2.56294393 7.64243748 5.89983746 10.1796875 10.59375 C11.70058969 16.04364951 11.58608297 20.43541249 9.2421875 25.53125 C6.82123617 29.80351706 4.44921771 32.39278408 -0.296875 34.06640625 C-6.55671731 35.6846627 -11.32896576 35.30540492 -17.0703125 32.28125 C-21.62356993 28.816815 -23.94632724 24.83154889 -25.0703125 19.28125 C-25.3266704 13.23120353 -24.0110238 8.98821072 -20.0703125 4.28125 C-14.35337577 -0.87793681 -7.46546648 -2.59178459 0 0 Z M-7.0703125 4.28125 C-8.4186006 5.66264338 -9.74848628 7.0620148 -11.0703125 8.46875 C-11.8128125 9.24605469 -12.5553125 10.02335937 -13.3203125 10.82421875 C-15.30567421 13.61170204 -15.45024132 14.93906368 -15.0703125 18.28125 C-13.0903125 16.63125 -11.1103125 14.98125 -9.0703125 13.28125 C-9.1115625 14.291875 -9.1528125 15.3025 -9.1953125 16.34375 C-9.06457407 20.46201052 -8.33780464 23.39955533 -7.0703125 27.28125 C-8.3903125 27.28125 -9.7103125 27.28125 -11.0703125 27.28125 C-11.0703125 27.94125 -11.0703125 28.60125 -11.0703125 29.28125 C-4.6353125 28.78625 -4.6353125 28.78625 1.9296875 28.28125 C1.9296875 27.95125 1.9296875 27.62125 1.9296875 27.28125 C-0.7103125 27.28125 -3.3503125 27.28125 -6.0703125 27.28125 C-5.7403125 26.62125 -5.4103125 25.96125 -5.0703125 25.28125 C-4.94551834 22.47773462 -4.88514112 19.7099126 -4.8828125 16.90625 C-4.87056641 16.13796875 -4.85832031 15.3696875 -4.84570312 14.578125 C-4.81713937 9.15321477 -4.81713937 9.15321477 -7.0703125 4.28125 Z " fill="#f00050" transform="translate(203.0703125,284.71875)"/>
<path d="M0 0 C7.30837965 6.595367 7.30837965 6.595367 7.765625 11.484375 C7.86342989 16.86364421 7.74286227 20.75398074 4.5625 25.3125 C0.33370901 29.46235356 -2.74977192 31.4651602 -8.6875 31.5625 C-13.36601951 31.50745859 -16.52457144 31.08018118 -20.4375 28.3125 C-24.32198797 24.21220714 -26.17820608 20.60292965 -26.8125 15 C-26.21553879 9.12988142 -24.14954009 4.94102594 -19.875 0.875 C-13.93793369 -2.93081174 -6.25248203 -3.06940027 0 0 Z M-15.4375 12.3125 C-13.7875 12.6425 -12.1375 12.9725 -10.4375 13.3125 C-15.4397779 20.97992597 -15.4397779 20.97992597 -19.4375 22.3125 C-17.06137135 23.92157108 -17.06137135 23.92157108 -14.4375 25.3125 C-13.7775 24.9825 -13.1175 24.6525 -12.4375 24.3125 C-12.4375 23.3225 -12.4375 22.3325 -12.4375 21.3125 C-10.3203125 19.15625 -10.3203125 19.15625 -7.5625 16.8125 C-4.69952991 14.36551701 -2.53341612 12.45637419 -0.4375 9.3125 C-2.1867214 9.23107073 -3.93704542 9.17311459 -5.6875 9.125 C-6.66203125 9.09019531 -7.6365625 9.05539063 -8.640625 9.01953125 C-11.81218742 9.35174798 -13.10790307 10.19922279 -15.4375 12.3125 Z " fill="#f00050" transform="translate(318.4375,233.6875)"/>
<path d="M0 0 C0.495 0.99 0.495 0.99 1 2 C0.16597656 2.14695313 -0.66804688 2.29390625 -1.52734375 2.4453125 C-12.39371855 4.61111916 -20.71449149 8.62411647 -27 18 C-36.49274456 34.03063971 -38.78383021 51.98445145 -34.375 70.0625 C-31.44556054 79.56254839 -26.72350395 90.90743238 -17.84375 96.3125 C-15.93148152 97.28210092 -13.96892126 98.15132704 -12 99 C-12 99.66 -12 100.32 -12 101 C-19.71078351 100.46822183 -24.02349003 98.24353923 -29.4375 92.625 C-41.07602838 78.7413453 -44.15689783 62.0614956 -43.23339844 44.47119141 C-42.61099043 37.88121877 -40.96474078 30.92948156 -38 25 C-38.58491211 25.09087891 -39.16982422 25.18175781 -39.77246094 25.27539062 C-42.43117164 25.68669454 -45.09056718 26.0933925 -47.75 26.5 C-48.67039063 26.64308594 -49.59078125 26.78617188 -50.5390625 26.93359375 C-51.42851562 27.06894531 -52.31796875 27.20429688 -53.234375 27.34375 C-54.05131836 27.46943359 -54.86826172 27.59511719 -55.70996094 27.72460938 C-58 28 -58 28 -62 28 C-62 27.34 -62 26.68 -62 26 C-52.795925 22.22027014 -44.06030699 18.80517011 -34 19 C-33.75121094 18.2678125 -33.50242188 17.535625 -33.24609375 16.78125 C-29.81533999 9.12389364 -22.50172275 3.92865162 -14.9296875 0.796875 C-9.95679355 -0.55575216 -5.10323008 -0.40077723 0 0 Z " fill="#191919" transform="translate(186,193)"/>
<path d="M0 0 C0.33 0 0.66 0 1 0 C0.98952637 0.69448242 0.97905273 1.38896484 0.96826172 2.10449219 C0.92611181 5.31962307 0.90048939 8.5346955 0.875 11.75 C0.85824219 12.84183594 0.84148437 13.93367187 0.82421875 15.05859375 C0.75110768 27.41436423 2.29947786 38.04527023 8.625 48.75 C14.79623854 54.59643651 22.52888291 56.94001407 30.86328125 57.31640625 C32.19262695 57.37924805 32.19262695 57.37924805 33.54882812 57.44335938 C34.46083984 57.48267578 35.37285156 57.52199219 36.3125 57.5625 C37.70952148 57.62727539 37.70952148 57.62727539 39.13476562 57.69335938 C41.42304454 57.79897225 43.71142372 57.90107752 46 58 C46 58.99 46 59.98 46 61 C34.32462107 63.89301425 21.51828906 64.92781569 10.7109375 58.67578125 C2.04471413 52.49257694 -2.53688229 44.82788267 -4.75 34.5 C-4.8325 33.345 -4.915 32.19 -5 31 C-5.0515625 30.32195312 -5.103125 29.64390625 -5.15625 28.9453125 C-5.38776522 23.21531073 -4.59653962 17.75252986 -3.625 12.125 C-3.49899414 11.38717285 -3.37298828 10.6493457 -3.24316406 9.88916016 C-2.58532208 6.30876082 -1.88950135 3.13821529 0 0 Z " fill="#191919" transform="translate(166,118)"/>
<path d="M0 0 C2.36020967 2.1485844 3.71551468 4.11743365 5.04296875 7.01171875 C5.39423828 7.76904297 5.74550781 8.52636719 6.10742188 9.30664062 C6.46384766 10.09232422 6.82027344 10.87800781 7.1875 11.6875 C7.55552734 12.48478516 7.92355469 13.28207031 8.30273438 14.10351562 C9.2077297 16.06629769 10.10465652 18.03279639 11 20 C13.31 20 15.62 20 18 20 C16.94016308 23.02810548 16.05320983 23.96661945 13.28515625 25.703125 C12.22167969 26.21359375 11.15820312 26.7240625 10.0625 27.25 C9.00160156 27.77078125 7.94070312 28.2915625 6.84765625 28.828125 C4 30 4 30 1 30 C1.34879632 26.74456771 2.02133261 25.98126893 4.5625 23.75 C5.366875 23.1725 6.17125 22.595 7 22 C5.02 19.03 3.04 16.06 1 13 C0.34 15.31 -0.32 17.62 -1 20 C-1.66 20 -2.32 20 -3 20 C-4.52791854 12.23308076 -3.13590328 7.20046461 0 0 Z " fill="#f00050" transform="translate(75,244)"/>
<path d="M0 0 C7.33086238 1.48463425 14.3405728 3.58623841 21.4375 5.9375 C22.52482422 6.28490234 23.61214844 6.63230469 24.73242188 6.99023438 C26.28606445 7.50360352 26.28606445 7.50360352 27.87109375 8.02734375 C28.80880615 8.33406006 29.74651855 8.64077637 30.71264648 8.95678711 C33 10 33 10 35 13 C34 14 34 14 31.55078125 14.0546875 C20.60834668 13.44750778 9.77563448 10.8886792 1 4 C0.33422852 1.86987305 0.33422852 1.86987305 0 0 Z " fill="#191919" transform="translate(189,343)"/>
<path d="M0 0 C7.04271679 0.54823544 13.18405002 2.56269072 19.8125 4.9375 C20.84826172 5.29779297 21.88402344 5.65808594 22.95117188 6.02929688 C30.58302601 8.72201734 30.58302601 8.72201734 34 11 C34 11.66 34 12.32 34 13 C23.22283698 13.89395822 12.55804957 11.20257103 3.453125 5.34375 C1.72431787 3.74506814 0.92806778 2.14729409 0 0 Z " fill="#191919" transform="translate(191,331)"/>
<path d="M0 0 C3.79767934 0.6260667 6.98712687 1.75390382 10.5 3.3125 C16.05429523 5.70671173 21.64272413 7.44277064 27.48046875 9.0078125 C28.31191406 9.33523438 29.14335937 9.66265625 30 10 C30.33 10.99 30.66 11.98 31 13 C26.00555723 15.49722139 18.33623572 13.61028198 13.12890625 12.25 C7.48825602 10.1894885 3.78182998 7.67752656 0 3 C0 2.01 0 1.02 0 0 Z " fill="#191919" transform="translate(189,354)"/>
<path d="M0 0 C-0.87559223 3.83071602 -2.37393199 5.53943563 -5.5625 7.625 C-13.01302187 11.88820475 -19.4423768 13.40750587 -28 13 C-23.83029074 8.11108011 -19.34073519 6.05688686 -13.4375 3.6875 C-12.16229492 3.14899414 -12.16229492 3.14899414 -10.86132812 2.59960938 C-6.89223771 0.96527803 -4.37497562 0 0 0 Z " fill="#191919" transform="translate(187,361)"/>
<path d="M0 0 C-1.97986641 5.34563929 -6.44618178 8.11645631 -11.1875 10.8125 C-16.20381601 12.37495908 -20.79066689 12.25434357 -26 12 C-25 9 -25 9 -23.0222168 7.83325195 C-22.17312744 7.47191162 -21.32403809 7.11057129 -20.44921875 6.73828125 C-19.52302734 6.34189453 -18.59683594 5.94550781 -17.64257812 5.53710938 C-16.66740234 5.13298828 -15.69222656 4.72886719 -14.6875 4.3125 C-13.72392578 3.89677734 -12.76035156 3.48105469 -11.76757812 3.05273438 C-4.53425185 0 -4.53425185 0 0 0 Z " fill="#191919" transform="translate(182,350)"/>
<path d="M0 0 C-0.30689187 2.86432408 -0.93698121 3.93698121 -3 6 C-10.30645694 10.87097129 -16.19591419 12.66168495 -25 12 C-24.02281326 9.52497832 -23.38186337 8.23789492 -21.09228516 6.81152344 C-19.95218994 6.34020996 -19.95218994 6.34020996 -18.7890625 5.859375 C-17.95632812 5.51132812 -17.12359375 5.16328125 -16.265625 4.8046875 C-15.39421875 4.45664062 -14.5228125 4.10859375 -13.625 3.75 C-12.76132813 3.38648438 -11.89765625 3.02296875 -11.0078125 2.6484375 C-6.99921367 1.00293243 -4.4111964 0 0 0 Z " fill="#191919" transform="translate(178,340)"/>
<path d="M0 0 C0.66 0 1.32 0 2 0 C2.58519312 7.49372307 1.73992737 14.35124023 -2 21 C-4.140625 22.3125 -4.140625 22.3125 -6 23 C-7.75243924 16.50286132 -5.86843266 9.85809951 -2.9765625 3.88671875 C-1.9375 2.25 -1.9375 2.25 0 0 Z " fill="#191919" transform="translate(191,127)"/>
<path d="M0 0 C-0.17526633 4.46929132 -0.58045787 6.51906146 -3.5625 9.9375 C-7.28741536 12.71079465 -10.49743055 12.38815254 -15 12 C-15 11.01 -15 10.02 -15 9 C-13.13671875 7.5 -13.13671875 7.5 -10.6875 6 C-7.32020532 3.93121751 -7.32020532 3.93121751 -4.39453125 1.3125 C-3 0 -3 0 0 0 Z " fill="#191919" transform="translate(209,153)"/>
<path d="M0 0 C0.66 2.31 1.32 4.62 2 7 C-2.95 8.485 -2.95 8.485 -8 10 C-11 4.25 -11 4.25 -11 2 C-9.5422647 1.664061 -8.08378894 1.33133376 -6.625 1 C-5.40683594 0.7215625 -5.40683594 0.7215625 -4.1640625 0.4375 C-2 0 -2 0 0 0 Z " fill="#f00050" transform="translate(135,52)"/>
<path d="M0 0 C0.33 0.99 0.66 1.98 1 3 C0.21496094 2.97679687 -0.57007813 2.95359375 -1.37890625 2.9296875 C-7.34792603 2.82715219 -12.37403518 2.95419461 -18 5 C-17.75 3.125 -17.75 3.125 -17 1 C-11.63637001 -2.77440629 -5.86841536 -2.30133936 0 0 Z " fill="#1A1A1A" transform="translate(218,128)"/>
<path d="M0 0 C4.31343181 -0.25373128 7.93801182 -0.42037032 12 1.1875 C14.42509628 3.3852435 14.7395304 4.78754157 15 8 C14.45859375 7.71382812 13.9171875 7.42765625 13.359375 7.1328125 C10.70680653 5.8592283 8.02068518 4.86453042 5.25 3.875 C4.26515625 3.52179688 3.2803125 3.16859375 2.265625 2.8046875 C1.51796875 2.53914063 0.7703125 2.27359375 0 2 C0 1.34 0 0.68 0 0 Z " fill="#1A1A1A" transform="translate(169,123)"/>
<path d="" fill="#f00050" transform="translate(0,0)"/>
</svg>
