<?xml version="1.0" encoding="UTF-8"?>
<!DOCTYPE svg PUBLIC "-//W3C//DTD SVG 1.1//EN" "http://www.w3.org/Graphics/SVG/1.1/DTD/svg11.dtd">
<svg xmlns="http://www.w3.org/2000/svg" version="1.1" width="521px" height="413px" style="shape-rendering:geometricPrecision; text-rendering:geometricPrecision; image-rendering:optimizeQuality; fill-rule:evenodd; clip-rule:evenodd" xmlns:xlink="http://www.w3.org/1999/xlink">
<g><path style="opacity:1" fill="#fefefe" d="M -0.5,-0.5 C 173.167,-0.5 346.833,-0.5 520.5,-0.5C 520.5,137.167 520.5,274.833 520.5,412.5C 346.833,412.5 173.167,412.5 -0.5,412.5C -0.5,274.833 -0.5,137.167 -0.5,-0.5 Z"/></g>
<g><path style="opacity:1" fill="#20b0f5" d="M 105.5,35.5 C 155.5,35.5 205.5,35.5 255.5,35.5C 255.171,48.0113 255.505,60.3446 256.5,72.5C 256.5,84.8333 256.5,97.1667 256.5,109.5C 256.5,109.833 256.5,110.167 256.5,110.5C 255.502,134.994 255.169,159.661 255.5,184.5C 182.833,184.5 110.167,184.5 37.5,184.5C 37.5,159.5 37.5,134.5 37.5,109.5C 34.064,81.5624 43.7307,59.729 66.5,44C 78.6415,37.3353 91.6415,34.502 105.5,35.5 Z"/></g>
<g><path style="opacity:1" fill="#8e90b2" d="M 105.5,35.5 C 155.833,34.1667 206.167,34.1667 256.5,35.5C 256.5,47.8333 256.5,60.1667 256.5,72.5C 255.505,60.3446 255.171,48.0113 255.5,35.5C 205.5,35.5 155.5,35.5 105.5,35.5 Z"/></g>
<g><path style="opacity:1" fill="#2196f3" d="M 256.5,35.5 C 312.523,35.0378 368.523,35.5378 424.5,37C 446.043,40.7462 461.043,52.5795 469.5,72.5C 398.5,72.5 327.5,72.5 256.5,72.5C 256.5,60.1667 256.5,47.8333 256.5,35.5 Z"/></g>
<g><path style="opacity:1" fill="#fcfefe" d="M 84.5,54.5 C 86.5914,54.3184 88.5914,54.6518 90.5,55.5C 92.6265,58.9186 94.6265,62.4186 96.5,66C 112.513,66.3217 114.68,71.8217 103,82.5C 102.918,87.5055 102.918,92.5055 103,97.5C 101.087,99.1869 98.9203,99.6869 96.5,99C 93.2985,97.4928 90.1319,95.9928 87,94.5C 83.22,96.3071 79.3867,97.9737 75.5,99.5C 73.399,99.3684 71.899,98.3684 71,96.5C 71.3932,91.8676 71.3932,87.2009 71,82.5C 59.5354,72.0781 61.7021,66.4115 77.5,65.5C 79.5943,61.6358 81.9277,57.9692 84.5,54.5 Z"/></g>
<g><path style="opacity:1" fill="#fcfefe" d="M 146.5,54.5 C 148.527,54.3379 150.527,54.5045 152.5,55C 154.833,58.6667 157.167,62.3333 159.5,66C 175.941,67.2636 177.774,73.0969 165,83.5C 168.951,99.7048 163.785,103.371 149.5,94.5C 136.194,103.771 131.194,100.605 134.5,85C 132.618,81.4338 130.118,78.2671 127,75.5C 126.056,72.6529 126.556,70.1529 128.5,68C 132.5,67.3333 136.5,66.6667 140.5,66C 142.64,62.2186 144.64,58.3853 146.5,54.5 Z"/></g>
<g><path style="opacity:1" fill="#fcfefe" d="M 209.5,54.5 C 211.591,54.3184 213.591,54.6518 215.5,55.5C 217.5,58.8333 219.5,62.1667 221.5,65.5C 237.484,66.1442 239.651,71.8108 228,82.5C 227.547,86.1775 227.714,89.8441 228.5,93.5C 228.487,98.999 225.82,100.832 220.5,99C 217.888,97.1105 215.055,95.6105 212,94.5C 208.306,96.2168 204.639,97.8835 201,99.5C 198.849,99.3569 197.182,98.3569 196,96.5C 196.393,91.8676 196.393,87.2009 196,82.5C 184.496,72.0665 186.663,66.5665 202.5,66C 204.97,62.2221 207.303,58.3888 209.5,54.5 Z"/></g>
<g><path style="opacity:1" fill="#eeeeee" d="M 256.5,72.5 C 327.5,72.5 398.5,72.5 469.5,72.5C 473.851,84.4173 475.517,96.7507 474.5,109.5C 401.833,109.5 329.167,109.5 256.5,109.5C 256.5,97.1667 256.5,84.8333 256.5,72.5 Z"/></g>
<g><path style="opacity:1" fill="#f79d9d" d="M 256.5,110.5 C 256.5,110.167 256.5,109.833 256.5,109.5C 329.167,109.5 401.833,109.5 474.5,109.5C 475.833,122.167 475.833,134.833 474.5,147.5C 474.5,135.167 474.5,122.833 474.5,110.5C 401.833,110.5 329.167,110.5 256.5,110.5 Z"/></g>
<g><path style="opacity:1" fill="##2196f3" d="M 256.5,110.5 C 329.167,110.5 401.833,110.5 474.5,110.5C 474.5,122.833 474.5,135.167 474.5,147.5C 401.833,147.5 329.167,147.5 256.5,147.5C 256.5,135.167 256.5,122.833 256.5,110.5 Z"/></g>
<g><path style="opacity:1" fill="#edeeed" d="M 256.5,147.5 C 329.167,147.5 401.833,147.5 474.5,147.5C 474.5,159.833 474.5,172.167 474.5,184.5C 401.833,184.5 329.167,184.5 256.5,184.5C 256.5,172.167 256.5,159.833 256.5,147.5 Z"/></g>
<g><path style="opacity:1" fill="#8badd0" d="M 37.5,109.5 C 37.5,134.5 37.5,159.5 37.5,184.5C 110.167,184.5 182.833,184.5 255.5,184.5C 255.169,159.661 255.502,134.994 256.5,110.5C 256.5,122.833 256.5,135.167 256.5,147.5C 256.5,159.833 256.5,172.167 256.5,184.5C 256.5,184.833 256.5,185.167 256.5,185.5C 183.5,185.5 110.5,185.5 37.5,185.5C 36.1667,160.167 36.1667,134.833 37.5,109.5 Z"/></g>
<g><path style="opacity:1" fill="#fcfdfe" d="M 209.5,116.5 C 211.199,116.34 212.866,116.506 214.5,117C 216.919,121.172 219.585,125.172 222.5,129C 237.633,129.931 239.466,135.431 228,145.5C 228.164,150.155 228.164,154.821 228,159.5C 227.5,160.667 226.667,161.5 225.5,162C 220.902,161.137 216.402,159.637 212,157.5C 208.216,159.262 204.383,160.929 200.5,162.5C 198.617,162.124 197.117,161.124 196,159.5C 196.257,154.468 196.09,149.468 195.5,144.5C 192.878,142.589 190.711,140.255 189,137.5C 188.313,135.08 188.813,132.913 190.5,131C 194.536,130.272 198.536,129.439 202.5,128.5C 204.845,124.472 207.178,120.472 209.5,116.5 Z"/></g>
<g><path style="opacity:1" fill="#fdfefe" d="M 147.5,116.5 C 149.827,116.247 151.827,116.914 153.5,118.5C 155.121,122.244 157.121,125.744 159.5,129C 175.993,129.459 177.826,134.959 165,145.5C 164.759,149.39 165.259,153.223 166.5,157C 165.792,161.051 163.459,162.718 159.5,162C 156.28,160.223 152.947,158.723 149.5,157.5C 145.684,158.909 142.017,160.576 138.5,162.5C 136.399,162.368 134.899,161.368 134,159.5C 134,154.833 134,150.167 134,145.5C 122.532,135.447 124.365,129.947 139.5,129C 142.053,124.72 144.719,120.554 147.5,116.5 Z"/></g>
<g><path style="opacity:1" fill="#fcfdfe" d="M 84.5,116.5 C 86.1992,116.34 87.8659,116.506 89.5,117C 91.9589,120.75 94.2922,124.583 96.5,128.5C 112.501,129.038 114.668,134.704 103,145.5C 103,150.167 103,154.833 103,159.5C 101.475,162.087 99.3083,162.92 96.5,162C 93.5361,160.027 90.3694,158.527 87,157.5C 83.1571,159.418 79.1571,161.084 75,162.5C 73.1084,162.223 71.7751,161.223 71,159.5C 71.082,154.505 71.082,149.505 71,144.5C 59.6234,134.73 61.4567,129.563 76.5,129C 79.5641,125.026 82.2308,120.86 84.5,116.5 Z"/></g>
<g><path style="opacity:1" fill="#f79d9d" d="M 256.5,185.5 C 256.5,185.167 256.5,184.833 256.5,184.5C 329.167,184.5 401.833,184.5 474.5,184.5C 475.833,197.167 475.833,209.833 474.5,222.5C 474.5,210.167 474.5,197.833 474.5,185.5C 401.833,185.5 329.167,185.5 256.5,185.5 Z"/></g>
<g><path style="opacity:1" fill="##2196f3" d="M 37.5,185.5 C 110.5,185.5 183.5,185.5 256.5,185.5C 329.167,185.5 401.833,185.5 474.5,185.5C 474.5,197.833 474.5,210.167 474.5,222.5C 328.833,222.5 183.167,222.5 37.5,222.5C 37.5,210.167 37.5,197.833 37.5,185.5 Z"/></g>
<g><path style="opacity:1" fill="#edeeed" d="M 37.5,222.5 C 183.167,222.5 328.833,222.5 474.5,222.5C 474.5,234.833 474.5,247.167 474.5,259.5C 328.833,259.5 183.167,259.5 37.5,259.5C 37.5,247.167 37.5,234.833 37.5,222.5 Z"/></g>
<g><path style="opacity:1" fill="#f79d9d" d="M 37.5,259.5 C 183.167,259.5 328.833,259.5 474.5,259.5C 475.833,272.167 475.833,284.833 474.5,297.5C 474.5,285.167 474.5,272.833 474.5,260.5C 328.833,260.5 183.167,260.5 37.5,260.5C 37.5,272.833 37.5,285.167 37.5,297.5C 36.1667,284.833 36.1667,272.167 37.5,259.5 Z"/></g>
<g><path style="opacity:1" fill="#2196f3" d="M 474.5,297.5 C 328.833,297.5 183.167,297.5 37.5,297.5C 37.5,285.167 37.5,272.833 37.5,260.5C 183.167,260.5 328.833,260.5 474.5,260.5C 474.5,272.833 474.5,285.167 474.5,297.5 Z"/></g>
<g><path style="opacity:1" fill="#eeeeee" d="M 37.5,297.5 C 183.167,297.5 328.833,297.5 474.5,297.5C 475.011,310.593 473.344,323.26 469.5,335.5C 327.167,334.167 184.833,334.167 42.5,335.5C 38.114,323.326 36.4473,310.659 37.5,297.5 Z"/></g>
<g><path style="opacity:1" fill="#f79c9b" d="M 469.5,335.5 C 469.672,336.492 469.338,337.158 468.5,337.5C 398.003,336.167 327.17,335.5 256,335.5C 184.83,335.5 113.997,336.167 43.5,337.5C 42.6618,337.158 42.3284,336.492 42.5,335.5C 184.833,334.167 327.167,334.167 469.5,335.5 Z"/></g>
<g><path style="opacity:1" fill="#2196f3" d="M 468.5,337.5 C 459.278,356.867 443.945,368.034 422.5,371C 366.518,372.143 310.518,372.643 254.5,372.5C 202.167,372.333 149.833,372.167 97.5,372C 72.7113,370.791 54.7113,359.291 43.5,337.5C 113.997,336.167 184.83,335.5 256,335.5C 327.17,335.5 398.003,336.167 468.5,337.5 Z"/></g>
</svg>
