<?xml version="1.0" encoding="UTF-8"?>
<svg version="1.1" xmlns="http://www.w3.org/2000/svg" width="48" height="48">
<path d="M0 0 C1.5778125 0.556875 1.5778125 0.556875 3.1875 1.125 C5.89092254 2.30730915 5.89092254 2.30730915 7.9375 1.125 C8.618125 0.75375 9.29875 0.3825 10 0 C14.38054581 -0.48672731 16.48715991 -0.28491116 20.375 1.875 C22.98890246 3.99101628 23.840973 4.69649999 24.23828125 7.953125 C24.42000478 13.57699 23.82734712 16.6125533 20 21 C15.68176039 25.20544977 11.37321587 29.18884732 6 32 C-1.70803898 30.54172235 -8.50160742 23.03936444 -13 17 C-14.73631636 13.52736727 -14.60190402 9.78806987 -14 6 C-9.66785193 0.52781297 -6.83054398 -0.3415272 0 0 Z " fill="#D1D5DB" transform="translate(19,8)"/>
<path d="M0 0 C1.5778125 0.556875 1.5778125 0.556875 3.1875 1.125 C5.91364011 2.31531145 5.91364011 2.31531145 8.0625 1.0625 C8.701875 0.711875 9.34125 0.36125 10 0 C12.75 0.375 12.75 0.375 15 1 C15 4.90313457 14.87611052 7.00013396 12.2578125 9.98828125 C7.02956703 14.61326763 3.40252858 16.28009855 -3.5703125 16.234375 C-7.39893743 15.86505427 -10.48648857 14.53316862 -14 13 C-14.3125 9.8125 -14.3125 9.8125 -14 6 C-9.53923191 0.60012283 -6.89502482 -0.34475124 0 0 Z " fill="#D1D5DB" transform="translate(19,8)"/>
<path d="M0 0 C0 3.90313457 -0.12388948 6.00013396 -2.7421875 8.98828125 C-7.97043297 13.61326763 -11.59747142 15.28009855 -18.5703125 15.234375 C-22.39893743 14.86505427 -25.48648857 13.53316862 -29 12 C-29 9.69 -29 7.38 -29 5 C-28.01 5.495 -28.01 5.495 -27 6 C-27 7.65 -27 9.3 -27 11 C-24.74928094 10.9127395 -22.49936612 10.80455885 -20.25 10.6875 C-18.99703125 10.62949219 -17.7440625 10.57148438 -16.453125 10.51171875 C-12.95327277 9.99307549 -11.40713058 9.55155841 -9 7 C-8.66602213 3.87413125 -8.66602213 3.87413125 -9 1 C-5.64919071 -1.10976881 -3.77897651 -1.0497157 0 0 Z " fill="#D1D5DB" transform="translate(34,9)"/>
<path d="M0 0 C-1.49205115 3.75096658 -3.56856781 5.53080912 -6.8125 7.875 C-7.66457031 8.51179688 -8.51664063 9.14859375 -9.39453125 9.8046875 C-12 11 -12 11 -14.5859375 10.34765625 C-16.73003025 9.15071127 -18.80062897 7.96949477 -20.8125 6.5625 C-21.41707031 6.15128906 -22.02164062 5.74007812 -22.64453125 5.31640625 C-23.09183594 4.88199219 -23.53914063 4.44757812 -24 4 C-24 3.01 -24 2.02 -24 1 C-13.53313489 0.82683495 -13.53313489 0.82683495 -8.5 1.625 C-4.44053765 2.0599424 -3.66591417 0 0 0 Z " fill="#D1D5DB" transform="translate(37,29)"/>
<path d="M0 0 C2.45873768 0.14058476 4.91685175 0.28722999 7.375 0.4375 C8.07367188 0.47681641 8.77234375 0.51613281 9.4921875 0.55664062 C14.7734375 0.88671875 14.7734375 0.88671875 17 2 C18.66194453 2.35613097 20.328451 2.69208308 22 3 C21.01 4.485 21.01 4.485 20 6 C18.046875 6.328125 18.046875 6.328125 15.75 6.25 C14.95207031 6.22421875 14.15414063 6.1984375 13.33203125 6.171875 C10.51194302 5.9640293 7.7696739 5.56813824 5 5 C4.67 5.66 4.34 6.32 4 7 C2 5.1875 2 5.1875 0 3 C0 2.01 0 1.02 0 0 Z " fill="#D1D5DB" transform="translate(8,25)"/>
<path d="M0 0 C0.66 0.33 1.32 0.66 2 1 C-4.170826 7.60134874 -4.170826 7.60134874 -9 9 C-12.26171875 9.01171875 -12.26171875 9.01171875 -15.6875 8.6875 C-16.82574219 8.58824219 -17.96398437 8.48898438 -19.13671875 8.38671875 C-22 8 -22 8 -24 7 C-24.33 7.66 -24.66 8.32 -25 9 C-25.66 7.02 -26.32 5.04 -27 3 C-25.2984375 3.495 -25.2984375 3.495 -23.5625 4 C-16.46650835 5.75519228 -9.88975055 5.61810521 -3 3 C-1.09829946 1.52238341 -1.09829946 1.52238341 0 0 Z " fill="#D1D5DB" transform="translate(32,18)"/>
<path d="M0 0 C1 3.0625 1 3.0625 1 7 C-1.12076993 10.23105536 -3.57502964 12.2349846 -7 14 C-10.75001958 14.54974109 -14.2429876 14.43509519 -18 14 C-18 13.34 -18 12.68 -18 12 C-17.39671875 11.96261719 -16.7934375 11.92523438 -16.171875 11.88671875 C-12.6377435 11.59600793 -9.67523898 11.31291563 -6.4375 9.8125 C-4.38191918 7.22068071 -4.71495177 5.20679254 -5 2 C-1.125 0 -1.125 0 0 0 Z " fill="#D1D5DB" transform="translate(30,8)"/>
<path d="M0 0 C1 1 1 1 1.0625 3.5625 C1.041875 4.366875 1.02125 5.17125 1 6 C0.34 6 -0.32 6 -1 6 C-1 6.66 -1 7.32 -1 8 C-2.98 8 -4.96 8 -7 8 C-7.6875 5.6875 -7.6875 5.6875 -8 3 C-5.92409036 -0.34452109 -3.73927021 -0.39360739 0 0 Z " fill="#D1D5DB" transform="translate(19,11)"/>
<path d="M0 0 C-2.74997221 1.4731994 -4.89619499 2.22404875 -8 3 C-8 5.97 -8 8.94 -8 12 C-9.32 12 -10.64 12 -12 12 C-12.33 9.36 -12.66 6.72 -13 4 C-8.48649253 0.47726246 -5.71658336 -0.45732667 0 0 Z " fill="#D1D5DB" transform="translate(19,8)"/>
<path d="M0 0 C4.95 0.33 9.9 0.66 15 1 C15 1.66 15 2.32 15 3 C11.04 3 7.08 3 3 3 C2.67 3.66 2.34 4.32 2 5 C1.34 4.34 0.68 3.68 0 3 C0 2.01 0 1.02 0 0 Z " fill="#D1D5DB" transform="translate(8,25)"/>
<path d="M0 0 C1.77049689 -0.05410687 3.54146849 -0.09284119 5.3125 -0.125 C6.29863281 -0.14820312 7.28476562 -0.17140625 8.30078125 -0.1953125 C11 0 11 0 14 2 C10.7 2.33 7.4 2.66 4 3 C4 3.66 4 4.32 4 5 C2.68 4.34 1.36 3.68 0 3 C0 2.01 0 1.02 0 0 Z " fill="#D1D5DB" transform="translate(13,30)"/>
<path d="M0 0 C1.65 0 3.3 0 5 0 C4.67 1.65 4.34 3.3 4 5 C2.35 5 0.7 5 -1 5 C-0.67 3.35 -0.34 1.7 0 0 Z " fill="#D1D5DB" transform="translate(14,13)"/>
<path d="M0 0 C0.66 0 1.32 0 2 0 C2.3125 2.25 2.3125 2.25 2 5 C-0.56974999 7.71659284 -2.05344589 8.91586186 -5.8125 9.25 C-6.534375 9.1675 -7.25625 9.085 -8 9 C-6 7 -6 7 -3.4375 5.625 C-0.84640177 4.24196558 -0.84640177 4.24196558 -0.1875 1.8125 C-0.125625 1.214375 -0.06375 0.61625 0 0 Z " fill="#D1D5DB" transform="translate(24,11)"/>
</svg>
