<?xml version="1.0" encoding="UTF-8"?>
<svg version="1.1" xmlns="http://www.w3.org/2000/svg" width="512" height="512">
<path d="M0 0 C0.70721191 0.03577148 1.41442383 0.07154297 2.14306641 0.10839844 C40.82395014 2.28603603 77.9510824 16.8989727 106.48461914 43.29199219 C110.09852533 46.58645093 110.09852533 46.58645093 115 47 C117.19625057 45.36339233 117.19625057 45.36339233 119.375 43.125 C148.06075876 16.32922534 187.04835788 1.63148239 226 0 C227.38445312 -0.061875 227.38445312 -0.061875 228.796875 -0.125 C265.30980851 -0.93191566 298.10620929 12.08064109 324.49755859 37.11425781 C347.55437841 59.5269027 361.64687237 89.44908683 367 121 C367.17515137 121.98371582 367.35030273 122.96743164 367.53076172 123.98095703 C369.15146128 133.96105431 369.39917645 143.78267621 369.375 153.875 C369.37418427 155.16008453 369.37418427 155.16008453 369.37335205 156.47113037 C369.33214312 170.63414601 368.36364475 184.19216149 365 198 C364.78569336 198.89235352 364.57138672 199.78470703 364.35058594 200.70410156 C355.24629383 237.47908062 336.40912207 271.2197839 312 300 C311.14304228 301.02581762 310.28636265 302.0518676 309.42993164 303.078125 C302.55218165 311.26571929 295.32279194 318.99166145 287.73608398 326.5246582 C285.92778392 328.32215805 284.13054023 330.13022316 282.33398438 331.93945312 C275.52581695 338.75535195 268.54778236 345.00500239 261 351 C259.83573535 351.99460025 258.67828426 352.99729565 257.53125 354.01171875 C248.14298847 362.31192667 238.18593101 369.71127684 228 377 C227.17661133 377.59103516 226.35322266 378.18207031 225.50488281 378.79101562 C195.94462649 399.94677201 164.49717511 417.86768284 132.30648804 434.68118286 C130.53958806 435.60431683 128.7742913 436.53051733 127.0090332 437.45678711 C125.38034302 438.30188843 125.38034302 438.30188843 123.71875 439.1640625 C122.75904297 439.66373535 121.79933594 440.1634082 120.81054688 440.67822266 C113.08744342 444.31033542 113.08744342 444.31033542 109.28125 443.22412109 C108.3634375 442.74539551 107.445625 442.26666992 106.5 441.7734375 C105.45980713 441.24258545 104.41961426 440.7117334 103.34790039 440.16479492 C102.24309326 439.5741626 101.13828613 438.98353027 100 438.375 C98.84298584 437.77469971 97.68597168 437.17439941 96.49389648 436.5559082 C92.9816386 434.73025065 89.4908485 432.86625937 86 431 C85.03336426 430.49033691 84.06672852 429.98067383 83.07080078 429.45556641 C41.61053102 407.59172324 1.12575531 382.32134529 -34.27294922 351.45605469 C-35.58145238 350.35287221 -36.91611993 349.28062933 -38.26220703 348.22363281 C-46.24955585 341.90557016 -53.40817168 334.89735187 -60.58007812 327.68066406 C-62.62150377 325.62851459 -64.67341139 323.58728579 -66.7265625 321.546875 C-73.94304896 314.33802994 -80.73200908 307.0593329 -87 299 C-87.95183679 297.82991932 -88.90590966 296.66165014 -89.86328125 295.49609375 C-100.53934543 282.16378394 -109.93081374 268.00114376 -117.97070312 252.92822266 C-118.64439793 251.66616346 -119.32513602 250.40783271 -120.01367188 249.15380859 C-130.41259663 230.16512875 -137.21701245 209.28025263 -141 188 C-141.18401367 186.97938477 -141.36802734 185.95876953 -141.55761719 184.90722656 C-143.17252978 174.96731001 -143.39906135 165.16818405 -143.375 155.125 C-143.37445618 154.26860931 -143.37391235 153.41221863 -143.37335205 152.52987671 C-143.33215402 138.37703483 -142.40937814 124.79059727 -139 111 C-138.78569336 110.12939941 -138.57138672 109.25879883 -138.35058594 108.36181641 C-128.70682912 70.65009488 -106.15881632 36.88592285 -72.390625 16.828125 C-50.72650853 4.43263251 -24.90379112 -1.35570934 0 0 Z M-67 64 C-67.67289063 64.59039062 -68.34578125 65.18078125 -69.0390625 65.7890625 C-84.54583272 80.30735334 -93.84832007 100.67690629 -99 121 C-99.31839844 122.19238281 -99.63679688 123.38476562 -99.96484375 124.61328125 C-109.30490163 166.75114607 -96.48460018 211.22806496 -74 247 C-69.06795955 254.66935436 -63.740319 261.91741735 -58 269 C-57.27425781 269.9178125 -56.54851562 270.835625 -55.80078125 271.78125 C-47.27530283 282.43427151 -37.86689222 292.21401286 -28.25 301.875 C-27.55326172 302.57641113 -26.85652344 303.27782227 -26.13867188 304.00048828 C-21.58840773 308.53673503 -16.87943764 312.82164569 -12 317 C-10.9790426 317.88918048 -9.95819957 318.77849232 -8.9375 319.66796875 C23.1013501 347.14809949 59.43353668 369.13089086 96.27490234 389.47900391 C98.63446291 390.79597778 100.97188923 392.14154923 103.30078125 393.51171875 C105.00814453 394.49591797 105.00814453 394.49591797 106.75 395.5 C107.67296875 396.0465625 108.5959375 396.593125 109.546875 397.15625 C113.36830382 398.47062679 115.92232969 396.51646025 119.43408203 394.83349609 C142.37299254 383.15732518 164.62158142 370.35734161 186 356 C186.65967773 355.55881836 187.31935547 355.11763672 187.99902344 354.66308594 C221.39087102 332.25688237 255.1795081 305.92490806 280 274 C280.92370205 272.88521047 281.85102688 271.77341642 282.78125 270.6640625 C309.93606682 238.03223469 328.21515493 197.97793913 328.25 155.125 C328.25067474 154.38323517 328.25134949 153.64147034 328.25204468 152.87722778 C328.23623969 141.9583443 327.83203721 131.60580737 325 121 C324.83902832 120.36497559 324.67805664 119.72995117 324.51220703 119.07568359 C317.38593931 91.45369486 301.36558574 66.73200774 276.640625 51.92578125 C267.90650008 47.11432575 257.8573045 43.4882597 248 42 C247.30132812 41.89042969 246.60265625 41.78085938 245.8828125 41.66796875 C228.53548788 39.35293433 210.58444962 41.71676816 194 47 C193.36384766 47.20077148 192.72769531 47.40154297 192.07226562 47.60839844 C175.55490307 52.9416165 161.31336078 61.99647094 148 73 C147.18015625 73.66644531 146.3603125 74.33289063 145.515625 75.01953125 C135.43163553 83.55614992 128.24978801 94.30226871 121.12060547 105.28759766 C119.11843647 108.34712126 117.03645868 111.3532022 114.9609375 114.36328125 C113.8312332 115.97112586 113.8312332 115.97112586 114 118 C113.34 118 112.68 118 112 118 C111.76539063 117.32195312 111.53078125 116.64390625 111.2890625 115.9453125 C109.69963673 112.31371543 107.59643171 109.1393574 105.375 105.875 C104.92987061 105.21556396 104.48474121 104.55612793 104.02612305 103.87670898 C96.04449531 92.11183249 88.07366275 81.03670137 77 72 C76.06414062 71.2265625 75.12828125 70.453125 74.1640625 69.65625 C34.42035711 37.50876103 -26.66489093 28.19374528 -67 64 Z " fill="#18D0C3" transform="translate(143,34)"/>
<path d="M0 0 C0.59393555 0.30534668 1.18787109 0.61069336 1.79980469 0.92529297 C16.33454955 8.47035283 28.29077117 18.03870621 40.02758789 29.4050293 C40.61918701 29.97390869 41.21078613 30.54278809 41.8203125 31.12890625 C42.33867676 31.63494385 42.85704102 32.14098145 43.39111328 32.66235352 C45.15225046 34.12658274 46.92153943 35.05317078 49 36 C49.66644531 35.31035156 50.33289063 34.62070313 51.01953125 33.91015625 C57.34708768 27.45870361 63.8586442 21.5599135 71 16 C72.41925781 14.87271484 72.41925781 14.87271484 73.8671875 13.72265625 C96.01463653 -3.46070938 120.11534353 -12.16528698 148.35986328 -8.71142578 C166.8978491 -5.47173555 182.49855413 6.21368439 193.421875 21.1328125 C206.83843948 40.55991813 211.27480017 64.15346264 207.375 87.375 C202.84140265 106.48087455 191.1800166 125.79400537 174.6875 136.6875 C161.98175274 144.38104903 149.66531975 148.58403405 134.75 148.4375 C133.65244385 148.42920166 132.5548877 148.42090332 131.42407227 148.41235352 C122.69305566 148.2314365 115.21311442 147.12616292 107 144 C106.35804688 143.75862305 105.71609375 143.51724609 105.0546875 143.26855469 C83.02383059 134.81559559 65.32922233 119.7397335 49 103 C44.85665975 104.60419112 42.28851146 107.6561521 39.3125 110.8125 C19.68470208 130.91318908 -6.46253587 147.66559892 -35.2487793 148.34350586 C-55.39227044 148.54643521 -72.72873262 143.5698664 -87.74951172 129.39770508 C-103.7982352 113.53397356 -112.17964571 93.61330457 -112.3125 71.1875 C-112.3125 50.34265099 -106.46371035 30.5327672 -92 15 C-91.195625 14.13375 -90.39125 13.2675 -89.5625 12.375 C-88.716875 11.59125 -87.87125 10.8075 -87 10 C-86.42507812 9.40832031 -85.85015625 8.81664062 -85.2578125 8.20703125 C-62.56213761 -13.93195727 -26.89987683 -14.02380245 0 0 Z M-62 43 C-70.05617905 54.00889626 -72.18259046 64.5928789 -71 78 C-68.80656978 88.02533923 -63.54210698 97.00672563 -54.9765625 102.78125 C-46.40458297 108.06673935 -37.68442603 108.36284414 -27.78125 106.34375 C-8.2671171 100.38680417 7.0829548 85.26691505 21 71 C13.13545021 53.53519309 -9.81448976 39.78881026 -27 33 C-40.25359796 28.6422995 -52.95272897 32.99837549 -62 43 Z M116 36 C115.11957031 36.4125 114.23914063 36.825 113.33203125 37.25 C98.15136268 44.96081578 86.68809776 56.90101724 75 69 C76.8913295 73.10421254 79.63051643 75.97546201 82.8125 79.125 C83.3907251 79.69758545 83.9689502 80.2701709 84.56469727 80.86010742 C98.25020525 94.17117783 114.72933882 106.62509282 134.375 107.5625 C143.80544309 107.3434089 151.37695713 104.15521676 157.9375 97.3125 C166.24078465 86.77605811 168.17317629 75.01042911 167 62 C164.63317173 50.99086735 158.18141974 41.46554176 149 35 C139.01675533 28.90153967 125.99577963 31.26126003 116 36 Z " fill="#16CDC5" transform="translate(208,165)"/>
</svg>
