<?xml version="1.0" encoding="UTF-8"?>
<!DOCTYPE svg PUBLIC "-//W3C//DTD SVG 1.1//EN" "http://www.w3.org/Graphics/SVG/1.1/DTD/svg11.dtd">
<svg xmlns="http://www.w3.org/2000/svg" version="1.1" width="1000px" height="1000px" style="shape-rendering:geometricPrecision; text-rendering:geometricPrecision; image-rendering:optimizeQuality; fill-rule:evenodd; clip-rule:evenodd" xmlns:xlink="http://www.w3.org/1999/xlink">
<g><path style="opacity:1" fill="#afaeae" d="M -0.5,-0.5 C 332.833,-0.5 666.167,-0.5 999.5,-0.5C 999.5,332.833 999.5,666.167 999.5,999.5C 962.5,999.5 925.5,999.5 888.5,999.5C 863.499,958.166 829.499,926.499 786.5,904.5C 785.5,878.509 785.167,852.509 785.5,826.5C 785.167,748.83 785.5,671.164 786.5,593.5C 818.344,598.995 841.511,587.328 856,558.5C 866.691,526.74 858.191,501.573 830.5,483C 817.251,476.131 803.251,473.964 788.5,476.5C 788.5,467.167 788.5,457.833 788.5,448.5C 788.5,435.167 788.5,421.833 788.5,408.5C 788.83,389.659 788.497,370.993 787.5,352.5C 787.667,326.165 787.5,299.831 787,273.5C 779.818,238.318 758.652,217.152 723.5,210C 708.625,207.981 694.459,210.148 681,216.5C 661.087,181.466 631.254,167.966 591.5,176C 580.113,179.575 570.113,185.408 561.5,193.5C 541.716,167.734 515.716,157.567 483.5,163C 464.762,167.699 449.762,177.865 438.5,193.5C 415.485,173.85 389.485,168.683 360.5,178C 342.009,185.492 328.343,198.158 319.5,216C 312.063,213.556 304.397,211.556 296.5,210C 258.582,207.204 231.749,223.037 216,257.5C 214.198,262.375 212.865,267.375 212,272.5C 211.5,307.832 211.333,343.165 211.5,378.5C 211.5,383.5 211.5,388.5 211.5,393.5C 211.5,398.5 211.5,403.5 211.5,408.5C 211.5,412.5 211.5,416.5 211.5,420.5C 211.5,425.167 211.5,429.833 211.5,434.5C 211.5,439.5 211.5,444.5 211.5,449.5C 211.5,457.833 211.5,466.167 211.5,474.5C 211.719,475.675 211.386,476.675 210.5,477.5C 178.475,471.263 154.975,482.596 140,511.5C 130.427,540.384 137.261,564.55 160.5,584C 176.834,594.666 194.501,597.5 213.5,592.5C 213.5,670.5 213.5,748.5 213.5,826.5C 213.833,852.175 213.5,877.842 212.5,903.5C 168.607,925.274 134.274,957.274 109.5,999.5C 72.8333,999.5 36.1667,999.5 -0.5,999.5C -0.5,666.167 -0.5,332.833 -0.5,-0.5 Z"/></g>
<g><path style="opacity:1" fill="#3d3d3d" d="M 787.5,352.5 C 787.5,361.167 787.5,369.833 787.5,378.5C 767.5,378.5 747.5,378.5 727.5,378.5C 712.492,345.645 687.492,324.479 652.5,315C 600.191,313.851 547.857,313.351 495.5,313.5C 445.833,313.667 396.167,313.833 346.5,314C 309.946,322.395 284.613,343.895 270.5,378.5C 250.833,378.5 231.167,378.5 211.5,378.5C 211.333,343.165 211.5,307.832 212,272.5C 212.865,267.375 214.198,262.375 216,257.5C 231.749,223.037 258.582,207.204 296.5,210C 304.397,211.556 312.063,213.556 319.5,216C 328.343,198.158 342.009,185.492 360.5,178C 389.485,168.683 415.485,173.85 438.5,193.5C 449.762,177.865 464.762,167.699 483.5,163C 515.716,157.567 541.716,167.734 561.5,193.5C 570.113,185.408 580.113,179.575 591.5,176C 631.254,167.966 661.087,181.466 681,216.5C 694.459,210.148 708.625,207.981 723.5,210C 758.652,217.152 779.818,238.318 787,273.5C 787.5,299.831 787.667,326.165 787.5,352.5 Z"/></g>
<g><path style="opacity:1" fill="#fecaa2" d="M 727.5,378.5 C 729.24,383.387 730.573,388.387 731.5,393.5C 732.486,397.443 733.152,401.443 733.5,405.5C 733.5,409.167 733.5,412.833 733.5,416.5C 733.5,421.167 733.5,425.833 733.5,430.5C 733.5,435.833 733.5,441.167 733.5,446.5C 733.5,451.167 733.5,455.833 733.5,460.5C 733.5,461.5 733.5,462.5 733.5,463.5C 674.998,463.168 616.664,463.501 558.5,464.5C 533.712,468.781 517.879,483.115 511,507.5C 510.501,511.152 510.335,514.818 510.5,518.5C 503.167,518.5 495.833,518.5 488.5,518.5C 486.269,488.268 470.269,470.268 440.5,464.5C 382.336,463.501 324.002,463.168 265.5,463.5C 265.5,458.833 265.5,454.167 265.5,449.5C 265.5,444.5 265.5,439.5 265.5,434.5C 265.5,430.167 265.5,425.833 265.5,421.5C 265.5,416.167 265.5,410.833 265.5,405.5C 265.646,401.481 265.979,397.481 266.5,393.5C 267.833,388.5 269.167,383.5 270.5,378.5C 284.613,343.895 309.946,322.395 346.5,314C 396.167,313.833 445.833,313.667 495.5,313.5C 547.857,313.351 600.191,313.851 652.5,315C 687.492,324.479 712.492,345.645 727.5,378.5 Z"/></g>
<g><path style="opacity:1" fill="#544d49" d="M 211.5,378.5 C 231.167,378.5 250.833,378.5 270.5,378.5C 269.167,383.5 267.833,388.5 266.5,393.5C 248.167,393.5 229.833,393.5 211.5,393.5C 211.5,388.5 211.5,383.5 211.5,378.5 Z"/></g>
<g><path style="opacity:1" fill="#544d49" d="M 727.5,378.5 C 747.5,378.5 767.5,378.5 787.5,378.5C 787.5,383.5 787.5,388.5 787.5,393.5C 768.833,393.5 750.167,393.5 731.5,393.5C 730.573,388.387 729.24,383.387 727.5,378.5 Z"/></g>
<g><path style="opacity:1" fill="#6a5e54" d="M 731.5,393.5 C 750.167,393.5 768.833,393.5 787.5,393.5C 787.5,397.5 787.5,401.5 787.5,405.5C 769.5,405.5 751.5,405.5 733.5,405.5C 733.152,401.443 732.486,397.443 731.5,393.5 Z"/></g>
<g><path style="opacity:1" fill="#6d6056" d="M 211.5,393.5 C 229.833,393.5 248.167,393.5 266.5,393.5C 265.979,397.481 265.646,401.481 265.5,405.5C 264.596,406.209 264.263,407.209 264.5,408.5C 246.833,408.5 229.167,408.5 211.5,408.5C 211.5,403.5 211.5,398.5 211.5,393.5 Z"/></g>
<g><path style="opacity:1" fill="#7b6b5e" d="M 787.5,352.5 C 788.497,370.993 788.83,389.659 788.5,408.5C 787.532,410.607 787.198,412.941 787.5,415.5C 769.5,415.833 751.5,416.167 733.5,416.5C 733.5,412.833 733.5,409.167 733.5,405.5C 751.5,405.5 769.5,405.5 787.5,405.5C 787.5,401.5 787.5,397.5 787.5,393.5C 787.5,388.5 787.5,383.5 787.5,378.5C 787.5,369.833 787.5,361.167 787.5,352.5 Z"/></g>
<g><path style="opacity:1" fill="#837062" d="M 265.5,405.5 C 265.5,410.833 265.5,416.167 265.5,421.5C 247.389,420.8 229.389,420.467 211.5,420.5C 211.5,416.5 211.5,412.5 211.5,408.5C 229.167,408.5 246.833,408.5 264.5,408.5C 264.263,407.209 264.596,406.209 265.5,405.5 Z"/></g>
<g><path style="opacity:1" fill="#927b6a" d="M 787.5,415.5 C 787.5,420.833 787.5,426.167 787.5,431.5C 769.5,431.167 751.5,430.833 733.5,430.5C 733.5,425.833 733.5,421.167 733.5,416.5C 751.5,416.167 769.5,415.833 787.5,415.5 Z"/></g>
<g><path style="opacity:1" fill="#99806d" d="M 211.5,420.5 C 229.389,420.467 247.389,420.8 265.5,421.5C 265.5,425.833 265.5,430.167 265.5,434.5C 247.5,434.5 229.5,434.5 211.5,434.5C 211.5,429.833 211.5,425.167 211.5,420.5 Z"/></g>
<g><path style="opacity:1" fill="#ac8e77" d="M 733.5,430.5 C 751.5,430.833 769.5,431.167 787.5,431.5C 787.942,436.691 787.442,441.691 786,446.5C 767.825,445.727 750.325,445.727 733.5,446.5C 733.5,441.167 733.5,435.833 733.5,430.5 Z"/></g>
<g><path style="opacity:1" fill="#b2927a" d="M 211.5,434.5 C 229.5,434.5 247.5,434.5 265.5,434.5C 265.5,439.5 265.5,444.5 265.5,449.5C 247.5,449.5 229.5,449.5 211.5,449.5C 211.5,444.5 211.5,439.5 211.5,434.5 Z"/></g>
<g><path style="opacity:1" fill="#c5a084" d="M 788.5,408.5 C 788.5,421.833 788.5,435.167 788.5,448.5C 787.517,452.298 787.183,456.298 787.5,460.5C 769.5,460.5 751.5,460.5 733.5,460.5C 733.5,455.833 733.5,451.167 733.5,446.5C 750.325,445.727 767.825,445.727 786,446.5C 787.442,441.691 787.942,436.691 787.5,431.5C 787.5,426.167 787.5,420.833 787.5,415.5C 787.198,412.941 787.532,410.607 788.5,408.5 Z"/></g>
<g><path style="opacity:1" fill="#c5a38d" d="M 211.5,449.5 C 229.5,449.5 247.5,449.5 265.5,449.5C 265.5,454.167 265.5,458.833 265.5,463.5C 324.002,463.168 382.336,463.501 440.5,464.5C 374.832,464.333 309.166,464.5 243.5,465C 237.487,467.199 232.487,470.699 228.5,475.5C 228.217,474.711 227.717,474.044 227,473.5C 221.875,473.601 216.708,473.935 211.5,474.5C 211.5,466.167 211.5,457.833 211.5,449.5 Z"/></g>
<g><path style="opacity:1" fill="#c9a894" d="M 788.5,448.5 C 788.5,457.833 788.5,467.167 788.5,476.5C 787.968,478.63 787.135,480.63 786,482.5C 782.465,481.789 778.798,481.456 775,481.5C 774.51,482.793 774.343,484.127 774.5,485.5C 771.547,475.708 765.214,468.874 755.5,465C 689.834,464.5 624.168,464.333 558.5,464.5C 616.664,463.501 674.998,463.168 733.5,463.5C 733.5,462.5 733.5,461.5 733.5,460.5C 751.5,460.5 769.5,460.5 787.5,460.5C 787.183,456.298 787.517,452.298 788.5,448.5 Z"/></g>
<g><path style="opacity:1" fill="#1854a3" d="M 440.5,464.5 C 470.269,470.268 486.269,488.268 488.5,518.5C 495.833,518.5 503.167,518.5 510.5,518.5C 510.335,514.818 510.501,511.152 511,507.5C 517.879,483.115 533.712,468.781 558.5,464.5C 624.168,464.333 689.834,464.5 755.5,465C 765.214,468.874 771.547,475.708 774.5,485.5C 776.646,502.5 769.646,513.667 753.5,519C 747.843,519.499 742.176,519.666 736.5,519.5C 735.085,529.819 733.752,540.152 732.5,550.5C 731.833,556.167 731.167,561.833 730.5,567.5C 724.068,591.765 708.735,607.265 684.5,614C 647.863,615.621 611.196,615.954 574.5,615C 540.742,610.575 521.575,591.408 517,557.5C 509.986,551.37 501.82,549.204 492.5,551C 488.637,552.181 485.137,554.014 482,556.5C 478.156,590.008 459.656,609.508 426.5,615C 390.5,615.667 354.5,615.667 318.5,615C 289.837,609.172 272.837,592.005 267.5,563.5C 266.942,557.82 266.275,552.153 265.5,546.5C 264.56,537.498 263.56,528.498 262.5,519.5C 244.96,522.73 232.46,516.397 225,500.5C 222.34,491.598 223.507,483.265 228.5,475.5C 232.487,470.699 237.487,467.199 243.5,465C 309.166,464.5 374.832,464.333 440.5,464.5 Z"/></g>
<g><path style="opacity:1" fill="#fecaa2" d="M 228.5,475.5 C 223.507,483.265 222.34,491.598 225,500.5C 232.46,516.397 244.96,522.73 262.5,519.5C 263.56,528.498 264.56,537.498 265.5,546.5C 259.075,547.964 253.241,550.631 248,554.5C 244.582,562.075 246.915,566.741 255,568.5C 259.526,567.479 263.692,565.812 267.5,563.5C 272.837,592.005 289.837,609.172 318.5,615C 354.5,615.667 390.5,615.667 426.5,615C 459.656,609.508 478.156,590.008 482,556.5C 485.137,554.014 488.637,552.181 492.5,551C 501.82,549.204 509.986,551.37 517,557.5C 521.575,591.408 540.742,610.575 574.5,615C 611.196,615.954 647.863,615.621 684.5,614C 708.735,607.265 724.068,591.765 730.5,567.5C 732.636,568.403 734.636,569.569 736.5,571C 746.147,571.189 749.647,566.689 747,557.5C 743.218,553.72 738.884,550.72 734,548.5C 733.722,549.416 733.222,550.082 732.5,550.5C 733.752,540.152 735.085,529.819 736.5,519.5C 742.176,519.666 747.843,519.499 753.5,519C 769.646,513.667 776.646,502.5 774.5,485.5C 774.343,484.127 774.51,482.793 775,481.5C 778.798,481.456 782.465,481.789 786,482.5C 787.135,480.63 787.968,478.63 788.5,476.5C 803.251,473.964 817.251,476.131 830.5,483C 858.191,501.573 866.691,526.74 856,558.5C 841.511,587.328 818.344,598.995 786.5,593.5C 785.5,671.164 785.167,748.83 785.5,826.5C 594.833,826.5 404.167,826.5 213.5,826.5C 213.5,748.5 213.5,670.5 213.5,592.5C 194.501,597.5 176.834,594.666 160.5,584C 137.261,564.55 130.427,540.384 140,511.5C 154.975,482.596 178.475,471.263 210.5,477.5C 211.386,476.675 211.719,475.675 211.5,474.5C 216.708,473.935 221.875,473.601 227,473.5C 227.717,474.044 228.217,474.711 228.5,475.5 Z"/></g>
<g><path style="opacity:1" fill="#86a6cf" d="M 246.5,481.5 C 255.465,479.651 260.798,483.151 262.5,492C 261.013,499.746 256.346,503.08 248.5,502C 241.868,498.903 239.701,493.736 242,486.5C 243.707,484.963 245.207,483.296 246.5,481.5 Z"/></g>
<g><path style="opacity:1" fill="#87a7cf" d="M 742.5,481.5 C 753.49,479.992 758.324,484.658 757,495.5C 752.128,503.341 746.128,504.341 739,498.5C 735.021,491.694 736.188,486.027 742.5,481.5 Z"/></g>
<g><path style="opacity:1" fill="#fcfdfe" d="M 395.5,482.5 C 395.217,499.957 386.551,510.791 369.5,515C 365.848,515.499 362.182,515.665 358.5,515.5C 358.156,526.216 358.656,536.882 360,547.5C 370.329,574.246 389.163,583.08 416.5,574C 429.805,567.257 437.639,556.424 440,541.5C 440.667,526.5 440.667,511.5 440,496.5C 439.397,491.856 437.897,487.523 435.5,483.5C 436.689,482.571 438.022,482.238 439.5,482.5C 463.184,488.855 473.018,504.188 469,528.5C 466.481,540.796 464.148,553.129 462,565.5C 457.158,581.009 446.991,591.175 431.5,596C 412.036,597.129 392.536,597.629 373,597.5C 355.5,597.333 338,597.167 320.5,597C 302.51,593.009 291.01,582.176 286,564.5C 283.255,544.876 281.255,525.21 280,505.5C 284.041,492.791 292.541,484.958 305.5,482C 335.669,481.169 365.669,481.336 395.5,482.5 Z"/></g>
<g><path style="opacity:1" fill="#057fcf" d="M 439.5,482.5 C 438.022,482.238 436.689,482.571 435.5,483.5C 437.897,487.523 439.397,491.856 440,496.5C 440.667,511.5 440.667,526.5 440,541.5C 437.639,556.424 429.805,567.257 416.5,574C 389.163,583.08 370.329,574.246 360,547.5C 358.656,536.882 358.156,526.216 358.5,515.5C 362.182,515.665 365.848,515.499 369.5,515C 386.551,510.791 395.217,499.957 395.5,482.5C 410.368,482.404 425.035,482.404 439.5,482.5 Z"/></g>
<g><path style="opacity:1" fill="#fdfefe" d="M 595.5,482.5 C 593.757,505.235 581.423,515.902 558.5,514.5C 558.334,524.172 558.5,533.839 559,543.5C 565.237,566.709 580.404,577.876 604.5,577C 624.333,573.167 636.167,561.333 640,541.5C 640.667,526.167 640.667,510.833 640,495.5C 639.089,491.099 637.589,486.932 635.5,483C 654.83,482.5 674.164,482.333 693.5,482.5C 714.375,488.212 722.541,501.878 718,523.5C 716.225,536.484 714.558,549.484 713,562.5C 709.271,580.562 698.438,591.729 680.5,596C 661.541,597.135 642.541,597.635 623.5,597.5C 606.167,597.333 588.833,597.167 571.5,597C 552.45,592.95 540.617,581.45 536,562.5C 533.406,547.34 530.906,532.174 528.5,517C 529.692,499.473 538.692,488.14 555.5,483C 568.829,482.5 582.163,482.333 595.5,482.5 Z"/></g>
<g><path style="opacity:1" fill="#0c80cf" d="M 693.5,482.5 C 674.164,482.333 654.83,482.5 635.5,483C 637.589,486.932 639.089,491.099 640,495.5C 640.667,510.833 640.667,526.167 640,541.5C 636.167,561.333 624.333,573.167 604.5,577C 580.404,577.876 565.237,566.709 559,543.5C 558.5,533.839 558.334,524.172 558.5,514.5C 581.423,515.902 593.757,505.235 595.5,482.5C 628.333,481.602 661,481.602 693.5,482.5 Z"/></g>
<g><path style="opacity:1" fill="#f7b991" d="M 265.5,546.5 C 266.275,552.153 266.942,557.82 267.5,563.5C 263.692,565.812 259.526,567.479 255,568.5C 246.915,566.741 244.582,562.075 248,554.5C 253.241,550.631 259.075,547.964 265.5,546.5 Z"/></g>
<g><path style="opacity:1" fill="#f7b991" d="M 730.5,567.5 C 731.167,561.833 731.833,556.167 732.5,550.5C 733.222,550.082 733.722,549.416 734,548.5C 738.884,550.72 743.218,553.72 747,557.5C 749.647,566.689 746.147,571.189 736.5,571C 734.636,569.569 732.636,568.403 730.5,567.5 Z"/></g>
<g><path style="opacity:1" fill="#efa076" d="M 498.5,572.5 C 501.755,574.926 504.588,577.926 507,581.5C 514.425,592.678 521.092,604.345 527,616.5C 532.195,634.588 526.362,647.755 509.5,656C 491.163,660.248 478.329,653.748 471,636.5C 470.241,633.374 469.741,630.207 469.5,627C 470.463,620.111 472.63,613.611 476,607.5C 482.935,595.413 490.435,583.746 498.5,572.5 Z"/></g>
<g><path style="opacity:1" fill="#f9ba91" d="M 374.5,620.5 C 383.817,619.984 387.65,624.317 386,633.5C 360.765,650.466 345.432,674.133 340,704.5C 339.502,714.526 339.502,724.526 340,734.5C 337.367,739.732 333.201,741.565 327.5,740C 325.622,738.457 324.122,736.624 323,734.5C 317.999,692.838 330.832,657.671 361.5,629C 365.898,626.143 370.232,623.309 374.5,620.5 Z"/></g>
<g><path style="opacity:1" fill="#f9ba91" d="M 566.5,632.5 C 569.32,632.248 571.986,632.748 574.5,634C 596.009,652.17 608.843,675.337 613,703.5C 615.585,722.048 614.585,740.381 610,758.5C 603.884,764.138 598.551,763.471 594,756.5C 594.501,746.487 595.334,736.487 596.5,726.5C 596.782,706.18 591.948,687.18 582,669.5C 575.379,660.544 568.379,651.877 561,643.5C 560.685,638.796 562.519,635.129 566.5,632.5 Z"/></g>
<g><path style="opacity:1" fill="#efa076" d="M 398.5,647.5 C 402.747,647.178 406.747,648.011 410.5,650C 423.213,668.861 440.88,679.861 463.5,683C 473.842,683.245 484.175,683.245 494.5,683C 500.602,687.105 502.102,692.605 499,699.5C 495.263,703.082 490.763,704.915 485.5,705C 448.505,708.575 418.338,696.075 395,667.5C 389.597,659.58 390.764,652.914 398.5,647.5 Z"/></g>
<g><path style="opacity:1" fill="#f9ba91" d="M 398.5,773.5 C 401.649,773.211 404.649,773.711 407.5,775C 412.688,784.102 420.355,790.102 430.5,793C 441.275,795.292 451.942,794.959 462.5,792C 468.038,789.102 473.538,786.269 479,783.5C 486.486,784.798 489.153,789.132 487,796.5C 485.403,799.219 483.237,801.386 480.5,803C 457.671,815.225 434.671,815.558 411.5,804C 402.678,799.026 396.678,791.86 393.5,782.5C 393.377,778.405 395.044,775.405 398.5,773.5 Z"/></g>
<g><path style="opacity:1" fill="#424242" d="M 213.5,826.5 C 404.167,826.5 594.833,826.5 785.5,826.5C 785.167,852.509 785.5,878.509 786.5,904.5C 829.499,926.499 863.499,958.166 888.5,999.5C 628.833,999.5 369.167,999.5 109.5,999.5C 134.274,957.274 168.607,925.274 212.5,903.5C 213.5,877.842 213.833,852.175 213.5,826.5 Z"/></g>
</svg>
