<svg width="50" height="50" viewBox="0 0 50 50" fill="none" xmlns="http://www.w3.org/2000/svg">
<rect x="0.359985" y="0.359985" width="48.96" height="48.96" rx="12.24" fill="#F50057"/>
<g clip-path="url(#clip0_1_156)">
<path d="M37.2713 30.2586H36.1876V29.3023H37.2713C38.0363 29.3023 38.6738 28.6648 38.6738 27.8998V21.2061C38.6738 19.9948 37.6538 18.9748 36.4426 18.9748H29.4301C28.2188 18.9748 27.1988 19.9948 27.1988 21.2061V27.8998C27.1988 28.6648 27.8363 29.3023 28.6013 29.3023H29.6851V30.2586H28.6013C27.2626 30.2586 26.2426 29.1748 26.2426 27.8998V21.2061C26.2426 19.4211 27.6451 18.0186 29.4301 18.0186H36.5063C38.2913 18.0186 39.6938 19.4211 39.6938 21.2061V27.8998C39.6938 29.2386 38.6101 30.2586 37.2713 30.2586ZM32.9363 16.9986C31.0238 16.9986 29.4301 15.4048 29.4301 13.4923C29.4301 11.5798 31.0238 9.98608 32.9363 9.98608C34.8488 9.98608 36.4426 11.5798 36.4426 13.4923C36.4426 15.4048 34.9126 16.9986 32.9363 16.9986ZM32.9363 11.0061C31.5338 11.0061 30.3863 12.1536 30.3863 13.5561C30.3863 14.9586 31.5338 16.1061 32.9363 16.1061C34.3388 16.1061 35.4863 14.9586 35.4863 13.5561C35.4863 12.1536 34.3388 11.0061 32.9363 11.0061Z" fill="#F5F5F4"/>
<path d="M34.5937 39.6935C33.9562 39.6935 33.3825 39.3748 33 38.9285C32.6175 39.3748 32.0437 39.6935 31.4062 39.6935C30.2587 39.6935 29.3025 38.7373 29.3025 37.5898V22.0348H30.2587V37.5898C30.2587 38.2273 30.7687 38.7373 31.4062 38.7373C32.0437 38.7373 32.49 38.1635 32.49 37.5898V29.8123H33.4462V37.5898C33.4462 38.2273 33.9562 38.7373 34.5937 38.7373C35.2312 38.7373 35.7412 38.2273 35.7412 37.5898V22.0348H36.6975V37.5898C36.6975 38.7373 35.7412 39.6935 34.5937 39.6935Z" fill="#F5F5F4"/>
<path d="M27.7088 33.0636H10.05V13.0461H28.0275V14.0024H11.0063V32.1074H27.7088V33.0636Z" fill="#F5F5F4"/>
<path d="M24.585 21.9712H13.62V22.9274H24.585V21.9712Z" fill="#F5F5F4"/>
<path d="M24.585 25.2224H13.62V26.1787H24.585V25.2224Z" fill="#F5F5F4"/>
<path d="M24.585 28.5374H13.62V29.4936H24.585V28.5374Z" fill="#F5F5F4"/>
</g>
<defs>
<clipPath id="clip0_1_156">
<rect width="30.6" height="30.6" fill="white" transform="translate(9.54004 9.53992)"/>
</clipPath>
</defs>
</svg>
